<?xml version="1.0" encoding="utf-8" standalone="no"?>
<!DOCTYPE svg PUBLIC "-//W3C//DTD SVG 1.1//EN"
  "http://www.w3.org/Graphics/SVG/1.1/DTD/svg11.dtd">
<!-- Created with matplotlib (http://matplotlib.org/) -->
<svg height="377pt" version="1.1" viewBox="0 0 507 377" width="507pt" xmlns="http://www.w3.org/2000/svg" xmlns:xlink="http://www.w3.org/1999/xlink">
 <defs>
  <style type="text/css">
*{stroke-linecap:butt;stroke-linejoin:round;}
  </style>
 </defs>
 <g id="figure_1">
  <g id="patch_1">
   <path d="
M0 377.474
L507.767 377.474
L507.767 -5.68434e-14
L0 -5.68434e-14
z
" style="fill:#ffffff;"/>
  </g>
  <g id="axes_1">
   <g id="patch_2">
    <path d="
M45.5044 297.798
L491.904 297.798
L491.904 21.3181
L45.5044 21.3181
z
" style="fill:#ffffff;"/>
   </g>
   <g id="line2d_1">
    <path clip-path="url(#p797f48e19d)" d="
M45.5044 282.484
L45.6385 282.484
L45.6385 283.987
L45.7594 283.987
L45.7594 284.335
L45.8773 284.335
L45.8773 284.471
L46.1105 284.489
L46.2184 285.863
L46.3229 285.863
L46.4241 286.406
L46.821 286.511
L46.9176 287.241
L47.01 287.241
L47.101 287.613
L47.1901 287.613
L47.2766 288.018
L47.5329 288.056
L47.617 288.324
L47.7 288.324
L47.7817 288.524
L48.0241 288.607
L48.1043 288.66
L48.2637 288.732
L48.3423 288.925
L48.6514 289.017
L48.7279 289.088
L49.2577 289.197
L49.333 289.202
L49.6321 289.311
L49.7061 289.384
L50.2172 289.488
L50.2898 289.511
L50.5074 289.525
L50.5789 289.638
L51.0057 289.737
L51.076 289.77
L51.3555 289.842
L51.4246 289.915
L51.9052 290.002
L51.9733 290.03
L52.5141 290.123
L52.581 290.167
L52.9798 290.267
L53.0457 290.282
L53.5686 290.392
L53.6334 290.436
L54.0823 290.519
L54.1456 290.565
L54.8373 290.667
L54.8992 290.735
L55.7588 290.829
L55.8196 290.853
L56.4236 290.958
L56.4833 290.989
L56.8385 291.064
L56.897 291.122
L57.3604 291.228
L57.4179 291.25
L58.2689 291.361
L58.3253 291.364
L58.8847 291.473
L58.9952 291.51
L59.5954 291.618
L59.7033 291.656
L60.6625 291.765
L60.7681 291.776
L62.0755 291.877
L62.1789 291.902
L63.3042 292.003
L63.4053 292.031
L64.6054 292.14
L64.7042 292.169
L65.8745 292.277
L65.9711 292.287
L67.4531 292.391
L67.5475 292.413
L68.7149 292.524
L68.8071 292.534
L70.0379 292.643
L70.1281 292.651
L72.0009 292.762
L72.089 292.77
L74.3118 292.877
L74.3979 292.885
L76.1844 292.994
L76.2685 292.997
L78.6347 293.108
L78.7168 293.111
L80.2556 293.221
L80.3357 293.225
L82.548 293.334
L82.6262 293.339
L84.8243 293.45
L84.9003 293.457
L86.9668 293.565
L87.0778 293.576
L89.5597 293.686
L89.6676 293.693
L92.4347 293.801
L92.5395 293.809
L96.0505 293.919
L96.1522 293.925
L99.6617 294.036
L99.7605 294.04
L103.357 294.151
L103.452 294.156
L107.345 294.265
L107.437 294.274
L111.987 294.383
L112.077 294.389
L116.366 294.498
L116.453 294.505
L121.131 294.614
L121.215 294.622
L126.169 294.733
L126.276 294.737
L131.538 294.848
L131.641 294.851
L137.133 294.961
L137.232 294.967
L143.011 295.078
L143.106 295.081
L149.657 295.191
L149.748 295.194
L156.884 295.304
L156.993 295.306
L164.585 295.417
L164.689 295.419
L172.74 295.53
L172.839 295.532
L181.621 295.643
L181.715 295.644
L191.201 295.754
L191.308 295.755
L201.239 295.866
L201.34 295.867
L212.64 295.978
L212.735 295.979
L225.022 296.089
L225.127 296.092
L238.957 296.202
L239.055 296.203
L253.383 296.314
L253.486 296.315
L269.707 296.426
L269.815 296.427
L287.27 296.537
L287.38 296.538
L308.799 296.649
L308.91 296.65
L332.875 296.761
L332.984 296.762
L359.878 296.872
L359.983 296.874
L390.96 296.984
L391.067 296.985
L428.52 297.096
L428.631 297.097
L473.99 297.208
L474.098 297.209
L491.904 297.245
L491.904 297.798
L491.904 297.798" style="fill:none;stroke:#e31a1c;stroke-linecap:square;stroke-width:2.0;"/>
   </g>
   <g id="line2d_2">
    <path clip-path="url(#p797f48e19d)" d="
M45.5044 210.846
L60.14 210.846
L60.14 268.58
L65.058 268.58
L65.058 273.149
L69.2068 273.149
L69.2068 274.975
L73.0483 274.975
L73.0483 276.822
L76.579 276.822
L76.579 277.153
L80.054 277.153
L80.054 277.821
L83.4165 277.821
L83.4165 278.311
L86.6966 278.311
L86.6966 278.751
L89.9026 278.751
L89.9026 278.91
L93.0818 278.91
L93.0818 279.45
L96.1702 279.45
L96.1702 279.819
L99.1964 279.819
L99.1964 280.827
L107.739 280.911
L107.739 282.274
L112.955 282.331
L112.955 283.109
L120.347 283.191
L120.347 283.433
L122.765 283.433
L122.765 283.982
L125.09 283.982
L125.09 284.159
L127.386 284.159
L127.386 284.57
L129.612 284.57
L129.612 285.156
L135.985 285.202
L135.985 285.339
L140.166 285.417
L140.166 285.516
L148.411 285.588
L148.411 285.75
L154.474 285.835
L154.474 285.909
L158.464 285.982
L158.464 286.08
L160.437 286.08
L160.437 286.193
L164.343 286.198
L164.343 286.343
L168.184 286.433
L168.184 286.544
L170.078 286.544
L170.078 286.692
L173.814 286.706
L173.814 286.807
L175.664 286.807
L175.664 286.97
L179.307 286.983
L179.307 287.119
L181.105 287.119
L181.105 287.247
L184.642 287.335
L184.642 287.587
L188.061 287.698
L188.061 287.728
L189.756 287.728
L189.756 287.867
L193.091 287.915
L193.091 287.988
L201.309 288.086
L201.309 288.219
L202.921 288.219
L202.921 288.49
L207.612 288.543
L207.612 288.634
L209.154 288.634
L209.154 288.757
L210.676 288.757
L210.676 288.872
L213.671 288.932
L213.671 288.988
L216.626 289.05
L216.626 289.123
L218.086 289.123
L218.086 289.257
L222.384 289.307
L222.384 289.396
L226.62 289.419
L226.62 289.536
L232.156 289.628
L232.156 289.647
L234.887 289.723
L234.887 289.774
L237.586 289.789
L237.586 289.906
L244.189 290.012
L244.189 290.019
L249.401 290.129
L249.401 290.16
L254.51 290.235
L254.51 290.307
L257.026 290.341
L257.026 290.509
L261.92 290.543
L261.92 290.676
L270.269 290.772
L270.269 290.795
L273.79 290.861
L273.79 290.918
L278.4 291.006
L278.4 291.074
L281.773 291.144
L281.773 291.187
L286.204 291.234
L286.204 291.372
L289.421 291.472
L289.421 291.551
L298.823 291.653
L298.823 291.691
L302.907 291.777
L302.907 291.862
L311.844 291.946
L311.844 292.103
L314.699 292.213
L314.699 292.218
L318.422 292.327
L318.422 292.335
L323.922 292.388
L323.922 292.525
L328.339 292.582
L328.339 292.799
L330.846 292.868
L330.846 292.967
L334.087 292.998
L334.087 293.081
L335.663 293.151
L335.663 293.213
L339.482 293.316
L339.482 293.328
L343.975 293.377
L343.975 293.461
L348.291 293.567
L348.291 293.587
L351.096 293.66
L351.096 293.721
L353.138 293.812
L353.138 293.841
L357.75 293.936
L357.75 293.969
L362.828 294.067
L362.828 294.092
L365.919 294.153
L365.919 294.209
L371.838 294.314
L371.838 294.322
L374.151 294.406
L374.151 294.441
L379.141 294.549
L379.141 294.603
L385.485 294.698
L385.485 294.72
L390.578 294.825
L390.578 294.834
L393.534 294.923
L393.534 294.961
L396.334 295.068
L396.334 295.075
L398.601 295.126
L398.601 295.205
L402.46 295.289
L402.46 295.321
L405.314 295.429
L405.314 295.47
L409.504 295.571
L409.504 295.605
L413.498 295.696
L413.498 295.723
L418.224 295.833
L418.224 295.868
L420.442 295.974
L420.442 295.984
L423.961 296.088
L423.961 296.099
L428.119 296.208
L428.119 296.211
L433.283 296.32
L433.283 296.323
L438.788 296.433
L438.788 296.448
L444.262 296.551
L444.262 296.562
L451.615 296.671
L451.615 296.676
L458.12 296.783
L458.12 296.787
L466.463 296.898
L466.463 296.899
L474.251 297.01
L474.251 297.014
L483.958 297.125
L483.958 297.128
L491.438 297.237
L491.531 297.243
L491.904 297.245
L491.904 297.798
L491.904 297.798" style="fill:none;stroke:#1f78b4;stroke-linecap:square;stroke-width:2.0;"/>
   </g>
   <g id="line2d_3">
    <path clip-path="url(#p797f48e19d)" d="
M45.5044 68.7002
L47.0271 68.7002
L47.0271 204.399
L47.6478 204.399
L47.6478 205.306
L48.2626 205.306
L48.2626 205.834
L48.8738 205.834
L48.8738 210.241
L49.4557 210.241
L49.4557 213.009
L50.5828 213.019
L50.5828 229.948
L51.0337 229.948
L51.0337 230.88
L51.4785 230.88
L51.4785 237.234
L51.881 237.234
L51.881 237.821
L52.2797 237.821
L52.2797 242.603
L52.6465 242.603
L52.6465 243.819
L53.3635 243.906
L53.3635 243.939
L53.7215 243.939
L53.7215 246.633
L54.0615 246.633
L54.0615 248.752
L54.3875 248.752
L54.3875 249.396
L54.7092 249.396
L54.7092 249.842
L55.0279 249.842
L55.0279 250.328
L55.3435 250.328
L55.3435 250.479
L55.658 250.479
L55.658 250.816
L55.9702 250.816
L55.9702 251.303
L56.2792 251.303
L56.2792 252.286
L56.8836 252.385
L56.8836 252.914
L57.1819 252.914
L57.1819 254.923
L57.4669 254.923
L57.4669 255.37
L57.7489 255.37
L57.7489 256.688
L58.0221 256.688
L58.0221 256.817
L58.2945 256.817
L58.2945 257.23
L58.5641 257.23
L58.5641 257.577
L58.8314 257.577
L58.8314 258.123
L59.0951 258.123
L59.0951 258.249
L59.358 258.249
L59.358 258.508
L59.8798 258.586
L59.8798 258.854
L60.397 258.912
L60.397 259.672
L61.4094 259.759
L61.4094 260.105
L61.66 260.105
L61.66 260.258
L61.9095 260.258
L61.9095 260.431
L62.1578 260.431
L62.1578 260.792
L62.4038 260.792
L62.4038 260.937
L62.6488 260.937
L62.6488 261.054
L62.893 261.054
L62.893 261.266
L63.6206 261.361
L63.6206 261.566
L64.3423 261.649
L64.3423 261.696
L65.0611 261.776
L65.0611 261.828
L65.3002 261.828
L65.3002 262.435
L65.5352 262.435
L65.5352 262.719
L65.7684 262.719
L65.7684 262.844
L66.4642 262.933
L66.4642 263.449
L66.6925 263.449
L66.6925 263.847
L67.5944 263.907
L67.5944 264.54
L67.8154 264.54
L67.8154 264.773
L68.4732 264.836
L68.4732 264.992
L68.6912 264.992
L68.6912 265.104
L69.1255 265.148
L69.1255 265.565
L69.3398 265.565
L69.3398 266.041
L69.5508 266.041
L69.5508 266.293
L69.9694 266.323
L69.9694 266.526
L70.3846 266.607
L70.3846 266.922
L70.7946 266.984
L70.7946 267.039
L71.4072 267.115
L71.4072 267.365
L71.6095 267.365
L71.6095 267.482
L72.2136 267.528
L72.2136 267.832
L72.6117 267.855
L72.6117 268.013
L72.8097 268.013
L72.8097 268.277
L73.2021 268.281
L73.2021 268.721
L73.3954 268.721
L73.3954 269.091
L73.5862 269.091
L73.5862 269.467
L74.1503 269.531
L74.1503 269.634
L74.5244 269.667
L74.5244 269.784
L75.0824 269.832
L75.0824 269.999
L76.0049 270.085
L76.0049 270.138
L76.3725 270.151
L76.3725 270.383
L76.9181 270.492
L76.9181 270.535
L77.0993 270.535
L77.0993 270.653
L77.6401 270.703
L77.6401 270.767
L77.999 270.829
L77.999 270.956
L78.3557 270.984
L78.3557 271.16
L78.709 271.269
L78.709 271.28
L79.0614 271.301
L79.0614 271.509
L79.5851 271.567
L79.5851 271.631
L80.1062 271.73
L80.1062 271.745
L80.6247 271.829
L80.6247 271.876
L81.3127 271.983
L81.3127 272.08
L81.4836 272.08
L81.4836 272.343
L81.9907 272.396
L81.9907 272.543
L82.6606 272.645
L82.6606 272.739
L82.9936 272.757
L82.9936 272.884
L83.4894 272.995
L83.4894 273.026
L83.6541 273.026
L83.6541 273.163
L84.9618 273.249
L84.9618 273.341
L85.6107 273.435
L85.6107 273.463
L86.0951 273.528
L86.0951 273.614
L86.4162 273.665
L86.4162 273.758
L86.8944 273.845
L86.8944 273.895
L87.5284 273.989
L87.5284 274.032
L88.0018 274.092
L88.0018 274.196
L88.3152 274.251
L88.3152 274.591
L88.4695 274.591
L88.4695 274.704
L89.0818 274.807
L89.0818 274.852
L89.3867 274.881
L89.3867 274.965
L89.8413 275.052
L89.8413 275.217
L90.5902 275.326
L90.5902 275.355
L91.0363 275.465
L91.0363 275.486
L91.6286 275.584
L91.6286 275.664
L91.9225 275.712
L91.9225 275.784
L92.7979 275.887
L92.7979 275.968
L93.2322 276.041
L93.2322 276.094
L93.8078 276.185
L93.8078 276.206
L94.5241 276.267
L94.5241 276.336
L94.6668 276.336
L94.6668 276.467
L94.8086 276.467
L94.8086 276.581
L95.3714 276.665
L95.3714 276.722
L96.4896 276.824
L96.4896 276.907
L97.3203 277.009
L97.3203 277.028
L98.0087 277.13
L98.0087 277.163
L98.6928 277.24
L98.6928 277.314
L99.1004 277.399
L99.1004 277.439
L100.045 277.529
L100.045 277.604
L100.581 277.701
L100.581 277.763
L101.245 277.836
L101.245 277.877
L101.774 277.982
L101.774 277.991
L102.299 278.099
L102.299 278.227
L102.947 278.33
L102.947 278.359
L103.592 278.438
L103.592 278.52
L104.23 278.625
L104.23 278.635
L104.739 278.688
L104.739 278.763
L105.622 278.865
L105.622 278.891
L106.124 278.99
L106.124 279.017
L106.622 279.114
L106.622 279.142
L106.993 279.167
L106.993 279.266
L107.608 279.334
L107.608 279.385
L108.218 279.494
L108.218 279.511
L109.431 279.599
L109.431 279.623
L110.276 279.684
L110.276 279.748
L110.993 279.847
L110.993 279.881
L111.469 279.917
L111.469 280.058
L112.176 280.147
L112.176 280.221
L112.99 280.331
L112.99 280.343
L114.148 280.419
L114.148 280.514
L114.607 280.607
L114.607 280.652
L115.175 280.757
L115.175 280.791
L116.077 280.891
L116.077 280.915
L117.084 281.02
L117.084 281.029
L118.418 281.105
L118.529 281.202
L119.519 281.312
L119.628 281.355
L120.39 281.465
L120.498 281.5
L121.146 281.599
L121.253 281.641
L122.645 281.745
L122.751 281.781
L124.133 281.892
L124.238 281.919
L124.975 281.981
L125.08 282.071
L125.601 282.153
L125.705 282.201
L126.117 282.31
L126.22 282.343
L127.55 282.451
L127.652 282.474
L128.464 282.577
L128.565 282.605
L129.269 282.716
L129.369 282.753
L130.765 282.854
L130.864 282.875
L132.444 282.98
L132.543 282.994
L133.525 283.069
L133.622 283.15
L134.591 283.26
L134.688 283.266
L135.265 283.356
L135.361 283.418
L136.504 283.527
L136.599 283.545
L137.637 283.656
L137.731 283.672
L138.947 283.775
L139.04 283.81
L139.874 283.898
L139.967 283.922
L141.069 284.025
L141.161 284.056
L142.345 284.158
L142.435 284.186
L143.336 284.285
L143.426 284.335
L144.853 284.411
L144.942 284.456
L146.09 284.561
L146.178 284.582
L147.315 284.685
L147.402 284.718
L149.218 284.829
L149.304 284.851
L150.333 284.951
L150.418 284.987
L151.861 285.098
L151.945 285.107
L153.289 285.213
L153.373 285.235
L154.872 285.318
L154.954 285.372
L155.86 285.444
L155.942 285.501
L157.488 285.604
L157.569 285.636
L158.614 285.739
L158.694 285.783
L159.886 285.891
L159.965 285.907
L161.459 286.018
L161.537 286.044
L162.86 286.155
L162.938 286.159
L164.632 286.266
L164.708 286.29
L165.928 286.386
L166.004 286.427
L167.886 286.538
L167.96 286.551
L169.82 286.658
L169.894 286.677
L171.806 286.788
L171.879 286.79
L173.045 286.89
L173.117 286.913
L174.486 287.017
L174.558 287.028
L175.767 287.132
L175.838 287.14
L176.967 287.248
L177.037 287.258
L178.431 287.359
L178.501 287.372
L180.224 287.482
L180.292 287.494
L181.654 287.605
L181.722 287.615
L183.945 287.719
L184.011 287.743
L185.142 287.844
L185.208 287.863
L187.179 287.973
L187.245 287.98
L188.933 288.09
L188.997 288.093
L190.73 288.201
L190.794 288.212
L192.251 288.315
L192.314 288.326
L194.695 288.435
L194.757 288.45
L196.115 288.558
L196.177 288.564
L197.763 288.671
L197.824 288.676
L199.331 288.779
L199.391 288.79
L201.235 288.895
L201.294 288.914
L203.935 289.024
L203.993 289.03
L205.905 289.138
L205.962 289.153
L208.189 289.253
L208.246 289.271
L210.215 289.381
L210.271 289.393
L212.047 289.503
L212.158 289.511
L214.347 289.622
L214.456 289.632
L216.612 289.743
L216.719 289.751
L219.002 289.861
L219.108 289.882
L221.092 289.99
L221.196 289.999
L223.203 290.109
L223.306 290.114
L225.434 290.221
L225.535 290.238
L226.782 290.342
L226.881 290.363
L228.89 290.471
L228.987 290.484
L230.821 290.59
L230.917 290.599
L232.721 290.706
L232.815 290.714
L235.384 290.822
L235.477 290.833
L237.59 290.943
L237.681 290.959
L239.891 291.06
L239.981 291.08
L242.328 291.19
L242.416 291.195
L244.766 291.302
L244.852 291.307
L246.778 291.414
L246.862 291.427
L249.17 291.538
L249.253 291.549
L252.545 291.658
L252.626 291.664
L254.931 291.774
L255.011 291.776
L257.751 291.887
L257.829 291.894
L260.433 292.001
L260.51 292.016
L263.595 292.127
L263.67 292.131
L266.578 292.242
L266.689 292.248
L269.537 292.355
L269.645 292.36
L272.757 292.47
L272.863 292.476
L275.661 292.587
L275.764 292.593
L278.882 292.7
L278.984 292.713
L282.226 292.824
L282.325 292.828
L284.969 292.939
L285.065 292.943
L288.446 293.054
L288.54 293.057
L291.811 293.168
L291.903 293.172
L294.913 293.282
L295.003 293.288
L298.499 293.397
L298.587 293.404
L301.469 293.515
L301.554 293.518
L304.896 293.629
L305.007 293.634
L308.097 293.744
L308.204 293.747
L311.286 293.858
L311.391 293.863
L315.002 293.973
L315.104 293.976
L318.557 294.087
L318.656 294.091
L322.318 294.202
L322.414 294.207
L326.058 294.316
L326.15 294.322
L329.945 294.433
L330.034 294.435
L334.256 294.546
L334.364 294.549
L338.271 294.66
L338.375 294.663
L342.608 294.773
L342.708 294.776
L345.962 294.885
L346.059 294.89
L350.31 295
L350.403 295.003
L354.46 295.114
L354.567 295.117
L358.461 295.228
L358.564 295.231
L362.718 295.342
L362.816 295.343
L367.007 295.454
L367.116 295.457
L371.902 295.567
L372.005 295.572
L377.166 295.683
L377.265 295.686
L381.877 295.795
L381.983 295.8
L387.493 295.91
L387.593 295.914
L392.701 296.024
L392.807 296.028
L398.563 296.138
L398.674 296.141
L404.544 296.252
L404.647 296.255
L411.308 296.366
L411.412 296.368
L418.438 296.479
L418.543 296.481
L425.715 296.592
L425.819 296.595
L433.71 296.705
L433.818 296.708
L442.696 296.818
L442.807 296.82
L453.158 296.931
L453.267 296.933
L465.215 297.044
L465.326 297.045
L478.986 297.156
L479.096 297.157
L491.904 297.245
L491.904 297.798
L491.904 297.798" style="fill:none;stroke:#33a02c;stroke-linecap:square;stroke-width:2.0;"/>
   </g>
   <g id="line2d_4">
    <path clip-path="url(#p797f48e19d)" d="
M45.5044 68.6991
L47.0554 68.6991
L47.0554 194.127
L47.7573 194.127
L47.7573 204.395
L48.3897 204.395
L48.3897 205.305
L49.0159 205.305
L49.0159 207.553
L50.2374 207.625
L50.2374 209.156
L50.8375 209.156
L50.8375 209.89
L51.4326 209.89
L51.4326 211.716
L52.0154 211.716
L52.0154 212.274
L52.5945 212.274
L52.5945 213.008
L53.1685 213.008
L53.1685 216.851
L53.7165 216.851
L53.7165 219.342
L54.2477 219.342
L54.2477 219.623
L54.777 219.623
L54.777 219.741
L55.3054 219.741
L55.3054 220.77
L55.8269 220.77
L55.8269 221.637
L56.3426 221.637
L56.3426 222.925
L56.8495 222.925
L56.8495 223.506
L57.3525 223.506
L57.3525 224.264
L57.8503 224.264
L57.8503 225.455
L58.3401 225.455
L58.3401 226.42
L58.8233 226.42
L58.8233 229.928
L59.2828 229.928
L59.2828 230.316
L59.7397 230.316
L59.7397 230.873
L60.1928 230.873
L60.1928 231.089
L60.6444 231.089
L60.6444 231.797
L61.0913 231.797
L61.0913 233.216
L61.5285 233.216
L61.5285 233.59
L62.3977 233.625
L62.3977 234.024
L63.2611 234.037
L63.2611 234.368
L64.1194 234.453
L64.1194 235.058
L64.5442 235.058
L64.5442 235.505
L65.387 235.6
L65.387 235.72
L65.8073 235.72
L65.8073 235.841
L66.6458 235.91
L66.6458 236.109
L67.0634 236.109
L67.0634 236.446
L67.8938 236.497
L67.8938 236.7
L68.7208 236.741
L68.7208 237.231
L69.1309 237.231
L69.1309 237.817
L69.537 237.817
L69.537 239.51
L69.9316 239.51
L69.9316 240.687
L70.3183 240.687
L70.3183 240.88
L70.7036 240.88
L70.7036 241.126
L71.0873 241.126
L71.0873 241.818
L71.4663 241.818
L71.4663 243.329
L71.8351 243.329
L71.8351 243.678
L72.2015 243.678
L72.2015 243.817
L72.5669 243.817
L72.5669 243.933
L72.9316 243.933
L72.9316 245.257
L73.6424 245.349
L73.6424 245.489
L73.9966 245.489
L73.9966 245.69
L74.3493 245.69
L74.3493 246.626
L74.6958 246.626
L74.6958 247.197
L75.381 247.197
L75.381 247.506
L76.0617 247.547
L76.0617 247.744
L77.0782 247.757
L77.0782 248.512
L78.0781 248.6
L78.0781 248.736
L78.4102 248.736
L78.4102 249.074
L78.7401 249.074
L78.7401 249.206
L79.0691 249.206
L79.0691 249.695
L80.37 249.796
L80.37 249.894
L81.0186 249.902
L81.0186 250.308
L81.6612 250.378
L81.6612 250.511
L81.9813 250.511
L81.9813 250.688
L82.3003 250.688
L82.3003 250.816
L82.6183 250.816
L82.6183 251.196
L83.2487 251.298
L83.2487 251.352
L84.1913 251.406
L84.1913 251.719
L84.815 251.751
L84.815 251.858
L85.1261 251.858
L85.1261 252.094
L85.4355 252.094
L85.4355 252.382
L86.6639 252.492
L86.6639 252.535
L86.9704 252.535
L86.9704 252.914
L87.8813 253.018
L87.8813 253.039
L88.7899 253.098
L88.7899 253.196
L89.0919 253.196
L89.0919 253.51
L89.3917 253.51
L89.3917 253.92
L89.9856 253.953
L89.9856 254.197
L90.2808 254.197
L90.2808 254.435
L90.8677 254.481
L90.8677 254.598
L91.4525 254.609
L91.4525 254.822
L92.0338 254.916
L92.0338 255.02
L92.3234 255.02
L92.3234 255.337
L92.8982 255.362
L92.8982 255.524
L93.1844 255.524
L93.1844 256.316
L93.7457 256.376
L93.7457 256.64
L94.3026 256.693
L94.3026 257.001
L95.1311 257.01
L95.1311 257.221
L95.9552 257.239
L95.9552 257.349
L96.7758 257.422
L96.7758 257.555
L97.3206 257.577
L97.3206 257.852
L97.8609 257.935
L97.8609 258.123
L98.666 258.18
L98.666 258.236
L99.201 258.33
L99.201 258.362
L99.468 258.362
L99.468 258.551
L100.265 258.602
L100.265 258.693
L100.529 258.693
L100.529 258.975
L100.792 258.975
L100.792 259.09
L101.316 259.1
L101.316 259.282
L101.837 259.349
L101.837 259.533
L102.096 259.533
L102.096 259.758
L102.868 259.795
L102.868 259.897
L103.125 259.897
L103.125 260.211
L103.38 260.211
L103.38 260.384
L104.391 260.491
L104.391 260.94
L105.388 261.045
L105.388 261.131
L106.379 261.241
L106.379 261.324
L107.366 261.367
L107.366 261.442
L107.857 261.544
L107.857 261.563
L108.103 261.563
L108.103 261.695
L108.591 261.725
L108.591 261.849
L108.835 261.849
L108.835 262.016
L109.077 262.016
L109.077 262.359
L109.557 262.405
L109.557 262.494
L110.273 262.598
L110.273 262.679
L110.748 262.7
L110.748 262.834
L111.221 262.844
L111.221 262.968
L111.457 262.968
L111.457 263.125
L111.927 263.14
L111.927 263.741
L112.387 263.843
L112.387 263.907
L112.846 263.919
L112.846 264.287
L113.073 264.287
L113.073 264.541
L113.748 264.572
L113.748 264.718
L114.195 264.786
L114.195 264.905
L114.863 264.989
L114.972 265.433
L114.972 265.433
L115.082 265.433
L115.191 265.561
L115.191 265.561
L115.3 265.561
L115.409 265.722
L115.409 265.722
L115.517 265.722
L115.625 265.971
L115.625 265.971
L116.163 266.038
L116.27 266.221
L116.27 266.221
L116.59 266.292
L116.696 266.426
L116.696 266.426
L117.227 266.526
L117.332 266.664
L117.332 266.664
L117.648 266.766
L117.753 266.788
L118.487 266.842
L118.591 266.956
L118.591 266.956
L119.112 267.056
L119.216 267.088
L119.216 267.088
L119.32 267.088
L119.423 267.254
L119.423 267.254
L120.352 267.363
L120.455 267.403
L120.968 267.499
L121.07 267.518
L121.377 267.593
L121.48 267.634
L121.48 267.634
L121.786 267.665
L121.887 267.754
L122.598 267.832
L122.699 267.911
L122.699 267.911
L123.405 268.017
L123.506 268.129
L123.506 268.129
L124.008 268.2
L124.107 268.3
L124.107 268.3
L124.805 268.366
L124.905 268.424
L124.905 268.424
L125.6 268.523
L125.698 268.639
L125.698 268.639
L126.585 268.718
L126.683 268.815
L126.683 268.815
L126.977 268.9
L127.075 268.929
L127.368 268.952
L127.465 269.074
L127.465 269.074
L128.144 269.158
L128.241 269.284
L128.241 269.284
L128.915 269.372
L129.012 269.401
L129.3 269.419
L129.395 269.558
L129.395 269.558
L130.064 269.603
L130.159 269.68
L130.159 269.68
L130.634 269.786
L130.729 269.824
L130.729 269.824
L131.39 269.922
L131.484 269.952
L131.955 270.001
L132.049 270.07
L132.049 270.07
L132.892 270.18
L132.986 270.218
L132.986 270.218
L133.265 270.291
L133.358 270.406
L133.358 270.406
L133.636 270.434
L133.728 270.579
L133.728 270.579
L134.373 270.653
L134.464 270.695
L134.739 270.703
L134.83 270.928
L134.83 270.928
L135.103 271.037
L135.193 271.044
L136.007 271.13
L136.097 271.22
L136.905 271.329
L136.994 271.351
L137.62 271.461
L137.709 271.538
L137.709 271.538
L138.33 271.631
L138.419 271.656
L138.684 271.67
L138.772 271.821
L138.772 271.821
L138.86 271.821
L138.947 272.074
L138.947 272.074
L139.208 272.157
L139.294 272.199
L139.9 272.31
L139.986 272.331
L140.416 272.395
L140.502 272.46
L141.273 272.547
L141.358 272.602
L142.636 272.684
L142.721 272.725
L142.975 272.824
L143.059 272.888
L143.649 272.941
L143.733 273.013
L143.733 273.013
L144.655 273.087
L144.738 273.162
L144.738 273.162
L144.988 273.178
L145.071 273.293
L145.071 273.293
L145.651 273.367
L145.733 273.411
L146.474 273.515
L146.556 273.543
L147.13 273.617
L147.211 273.675
L147.211 273.675
L148.108 273.749
L148.189 273.807
L149.243 273.912
L149.324 273.948
L149.727 273.982
L149.808 274.071
L150.369 274.129
L150.449 274.182
L150.449 274.182
L151.645 274.293
L151.725 274.317
L151.804 274.317
L151.883 274.452
L151.883 274.452
L151.962 274.452
L152.041 274.621
L152.041 274.621
L152.589 274.692
L152.667 274.747
L153.368 274.848
L153.445 274.895
L153.445 274.895
L154.296 274.97
L154.373 275.008
L154.758 275.083
L154.835 275.13
L155.065 275.14
L155.141 275.3
L155.141 275.3
L155.826 275.35
L155.902 275.429
L155.902 275.429
L156.43 275.517
L156.506 275.562
L157.332 275.645
L157.407 275.783
L157.407 275.783
L157.63 275.885
L157.704 275.915
L158.073 275.985
L158.147 276.045
L158.147 276.045
L158.367 276.15
L158.44 276.177
L159.535 276.279
L159.608 276.329
L159.608 276.329
L160.116 276.412
L160.188 276.446
L160.981 276.549
L161.053 276.61
L161.053 276.61
L161.984 276.702
L162.055 276.722
L162.411 276.816
L162.482 276.871
L162.835 276.916
L162.906 276.997
L162.906 276.997
L163.398 277.052
L163.468 277.11
L163.468 277.11
L163.957 277.211
L164.026 277.24
L164.512 277.328
L164.581 277.493
L164.581 277.493
L165.336 277.602
L165.404 277.606
L166.018 277.668
L166.086 277.731
L166.086 277.731
L166.56 277.813
L166.628 277.844
L167.234 277.936
L167.301 277.956
L167.769 278.059
L167.836 278.067
L168.303 278.168
L168.369 278.21
L168.369 278.21
L168.963 278.315
L169.029 278.327
L169.884 278.437
L169.949 278.462
L171.189 278.561
L171.254 278.627
L171.254 278.627
L171.577 278.708
L171.642 278.766
L172.606 278.86
L172.67 278.897
L173.116 278.999
L173.18 279.035
L173.18 279.035
L173.75 279.139
L173.813 279.197
L173.813 279.197
L174.503 279.304
L174.565 279.324
L175.5 279.429
L175.562 279.537
L175.562 279.537
L175.994 279.599
L176.055 279.689
L176.055 279.689
L176.849 279.797
L176.91 279.84
L178.183 279.946
L178.244 279.965
L178.786 280.037
L178.846 280.079
L178.846 280.079
L179.265 280.145
L179.324 280.268
L179.324 280.268
L180.448 280.367
L180.507 280.394
L180.801 280.395
L180.86 280.514
L180.86 280.514
L181.385 280.608
L181.443 280.65
L181.733 280.721
L181.79 280.77
L181.79 280.77
L182.652 280.873
L182.71 280.895
L184.135 281.001
L184.192 281.007
L185.268 281.11
L185.325 281.135
L186.056 281.221
L186.112 281.256
L186.726 281.366
L186.836 281.428
L187.5 281.525
L187.61 281.548
L188.377 281.658
L188.486 281.663
L189.249 281.755
L189.357 281.832
L189.896 281.94
L190.004 281.946
L191.074 282.056
L191.181 282.077
L192.454 282.186
L192.559 282.334
L193.602 282.442
L193.706 282.471
L195.051 282.575
L195.154 282.605
L195.871 282.701
L195.973 282.735
L196.989 282.845
L197.09 282.858
L198.199 282.957
L198.299 283.005
L199.098 283.109
L199.198 283.149
L199.692 283.222
L199.791 283.301
L200.574 283.386
L200.671 283.433
L201.543 283.539
L201.639 283.568
L202.215 283.656
L202.311 283.695
L203.453 283.804
L203.548 283.836
L204.772 283.943
L204.865 283.962
L205.798 284.071
L205.891 284.096
L206.908 284.204
L207 284.224
L208.189 284.331
L208.28 284.346
L209.188 284.426
L209.278 284.477
L210.267 284.561
L210.356 284.612
L210.889 284.717
L210.978 284.734
L212.211 284.839
L212.298 284.85
L212.997 284.954
L213.084 284.975
L214.296 285.077
L214.382 285.094
L215.324 285.204
L215.41 285.218
L216.513 285.317
L216.597 285.366
L217.855 285.457
L217.939 285.488
L219.018 285.579
L219.1 285.626
L220.25 285.731
L220.331 285.768
L221.547 285.87
L221.627 285.883
L223.153 285.986
L223.232 286.018
L224.504 286.11
L224.583 286.143
L225.918 286.253
L225.996 286.262
L226.697 286.365
L226.774 286.387
L227.773 286.496
L227.849 286.507
L228.914 286.601
L228.99 286.628
L230.347 286.72
L230.422 286.752
L231.836 286.851
L231.946 286.889
L232.719 286.997
L232.829 287.01
L233.665 287.101
L233.773 287.129
L234.887 287.226
L234.994 287.258
L235.953 287.349
L236.059 287.39
L237.356 287.492
L237.461 287.524
L238.949 287.631
L239.052 287.639
L240.865 287.75
L240.967 287.752
L242.219 287.863
L242.319 287.869
L243.958 287.969
L244.057 287.981
L245.546 288.088
L245.644 288.109
L247.178 288.219
L247.275 288.225
L248.338 288.331
L248.434 288.347
L249.804 288.445
L249.898 288.477
L251.748 288.584
L251.841 288.618
L252.798 288.728
L252.89 288.735
L254.446 288.843
L254.537 288.851
L256.192 288.956
L256.282 288.965
L257.739 289.058
L257.828 289.08
L259.031 289.164
L259.119 289.192
L260.481 289.3
L260.567 289.304
L262.138 289.411
L262.223 289.421
L263.828 289.53
L263.912 289.534
L265.608 289.644
L265.719 289.677
L267.74 289.786
L267.848 289.8
L269.139 289.908
L269.246 289.923
L270.728 290.03
L270.833 290.051
L271.979 290.157
L272.082 290.167
L273.519 290.275
L273.621 290.287
L274.782 290.394
L274.882 290.421
L276.667 290.53
L276.766 290.538
L278.084 290.647
L278.18 290.657
L280.193 290.766
L280.288 290.78
L281.89 290.891
L281.983 290.909
L283.462 291.02
L283.553 291.033
L285.099 291.144
L285.189 291.148
L287.198 291.257
L287.309 291.265
L289.439 291.376
L289.548 291.382
L291.034 291.491
L291.141 291.495
L293.277 291.606
L293.382 291.612
L295.399 291.722
L295.502 291.726
L298.209 291.835
L298.31 291.839
L300.366 291.949
L300.465 291.953
L302.326 292.064
L302.423 292.072
L304.401 292.181
L304.496 292.191
L306.471 292.302
L306.564 292.306
L309.196 292.417
L309.306 292.422
L311.393 292.532
L311.499 292.542
L314.107 292.651
L314.211 292.658
L316.759 292.768
L316.861 292.782
L319.011 292.891
L319.111 292.898
L321.572 293.006
L321.669 293.017
L324.165 293.128
L324.276 293.132
L327.318 293.243
L327.426 293.252
L330.115 293.362
L330.22 293.369
L332.543 293.478
L332.646 293.484
L335.199 293.595
L335.299 293.6
L338.007 293.711
L338.118 293.717
L340.409 293.827
L340.517 293.832
L343.137 293.942
L343.241 293.948
L346.014 294.059
L346.115 294.065
L348.978 294.173
L349.089 294.178
L352.191 294.288
L352.298 294.293
L355.082 294.404
L355.186 294.407
L358.446 294.518
L358.557 294.522
L361.562 294.633
L361.669 294.637
L365.239 294.748
L365.342 294.752
L368.238 294.863
L368.348 294.866
L371.702 294.977
L371.807 294.978
L374.637 295.089
L374.747 295.094
L378.19 295.205
L378.295 295.209
L381.632 295.32
L381.741 295.325
L385.266 295.436
L385.37 295.44
L389.257 295.551
L389.363 295.554
L393.598 295.665
L393.706 295.669
L397.546 295.78
L397.655 295.783
L401.519 295.894
L401.629 295.898
L405.929 296.009
L406.038 296.012
L410.724 296.123
L410.831 296.125
L415.262 296.235
L415.373 296.238
L420.58 296.348
L420.688 296.353
L426.602 296.463
L426.71 296.467
L432.587 296.577
L432.695 296.581
L439.518 296.691
L439.626 296.693
L446.754 296.804
L446.865 296.806
L455.655 296.917
L455.765 296.919
L466.017 297.03
L466.126 297.032
L478.369 297.142
L478.48 297.143
L491.904 297.245
L491.904 297.798
L491.904 297.798" style="fill:none;stroke:#6a3d9a;stroke-linecap:square;stroke-width:2.0;"/>
   </g>
   <g id="line2d_5">
    <path clip-path="url(#p797f48e19d)" d="
M45.5044 65.6954
L46.9225 65.6954
L46.9225 69.2564
L48.3189 69.2564
L48.3189 191.328
L48.9694 191.328
L48.9694 204.399
L50.1105 204.425
L50.1105 208.296
L50.6574 208.296
L50.6574 208.738
L51.2015 208.738
L51.2015 210.891
L52.2635 210.893
L52.2635 211.946
L52.788 211.946
L52.788 219.68
L53.2653 219.68
L53.2653 221.454
L53.7318 221.454
L53.7318 225.918
L54.171 225.918
L54.171 229.637
L54.5874 229.637
L54.5874 229.91
L55.0022 229.91
L55.0022 230.88
L55.4111 230.88
L55.4111 233.733
L55.8025 233.733
L55.8025 234.526
L56.1891 234.526
L56.1891 234.737
L56.5744 234.737
L56.5744 234.976
L56.9582 234.976
L56.9582 235.332
L57.3399 235.332
L57.3399 235.589
L57.72 235.589
L57.72 235.826
L58.0986 235.826
L58.0986 236.154
L58.4752 236.154
L58.4752 236.35
L58.8507 236.35
L58.8507 236.539
L59.225 236.539
L59.225 236.779
L59.5978 236.779
L59.5978 237.883
L59.9639 237.883
L59.9639 238.389
L60.3268 238.389
L60.3268 238.837
L60.6871 238.837
L60.6871 239.37
L61.0441 239.37
L61.0441 240.048
L61.3969 240.048
L61.3969 240.769
L62.0932 240.86
L62.0932 240.881
L62.7885 240.926
L62.7885 241.141
L63.1347 241.141
L63.1347 241.554
L63.4783 241.554
L63.4783 241.969
L63.8194 241.969
L63.8194 242.689
L64.1561 242.689
L64.1561 243.65
L64.487 243.65
L64.487 245.07
L64.8091 245.07
L64.8091 245.342
L65.1296 245.342
L65.1296 245.58
L65.4487 245.58
L65.4487 246.374
L66.0765 246.468
L66.0765 246.99
L66.3869 246.99
L66.3869 247.132
L66.6965 247.132
L66.6965 247.679
L67.9204 247.762
L67.9204 247.908
L68.2252 247.908
L68.2252 248.07
L68.8326 248.107
L68.8326 248.414
L69.1344 248.414
L69.1344 248.717
L69.4342 248.717
L69.4342 248.973
L70.0304 249.049
L70.0304 249.098
L70.328 249.098
L70.328 249.349
L70.624 249.349
L70.624 249.503
L70.9191 249.503
L70.9191 250.011
L71.5029 250.022
L71.5029 250.208
L72.0839 250.303
L72.0839 250.466
L72.6618 250.545
L72.6618 250.722
L72.9494 250.722
L72.9494 251.594
L73.2317 251.594
L73.2317 251.837
L73.7929 251.918
L73.7929 252.142
L74.0718 252.142
L74.0718 252.278
L74.6274 252.384
L74.6274 252.8
L75.1767 252.902
L75.1767 252.914
L75.9986 252.979
L75.9986 253.096
L76.2717 253.096
L76.2717 253.524
L77.0828 253.586
L77.0828 253.639
L77.3526 253.639
L77.3526 253.785
L77.6215 253.785
L77.6215 253.955
L78.157 253.998
L78.157 254.197
L78.4234 254.197
L78.4234 254.466
L78.6881 254.466
L78.6881 254.608
L79.2156 254.664
L79.2156 254.748
L80.2666 254.841
L80.2666 254.942
L81.0512 255.045
L81.0512 255.313
L81.3108 255.313
L81.3108 255.445
L81.5696 255.445
L81.5696 255.774
L81.8264 255.774
L81.8264 255.979
L82.0819 255.979
L82.0819 256.168
L82.3362 256.168
L82.3362 256.329
L82.8428 256.357
L82.8428 256.54
L83.0949 256.54
L83.0949 256.926
L83.8438 256.965
L83.8438 257.592
L84.0895 257.592
L84.0895 257.782
L84.5779 257.874
L84.5779 257.903
L84.8216 257.903
L84.8216 258.234
L85.3045 258.329
L85.3045 258.377
L86.0263 258.463
L86.0263 258.903
L86.2639 258.903
L86.2639 259.019
L86.7377 259.033
L86.7377 259.135
L87.2101 259.148
L87.2101 259.422
L87.9129 259.497
L87.9129 259.533
L88.3801 259.584
L88.3801 259.709
L88.8453 259.749
L88.8453 259.891
L89.0769 259.891
L89.0769 260.175
L89.5366 260.188
L89.5366 260.386
L89.7652 260.386
L89.7652 260.603
L90.2191 260.699
L90.2191 260.783
L90.4453 260.783
L90.4453 260.936
L90.8951 261.042
L90.8951 261.105
L91.5669 261.212
L91.5669 261.263
L92.2353 261.372
L92.2353 261.378
L92.6799 261.447
L92.6799 261.593
L93.1218 261.681
L93.1218 261.747
L93.562 261.81
L93.562 261.977
L93.9994 262.019
L93.9994 262.105
L94.2175 262.105
L94.2175 262.221
L94.4349 262.221
L94.4349 262.339
L94.8678 262.393
L94.8678 262.518
L95.0834 262.518
L95.0834 262.803
L95.2972 262.803
L95.2972 262.973
L95.9347 263.08
L95.9347 263.126
L96.1465 263.126
L96.1465 263.317
L96.3572 263.317
L96.3572 263.439
L96.9865 263.495
L96.9865 263.568
L97.4042 263.655
L97.4042 263.711
L97.8207 263.728
L97.8207 263.883
L98.4413 263.991
L98.4413 264.014
L98.8539 264.055
L98.8539 264.152
L99.2647 264.214
L99.2647 264.289
L99.4694 264.289
L99.4694 264.414
L99.6734 264.414
L99.6734 264.675
L99.8758 264.675
L99.8758 264.929
L100.477 265.029
L100.477 265.171
L100.876 265.193
L100.876 265.521
L101.663 265.626
L101.663 265.657
L101.86 265.657
L101.86 265.793
L102.25 265.823
L102.25 265.928
L102.639 266.038
L102.639 266.143
L103.219 266.22
L103.219 266.292
L103.795 266.36
L103.795 266.591
L103.986 266.591
L103.986 266.79
L104.365 266.821
L104.365 266.939
L104.93 266.977
L104.93 267.077
L105.68 267.16
L105.68 267.237
L106.24 267.264
L106.24 267.368
L106.612 267.446
L106.612 267.574
L107.902 267.667
L107.902 267.756
L108.269 267.833
L108.269 268.018
L109.358 268.115
L109.358 268.148
L109.901 268.247
L109.901 268.262
L110.081 268.262
L110.081 268.498
L110.618 268.575
L110.618 268.639
L111.507 268.718
L111.507 268.852
L112.036 268.962
L112.036 269.038
L113.089 269.111
L113.089 269.284
L113.611 269.343
L113.611 269.429
L114.303 269.533
L114.303 269.574
L114.819 269.68
L114.819 269.711
L114.991 269.711
L114.991 269.823
L115.332 269.861
L115.332 269.954
L115.672 269.965
L115.672 270.241
L116.513 270.34
L116.513 270.4
L116.848 270.427
L116.848 270.514
L117.347 270.612
L117.347 270.633
L117.844 270.72
L117.844 270.828
L118.666 270.929
L118.666 270.956
L118.83 270.956
L118.83 271.068
L119.156 271.142
L119.156 271.245
L119.966 271.354
L119.966 271.366
L120.289 271.435
L120.289 271.488
L120.449 271.488
L120.449 271.702
L121.245 271.795
L121.245 271.893
L121.561 271.922
L121.561 272.015
L122.348 272.101
L122.348 272.133
L123.757 272.24
L123.757 272.25
L124.225 272.311
L124.225 272.376
L124.535 272.406
L124.535 272.56
L124.997 272.64
L124.997 272.672
L125.61 272.772
L125.61 272.809
L126.525 272.902
L126.525 272.94
L127.132 273.013
L127.132 273.132
L127.433 273.194
L127.433 273.272
L128.181 273.366
L128.181 273.392
L129.074 273.478
L129.074 273.518
L129.518 273.611
L129.518 273.651
L130.254 273.748
L130.254 273.846
L130.984 273.947
L130.984 273.989
L131.42 274.093
L131.42 274.13
L131.997 274.224
L131.997 274.245
L132.715 274.339
L132.715 274.357
L133.287 274.459
L133.287 274.506
L133.856 274.546
L133.856 274.667
L134.56 274.776
L134.56 274.828
L135.121 274.906
L135.121 275.037
L135.953 275.144
L135.953 275.217
L136.641 275.326
L136.641 275.336
L137.463 275.442
L137.463 275.463
L138.417 275.518
L138.417 275.681
L139.361 275.791
L139.361 275.793
L139.763 275.86
L139.763 275.909
L140.297 275.988
L140.297 276.026
L140.962 276.072
L140.962 276.201
L141.357 276.301
L141.357 276.337
L142.01 276.447
L142.01 276.522
L143.308 276.612
L143.308 276.682
L143.952 276.751
L143.952 276.879
L144.972 276.964
L144.972 277.006
L145.732 277.106
L145.732 277.138
L146.362 277.239
L146.362 277.253
L146.738 277.353
L146.738 277.384
L147.733 277.487
L147.733 277.529
L148.722 277.629
L148.722 277.647
L149.582 277.721
L149.582 277.761
L150.437 277.847
L150.437 277.884
L151.772 277.99
L151.772 278.018
L152.495 278.118
L152.495 278.134
L153.334 278.212
L153.334 278.249
L154.407 278.336
L154.407 278.364
L155.355 278.466
L155.355 278.492
L155.826 278.564
L155.826 278.639
L156.527 278.702
L156.527 278.751
L157.571 278.858
L157.571 278.915
L158.147 279.001
L158.147 279.026
L158.72 279.07
L158.72 279.143
L159.288 279.246
L159.288 279.296
L159.964 279.402
L159.964 279.416
L160.525 279.523
L160.525 279.548
L161.304 279.65
L161.415 279.665
L161.967 279.775
L162.077 279.794
L162.954 279.901
L163.063 280.069
L163.927 280.156
L164.034 280.294
L165.207 280.403
L165.313 280.462
L166.37 280.56
L166.475 280.598
L166.895 280.696
L166.999 280.748
L167.622 280.847
L167.725 280.873
L168.344 280.982
L168.446 280.99
L169.368 281.089
L169.47 281.134
L170.485 281.221
L170.586 281.257
L171.393 281.355
L171.493 281.379
L172.294 281.445
L172.394 281.532
L173.187 281.61
L173.286 281.685
L174.366 281.794
L174.464 281.801
L175.536 281.906
L175.633 281.954
L176.79 282.059
L176.885 282.118
L178.03 282.229
L178.125 282.322
L179.068 282.431
L179.162 282.45
L180.098 282.526
L180.191 282.572
L181.026 282.679
L181.118 282.717
L182.403 282.818
L182.494 282.874
L183.494 282.974
L183.585 283.009
L184.306 283.109
L184.395 283.127
L185.199 283.219
L185.288 283.245
L186.086 283.354
L186.174 283.386
L186.788 283.484
L186.876 283.511
L187.745 283.621
L187.831 283.663
L189.12 283.772
L189.206 283.792
L190.145 283.883
L190.23 283.937
L190.991 284.025
L191.075 284.063
L191.911 284.169
L191.994 284.228
L192.819 284.307
L192.902 284.347
L194.457 284.455
L194.539 284.492
L195.674 284.586
L195.754 284.62
L196.637 284.726
L196.716 284.733
L197.828 284.842
L197.907 284.857
L198.773 284.962
L198.851 284.974
L199.709 285.082
L199.787 285.1
L200.714 285.197
L200.791 285.237
L202.166 285.348
L202.242 285.35
L203.302 285.46
L203.377 285.483
L204.577 285.582
L204.651 285.608
L205.467 285.714
L205.54 285.738
L206.494 285.846
L206.567 285.865
L208.093 285.974
L208.165 285.988
L209.17 286.097
L209.242 286.12
L210.166 286.218
L210.236 286.253
L211.29 286.363
L211.36 286.367
L212.543 286.465
L212.612 286.481
L213.851 286.591
L213.919 286.618
L215.144 286.727
L215.212 286.748
L216.353 286.856
L216.42 286.9
L217.679 287.011
L217.745 287.03
L218.727 287.13
L218.792 287.156
L220.022 287.26
L220.087 287.272
L220.983 287.37
L221.047 287.396
L222.69 287.506
L222.752 287.52
L224.002 287.628
L224.064 287.639
L225.669 287.75
L225.731 287.761
L227.073 287.87
L227.133 287.874
L228.701 287.979
L228.761 287.991
L230.37 288.094
L230.429 288.11
L231.43 288.215
L231.489 288.234
L233.346 288.343
L233.404 288.349
L234.955 288.459
L235.012 288.465
L236.6 288.571
L236.656 288.596
L237.998 288.706
L238.109 288.713
L239.6 288.82
L239.709 288.842
L241.393 288.952
L241.501 288.973
L243.379 289.079
L243.486 289.091
L245.072 289.202
L245.177 289.223
L246.895 289.333
L246.998 289.36
L248.536 289.464
L248.638 289.488
L250.907 289.597
L251.007 289.615
L252.695 289.724
L252.794 289.732
L254.849 289.841
L254.946 289.854
L256.537 289.964
L256.633 289.97
L258.294 290.075
L258.388 290.095
L259.463 290.194
L259.556 290.208
L261.076 290.314
L261.167 290.327
L262.662 290.437
L262.751 290.445
L264.937 290.553
L265.025 290.563
L266.736 290.67
L266.823 290.682
L268.633 290.792
L268.719 290.798
L270.42 290.899
L270.504 290.917
L272.504 291.028
L272.587 291.037
L274.471 291.147
L274.552 291.15
L276.807 291.261
L276.886 291.265
L279.221 291.376
L279.3 291.382
L281.439 291.49
L281.516 291.5
L283.806 291.609
L283.882 291.613
L286.054 291.718
L286.128 291.728
L288.699 291.838
L288.808 291.848
L290.825 291.958
L290.932 291.963
L293.337 292.072
L293.441 292.079
L295.829 292.187
L295.932 292.193
L298.172 292.302
L298.272 292.318
L300.262 292.428
L300.361 292.436
L302.628 292.546
L302.725 292.552
L304.882 292.662
L304.977 292.668
L307.492 292.774
L307.584 292.785
L310.674 292.896
L310.764 292.9
L313.488 293.011
L313.576 293.015
L316.349 293.125
L316.434 293.131
L319.565 293.242
L319.648 293.247
L322.505 293.356
L322.613 293.369
L325.687 293.48
L325.792 293.484
L328.989 293.595
L329.092 293.6
L331.8 293.711
L331.9 293.715
L334.728 293.825
L334.825 293.829
L337.551 293.94
L337.645 293.942
L340.891 294.052
L340.983 294.055
L343.689 294.165
L343.8 294.171
L346.877 294.281
L346.985 294.285
L350.129 294.395
L350.233 294.401
L353.54 294.51
L353.64 294.518
L357.009 294.629
L357.106 294.634
L360.66 294.745
L360.753 294.749
L363.976 294.86
L364.084 294.867
L367.371 294.978
L367.474 294.984
L370.878 295.094
L370.977 295.097
L374.272 295.207
L374.383 295.215
L378.21 295.325
L378.315 295.33
L382.739 295.44
L382.84 295.446
L386.939 295.556
L387.049 295.56
L390.995 295.67
L391.099 295.674
L395.486 295.784
L395.597 295.79
L399.956 295.9
L400.06 295.904
L404.603 296.014
L404.712 296.019
L409.821 296.129
L409.923 296.135
L414.414 296.245
L414.519 296.248
L419.675 296.358
L419.78 296.36
L425.599 296.471
L425.704 296.472
L431.746 296.583
L431.849 296.585
L438.774 296.696
L438.882 296.698
L446.326 296.808
L446.435 296.811
L455.754 296.921
L455.861 296.923
L466.104 297.034
L466.212 297.036
L478.752 297.147
L478.859 297.148
L491.904 297.245
L491.904 297.798
L491.904 297.798" style="fill:none;stroke:#ff7f00;stroke-linecap:square;stroke-width:2.0;"/>
   </g>
   <g id="matplotlib.axis_1">
    <g id="xtick_1">
     <g id="line2d_6">
      <path clip-path="url(#p797f48e19d)" d="
M45.5044 297.798
L45.5044 21.3181" style="fill:none;stroke:#000000;stroke-dasharray:1.000000,3.000000;stroke-dashoffset:0.0;stroke-width:0.5;"/>
     </g>
     <g id="line2d_7">
      <defs>
       <path d="
M0 0
L0 -4" id="m93b0483c22" style="stroke:#000000;stroke-width:0.5;"/>
      </defs>
      <g>
       <use style="stroke:#000000;stroke-width:0.5;" x="45.504375" xlink:href="#m93b0483c22" y="297.798125"/>
      </g>
     </g>
     <g id="line2d_8">
      <defs>
       <path d="
M0 0
L0 4" id="m741efc42ff" style="stroke:#000000;stroke-width:0.5;"/>
      </defs>
      <g>
       <use style="stroke:#000000;stroke-width:0.5;" x="45.504375" xlink:href="#m741efc42ff" y="21.318125"/>
      </g>
     </g>
     <g id="text_1">
      <!-- 0 -->
      <defs>
       <path d="
M31.7812 66.4062
Q24.1719 66.4062 20.3281 58.9062
Q16.5 51.4219 16.5 36.375
Q16.5 21.3906 20.3281 13.8906
Q24.1719 6.39062 31.7812 6.39062
Q39.4531 6.39062 43.2812 13.8906
Q47.125 21.3906 47.125 36.375
Q47.125 51.4219 43.2812 58.9062
Q39.4531 66.4062 31.7812 66.4062
M31.7812 74.2188
Q44.0469 74.2188 50.5156 64.5156
Q56.9844 54.8281 56.9844 36.375
Q56.9844 17.9688 50.5156 8.26562
Q44.0469 -1.42188 31.7812 -1.42188
Q19.5312 -1.42188 13.0625 8.26562
Q6.59375 17.9688 6.59375 36.375
Q6.59375 54.8281 13.0625 64.5156
Q19.5312 74.2188 31.7812 74.2188" id="DejaVuSans-30"/>
      </defs>
      <g transform="translate(42.98484375 309.3965625)scale(0.1 -0.1)">
       <use xlink:href="#DejaVuSans-30"/>
      </g>
     </g>
    </g>
    <g id="xtick_2">
     <g id="line2d_9">
      <path clip-path="url(#p797f48e19d)" d="
M134.784 297.798
L134.784 21.3181" style="fill:none;stroke:#000000;stroke-dasharray:1.000000,3.000000;stroke-dashoffset:0.0;stroke-width:0.5;"/>
     </g>
     <g id="line2d_10">
      <g>
       <use style="stroke:#000000;stroke-width:0.5;" x="134.784375" xlink:href="#m93b0483c22" y="297.798125"/>
      </g>
     </g>
     <g id="line2d_11">
      <g>
       <use style="stroke:#000000;stroke-width:0.5;" x="134.784375" xlink:href="#m741efc42ff" y="21.318125"/>
      </g>
     </g>
     <g id="text_2">
      <!-- 20 -->
      <defs>
       <path d="
M19.1875 8.29688
L53.6094 8.29688
L53.6094 0
L7.32812 0
L7.32812 8.29688
Q12.9375 14.1094 22.625 23.8906
Q32.3281 33.6875 34.8125 36.5312
Q39.5469 41.8438 41.4219 45.5312
Q43.3125 49.2188 43.3125 52.7812
Q43.3125 58.5938 39.2344 62.25
Q35.1562 65.9219 28.6094 65.9219
Q23.9688 65.9219 18.8125 64.3125
Q13.6719 62.7031 7.8125 59.4219
L7.8125 69.3906
Q13.7656 71.7812 18.9375 73
Q24.125 74.2188 28.4219 74.2188
Q39.75 74.2188 46.4844 68.5469
Q53.2188 62.8906 53.2188 53.4219
Q53.2188 48.9219 51.5312 44.8906
Q49.8594 40.875 45.4062 35.4062
Q44.1875 33.9844 37.6406 27.2188
Q31.1094 20.4531 19.1875 8.29688" id="DejaVuSans-32"/>
      </defs>
      <g transform="translate(129.1203125 309.3965625)scale(0.1 -0.1)">
       <use xlink:href="#DejaVuSans-32"/>
       <use x="63.623046875" xlink:href="#DejaVuSans-30"/>
      </g>
     </g>
    </g>
    <g id="xtick_3">
     <g id="line2d_12">
      <path clip-path="url(#p797f48e19d)" d="
M224.064 297.798
L224.064 21.3181" style="fill:none;stroke:#000000;stroke-dasharray:1.000000,3.000000;stroke-dashoffset:0.0;stroke-width:0.5;"/>
     </g>
     <g id="line2d_13">
      <g>
       <use style="stroke:#000000;stroke-width:0.5;" x="224.064375" xlink:href="#m93b0483c22" y="297.798125"/>
      </g>
     </g>
     <g id="line2d_14">
      <g>
       <use style="stroke:#000000;stroke-width:0.5;" x="224.064375" xlink:href="#m741efc42ff" y="21.318125"/>
      </g>
     </g>
     <g id="text_3">
      <!-- 40 -->
      <defs>
       <path d="
M37.7969 64.3125
L12.8906 25.3906
L37.7969 25.3906
z

M35.2031 72.9062
L47.6094 72.9062
L47.6094 25.3906
L58.0156 25.3906
L58.0156 17.1875
L47.6094 17.1875
L47.6094 0
L37.7969 0
L37.7969 17.1875
L4.89062 17.1875
L4.89062 26.7031
z
" id="DejaVuSans-34"/>
      </defs>
      <g transform="translate(218.2784375 309.3965625)scale(0.1 -0.1)">
       <use xlink:href="#DejaVuSans-34"/>
       <use x="63.623046875" xlink:href="#DejaVuSans-30"/>
      </g>
     </g>
    </g>
    <g id="xtick_4">
     <g id="line2d_15">
      <path clip-path="url(#p797f48e19d)" d="
M313.344 297.798
L313.344 21.3181" style="fill:none;stroke:#000000;stroke-dasharray:1.000000,3.000000;stroke-dashoffset:0.0;stroke-width:0.5;"/>
     </g>
     <g id="line2d_16">
      <g>
       <use style="stroke:#000000;stroke-width:0.5;" x="313.344375" xlink:href="#m93b0483c22" y="297.798125"/>
      </g>
     </g>
     <g id="line2d_17">
      <g>
       <use style="stroke:#000000;stroke-width:0.5;" x="313.344375" xlink:href="#m741efc42ff" y="21.318125"/>
      </g>
     </g>
     <g id="text_4">
      <!-- 60 -->
      <defs>
       <path d="
M33.0156 40.375
Q26.375 40.375 22.4844 35.8281
Q18.6094 31.2969 18.6094 23.3906
Q18.6094 15.5312 22.4844 10.9531
Q26.375 6.39062 33.0156 6.39062
Q39.6562 6.39062 43.5312 10.9531
Q47.4062 15.5312 47.4062 23.3906
Q47.4062 31.2969 43.5312 35.8281
Q39.6562 40.375 33.0156 40.375
M52.5938 71.2969
L52.5938 62.3125
Q48.875 64.0625 45.0938 64.9844
Q41.3125 65.9219 37.5938 65.9219
Q27.8281 65.9219 22.6719 59.3281
Q17.5312 52.7344 16.7969 39.4062
Q19.6719 43.6562 24.0156 45.9219
Q28.375 48.1875 33.5938 48.1875
Q44.5781 48.1875 50.9531 41.5156
Q57.3281 34.8594 57.3281 23.3906
Q57.3281 12.1562 50.6875 5.35938
Q44.0469 -1.42188 33.0156 -1.42188
Q20.3594 -1.42188 13.6719 8.26562
Q6.98438 17.9688 6.98438 36.375
Q6.98438 53.6562 15.1875 63.9375
Q23.3906 74.2188 37.2031 74.2188
Q40.9219 74.2188 44.7031 73.4844
Q48.4844 72.75 52.5938 71.2969" id="DejaVuSans-36"/>
      </defs>
      <g transform="translate(307.663125 309.3965625)scale(0.1 -0.1)">
       <use xlink:href="#DejaVuSans-36"/>
       <use x="63.623046875" xlink:href="#DejaVuSans-30"/>
      </g>
     </g>
    </g>
    <g id="xtick_5">
     <g id="line2d_18">
      <path clip-path="url(#p797f48e19d)" d="
M402.624 297.798
L402.624 21.3181" style="fill:none;stroke:#000000;stroke-dasharray:1.000000,3.000000;stroke-dashoffset:0.0;stroke-width:0.5;"/>
     </g>
     <g id="line2d_19">
      <g>
       <use style="stroke:#000000;stroke-width:0.5;" x="402.624375" xlink:href="#m93b0483c22" y="297.798125"/>
      </g>
     </g>
     <g id="line2d_20">
      <g>
       <use style="stroke:#000000;stroke-width:0.5;" x="402.624375" xlink:href="#m741efc42ff" y="21.318125"/>
      </g>
     </g>
     <g id="text_5">
      <!-- 80 -->
      <defs>
       <path d="
M31.7812 34.625
Q24.75 34.625 20.7188 30.8594
Q16.7031 27.0938 16.7031 20.5156
Q16.7031 13.9219 20.7188 10.1562
Q24.75 6.39062 31.7812 6.39062
Q38.8125 6.39062 42.8594 10.1719
Q46.9219 13.9688 46.9219 20.5156
Q46.9219 27.0938 42.8906 30.8594
Q38.875 34.625 31.7812 34.625
M21.9219 38.8125
Q15.5781 40.375 12.0312 44.7188
Q8.5 49.0781 8.5 55.3281
Q8.5 64.0625 14.7188 69.1406
Q20.9531 74.2188 31.7812 74.2188
Q42.6719 74.2188 48.875 69.1406
Q55.0781 64.0625 55.0781 55.3281
Q55.0781 49.0781 51.5312 44.7188
Q48 40.375 41.7031 38.8125
Q48.8281 37.1562 52.7969 32.3125
Q56.7812 27.4844 56.7812 20.5156
Q56.7812 9.90625 50.3125 4.23438
Q43.8438 -1.42188 31.7812 -1.42188
Q19.7344 -1.42188 13.25 4.23438
Q6.78125 9.90625 6.78125 20.5156
Q6.78125 27.4844 10.7812 32.3125
Q14.7969 37.1562 21.9219 38.8125
M18.3125 54.3906
Q18.3125 48.7344 21.8438 45.5625
Q25.3906 42.3906 31.7812 42.3906
Q38.1406 42.3906 41.7188 45.5625
Q45.3125 48.7344 45.3125 54.3906
Q45.3125 60.0625 41.7188 63.2344
Q38.1406 66.4062 31.7812 66.4062
Q25.3906 66.4062 21.8438 63.2344
Q18.3125 60.0625 18.3125 54.3906" id="DejaVuSans-38"/>
      </defs>
      <g transform="translate(396.93296875 309.3965625)scale(0.1 -0.1)">
       <use xlink:href="#DejaVuSans-38"/>
       <use x="63.623046875" xlink:href="#DejaVuSans-30"/>
      </g>
     </g>
    </g>
    <g id="xtick_6">
     <g id="line2d_21">
      <path clip-path="url(#p797f48e19d)" d="
M491.904 297.798
L491.904 21.3181" style="fill:none;stroke:#000000;stroke-dasharray:1.000000,3.000000;stroke-dashoffset:0.0;stroke-width:0.5;"/>
     </g>
     <g id="line2d_22">
      <g>
       <use style="stroke:#000000;stroke-width:0.5;" x="491.904375" xlink:href="#m93b0483c22" y="297.798125"/>
      </g>
     </g>
     <g id="line2d_23">
      <g>
       <use style="stroke:#000000;stroke-width:0.5;" x="491.904375" xlink:href="#m741efc42ff" y="21.318125"/>
      </g>
     </g>
     <g id="text_6">
      <!-- 100 -->
      <defs>
       <path d="
M12.4062 8.29688
L28.5156 8.29688
L28.5156 63.9219
L10.9844 60.4062
L10.9844 69.3906
L28.4219 72.9062
L38.2812 72.9062
L38.2812 8.29688
L54.3906 8.29688
L54.3906 0
L12.4062 0
z
" id="DejaVuSans-31"/>
      </defs>
      <g transform="translate(483.241875 309.3965625)scale(0.1 -0.1)">
       <use xlink:href="#DejaVuSans-31"/>
       <use x="63.623046875" xlink:href="#DejaVuSans-30"/>
       <use x="127.24609375" xlink:href="#DejaVuSans-30"/>
      </g>
     </g>
    </g>
    <g id="text_7">
     <!-- x -->
     <defs>
      <path d="
M54.8906 54.6875
L35.1094 28.0781
L55.9062 0
L45.3125 0
L29.3906 21.4844
L13.4844 0
L2.875 0
L24.125 28.6094
L4.6875 54.6875
L15.2812 54.6875
L29.7812 35.2031
L44.2812 54.6875
z
" id="DejaVuSans-78"/>
     </defs>
     <g transform="translate(265.5225 325.594375)scale(0.12 -0.12)">
      <use xlink:href="#DejaVuSans-78"/>
     </g>
    </g>
   </g>
   <g id="matplotlib.axis_2">
    <g id="ytick_1">
     <g id="line2d_24">
      <path clip-path="url(#p797f48e19d)" d="
M45.5044 297.798
L491.904 297.798" style="fill:none;stroke:#000000;stroke-dasharray:1.000000,3.000000;stroke-dashoffset:0.0;stroke-width:0.5;"/>
     </g>
     <g id="line2d_25">
      <defs>
       <path d="
M0 0
L4 0" id="m728421d6d4" style="stroke:#000000;stroke-width:0.5;"/>
      </defs>
      <g>
       <use style="stroke:#000000;stroke-width:0.5;" x="45.504375" xlink:href="#m728421d6d4" y="297.798125"/>
      </g>
     </g>
     <g id="line2d_26">
      <defs>
       <path d="
M0 0
L-4 0" id="mcb0005524f" style="stroke:#000000;stroke-width:0.5;"/>
      </defs>
      <g>
       <use style="stroke:#000000;stroke-width:0.5;" x="491.904375" xlink:href="#mcb0005524f" y="297.798125"/>
      </g>
     </g>
     <g id="text_8">
      <!-- 0 -->
      <g transform="translate(36.4653125 300.5575)scale(0.1 -0.1)">
       <use xlink:href="#DejaVuSans-30"/>
      </g>
     </g>
    </g>
    <g id="ytick_2">
     <g id="line2d_27">
      <path clip-path="url(#p797f48e19d)" d="
M45.5044 242.502
L491.904 242.502" style="fill:none;stroke:#000000;stroke-dasharray:1.000000,3.000000;stroke-dashoffset:0.0;stroke-width:0.5;"/>
     </g>
     <g id="line2d_28">
      <g>
       <use style="stroke:#000000;stroke-width:0.5;" x="45.504375" xlink:href="#m728421d6d4" y="242.502125"/>
      </g>
     </g>
     <g id="line2d_29">
      <g>
       <use style="stroke:#000000;stroke-width:0.5;" x="491.904375" xlink:href="#mcb0005524f" y="242.502125"/>
      </g>
     </g>
     <g id="text_9">
      <!-- 50 -->
      <defs>
       <path d="
M10.7969 72.9062
L49.5156 72.9062
L49.5156 64.5938
L19.8281 64.5938
L19.8281 46.7344
Q21.9688 47.4688 24.1094 47.8281
Q26.2656 48.1875 28.4219 48.1875
Q40.625 48.1875 47.75 41.5
Q54.8906 34.8125 54.8906 23.3906
Q54.8906 11.625 47.5625 5.09375
Q40.2344 -1.42188 26.9062 -1.42188
Q22.3125 -1.42188 17.5469 -0.640625
Q12.7969 0.140625 7.71875 1.70312
L7.71875 11.625
Q12.1094 9.23438 16.7969 8.0625
Q21.4844 6.89062 26.7031 6.89062
Q35.1562 6.89062 40.0781 11.3281
Q45.0156 15.7656 45.0156 23.3906
Q45.0156 31 40.0781 35.4375
Q35.1562 39.8906 26.7031 39.8906
Q22.75 39.8906 18.8125 39.0156
Q14.8906 38.1406 10.7969 36.2812
z
" id="DejaVuSans-35"/>
      </defs>
      <g transform="translate(30.2153125 245.2615)scale(0.1 -0.1)">
       <use xlink:href="#DejaVuSans-35"/>
       <use x="63.623046875" xlink:href="#DejaVuSans-30"/>
      </g>
     </g>
    </g>
    <g id="ytick_3">
     <g id="line2d_30">
      <path clip-path="url(#p797f48e19d)" d="
M45.5044 187.206
L491.904 187.206" style="fill:none;stroke:#000000;stroke-dasharray:1.000000,3.000000;stroke-dashoffset:0.0;stroke-width:0.5;"/>
     </g>
     <g id="line2d_31">
      <g>
       <use style="stroke:#000000;stroke-width:0.5;" x="45.504375" xlink:href="#m728421d6d4" y="187.206125"/>
      </g>
     </g>
     <g id="line2d_32">
      <g>
       <use style="stroke:#000000;stroke-width:0.5;" x="491.904375" xlink:href="#mcb0005524f" y="187.206125"/>
      </g>
     </g>
     <g id="text_10">
      <!-- 100 -->
      <g transform="translate(24.179375 189.9655)scale(0.1 -0.1)">
       <use xlink:href="#DejaVuSans-31"/>
       <use x="63.623046875" xlink:href="#DejaVuSans-30"/>
       <use x="127.24609375" xlink:href="#DejaVuSans-30"/>
      </g>
     </g>
    </g>
    <g id="ytick_4">
     <g id="line2d_33">
      <path clip-path="url(#p797f48e19d)" d="
M45.5044 131.91
L491.904 131.91" style="fill:none;stroke:#000000;stroke-dasharray:1.000000,3.000000;stroke-dashoffset:0.0;stroke-width:0.5;"/>
     </g>
     <g id="line2d_34">
      <g>
       <use style="stroke:#000000;stroke-width:0.5;" x="45.504375" xlink:href="#m728421d6d4" y="131.910125"/>
      </g>
     </g>
     <g id="line2d_35">
      <g>
       <use style="stroke:#000000;stroke-width:0.5;" x="491.904375" xlink:href="#mcb0005524f" y="131.910125"/>
      </g>
     </g>
     <g id="text_11">
      <!-- 150 -->
      <g transform="translate(24.179375 134.6695)scale(0.1 -0.1)">
       <use xlink:href="#DejaVuSans-31"/>
       <use x="63.623046875" xlink:href="#DejaVuSans-35"/>
       <use x="127.24609375" xlink:href="#DejaVuSans-30"/>
      </g>
     </g>
    </g>
    <g id="ytick_5">
     <g id="line2d_36">
      <path clip-path="url(#p797f48e19d)" d="
M45.5044 76.6141
L491.904 76.6141" style="fill:none;stroke:#000000;stroke-dasharray:1.000000,3.000000;stroke-dashoffset:0.0;stroke-width:0.5;"/>
     </g>
     <g id="line2d_37">
      <g>
       <use style="stroke:#000000;stroke-width:0.5;" x="45.504375" xlink:href="#m728421d6d4" y="76.614125"/>
      </g>
     </g>
     <g id="line2d_38">
      <g>
       <use style="stroke:#000000;stroke-width:0.5;" x="491.904375" xlink:href="#mcb0005524f" y="76.614125"/>
      </g>
     </g>
     <g id="text_12">
      <!-- 200 -->
      <g transform="translate(23.81375 79.3735)scale(0.1 -0.1)">
       <use xlink:href="#DejaVuSans-32"/>
       <use x="63.623046875" xlink:href="#DejaVuSans-30"/>
       <use x="127.24609375" xlink:href="#DejaVuSans-30"/>
      </g>
     </g>
    </g>
    <g id="ytick_6">
     <g id="line2d_39">
      <path clip-path="url(#p797f48e19d)" d="
M45.5044 21.3181
L491.904 21.3181" style="fill:none;stroke:#000000;stroke-dasharray:1.000000,3.000000;stroke-dashoffset:0.0;stroke-width:0.5;"/>
     </g>
     <g id="line2d_40">
      <g>
       <use style="stroke:#000000;stroke-width:0.5;" x="45.504375" xlink:href="#m728421d6d4" y="21.318125"/>
      </g>
     </g>
     <g id="line2d_41">
      <g>
       <use style="stroke:#000000;stroke-width:0.5;" x="491.904375" xlink:href="#mcb0005524f" y="21.318125"/>
      </g>
     </g>
     <g id="text_13">
      <!-- 250 -->
      <g transform="translate(23.81375 24.0775)scale(0.1 -0.1)">
       <use xlink:href="#DejaVuSans-32"/>
       <use x="63.623046875" xlink:href="#DejaVuSans-35"/>
       <use x="127.24609375" xlink:href="#DejaVuSans-30"/>
      </g>
     </g>
    </g>
    <g id="text_14">
     <!-- Contig length  (kbp) -->
     <defs>
      <path d="
M64.4062 67.2812
L64.4062 56.8906
Q59.4219 61.5312 53.7812 63.8125
Q48.1406 66.1094 41.7969 66.1094
Q29.2969 66.1094 22.6562 58.4688
Q16.0156 50.8281 16.0156 36.375
Q16.0156 21.9688 22.6562 14.3281
Q29.2969 6.6875 41.7969 6.6875
Q48.1406 6.6875 53.7812 8.98438
Q59.4219 11.2812 64.4062 15.9219
L64.4062 5.60938
Q59.2344 2.09375 53.4375 0.328125
Q47.6562 -1.42188 41.2188 -1.42188
Q24.6562 -1.42188 15.125 8.70312
Q5.60938 18.8438 5.60938 36.375
Q5.60938 53.9531 15.125 64.0781
Q24.6562 74.2188 41.2188 74.2188
Q47.75 74.2188 53.5312 72.4844
Q59.3281 70.75 64.4062 67.2812" id="DejaVuSans-43"/>
      <path d="
M8.01562 75.875
L15.8281 75.875
Q23.1406 64.3594 26.7812 53.3125
Q30.4219 42.2812 30.4219 31.3906
Q30.4219 20.4531 26.7812 9.375
Q23.1406 -1.70312 15.8281 -13.1875
L8.01562 -13.1875
Q14.5 -2 17.7031 9.0625
Q20.9062 20.125 20.9062 31.3906
Q20.9062 42.6719 17.7031 53.6562
Q14.5 64.6562 8.01562 75.875" id="DejaVuSans-29"/>
      <path d="
M30.6094 48.3906
Q23.3906 48.3906 19.1875 42.75
Q14.9844 37.1094 14.9844 27.2969
Q14.9844 17.4844 19.1562 11.8438
Q23.3438 6.20312 30.6094 6.20312
Q37.7969 6.20312 41.9844 11.8594
Q46.1875 17.5312 46.1875 27.2969
Q46.1875 37.0156 41.9844 42.7031
Q37.7969 48.3906 30.6094 48.3906
M30.6094 56
Q42.3281 56 49.0156 48.375
Q55.7188 40.7656 55.7188 27.2969
Q55.7188 13.875 49.0156 6.21875
Q42.3281 -1.42188 30.6094 -1.42188
Q18.8438 -1.42188 12.1719 6.21875
Q5.51562 13.875 5.51562 27.2969
Q5.51562 40.7656 12.1719 48.375
Q18.8438 56 30.6094 56" id="DejaVuSans-6f"/>
      <path d="
M54.8906 33.0156
L54.8906 0
L45.9062 0
L45.9062 32.7188
Q45.9062 40.4844 42.875 44.3281
Q39.8438 48.1875 33.7969 48.1875
Q26.5156 48.1875 22.3125 43.5469
Q18.1094 38.9219 18.1094 30.9062
L18.1094 0
L9.07812 0
L9.07812 54.6875
L18.1094 54.6875
L18.1094 46.1875
Q21.3438 51.125 25.7031 53.5625
Q30.0781 56 35.7969 56
Q45.2188 56 50.0469 50.1719
Q54.8906 44.3438 54.8906 33.0156" id="DejaVuSans-6e"/>
      <path d="
M9.07812 75.9844
L18.1094 75.9844
L18.1094 31.1094
L44.9219 54.6875
L56.3906 54.6875
L27.3906 29.1094
L57.625 0
L45.9062 0
L18.1094 26.7031
L18.1094 0
L9.07812 0
z
" id="DejaVuSans-6b"/>
      <path d="
M9.42188 75.9844
L18.4062 75.9844
L18.4062 0
L9.42188 0
z
" id="DejaVuSans-6c"/>
      <path d="
M18.1094 8.20312
L18.1094 -20.7969
L9.07812 -20.7969
L9.07812 54.6875
L18.1094 54.6875
L18.1094 46.3906
Q20.9531 51.2656 25.2656 53.625
Q29.5938 56 35.5938 56
Q45.5625 56 51.7812 48.0938
Q58.0156 40.1875 58.0156 27.2969
Q58.0156 14.4062 51.7812 6.48438
Q45.5625 -1.42188 35.5938 -1.42188
Q29.5938 -1.42188 25.2656 0.953125
Q20.9531 3.32812 18.1094 8.20312
M48.6875 27.2969
Q48.6875 37.2031 44.6094 42.8438
Q40.5312 48.4844 33.4062 48.4844
Q26.2656 48.4844 22.1875 42.8438
Q18.1094 37.2031 18.1094 27.2969
Q18.1094 17.3906 22.1875 11.75
Q26.2656 6.10938 33.4062 6.10938
Q40.5312 6.10938 44.6094 11.75
Q48.6875 17.3906 48.6875 27.2969" id="DejaVuSans-70"/>
      <path id="DejaVuSans-20"/>
      <path d="
M54.8906 33.0156
L54.8906 0
L45.9062 0
L45.9062 32.7188
Q45.9062 40.4844 42.875 44.3281
Q39.8438 48.1875 33.7969 48.1875
Q26.5156 48.1875 22.3125 43.5469
Q18.1094 38.9219 18.1094 30.9062
L18.1094 0
L9.07812 0
L9.07812 75.9844
L18.1094 75.9844
L18.1094 46.1875
Q21.3438 51.125 25.7031 53.5625
Q30.0781 56 35.7969 56
Q45.2188 56 50.0469 50.1719
Q54.8906 44.3438 54.8906 33.0156" id="DejaVuSans-68"/>
      <path d="
M45.4062 27.9844
Q45.4062 37.75 41.375 43.1094
Q37.3594 48.4844 30.0781 48.4844
Q22.8594 48.4844 18.8281 43.1094
Q14.7969 37.75 14.7969 27.9844
Q14.7969 18.2656 18.8281 12.8906
Q22.8594 7.51562 30.0781 7.51562
Q37.3594 7.51562 41.375 12.8906
Q45.4062 18.2656 45.4062 27.9844
M54.3906 6.78125
Q54.3906 -7.17188 48.1875 -13.9844
Q42 -20.7969 29.2031 -20.7969
Q24.4688 -20.7969 20.2656 -20.0938
Q16.0625 -19.3906 12.1094 -17.9219
L12.1094 -9.1875
Q16.0625 -11.3281 19.9219 -12.3438
Q23.7812 -13.375 27.7812 -13.375
Q36.625 -13.375 41.0156 -8.76562
Q45.4062 -4.15625 45.4062 5.17188
L45.4062 9.625
Q42.625 4.78125 38.2812 2.39062
Q33.9375 0 27.875 0
Q17.8281 0 11.6719 7.65625
Q5.51562 15.3281 5.51562 27.9844
Q5.51562 40.6719 11.6719 48.3281
Q17.8281 56 27.875 56
Q33.9375 56 38.2812 53.6094
Q42.625 51.2188 45.4062 46.3906
L45.4062 54.6875
L54.3906 54.6875
z
" id="DejaVuSans-67"/>
      <path d="
M18.3125 70.2188
L18.3125 54.6875
L36.8125 54.6875
L36.8125 47.7031
L18.3125 47.7031
L18.3125 18.0156
Q18.3125 11.3281 20.1406 9.42188
Q21.9688 7.51562 27.5938 7.51562
L36.8125 7.51562
L36.8125 0
L27.5938 0
Q17.1875 0 13.2344 3.875
Q9.28125 7.76562 9.28125 18.0156
L9.28125 47.7031
L2.6875 47.7031
L2.6875 54.6875
L9.28125 54.6875
L9.28125 70.2188
z
" id="DejaVuSans-74"/>
      <path d="
M31 75.875
Q24.4688 64.6562 21.2812 53.6562
Q18.1094 42.6719 18.1094 31.3906
Q18.1094 20.125 21.3125 9.0625
Q24.5156 -2 31 -13.1875
L23.1875 -13.1875
Q15.875 -1.70312 12.2344 9.375
Q8.59375 20.4531 8.59375 31.3906
Q8.59375 42.2812 12.2031 53.3125
Q15.8281 64.3594 23.1875 75.875
z
" id="DejaVuSans-28"/>
      <path d="
M56.2031 29.5938
L56.2031 25.2031
L14.8906 25.2031
Q15.4844 15.9219 20.4844 11.0625
Q25.4844 6.20312 34.4219 6.20312
Q39.5938 6.20312 44.4531 7.46875
Q49.3125 8.73438 54.1094 11.2812
L54.1094 2.78125
Q49.2656 0.734375 44.1875 -0.34375
Q39.1094 -1.42188 33.8906 -1.42188
Q20.7969 -1.42188 13.1562 6.1875
Q5.51562 13.8125 5.51562 26.8125
Q5.51562 40.2344 12.7656 48.1094
Q20.0156 56 32.3281 56
Q43.3594 56 49.7812 48.8906
Q56.2031 41.7969 56.2031 29.5938
M47.2188 32.2344
Q47.125 39.5938 43.0938 43.9844
Q39.0625 48.3906 32.4219 48.3906
Q24.9062 48.3906 20.3906 44.1406
Q15.875 39.8906 15.1875 32.1719
z
" id="DejaVuSans-65"/>
      <path d="
M48.6875 27.2969
Q48.6875 37.2031 44.6094 42.8438
Q40.5312 48.4844 33.4062 48.4844
Q26.2656 48.4844 22.1875 42.8438
Q18.1094 37.2031 18.1094 27.2969
Q18.1094 17.3906 22.1875 11.75
Q26.2656 6.10938 33.4062 6.10938
Q40.5312 6.10938 44.6094 11.75
Q48.6875 17.3906 48.6875 27.2969
M18.1094 46.3906
Q20.9531 51.2656 25.2656 53.625
Q29.5938 56 35.5938 56
Q45.5625 56 51.7812 48.0938
Q58.0156 40.1875 58.0156 27.2969
Q58.0156 14.4062 51.7812 6.48438
Q45.5625 -1.42188 35.5938 -1.42188
Q29.5938 -1.42188 25.2656 0.953125
Q20.9531 3.32812 18.1094 8.20312
L18.1094 0
L9.07812 0
L9.07812 75.9844
L18.1094 75.9844
z
" id="DejaVuSans-62"/>
      <path d="
M9.42188 54.6875
L18.4062 54.6875
L18.4062 0
L9.42188 0
z

M9.42188 75.9844
L18.4062 75.9844
L18.4062 64.5938
L9.42188 64.5938
z
" id="DejaVuSans-69"/>
     </defs>
     <g transform="translate(16.318125 219.1540625)rotate(-90.0)scale(0.12 -0.12)">
      <use xlink:href="#DejaVuSans-43"/>
      <use x="69.82421875" xlink:href="#DejaVuSans-6f"/>
      <use x="131.005859375" xlink:href="#DejaVuSans-6e"/>
      <use x="194.384765625" xlink:href="#DejaVuSans-74"/>
      <use x="233.59375" xlink:href="#DejaVuSans-69"/>
      <use x="261.376953125" xlink:href="#DejaVuSans-67"/>
      <use x="324.853515625" xlink:href="#DejaVuSans-20"/>
      <use x="356.640625" xlink:href="#DejaVuSans-6c"/>
      <use x="384.423828125" xlink:href="#DejaVuSans-65"/>
      <use x="445.947265625" xlink:href="#DejaVuSans-6e"/>
      <use x="509.326171875" xlink:href="#DejaVuSans-67"/>
      <use x="572.802734375" xlink:href="#DejaVuSans-74"/>
      <use x="612.01171875" xlink:href="#DejaVuSans-68"/>
      <use x="675.390625" xlink:href="#DejaVuSans-20"/>
      <use x="707.177734375" xlink:href="#DejaVuSans-20"/>
      <use x="738.96484375" xlink:href="#DejaVuSans-28"/>
      <use x="777.978515625" xlink:href="#DejaVuSans-6b"/>
      <use x="835.888671875" xlink:href="#DejaVuSans-62"/>
      <use x="899.365234375" xlink:href="#DejaVuSans-70"/>
      <use x="962.841796875" xlink:href="#DejaVuSans-29"/>
     </g>
    </g>
   </g>
   <g id="patch_3">
    <path d="
M45.5044 21.3181
L491.904 21.3181" style="fill:none;stroke:#000000;"/>
   </g>
   <g id="patch_4">
    <path d="
M491.904 297.798
L491.904 21.3181" style="fill:none;stroke:#000000;"/>
   </g>
   <g id="patch_5">
    <path d="
M45.5044 297.798
L491.904 297.798" style="fill:none;stroke:#000000;"/>
   </g>
   <g id="patch_6">
    <path d="
M45.5044 297.798
L45.5044 21.3181" style="fill:none;stroke:#000000;"/>
   </g>
   <g id="text_15">
    <!-- Nx -->
    <defs>
     <path d="
M9.8125 72.9062
L23.0938 72.9062
L55.4219 11.9219
L55.4219 72.9062
L64.9844 72.9062
L64.9844 0
L51.7031 0
L19.3906 60.9844
L19.3906 0
L9.8125 0
z
" id="DejaVuSans-4e"/>
    </defs>
    <g transform="translate(261.45 16.318125)scale(0.12 -0.12)">
     <use xlink:href="#DejaVuSans-4e"/>
     <use x="74.8046875" xlink:href="#DejaVuSans-78"/>
    </g>
   </g>
   <g id="legend_1">
    <g id="patch_7">
     <path d="
M63.6125 372.274
L477.796 372.274
Q480.196 372.274 480.196 369.874
L480.196 335.846
Q480.196 333.446 477.796 333.446
L63.6125 333.446
Q61.2125 333.446 61.2125 335.846
L61.2125 369.874
Q61.2125 372.274 63.6125 372.274
z
" style="fill:#4c4c4c;opacity:0.5;stroke:#4c4c4c;"/>
    </g>
    <g id="patch_8">
     <path d="
M61.6125 370.274
L475.796 370.274
Q478.196 370.274 478.196 367.874
L478.196 333.846
Q478.196 331.446 475.796 331.446
L61.6125 331.446
Q59.2125 331.446 59.2125 333.846
L59.2125 367.874
Q59.2125 370.274 61.6125 370.274
z
" style="fill:#ffffff;stroke:#000000;"/>
    </g>
    <g id="line2d_42">
     <path d="
M67.6125 341.164
L84.4125 341.164" style="fill:none;stroke:#e31a1c;stroke-linecap:square;stroke-width:2.0;"/>
    </g>
    <g id="line2d_43"/>
    <g id="text_16">
     <!-- Q30-MegaHit -->
     <defs>
      <path d="
M9.8125 72.9062
L24.5156 72.9062
L43.1094 23.2969
L61.8125 72.9062
L76.5156 72.9062
L76.5156 0
L66.8906 0
L66.8906 64.0156
L48.0938 14.0156
L38.1875 14.0156
L19.3906 64.0156
L19.3906 0
L9.8125 0
z
" id="DejaVuSans-4d"/>
      <path d="
M4.89062 31.3906
L31.2031 31.3906
L31.2031 23.3906
L4.89062 23.3906
z
" id="DejaVuSans-2d"/>
      <path d="
M40.5781 39.3125
Q47.6562 37.7969 51.625 33
Q55.6094 28.2188 55.6094 21.1875
Q55.6094 10.4062 48.1875 4.48438
Q40.7656 -1.42188 27.0938 -1.42188
Q22.5156 -1.42188 17.6562 -0.515625
Q12.7969 0.390625 7.625 2.20312
L7.625 11.7188
Q11.7188 9.32812 16.5938 8.10938
Q21.4844 6.89062 26.8125 6.89062
Q36.0781 6.89062 40.9375 10.5469
Q45.7969 14.2031 45.7969 21.1875
Q45.7969 27.6406 41.2812 31.2656
Q36.7656 34.9062 28.7188 34.9062
L20.2188 34.9062
L20.2188 43.0156
L29.1094 43.0156
Q36.375 43.0156 40.2344 45.9219
Q44.0938 48.8281 44.0938 54.2969
Q44.0938 59.9062 40.1094 62.9062
Q36.1406 65.9219 28.7188 65.9219
Q24.6562 65.9219 20.0156 65.0312
Q15.375 64.1562 9.8125 62.3125
L9.8125 71.0938
Q15.4375 72.6562 20.3438 73.4375
Q25.25 74.2188 29.5938 74.2188
Q40.8281 74.2188 47.3594 69.1094
Q53.9062 64.0156 53.9062 55.3281
Q53.9062 49.2656 50.4375 45.0938
Q46.9688 40.9219 40.5781 39.3125" id="DejaVuSans-33"/>
      <path d="
M39.4062 66.2188
Q28.6562 66.2188 22.3281 58.2031
Q16.0156 50.2031 16.0156 36.375
Q16.0156 22.6094 22.3281 14.5938
Q28.6562 6.59375 39.4062 6.59375
Q50.1406 6.59375 56.4219 14.5938
Q62.7031 22.6094 62.7031 36.375
Q62.7031 50.2031 56.4219 58.2031
Q50.1406 66.2188 39.4062 66.2188
M53.2188 1.3125
L66.2188 -12.8906
L54.2969 -12.8906
L43.5 -1.21875
Q41.8906 -1.3125 41.0312 -1.35938
Q40.1875 -1.42188 39.4062 -1.42188
Q24.0312 -1.42188 14.8125 8.85938
Q5.60938 19.1406 5.60938 36.375
Q5.60938 53.6562 14.8125 63.9375
Q24.0312 74.2188 39.4062 74.2188
Q54.7344 74.2188 63.9062 63.9375
Q73.0938 53.6562 73.0938 36.375
Q73.0938 23.6875 67.9844 14.6406
Q62.8906 5.60938 53.2188 1.3125" id="DejaVuSans-51"/>
      <path d="
M9.8125 72.9062
L19.6719 72.9062
L19.6719 43.0156
L55.5156 43.0156
L55.5156 72.9062
L65.375 72.9062
L65.375 0
L55.5156 0
L55.5156 34.7188
L19.6719 34.7188
L19.6719 0
L9.8125 0
z
" id="DejaVuSans-48"/>
      <path d="
M34.2812 27.4844
Q23.3906 27.4844 19.1875 25
Q14.9844 22.5156 14.9844 16.5
Q14.9844 11.7188 18.1406 8.90625
Q21.2969 6.10938 26.7031 6.10938
Q34.1875 6.10938 38.7031 11.4062
Q43.2188 16.7031 43.2188 25.4844
L43.2188 27.4844
z

M52.2031 31.2031
L52.2031 0
L43.2188 0
L43.2188 8.29688
Q40.1406 3.32812 35.5469 0.953125
Q30.9531 -1.42188 24.3125 -1.42188
Q15.9219 -1.42188 10.9531 3.29688
Q6 8.01562 6 15.9219
Q6 25.1406 12.1719 29.8281
Q18.3594 34.5156 30.6094 34.5156
L43.2188 34.5156
L43.2188 35.4062
Q43.2188 41.6094 39.1406 45
Q35.0625 48.3906 27.6875 48.3906
Q23 48.3906 18.5469 47.2656
Q14.1094 46.1406 10.0156 43.8906
L10.0156 52.2031
Q14.9375 54.1094 19.5781 55.0469
Q24.2188 56 28.6094 56
Q40.4844 56 46.3438 49.8438
Q52.2031 43.7031 52.2031 31.2031" id="DejaVuSans-61"/>
     </defs>
     <g transform="translate(97.6125 345.36425)scale(0.12 -0.12)">
      <use xlink:href="#DejaVuSans-51"/>
      <use x="78.7109375" xlink:href="#DejaVuSans-33"/>
      <use x="142.333984375" xlink:href="#DejaVuSans-30"/>
      <use x="205.95703125" xlink:href="#DejaVuSans-2d"/>
      <use x="242.041015625" xlink:href="#DejaVuSans-4d"/>
      <use x="328.3203125" xlink:href="#DejaVuSans-65"/>
      <use x="389.84375" xlink:href="#DejaVuSans-67"/>
      <use x="453.3203125" xlink:href="#DejaVuSans-61"/>
      <use x="514.599609375" xlink:href="#DejaVuSans-48"/>
      <use x="589.794921875" xlink:href="#DejaVuSans-69"/>
      <use x="617.578125" xlink:href="#DejaVuSans-74"/>
     </g>
    </g>
    <g id="line2d_44">
     <path d="
M67.6125 358.778
L84.4125 358.778" style="fill:none;stroke:#1f78b4;stroke-linecap:square;stroke-width:2.0;"/>
    </g>
    <g id="line2d_45"/>
    <g id="text_17">
     <!-- Q30-Platanus -->
     <defs>
      <path d="
M8.5 21.5781
L8.5 54.6875
L17.4844 54.6875
L17.4844 21.9219
Q17.4844 14.1562 20.5 10.2656
Q23.5312 6.39062 29.5938 6.39062
Q36.8594 6.39062 41.0781 11.0312
Q45.3125 15.6719 45.3125 23.6875
L45.3125 54.6875
L54.2969 54.6875
L54.2969 0
L45.3125 0
L45.3125 8.40625
Q42.0469 3.42188 37.7188 1
Q33.4062 -1.42188 27.6875 -1.42188
Q18.2656 -1.42188 13.375 4.4375
Q8.5 10.2969 8.5 21.5781
M31.1094 56
z
" id="DejaVuSans-75"/>
      <path d="
M19.6719 64.7969
L19.6719 37.4062
L32.0781 37.4062
Q38.9688 37.4062 42.7188 40.9688
Q46.4844 44.5312 46.4844 51.125
Q46.4844 57.6719 42.7188 61.2344
Q38.9688 64.7969 32.0781 64.7969
z

M9.8125 72.9062
L32.0781 72.9062
Q44.3438 72.9062 50.6094 67.3594
Q56.8906 61.8125 56.8906 51.125
Q56.8906 40.3281 50.6094 34.8125
Q44.3438 29.2969 32.0781 29.2969
L19.6719 29.2969
L19.6719 0
L9.8125 0
z
" id="DejaVuSans-50"/>
      <path d="
M44.2812 53.0781
L44.2812 44.5781
Q40.4844 46.5312 36.375 47.5
Q32.2812 48.4844 27.875 48.4844
Q21.1875 48.4844 17.8438 46.4375
Q14.5 44.3906 14.5 40.2812
Q14.5 37.1562 16.8906 35.375
Q19.2812 33.5938 26.5156 31.9844
L29.5938 31.2969
Q39.1562 29.25 43.1875 25.5156
Q47.2188 21.7812 47.2188 15.0938
Q47.2188 7.46875 41.1875 3.01562
Q35.1562 -1.42188 24.6094 -1.42188
Q20.2188 -1.42188 15.4531 -0.5625
Q10.6875 0.296875 5.42188 2
L5.42188 11.2812
Q10.4062 8.6875 15.2344 7.39062
Q20.0625 6.10938 24.8125 6.10938
Q31.1562 6.10938 34.5625 8.28125
Q37.9844 10.4531 37.9844 14.4062
Q37.9844 18.0625 35.5156 20.0156
Q33.0625 21.9688 24.7031 23.7812
L21.5781 24.5156
Q13.2344 26.2656 9.51562 29.9062
Q5.8125 33.5469 5.8125 39.8906
Q5.8125 47.6094 11.2812 51.7969
Q16.75 56 26.8125 56
Q31.7812 56 36.1719 55.2656
Q40.5781 54.5469 44.2812 53.0781" id="DejaVuSans-73"/>
     </defs>
     <g transform="translate(97.6125 362.978)scale(0.12 -0.12)">
      <use xlink:href="#DejaVuSans-51"/>
      <use x="78.7109375" xlink:href="#DejaVuSans-33"/>
      <use x="142.333984375" xlink:href="#DejaVuSans-30"/>
      <use x="205.95703125" xlink:href="#DejaVuSans-2d"/>
      <use x="242.041015625" xlink:href="#DejaVuSans-50"/>
      <use x="302.34375" xlink:href="#DejaVuSans-6c"/>
      <use x="330.126953125" xlink:href="#DejaVuSans-61"/>
      <use x="391.40625" xlink:href="#DejaVuSans-74"/>
      <use x="430.615234375" xlink:href="#DejaVuSans-61"/>
      <use x="491.89453125" xlink:href="#DejaVuSans-6e"/>
      <use x="555.2734375" xlink:href="#DejaVuSans-75"/>
      <use x="618.65234375" xlink:href="#DejaVuSans-73"/>
     </g>
    </g>
    <g id="line2d_46">
     <path d="
M204.442 341.164
L221.242 341.164" style="fill:none;stroke:#33a02c;stroke-linecap:square;stroke-width:2.0;"/>
    </g>
    <g id="line2d_47"/>
    <g id="text_18">
     <!-- Q30-SPAdes-Careful -->
     <defs>
      <path d="
M53.5156 70.5156
L53.5156 60.8906
Q47.9062 63.5781 42.9219 64.8906
Q37.9375 66.2188 33.2969 66.2188
Q25.25 66.2188 20.875 63.0938
Q16.5 59.9688 16.5 54.2031
Q16.5 49.3594 19.4062 46.8906
Q22.3125 44.4375 30.4219 42.9219
L36.375 41.7031
Q47.4062 39.5938 52.6562 34.2969
Q57.9062 29 57.9062 20.125
Q57.9062 9.51562 50.7969 4.04688
Q43.7031 -1.42188 29.9844 -1.42188
Q24.8125 -1.42188 18.9688 -0.25
Q13.1406 0.921875 6.89062 3.21875
L6.89062 13.375
Q12.8906 10.0156 18.6562 8.29688
Q24.4219 6.59375 29.9844 6.59375
Q38.4219 6.59375 43.0156 9.90625
Q47.6094 13.2344 47.6094 19.3906
Q47.6094 24.75 44.3125 27.7812
Q41.0156 30.8125 33.5 32.3281
L27.4844 33.5
Q16.4531 35.6875 11.5156 40.375
Q6.59375 45.0625 6.59375 53.4219
Q6.59375 63.0938 13.4062 68.6562
Q20.2188 74.2188 32.1719 74.2188
Q37.3125 74.2188 42.625 73.2812
Q47.9531 72.3594 53.5156 70.5156" id="DejaVuSans-53"/>
      <path d="
M37.1094 75.9844
L37.1094 68.5
L28.5156 68.5
Q23.6875 68.5 21.7969 66.5469
Q19.9219 64.5938 19.9219 59.5156
L19.9219 54.6875
L34.7188 54.6875
L34.7188 47.7031
L19.9219 47.7031
L19.9219 0
L10.8906 0
L10.8906 47.7031
L2.29688 47.7031
L2.29688 54.6875
L10.8906 54.6875
L10.8906 58.5
Q10.8906 67.625 15.1406 71.7969
Q19.3906 75.9844 28.6094 75.9844
z
" id="DejaVuSans-66"/>
      <path d="
M45.4062 46.3906
L45.4062 75.9844
L54.3906 75.9844
L54.3906 0
L45.4062 0
L45.4062 8.20312
Q42.5781 3.32812 38.25 0.953125
Q33.9375 -1.42188 27.875 -1.42188
Q17.9688 -1.42188 11.7344 6.48438
Q5.51562 14.4062 5.51562 27.2969
Q5.51562 40.1875 11.7344 48.0938
Q17.9688 56 27.875 56
Q33.9375 56 38.25 53.625
Q42.5781 51.2656 45.4062 46.3906
M14.7969 27.2969
Q14.7969 17.3906 18.875 11.75
Q22.9531 6.10938 30.0781 6.10938
Q37.2031 6.10938 41.2969 11.75
Q45.4062 17.3906 45.4062 27.2969
Q45.4062 37.2031 41.2969 42.8438
Q37.2031 48.4844 30.0781 48.4844
Q22.9531 48.4844 18.875 42.8438
Q14.7969 37.2031 14.7969 27.2969" id="DejaVuSans-64"/>
      <path d="
M34.1875 63.1875
L20.7969 26.9062
L47.6094 26.9062
z

M28.6094 72.9062
L39.7969 72.9062
L67.5781 0
L57.3281 0
L50.6875 18.7031
L17.8281 18.7031
L11.1875 0
L0.78125 0
z
" id="DejaVuSans-41"/>
      <path d="
M41.1094 46.2969
Q39.5938 47.1719 37.8125 47.5781
Q36.0312 48 33.8906 48
Q26.2656 48 22.1875 43.0469
Q18.1094 38.0938 18.1094 28.8125
L18.1094 0
L9.07812 0
L9.07812 54.6875
L18.1094 54.6875
L18.1094 46.1875
Q20.9531 51.1719 25.4844 53.5781
Q30.0312 56 36.5312 56
Q37.4531 56 38.5781 55.875
Q39.7031 55.7656 41.0625 55.5156
z
" id="DejaVuSans-72"/>
     </defs>
     <g transform="translate(234.4425 345.36425)scale(0.12 -0.12)">
      <use xlink:href="#DejaVuSans-51"/>
      <use x="78.7109375" xlink:href="#DejaVuSans-33"/>
      <use x="142.333984375" xlink:href="#DejaVuSans-30"/>
      <use x="205.95703125" xlink:href="#DejaVuSans-2d"/>
      <use x="242.041015625" xlink:href="#DejaVuSans-53"/>
      <use x="305.517578125" xlink:href="#DejaVuSans-50"/>
      <use x="359.4453125" xlink:href="#DejaVuSans-41"/>
      <use x="426.103515625" xlink:href="#DejaVuSans-64"/>
      <use x="489.580078125" xlink:href="#DejaVuSans-65"/>
      <use x="551.103515625" xlink:href="#DejaVuSans-73"/>
      <use x="603.203125" xlink:href="#DejaVuSans-2d"/>
      <use x="639.287109375" xlink:href="#DejaVuSans-43"/>
      <use x="709.111328125" xlink:href="#DejaVuSans-61"/>
      <use x="770.390625" xlink:href="#DejaVuSans-72"/>
      <use x="809.25390625" xlink:href="#DejaVuSans-65"/>
      <use x="870.77734375" xlink:href="#DejaVuSans-66"/>
      <use x="905.982421875" xlink:href="#DejaVuSans-75"/>
      <use x="969.361328125" xlink:href="#DejaVuSans-6c"/>
     </g>
    </g>
    <g id="line2d_48">
     <path d="
M204.442 358.778
L221.242 358.778" style="fill:none;stroke:#6a3d9a;stroke-linecap:square;stroke-width:2.0;"/>
    </g>
    <g id="line2d_49"/>
    <g id="text_19">
     <!-- Q30-SPAdes -->
     <g transform="translate(234.4425 362.978)scale(0.12 -0.12)">
      <use xlink:href="#DejaVuSans-51"/>
      <use x="78.7109375" xlink:href="#DejaVuSans-33"/>
      <use x="142.333984375" xlink:href="#DejaVuSans-30"/>
      <use x="205.95703125" xlink:href="#DejaVuSans-2d"/>
      <use x="242.041015625" xlink:href="#DejaVuSans-53"/>
      <use x="305.517578125" xlink:href="#DejaVuSans-50"/>
      <use x="359.4453125" xlink:href="#DejaVuSans-41"/>
      <use x="426.103515625" xlink:href="#DejaVuSans-64"/>
      <use x="489.580078125" xlink:href="#DejaVuSans-65"/>
      <use x="551.103515625" xlink:href="#DejaVuSans-73"/>
     </g>
    </g>
    <g id="line2d_50">
     <path d="
M379.903 341.164
L396.703 341.164" style="fill:none;stroke:#ff7f00;stroke-linecap:square;stroke-width:2.0;"/>
    </g>
    <g id="line2d_51"/>
    <g id="text_20">
     <!-- Q5-SPAdes -->
     <g transform="translate(409.903125 345.36425)scale(0.12 -0.12)">
      <use xlink:href="#DejaVuSans-51"/>
      <use x="78.7109375" xlink:href="#DejaVuSans-35"/>
      <use x="142.333984375" xlink:href="#DejaVuSans-2d"/>
      <use x="178.41796875" xlink:href="#DejaVuSans-53"/>
      <use x="241.89453125" xlink:href="#DejaVuSans-50"/>
      <use x="295.822265625" xlink:href="#DejaVuSans-41"/>
      <use x="362.48046875" xlink:href="#DejaVuSans-64"/>
      <use x="425.95703125" xlink:href="#DejaVuSans-65"/>
      <use x="487.48046875" xlink:href="#DejaVuSans-73"/>
     </g>
    </g>
   </g>
  </g>
 </g>
 <defs>
  <clipPath id="p797f48e19d">
   <rect height="276.48" width="446.4" x="45.504375" y="21.318125"/>
  </clipPath>
 </defs>
</svg>
