<?xml version="1.0" encoding="utf-8" standalone="no"?>
<!DOCTYPE svg PUBLIC "-//W3C//DTD SVG 1.1//EN"
  "http://www.w3.org/Graphics/SVG/1.1/DTD/svg11.dtd">
<!-- Created with matplotlib (http://matplotlib.org/) -->
<svg height="377pt" version="1.1" viewBox="0 0 520 377" width="520pt" xmlns="http://www.w3.org/2000/svg" xmlns:xlink="http://www.w3.org/1999/xlink">
 <defs>
  <style type="text/css">
*{stroke-linecap:butt;stroke-linejoin:round;}
  </style>
 </defs>
 <g id="figure_1">
  <g id="patch_1">
   <path d="
M0 377.474
L520.736 377.474
L520.736 -5.68434e-14
L0 -5.68434e-14
z
" style="fill:#ffffff;"/>
  </g>
  <g id="axes_1">
   <g id="patch_2">
    <path d="
M58.4731 297.798
L504.873 297.798
L504.873 21.3181
L58.4731 21.3181
z
" style="fill:#ffffff;"/>
   </g>
   <g id="line2d_1">
    <path clip-path="url(#pd9aa6c6175)" d="
M58.4731 297.798
L62.9371 297.798
L67.4011 297.798
L71.8651 297.798
L76.3291 297.77
L80.7931 297.759
L85.2571 297.721
L89.7211 297.616
L94.1851 297.577
L98.6491 297.284
L103.113 296.969
L107.577 296.399
L112.041 295.337
L116.505 293.806
L120.969 291.926
L125.433 288.536
L129.897 284.743
L134.361 279.484
L138.825 272.257
L143.289 265.212
L147.753 254.894
L152.217 246.141
L156.681 235.402
L161.145 227.55
L165.609 221.047
L170.073 213.909
L174.537 211.304
L179.001 211.636
L183.465 213.09
L187.929 217.652
L192.393 221.595
L196.857 226.3
L201.321 230.801
L205.785 235.983
L210.249 240.738
L214.713 244.095
L219.177 246.207
L223.641 248.518
L228.105 249.375
L232.569 250.354
L237.033 249.497
L241.497 250.216
L245.961 249.331
L250.425 249.436
L254.889 251.178
L259.353 250.879
L263.817 250.929
L268.281 250.83
L272.745 251.897
L277.209 251.786
L281.673 251.858
L286.137 253.589
L290.601 252.013
L295.065 253.346
L299.529 255.06
L303.993 255.06
L308.457 256.525
L312.921 258.389
L317.385 261.259
L321.849 264.095
L326.313 266.384
L330.777 269.166
L335.241 271.969
L339.705 274.845
L344.169 277.925
L348.633 280.17
L353.097 282.509
L357.561 284.311
L362.025 286.103
L366.489 287.961
L370.953 289.52
L375.417 290.764
L379.881 292.014
L384.345 293.043
L388.809 294.093
L393.273 295.138
L397.737 295.841
L402.201 296.15
L406.665 296.698
L411.129 297.146
L415.593 297.428
L420.057 297.571
L424.521 297.671
L428.985 297.699
L433.449 297.759
L437.913 297.782
L442.377 297.793
L446.841 297.793
L451.305 297.793
L455.769 297.798
L460.233 297.793
L464.697 297.798
L469.161 297.798
L473.625 297.798
L478.089 297.798
L482.553 297.798
L487.017 297.798
L491.481 297.798
L495.945 297.798
L500.409 297.798
L504.873 297.798" style="fill:none;stroke:#e31a1c;stroke-linecap:square;stroke-width:2.0;"/>
   </g>
   <g id="line2d_2">
    <path clip-path="url(#pd9aa6c6175)" d="
M58.4731 297.798
L62.9371 297.798
L67.4011 297.798
L71.8651 297.798
L76.3291 297.798
L80.7931 297.798
L85.2571 297.793
L89.7211 297.798
L94.1851 297.787
L98.6491 297.793
L103.113 297.737
L107.577 297.737
L112.041 297.66
L116.505 297.599
L120.969 297.494
L125.433 297.411
L129.897 297.35
L134.361 296.842
L138.825 296.648
L143.289 296.189
L147.753 295.702
L152.217 295.166
L156.681 294.309
L161.145 293.148
L165.609 292.711
L170.073 292.163
L174.537 291.699
L179.001 291.212
L183.465 290.952
L187.929 291.074
L192.393 291.223
L196.857 291.81
L201.321 292.13
L205.785 292.457
L210.249 293.015
L214.713 293.645
L219.177 293.784
L223.641 294.796
L228.105 294.978
L232.569 295
L237.033 295.47
L241.497 295.647
L245.961 295.691
L250.425 295.94
L254.889 295.802
L259.353 295.94
L263.817 296.134
L268.281 296.012
L272.745 296.316
L277.209 296.465
L281.673 296.289
L286.137 296.526
L290.601 296.338
L295.065 296.515
L299.529 296.615
L303.993 296.714
L308.457 296.952
L312.921 297.035
L317.385 297.168
L321.849 297.317
L326.313 297.389
L330.777 297.262
L335.241 297.483
L339.705 297.483
L344.169 297.571
L348.633 297.555
L353.097 297.605
L357.561 297.616
L362.025 297.649
L366.489 297.688
L370.953 297.665
L375.417 297.71
L379.881 297.748
L384.345 297.765
L388.809 297.765
L393.273 297.77
L397.737 297.765
L402.201 297.765
L406.665 297.787
L411.129 297.793
L415.593 297.787
L420.057 297.787
L424.521 297.793
L428.985 297.798
L433.449 297.798
L437.913 297.798
L442.377 297.798
L446.841 297.798
L451.305 297.798
L455.769 297.798
L460.233 297.798
L464.697 297.798
L469.161 297.798
L473.625 297.798
L478.089 297.798
L482.553 297.798
L487.017 297.798
L491.481 297.798
L495.945 297.798
L500.409 297.798
L504.873 297.798" style="fill:none;stroke:#1f78b4;stroke-linecap:square;stroke-width:2.0;"/>
   </g>
   <g id="line2d_3">
    <path clip-path="url(#pd9aa6c6175)" d="
M58.4731 297.798
L62.9371 297.793
L67.4011 297.793
L71.8651 297.798
L76.3291 297.782
L80.7931 297.776
L85.2571 297.693
L89.7211 297.643
L94.1851 297.472
L98.6491 297.223
L103.113 296.648
L107.577 295.78
L112.041 294.547
L116.505 292.722
L120.969 289.824
L125.433 285.539
L129.897 279.849
L134.361 273.462
L138.825 263.398
L143.289 252.599
L147.753 240.882
L152.217 225.819
L156.681 210.464
L161.145 197.889
L165.609 185.713
L170.073 177.745
L174.537 171.955
L179.001 170.678
L183.465 173.852
L187.929 177.01
L192.393 183.662
L196.857 192.183
L201.321 200.56
L205.785 209.054
L210.249 216.972
L214.713 222.264
L219.177 229.303
L223.641 232.654
L228.105 235.131
L232.569 237.78
L237.033 238.244
L241.497 240.362
L245.961 240.041
L250.425 240.229
L254.889 241.396
L259.353 242.79
L263.817 242.104
L268.281 244.194
L272.745 242.607
L277.209 244.653
L281.673 243.254
L286.137 245.084
L290.601 245.101
L295.065 246.207
L299.529 247.739
L303.993 248.236
L308.457 249.569
L312.921 251.974
L317.385 253.423
L321.849 256.774
L326.313 260.556
L330.777 263.769
L335.241 267.031
L339.705 270.592
L344.169 273.352
L348.633 275.884
L353.097 278.793
L357.561 281.403
L362.025 283.432
L366.489 285.821
L370.953 286.899
L375.417 289.006
L379.881 290.383
L384.345 291.959
L388.809 293.33
L393.273 294.032
L397.737 295.05
L402.201 295.752
L406.665 296.371
L411.129 296.969
L415.593 297.218
L420.057 297.466
L424.521 297.632
L428.985 297.671
L433.449 297.765
L437.913 297.776
L442.377 297.776
L446.841 297.787
L451.305 297.793
L455.769 297.798
L460.233 297.798
L464.697 297.798
L469.161 297.798
L473.625 297.798
L478.089 297.798
L482.553 297.798
L487.017 297.798
L491.481 297.798
L495.945 297.798
L500.409 297.798
L504.873 297.798" style="fill:none;stroke:#33a02c;stroke-linecap:square;stroke-width:2.0;"/>
   </g>
   <g id="line2d_4">
    <path clip-path="url(#pd9aa6c6175)" d="
M58.4731 297.798
L62.9371 297.765
L67.4011 297.793
L71.8651 297.782
L76.3291 297.754
L80.7931 297.715
L85.2571 297.638
L89.7211 297.494
L94.1851 297.162
L98.6491 296.51
L103.113 295.614
L107.577 294.121
L112.041 291.34
L116.505 287.303
L120.969 281.574
L125.433 274.137
L129.897 263.443
L134.361 249.386
L138.825 230.602
L143.289 207.732
L147.753 185.885
L152.217 157.048
L156.681 128.426
L161.145 104.218
L165.609 81.2092
L170.073 63.2988
L174.537 53.5391
L179.001 48.4076
L183.465 54.0257
L187.929 62.2925
L192.393 77.897
L196.857 90.8639
L201.321 106.739
L205.785 123.787
L210.249 139.325
L214.713 150.329
L219.177 161.659
L223.641 170.136
L228.105 174.599
L232.569 179.996
L237.033 180.366
L241.497 183.413
L245.961 185
L250.425 185.127
L254.889 185.907
L259.353 187.648
L263.817 188.307
L268.281 190.634
L272.745 190.939
L277.209 192.183
L281.673 191.198
L286.137 192.857
L290.601 194.594
L295.065 195.423
L299.529 197.84
L303.993 199.863
L308.457 202.241
L312.921 205.786
L317.385 211.708
L321.849 217.514
L326.313 223.724
L330.777 230.177
L335.241 237.238
L339.705 244.111
L344.169 248.939
L348.633 254.38
L353.097 260.468
L357.561 264.261
L362.025 269.011
L366.489 273.695
L370.953 277.128
L375.417 280.474
L379.881 283.266
L384.345 286.38
L388.809 288.608
L393.273 290.261
L397.737 292.506
L402.201 293.85
L406.665 295.028
L411.129 296.172
L415.593 296.642
L420.057 297.079
L424.521 297.444
L428.985 297.56
L433.449 297.688
L437.913 297.748
L442.377 297.765
L446.841 297.782
L451.305 297.793
L455.769 297.793
L460.233 297.798
L464.697 297.798
L469.161 297.798
L473.625 297.798
L478.089 297.798
L482.553 297.798
L487.017 297.798
L491.481 297.798
L495.945 297.798
L500.409 297.798
L504.873 297.798" style="fill:none;stroke:#6a3d9a;stroke-linecap:square;stroke-width:2.0;"/>
   </g>
   <g id="line2d_5">
    <path clip-path="url(#pd9aa6c6175)" d="
M58.4731 297.793
L62.9371 297.787
L67.4011 297.787
L71.8651 297.793
L76.3291 297.77
L80.7931 297.77
L85.2571 297.699
L89.7211 297.638
L94.1851 297.477
L98.6491 297.19
L103.113 296.698
L107.577 295.935
L112.041 294.42
L116.505 292.318
L120.969 289.642
L125.433 285.594
L129.897 279.877
L134.361 272.749
L138.825 263.509
L143.289 251.731
L147.753 239.516
L152.217 226.311
L156.681 211.282
L161.145 198.846
L165.609 187.682
L170.073 178.691
L174.537 172.414
L179.001 172.232
L183.465 172.735
L187.929 177.07
L192.393 183.96
L196.857 190.922
L201.321 198.896
L205.785 207.367
L210.249 214.788
L214.713 219.77
L219.177 225.156
L223.641 228.91
L228.105 231.559
L232.569 233.135
L237.033 233.854
L241.497 234.368
L245.961 234.921
L250.425 235.07
L254.889 235.607
L259.353 235.856
L263.817 236.436
L268.281 237.658
L272.745 236.281
L277.209 238.36
L281.673 236.209
L286.137 236.63
L290.601 238.543
L295.065 237.824
L299.529 237.238
L303.993 237.492
L308.457 238.936
L312.921 241.186
L317.385 243.016
L321.849 246.633
L326.313 249.536
L330.777 253.744
L335.241 256.271
L339.705 260.733
L344.169 263.642
L348.633 267.081
L353.097 269.918
L357.561 272.937
L362.025 276.764
L366.489 278.997
L370.953 281.442
L375.417 284.56
L379.881 285.788
L384.345 288.448
L388.809 289.963
L393.273 292.025
L397.737 293.397
L402.201 294.298
L406.665 295.315
L411.129 296.371
L415.593 296.709
L420.057 297.212
L424.521 297.428
L428.985 297.605
L433.449 297.688
L437.913 297.737
L442.377 297.765
L446.841 297.776
L451.305 297.77
L455.769 297.787
L460.233 297.798
L464.697 297.798
L469.161 297.798
L473.625 297.798
L478.089 297.798
L482.553 297.798
L487.017 297.798
L491.481 297.798
L495.945 297.798
L500.409 297.798
L504.873 297.798" style="fill:none;stroke:#ff7f00;stroke-linecap:square;stroke-width:2.0;"/>
   </g>
   <g id="matplotlib.axis_1">
    <g id="xtick_1">
     <g id="line2d_6">
      <path clip-path="url(#pd9aa6c6175)" d="
M58.4731 297.798
L58.4731 21.3181" style="fill:none;stroke:#000000;stroke-dasharray:1.000000,3.000000;stroke-dashoffset:0.0;stroke-width:0.5;"/>
     </g>
     <g id="line2d_7">
      <defs>
       <path d="
M0 0
L0 -4" id="m93b0483c22" style="stroke:#000000;stroke-width:0.5;"/>
      </defs>
      <g>
       <use style="stroke:#000000;stroke-width:0.5;" x="58.473125" xlink:href="#m93b0483c22" y="297.798125"/>
      </g>
     </g>
     <g id="line2d_8">
      <defs>
       <path d="
M0 0
L0 4" id="m741efc42ff" style="stroke:#000000;stroke-width:0.5;"/>
      </defs>
      <g>
       <use style="stroke:#000000;stroke-width:0.5;" x="58.473125" xlink:href="#m741efc42ff" y="21.318125"/>
      </g>
     </g>
     <g id="text_1">
      <!-- 0 -->
      <defs>
       <path d="
M31.7812 66.4062
Q24.1719 66.4062 20.3281 58.9062
Q16.5 51.4219 16.5 36.375
Q16.5 21.3906 20.3281 13.8906
Q24.1719 6.39062 31.7812 6.39062
Q39.4531 6.39062 43.2812 13.8906
Q47.125 21.3906 47.125 36.375
Q47.125 51.4219 43.2812 58.9062
Q39.4531 66.4062 31.7812 66.4062
M31.7812 74.2188
Q44.0469 74.2188 50.5156 64.5156
Q56.9844 54.8281 56.9844 36.375
Q56.9844 17.9688 50.5156 8.26562
Q44.0469 -1.42188 31.7812 -1.42188
Q19.5312 -1.42188 13.0625 8.26562
Q6.59375 17.9688 6.59375 36.375
Q6.59375 54.8281 13.0625 64.5156
Q19.5312 74.2188 31.7812 74.2188" id="DejaVuSans-30"/>
      </defs>
      <g transform="translate(55.95359375 309.3965625)scale(0.1 -0.1)">
       <use xlink:href="#DejaVuSans-30"/>
      </g>
     </g>
    </g>
    <g id="xtick_2">
     <g id="line2d_9">
      <path clip-path="url(#pd9aa6c6175)" d="
M147.753 297.798
L147.753 21.3181" style="fill:none;stroke:#000000;stroke-dasharray:1.000000,3.000000;stroke-dashoffset:0.0;stroke-width:0.5;"/>
     </g>
     <g id="line2d_10">
      <g>
       <use style="stroke:#000000;stroke-width:0.5;" x="147.753125" xlink:href="#m93b0483c22" y="297.798125"/>
      </g>
     </g>
     <g id="line2d_11">
      <g>
       <use style="stroke:#000000;stroke-width:0.5;" x="147.753125" xlink:href="#m741efc42ff" y="21.318125"/>
      </g>
     </g>
     <g id="text_2">
      <!-- 20 -->
      <defs>
       <path d="
M19.1875 8.29688
L53.6094 8.29688
L53.6094 0
L7.32812 0
L7.32812 8.29688
Q12.9375 14.1094 22.625 23.8906
Q32.3281 33.6875 34.8125 36.5312
Q39.5469 41.8438 41.4219 45.5312
Q43.3125 49.2188 43.3125 52.7812
Q43.3125 58.5938 39.2344 62.25
Q35.1562 65.9219 28.6094 65.9219
Q23.9688 65.9219 18.8125 64.3125
Q13.6719 62.7031 7.8125 59.4219
L7.8125 69.3906
Q13.7656 71.7812 18.9375 73
Q24.125 74.2188 28.4219 74.2188
Q39.75 74.2188 46.4844 68.5469
Q53.2188 62.8906 53.2188 53.4219
Q53.2188 48.9219 51.5312 44.8906
Q49.8594 40.875 45.4062 35.4062
Q44.1875 33.9844 37.6406 27.2188
Q31.1094 20.4531 19.1875 8.29688" id="DejaVuSans-32"/>
      </defs>
      <g transform="translate(142.0890625 309.3965625)scale(0.1 -0.1)">
       <use xlink:href="#DejaVuSans-32"/>
       <use x="63.623046875" xlink:href="#DejaVuSans-30"/>
      </g>
     </g>
    </g>
    <g id="xtick_3">
     <g id="line2d_12">
      <path clip-path="url(#pd9aa6c6175)" d="
M237.033 297.798
L237.033 21.3181" style="fill:none;stroke:#000000;stroke-dasharray:1.000000,3.000000;stroke-dashoffset:0.0;stroke-width:0.5;"/>
     </g>
     <g id="line2d_13">
      <g>
       <use style="stroke:#000000;stroke-width:0.5;" x="237.033125" xlink:href="#m93b0483c22" y="297.798125"/>
      </g>
     </g>
     <g id="line2d_14">
      <g>
       <use style="stroke:#000000;stroke-width:0.5;" x="237.033125" xlink:href="#m741efc42ff" y="21.318125"/>
      </g>
     </g>
     <g id="text_3">
      <!-- 40 -->
      <defs>
       <path d="
M37.7969 64.3125
L12.8906 25.3906
L37.7969 25.3906
z

M35.2031 72.9062
L47.6094 72.9062
L47.6094 25.3906
L58.0156 25.3906
L58.0156 17.1875
L47.6094 17.1875
L47.6094 0
L37.7969 0
L37.7969 17.1875
L4.89062 17.1875
L4.89062 26.7031
z
" id="DejaVuSans-34"/>
      </defs>
      <g transform="translate(231.2471875 309.3965625)scale(0.1 -0.1)">
       <use xlink:href="#DejaVuSans-34"/>
       <use x="63.623046875" xlink:href="#DejaVuSans-30"/>
      </g>
     </g>
    </g>
    <g id="xtick_4">
     <g id="line2d_15">
      <path clip-path="url(#pd9aa6c6175)" d="
M326.313 297.798
L326.313 21.3181" style="fill:none;stroke:#000000;stroke-dasharray:1.000000,3.000000;stroke-dashoffset:0.0;stroke-width:0.5;"/>
     </g>
     <g id="line2d_16">
      <g>
       <use style="stroke:#000000;stroke-width:0.5;" x="326.313125" xlink:href="#m93b0483c22" y="297.798125"/>
      </g>
     </g>
     <g id="line2d_17">
      <g>
       <use style="stroke:#000000;stroke-width:0.5;" x="326.313125" xlink:href="#m741efc42ff" y="21.318125"/>
      </g>
     </g>
     <g id="text_4">
      <!-- 60 -->
      <defs>
       <path d="
M33.0156 40.375
Q26.375 40.375 22.4844 35.8281
Q18.6094 31.2969 18.6094 23.3906
Q18.6094 15.5312 22.4844 10.9531
Q26.375 6.39062 33.0156 6.39062
Q39.6562 6.39062 43.5312 10.9531
Q47.4062 15.5312 47.4062 23.3906
Q47.4062 31.2969 43.5312 35.8281
Q39.6562 40.375 33.0156 40.375
M52.5938 71.2969
L52.5938 62.3125
Q48.875 64.0625 45.0938 64.9844
Q41.3125 65.9219 37.5938 65.9219
Q27.8281 65.9219 22.6719 59.3281
Q17.5312 52.7344 16.7969 39.4062
Q19.6719 43.6562 24.0156 45.9219
Q28.375 48.1875 33.5938 48.1875
Q44.5781 48.1875 50.9531 41.5156
Q57.3281 34.8594 57.3281 23.3906
Q57.3281 12.1562 50.6875 5.35938
Q44.0469 -1.42188 33.0156 -1.42188
Q20.3594 -1.42188 13.6719 8.26562
Q6.98438 17.9688 6.98438 36.375
Q6.98438 53.6562 15.1875 63.9375
Q23.3906 74.2188 37.2031 74.2188
Q40.9219 74.2188 44.7031 73.4844
Q48.4844 72.75 52.5938 71.2969" id="DejaVuSans-36"/>
      </defs>
      <g transform="translate(320.631875 309.3965625)scale(0.1 -0.1)">
       <use xlink:href="#DejaVuSans-36"/>
       <use x="63.623046875" xlink:href="#DejaVuSans-30"/>
      </g>
     </g>
    </g>
    <g id="xtick_5">
     <g id="line2d_18">
      <path clip-path="url(#pd9aa6c6175)" d="
M415.593 297.798
L415.593 21.3181" style="fill:none;stroke:#000000;stroke-dasharray:1.000000,3.000000;stroke-dashoffset:0.0;stroke-width:0.5;"/>
     </g>
     <g id="line2d_19">
      <g>
       <use style="stroke:#000000;stroke-width:0.5;" x="415.593125" xlink:href="#m93b0483c22" y="297.798125"/>
      </g>
     </g>
     <g id="line2d_20">
      <g>
       <use style="stroke:#000000;stroke-width:0.5;" x="415.593125" xlink:href="#m741efc42ff" y="21.318125"/>
      </g>
     </g>
     <g id="text_5">
      <!-- 80 -->
      <defs>
       <path d="
M31.7812 34.625
Q24.75 34.625 20.7188 30.8594
Q16.7031 27.0938 16.7031 20.5156
Q16.7031 13.9219 20.7188 10.1562
Q24.75 6.39062 31.7812 6.39062
Q38.8125 6.39062 42.8594 10.1719
Q46.9219 13.9688 46.9219 20.5156
Q46.9219 27.0938 42.8906 30.8594
Q38.875 34.625 31.7812 34.625
M21.9219 38.8125
Q15.5781 40.375 12.0312 44.7188
Q8.5 49.0781 8.5 55.3281
Q8.5 64.0625 14.7188 69.1406
Q20.9531 74.2188 31.7812 74.2188
Q42.6719 74.2188 48.875 69.1406
Q55.0781 64.0625 55.0781 55.3281
Q55.0781 49.0781 51.5312 44.7188
Q48 40.375 41.7031 38.8125
Q48.8281 37.1562 52.7969 32.3125
Q56.7812 27.4844 56.7812 20.5156
Q56.7812 9.90625 50.3125 4.23438
Q43.8438 -1.42188 31.7812 -1.42188
Q19.7344 -1.42188 13.25 4.23438
Q6.78125 9.90625 6.78125 20.5156
Q6.78125 27.4844 10.7812 32.3125
Q14.7969 37.1562 21.9219 38.8125
M18.3125 54.3906
Q18.3125 48.7344 21.8438 45.5625
Q25.3906 42.3906 31.7812 42.3906
Q38.1406 42.3906 41.7188 45.5625
Q45.3125 48.7344 45.3125 54.3906
Q45.3125 60.0625 41.7188 63.2344
Q38.1406 66.4062 31.7812 66.4062
Q25.3906 66.4062 21.8438 63.2344
Q18.3125 60.0625 18.3125 54.3906" id="DejaVuSans-38"/>
      </defs>
      <g transform="translate(409.90171875 309.3965625)scale(0.1 -0.1)">
       <use xlink:href="#DejaVuSans-38"/>
       <use x="63.623046875" xlink:href="#DejaVuSans-30"/>
      </g>
     </g>
    </g>
    <g id="xtick_6">
     <g id="line2d_21">
      <path clip-path="url(#pd9aa6c6175)" d="
M504.873 297.798
L504.873 21.3181" style="fill:none;stroke:#000000;stroke-dasharray:1.000000,3.000000;stroke-dashoffset:0.0;stroke-width:0.5;"/>
     </g>
     <g id="line2d_22">
      <g>
       <use style="stroke:#000000;stroke-width:0.5;" x="504.873125" xlink:href="#m93b0483c22" y="297.798125"/>
      </g>
     </g>
     <g id="line2d_23">
      <g>
       <use style="stroke:#000000;stroke-width:0.5;" x="504.873125" xlink:href="#m741efc42ff" y="21.318125"/>
      </g>
     </g>
     <g id="text_6">
      <!-- 100 -->
      <defs>
       <path d="
M12.4062 8.29688
L28.5156 8.29688
L28.5156 63.9219
L10.9844 60.4062
L10.9844 69.3906
L28.4219 72.9062
L38.2812 72.9062
L38.2812 8.29688
L54.3906 8.29688
L54.3906 0
L12.4062 0
z
" id="DejaVuSans-31"/>
      </defs>
      <g transform="translate(496.210625 309.3965625)scale(0.1 -0.1)">
       <use xlink:href="#DejaVuSans-31"/>
       <use x="63.623046875" xlink:href="#DejaVuSans-30"/>
       <use x="127.24609375" xlink:href="#DejaVuSans-30"/>
      </g>
     </g>
    </g>
    <g id="text_7">
     <!-- GC (%) -->
     <defs>
      <path d="
M64.4062 67.2812
L64.4062 56.8906
Q59.4219 61.5312 53.7812 63.8125
Q48.1406 66.1094 41.7969 66.1094
Q29.2969 66.1094 22.6562 58.4688
Q16.0156 50.8281 16.0156 36.375
Q16.0156 21.9688 22.6562 14.3281
Q29.2969 6.6875 41.7969 6.6875
Q48.1406 6.6875 53.7812 8.98438
Q59.4219 11.2812 64.4062 15.9219
L64.4062 5.60938
Q59.2344 2.09375 53.4375 0.328125
Q47.6562 -1.42188 41.2188 -1.42188
Q24.6562 -1.42188 15.125 8.70312
Q5.60938 18.8438 5.60938 36.375
Q5.60938 53.9531 15.125 64.0781
Q24.6562 74.2188 41.2188 74.2188
Q47.75 74.2188 53.5312 72.4844
Q59.3281 70.75 64.4062 67.2812" id="DejaVuSans-43"/>
      <path id="DejaVuSans-20"/>
      <path d="
M59.5156 10.4062
L59.5156 29.9844
L43.4062 29.9844
L43.4062 38.0938
L69.2812 38.0938
L69.2812 6.78125
Q63.5781 2.73438 56.6875 0.65625
Q49.8125 -1.42188 42 -1.42188
Q24.9062 -1.42188 15.25 8.5625
Q5.60938 18.5625 5.60938 36.375
Q5.60938 54.25 15.25 64.2344
Q24.9062 74.2188 42 74.2188
Q49.125 74.2188 55.5469 72.4531
Q61.9688 70.7031 67.3906 67.2812
L67.3906 56.7812
Q61.9219 61.4219 55.7656 63.7656
Q49.6094 66.1094 42.8281 66.1094
Q29.4375 66.1094 22.7188 58.6406
Q16.0156 51.1719 16.0156 36.375
Q16.0156 21.625 22.7188 14.1562
Q29.4375 6.6875 42.8281 6.6875
Q48.0469 6.6875 52.1406 7.59375
Q56.25 8.5 59.5156 10.4062" id="DejaVuSans-47"/>
      <path d="
M72.7031 32.0781
Q68.4531 32.0781 66.0312 28.4688
Q63.625 24.8594 63.625 18.4062
Q63.625 12.0625 66.0312 8.42188
Q68.4531 4.78125 72.7031 4.78125
Q76.8594 4.78125 79.2656 8.42188
Q81.6875 12.0625 81.6875 18.4062
Q81.6875 24.8125 79.2656 28.4375
Q76.8594 32.0781 72.7031 32.0781
M72.7031 38.2812
Q80.4219 38.2812 84.9531 32.9062
Q89.5 27.5469 89.5 18.4062
Q89.5 9.28125 84.9375 3.92188
Q80.375 -1.42188 72.7031 -1.42188
Q64.8906 -1.42188 60.3438 3.92188
Q55.8125 9.28125 55.8125 18.4062
Q55.8125 27.5938 60.375 32.9375
Q64.9375 38.2812 72.7031 38.2812
M22.3125 68.0156
Q18.1094 68.0156 15.6875 64.375
Q13.2812 60.75 13.2812 54.3906
Q13.2812 47.9531 15.6719 44.3281
Q18.0625 40.7188 22.3125 40.7188
Q26.5625 40.7188 28.9688 44.3281
Q31.3906 47.9531 31.3906 54.3906
Q31.3906 60.6875 28.9531 64.3438
Q26.5156 68.0156 22.3125 68.0156
M66.4062 74.2188
L74.2188 74.2188
L28.6094 -1.42188
L20.7969 -1.42188
z

M22.3125 74.2188
Q30.0312 74.2188 34.6094 68.875
Q39.2031 63.5312 39.2031 54.3906
Q39.2031 45.1719 34.6406 39.8438
Q30.0781 34.5156 22.3125 34.5156
Q14.5469 34.5156 10.0312 39.8594
Q5.51562 45.2188 5.51562 54.3906
Q5.51562 63.4844 10.0469 68.8438
Q14.5938 74.2188 22.3125 74.2188" id="DejaVuSans-25"/>
      <path d="
M31 75.875
Q24.4688 64.6562 21.2812 53.6562
Q18.1094 42.6719 18.1094 31.3906
Q18.1094 20.125 21.3125 9.0625
Q24.5156 -2 31 -13.1875
L23.1875 -13.1875
Q15.875 -1.70312 12.2344 9.375
Q8.59375 20.4531 8.59375 31.3906
Q8.59375 42.2812 12.2031 53.3125
Q15.8281 64.3594 23.1875 75.875
z
" id="DejaVuSans-28"/>
      <path d="
M8.01562 75.875
L15.8281 75.875
Q23.1406 64.3594 26.7812 53.3125
Q30.4219 42.2812 30.4219 31.3906
Q30.4219 20.4531 26.7812 9.375
Q23.1406 -1.70312 15.8281 -13.1875
L8.01562 -13.1875
Q14.5 -2 17.7031 9.0625
Q20.9062 20.125 20.9062 31.3906
Q20.9062 42.6719 17.7031 53.6562
Q14.5 64.6562 8.01562 75.875" id="DejaVuSans-29"/>
     </defs>
     <g transform="translate(261.0603125 325.594375)scale(0.12 -0.12)">
      <use xlink:href="#DejaVuSans-47"/>
      <use x="77.490234375" xlink:href="#DejaVuSans-43"/>
      <use x="147.314453125" xlink:href="#DejaVuSans-20"/>
      <use x="179.1015625" xlink:href="#DejaVuSans-28"/>
      <use x="218.115234375" xlink:href="#DejaVuSans-25"/>
      <use x="313.134765625" xlink:href="#DejaVuSans-29"/>
     </g>
    </g>
   </g>
   <g id="matplotlib.axis_2">
    <g id="ytick_1">
     <g id="line2d_24">
      <path clip-path="url(#pd9aa6c6175)" d="
M58.4731 297.798
L504.873 297.798" style="fill:none;stroke:#000000;stroke-dasharray:1.000000,3.000000;stroke-dashoffset:0.0;stroke-width:0.5;"/>
     </g>
     <g id="line2d_25">
      <defs>
       <path d="
M0 0
L4 0" id="m728421d6d4" style="stroke:#000000;stroke-width:0.5;"/>
      </defs>
      <g>
       <use style="stroke:#000000;stroke-width:0.5;" x="58.473125" xlink:href="#m728421d6d4" y="297.798125"/>
      </g>
     </g>
     <g id="line2d_26">
      <defs>
       <path d="
M0 0
L-4 0" id="mcb0005524f" style="stroke:#000000;stroke-width:0.5;"/>
      </defs>
      <g>
       <use style="stroke:#000000;stroke-width:0.5;" x="504.873125" xlink:href="#mcb0005524f" y="297.798125"/>
      </g>
     </g>
     <g id="text_8">
      <!-- 0 -->
      <g transform="translate(49.4340625 300.5575)scale(0.1 -0.1)">
       <use xlink:href="#DejaVuSans-30"/>
      </g>
     </g>
    </g>
    <g id="ytick_2">
     <g id="line2d_27">
      <path clip-path="url(#pd9aa6c6175)" d="
M58.4731 242.502
L504.873 242.502" style="fill:none;stroke:#000000;stroke-dasharray:1.000000,3.000000;stroke-dashoffset:0.0;stroke-width:0.5;"/>
     </g>
     <g id="line2d_28">
      <g>
       <use style="stroke:#000000;stroke-width:0.5;" x="58.473125" xlink:href="#m728421d6d4" y="242.502125"/>
      </g>
     </g>
     <g id="line2d_29">
      <g>
       <use style="stroke:#000000;stroke-width:0.5;" x="504.873125" xlink:href="#mcb0005524f" y="242.502125"/>
      </g>
     </g>
     <g id="text_9">
      <!-- 10000 -->
      <g transform="translate(24.423125 245.2615)scale(0.1 -0.1)">
       <use xlink:href="#DejaVuSans-31"/>
       <use x="63.623046875" xlink:href="#DejaVuSans-30"/>
       <use x="127.24609375" xlink:href="#DejaVuSans-30"/>
       <use x="190.869140625" xlink:href="#DejaVuSans-30"/>
       <use x="254.4921875" xlink:href="#DejaVuSans-30"/>
      </g>
     </g>
    </g>
    <g id="ytick_3">
     <g id="line2d_30">
      <path clip-path="url(#pd9aa6c6175)" d="
M58.4731 187.206
L504.873 187.206" style="fill:none;stroke:#000000;stroke-dasharray:1.000000,3.000000;stroke-dashoffset:0.0;stroke-width:0.5;"/>
     </g>
     <g id="line2d_31">
      <g>
       <use style="stroke:#000000;stroke-width:0.5;" x="58.473125" xlink:href="#m728421d6d4" y="187.206125"/>
      </g>
     </g>
     <g id="line2d_32">
      <g>
       <use style="stroke:#000000;stroke-width:0.5;" x="504.873125" xlink:href="#mcb0005524f" y="187.206125"/>
      </g>
     </g>
     <g id="text_10">
      <!-- 20000 -->
      <g transform="translate(24.0575 189.9655)scale(0.1 -0.1)">
       <use xlink:href="#DejaVuSans-32"/>
       <use x="63.623046875" xlink:href="#DejaVuSans-30"/>
       <use x="127.24609375" xlink:href="#DejaVuSans-30"/>
       <use x="190.869140625" xlink:href="#DejaVuSans-30"/>
       <use x="254.4921875" xlink:href="#DejaVuSans-30"/>
      </g>
     </g>
    </g>
    <g id="ytick_4">
     <g id="line2d_33">
      <path clip-path="url(#pd9aa6c6175)" d="
M58.4731 131.91
L504.873 131.91" style="fill:none;stroke:#000000;stroke-dasharray:1.000000,3.000000;stroke-dashoffset:0.0;stroke-width:0.5;"/>
     </g>
     <g id="line2d_34">
      <g>
       <use style="stroke:#000000;stroke-width:0.5;" x="58.473125" xlink:href="#m728421d6d4" y="131.910125"/>
      </g>
     </g>
     <g id="line2d_35">
      <g>
       <use style="stroke:#000000;stroke-width:0.5;" x="504.873125" xlink:href="#mcb0005524f" y="131.910125"/>
      </g>
     </g>
     <g id="text_11">
      <!-- 30000 -->
      <defs>
       <path d="
M40.5781 39.3125
Q47.6562 37.7969 51.625 33
Q55.6094 28.2188 55.6094 21.1875
Q55.6094 10.4062 48.1875 4.48438
Q40.7656 -1.42188 27.0938 -1.42188
Q22.5156 -1.42188 17.6562 -0.515625
Q12.7969 0.390625 7.625 2.20312
L7.625 11.7188
Q11.7188 9.32812 16.5938 8.10938
Q21.4844 6.89062 26.8125 6.89062
Q36.0781 6.89062 40.9375 10.5469
Q45.7969 14.2031 45.7969 21.1875
Q45.7969 27.6406 41.2812 31.2656
Q36.7656 34.9062 28.7188 34.9062
L20.2188 34.9062
L20.2188 43.0156
L29.1094 43.0156
Q36.375 43.0156 40.2344 45.9219
Q44.0938 48.8281 44.0938 54.2969
Q44.0938 59.9062 40.1094 62.9062
Q36.1406 65.9219 28.7188 65.9219
Q24.6562 65.9219 20.0156 65.0312
Q15.375 64.1562 9.8125 62.3125
L9.8125 71.0938
Q15.4375 72.6562 20.3438 73.4375
Q25.25 74.2188 29.5938 74.2188
Q40.8281 74.2188 47.3594 69.1094
Q53.9062 64.0156 53.9062 55.3281
Q53.9062 49.2656 50.4375 45.0938
Q46.9688 40.9219 40.5781 39.3125" id="DejaVuSans-33"/>
      </defs>
      <g transform="translate(24.0871875 134.6695)scale(0.1 -0.1)">
       <use xlink:href="#DejaVuSans-33"/>
       <use x="63.623046875" xlink:href="#DejaVuSans-30"/>
       <use x="127.24609375" xlink:href="#DejaVuSans-30"/>
       <use x="190.869140625" xlink:href="#DejaVuSans-30"/>
       <use x="254.4921875" xlink:href="#DejaVuSans-30"/>
      </g>
     </g>
    </g>
    <g id="ytick_5">
     <g id="line2d_36">
      <path clip-path="url(#pd9aa6c6175)" d="
M58.4731 76.6141
L504.873 76.6141" style="fill:none;stroke:#000000;stroke-dasharray:1.000000,3.000000;stroke-dashoffset:0.0;stroke-width:0.5;"/>
     </g>
     <g id="line2d_37">
      <g>
       <use style="stroke:#000000;stroke-width:0.5;" x="58.473125" xlink:href="#m728421d6d4" y="76.614125"/>
      </g>
     </g>
     <g id="line2d_38">
      <g>
       <use style="stroke:#000000;stroke-width:0.5;" x="504.873125" xlink:href="#mcb0005524f" y="76.614125"/>
      </g>
     </g>
     <g id="text_12">
      <!-- 40000 -->
      <g transform="translate(23.81375 79.3735)scale(0.1 -0.1)">
       <use xlink:href="#DejaVuSans-34"/>
       <use x="63.623046875" xlink:href="#DejaVuSans-30"/>
       <use x="127.24609375" xlink:href="#DejaVuSans-30"/>
       <use x="190.869140625" xlink:href="#DejaVuSans-30"/>
       <use x="254.4921875" xlink:href="#DejaVuSans-30"/>
      </g>
     </g>
    </g>
    <g id="ytick_6">
     <g id="line2d_39">
      <path clip-path="url(#pd9aa6c6175)" d="
M58.4731 21.3181
L504.873 21.3181" style="fill:none;stroke:#000000;stroke-dasharray:1.000000,3.000000;stroke-dashoffset:0.0;stroke-width:0.5;"/>
     </g>
     <g id="line2d_40">
      <g>
       <use style="stroke:#000000;stroke-width:0.5;" x="58.473125" xlink:href="#m728421d6d4" y="21.318125"/>
      </g>
     </g>
     <g id="line2d_41">
      <g>
       <use style="stroke:#000000;stroke-width:0.5;" x="504.873125" xlink:href="#mcb0005524f" y="21.318125"/>
      </g>
     </g>
     <g id="text_13">
      <!-- 50000 -->
      <defs>
       <path d="
M10.7969 72.9062
L49.5156 72.9062
L49.5156 64.5938
L19.8281 64.5938
L19.8281 46.7344
Q21.9688 47.4688 24.1094 47.8281
Q26.2656 48.1875 28.4219 48.1875
Q40.625 48.1875 47.75 41.5
Q54.8906 34.8125 54.8906 23.3906
Q54.8906 11.625 47.5625 5.09375
Q40.2344 -1.42188 26.9062 -1.42188
Q22.3125 -1.42188 17.5469 -0.640625
Q12.7969 0.140625 7.71875 1.70312
L7.71875 11.625
Q12.1094 9.23438 16.7969 8.0625
Q21.4844 6.89062 26.7031 6.89062
Q35.1562 6.89062 40.0781 11.3281
Q45.0156 15.7656 45.0156 23.3906
Q45.0156 31 40.0781 35.4375
Q35.1562 39.8906 26.7031 39.8906
Q22.75 39.8906 18.8125 39.0156
Q14.8906 38.1406 10.7969 36.2812
z
" id="DejaVuSans-35"/>
      </defs>
      <g transform="translate(24.0965625 24.0775)scale(0.1 -0.1)">
       <use xlink:href="#DejaVuSans-35"/>
       <use x="63.623046875" xlink:href="#DejaVuSans-30"/>
       <use x="127.24609375" xlink:href="#DejaVuSans-30"/>
       <use x="190.869140625" xlink:href="#DejaVuSans-30"/>
       <use x="254.4921875" xlink:href="#DejaVuSans-30"/>
      </g>
     </g>
    </g>
    <g id="text_14">
     <!-- # windows -->
     <defs>
      <path d="
M30.6094 48.3906
Q23.3906 48.3906 19.1875 42.75
Q14.9844 37.1094 14.9844 27.2969
Q14.9844 17.4844 19.1562 11.8438
Q23.3438 6.20312 30.6094 6.20312
Q37.7969 6.20312 41.9844 11.8594
Q46.1875 17.5312 46.1875 27.2969
Q46.1875 37.0156 41.9844 42.7031
Q37.7969 48.3906 30.6094 48.3906
M30.6094 56
Q42.3281 56 49.0156 48.375
Q55.7188 40.7656 55.7188 27.2969
Q55.7188 13.875 49.0156 6.21875
Q42.3281 -1.42188 30.6094 -1.42188
Q18.8438 -1.42188 12.1719 6.21875
Q5.51562 13.875 5.51562 27.2969
Q5.51562 40.7656 12.1719 48.375
Q18.8438 56 30.6094 56" id="DejaVuSans-6f"/>
      <path d="
M54.8906 33.0156
L54.8906 0
L45.9062 0
L45.9062 32.7188
Q45.9062 40.4844 42.875 44.3281
Q39.8438 48.1875 33.7969 48.1875
Q26.5156 48.1875 22.3125 43.5469
Q18.1094 38.9219 18.1094 30.9062
L18.1094 0
L9.07812 0
L9.07812 54.6875
L18.1094 54.6875
L18.1094 46.1875
Q21.3438 51.125 25.7031 53.5625
Q30.0781 56 35.7969 56
Q45.2188 56 50.0469 50.1719
Q54.8906 44.3438 54.8906 33.0156" id="DejaVuSans-6e"/>
      <path d="
M51.125 44
L36.9219 44
L32.8125 27.6875
L47.125 27.6875
z

M43.7969 71.7812
L38.7188 51.5156
L52.9844 51.5156
L58.1094 71.7812
L65.9219 71.7812
L60.8906 51.5156
L76.125 51.5156
L76.125 44
L58.9844 44
L54.9844 27.6875
L70.5156 27.6875
L70.5156 20.2188
L53.0781 20.2188
L48 0
L40.1875 0
L45.2188 20.2188
L30.9062 20.2188
L25.875 0
L18.0156 0
L23.0938 20.2188
L7.71875 20.2188
L7.71875 27.6875
L24.9062 27.6875
L29 44
L13.2812 44
L13.2812 51.5156
L30.9062 51.5156
L35.8906 71.7812
z
" id="DejaVuSans-23"/>
      <path d="
M9.42188 54.6875
L18.4062 54.6875
L18.4062 0
L9.42188 0
z

M9.42188 75.9844
L18.4062 75.9844
L18.4062 64.5938
L9.42188 64.5938
z
" id="DejaVuSans-69"/>
      <path d="
M4.20312 54.6875
L13.1875 54.6875
L24.4219 12.0156
L35.5938 54.6875
L46.1875 54.6875
L57.4219 12.0156
L68.6094 54.6875
L77.5938 54.6875
L63.2812 0
L52.6875 0
L40.9219 44.8281
L29.1094 0
L18.5 0
z
" id="DejaVuSans-77"/>
      <path d="
M45.4062 46.3906
L45.4062 75.9844
L54.3906 75.9844
L54.3906 0
L45.4062 0
L45.4062 8.20312
Q42.5781 3.32812 38.25 0.953125
Q33.9375 -1.42188 27.875 -1.42188
Q17.9688 -1.42188 11.7344 6.48438
Q5.51562 14.4062 5.51562 27.2969
Q5.51562 40.1875 11.7344 48.0938
Q17.9688 56 27.875 56
Q33.9375 56 38.25 53.625
Q42.5781 51.2656 45.4062 46.3906
M14.7969 27.2969
Q14.7969 17.3906 18.875 11.75
Q22.9531 6.10938 30.0781 6.10938
Q37.2031 6.10938 41.2969 11.75
Q45.4062 17.3906 45.4062 27.2969
Q45.4062 37.2031 41.2969 42.8438
Q37.2031 48.4844 30.0781 48.4844
Q22.9531 48.4844 18.875 42.8438
Q14.7969 37.2031 14.7969 27.2969" id="DejaVuSans-64"/>
      <path d="
M44.2812 53.0781
L44.2812 44.5781
Q40.4844 46.5312 36.375 47.5
Q32.2812 48.4844 27.875 48.4844
Q21.1875 48.4844 17.8438 46.4375
Q14.5 44.3906 14.5 40.2812
Q14.5 37.1562 16.8906 35.375
Q19.2812 33.5938 26.5156 31.9844
L29.5938 31.2969
Q39.1562 29.25 43.1875 25.5156
Q47.2188 21.7812 47.2188 15.0938
Q47.2188 7.46875 41.1875 3.01562
Q35.1562 -1.42188 24.6094 -1.42188
Q20.2188 -1.42188 15.4531 -0.5625
Q10.6875 0.296875 5.42188 2
L5.42188 11.2812
Q10.4062 8.6875 15.2344 7.39062
Q20.0625 6.10938 24.8125 6.10938
Q31.1562 6.10938 34.5625 8.28125
Q37.9844 10.4531 37.9844 14.4062
Q37.9844 18.0625 35.5156 20.0156
Q33.0625 21.9688 24.7031 23.7812
L21.5781 24.5156
Q13.2344 26.2656 9.51562 29.9062
Q5.8125 33.5469 5.8125 39.8906
Q5.8125 47.6094 11.2812 51.7969
Q16.75 56 26.8125 56
Q31.7812 56 36.1719 55.2656
Q40.5781 54.5469 44.2812 53.0781" id="DejaVuSans-73"/>
     </defs>
     <g transform="translate(16.318125 192.089375)rotate(-90.0)scale(0.12 -0.12)">
      <use xlink:href="#DejaVuSans-23"/>
      <use x="83.7890625" xlink:href="#DejaVuSans-20"/>
      <use x="115.576171875" xlink:href="#DejaVuSans-77"/>
      <use x="197.36328125" xlink:href="#DejaVuSans-69"/>
      <use x="225.146484375" xlink:href="#DejaVuSans-6e"/>
      <use x="288.525390625" xlink:href="#DejaVuSans-64"/>
      <use x="352.001953125" xlink:href="#DejaVuSans-6f"/>
      <use x="413.18359375" xlink:href="#DejaVuSans-77"/>
      <use x="494.970703125" xlink:href="#DejaVuSans-73"/>
     </g>
    </g>
   </g>
   <g id="patch_3">
    <path d="
M58.4731 21.3181
L504.873 21.3181" style="fill:none;stroke:#000000;"/>
   </g>
   <g id="patch_4">
    <path d="
M504.873 297.798
L504.873 21.3181" style="fill:none;stroke:#000000;"/>
   </g>
   <g id="patch_5">
    <path d="
M58.4731 297.798
L504.873 297.798" style="fill:none;stroke:#000000;"/>
   </g>
   <g id="patch_6">
    <path d="
M58.4731 297.798
L58.4731 21.3181" style="fill:none;stroke:#000000;"/>
   </g>
   <g id="text_15">
    <!-- GC content -->
    <defs>
     <path d="
M18.3125 70.2188
L18.3125 54.6875
L36.8125 54.6875
L36.8125 47.7031
L18.3125 47.7031
L18.3125 18.0156
Q18.3125 11.3281 20.1406 9.42188
Q21.9688 7.51562 27.5938 7.51562
L36.8125 7.51562
L36.8125 0
L27.5938 0
Q17.1875 0 13.2344 3.875
Q9.28125 7.76562 9.28125 18.0156
L9.28125 47.7031
L2.6875 47.7031
L2.6875 54.6875
L9.28125 54.6875
L9.28125 70.2188
z
" id="DejaVuSans-74"/>
     <path d="
M56.2031 29.5938
L56.2031 25.2031
L14.8906 25.2031
Q15.4844 15.9219 20.4844 11.0625
Q25.4844 6.20312 34.4219 6.20312
Q39.5938 6.20312 44.4531 7.46875
Q49.3125 8.73438 54.1094 11.2812
L54.1094 2.78125
Q49.2656 0.734375 44.1875 -0.34375
Q39.1094 -1.42188 33.8906 -1.42188
Q20.7969 -1.42188 13.1562 6.1875
Q5.51562 13.8125 5.51562 26.8125
Q5.51562 40.2344 12.7656 48.1094
Q20.0156 56 32.3281 56
Q43.3594 56 49.7812 48.8906
Q56.2031 41.7969 56.2031 29.5938
M47.2188 32.2344
Q47.125 39.5938 43.0938 43.9844
Q39.0625 48.3906 32.4219 48.3906
Q24.9062 48.3906 20.3906 44.1406
Q15.875 39.8906 15.1875 32.1719
z
" id="DejaVuSans-65"/>
     <path d="
M48.7812 52.5938
L48.7812 44.1875
Q44.9688 46.2969 41.1406 47.3438
Q37.3125 48.3906 33.4062 48.3906
Q24.6562 48.3906 19.8125 42.8438
Q14.9844 37.3125 14.9844 27.2969
Q14.9844 17.2812 19.8125 11.7344
Q24.6562 6.20312 33.4062 6.20312
Q37.3125 6.20312 41.1406 7.25
Q44.9688 8.29688 48.7812 10.4062
L48.7812 2.09375
Q45.0156 0.34375 40.9844 -0.53125
Q36.9688 -1.42188 32.4219 -1.42188
Q20.0625 -1.42188 12.7812 6.34375
Q5.51562 14.1094 5.51562 27.2969
Q5.51562 40.6719 12.8594 48.3281
Q20.2188 56 33.0156 56
Q37.1562 56 41.1094 55.1406
Q45.0625 54.2969 48.7812 52.5938" id="DejaVuSans-63"/>
    </defs>
    <g transform="translate(248.099375 16.318125)scale(0.12 -0.12)">
     <use xlink:href="#DejaVuSans-47"/>
     <use x="77.490234375" xlink:href="#DejaVuSans-43"/>
     <use x="147.314453125" xlink:href="#DejaVuSans-20"/>
     <use x="179.1015625" xlink:href="#DejaVuSans-63"/>
     <use x="234.08203125" xlink:href="#DejaVuSans-6f"/>
     <use x="295.263671875" xlink:href="#DejaVuSans-6e"/>
     <use x="358.642578125" xlink:href="#DejaVuSans-74"/>
     <use x="397.8515625" xlink:href="#DejaVuSans-65"/>
     <use x="459.375" xlink:href="#DejaVuSans-6e"/>
     <use x="522.75390625" xlink:href="#DejaVuSans-74"/>
    </g>
   </g>
   <g id="legend_1">
    <g id="patch_7">
     <path d="
M76.5812 372.274
L490.765 372.274
Q493.165 372.274 493.165 369.874
L493.165 335.846
Q493.165 333.446 490.765 333.446
L76.5812 333.446
Q74.1812 333.446 74.1812 335.846
L74.1812 369.874
Q74.1812 372.274 76.5812 372.274
z
" style="fill:#4c4c4c;opacity:0.5;stroke:#4c4c4c;"/>
    </g>
    <g id="patch_8">
     <path d="
M74.5812 370.274
L488.765 370.274
Q491.165 370.274 491.165 367.874
L491.165 333.846
Q491.165 331.446 488.765 331.446
L74.5812 331.446
Q72.1812 331.446 72.1812 333.846
L72.1812 367.874
Q72.1812 370.274 74.5812 370.274
z
" style="fill:#ffffff;stroke:#000000;"/>
    </g>
    <g id="line2d_42">
     <path d="
M80.5812 341.164
L97.3812 341.164" style="fill:none;stroke:#e31a1c;stroke-linecap:square;stroke-width:2.0;"/>
    </g>
    <g id="line2d_43"/>
    <g id="text_16">
     <!-- Q30-MegaHit -->
     <defs>
      <path d="
M9.8125 72.9062
L24.5156 72.9062
L43.1094 23.2969
L61.8125 72.9062
L76.5156 72.9062
L76.5156 0
L66.8906 0
L66.8906 64.0156
L48.0938 14.0156
L38.1875 14.0156
L19.3906 64.0156
L19.3906 0
L9.8125 0
z
" id="DejaVuSans-4d"/>
      <path d="
M4.89062 31.3906
L31.2031 31.3906
L31.2031 23.3906
L4.89062 23.3906
z
" id="DejaVuSans-2d"/>
      <path d="
M45.4062 27.9844
Q45.4062 37.75 41.375 43.1094
Q37.3594 48.4844 30.0781 48.4844
Q22.8594 48.4844 18.8281 43.1094
Q14.7969 37.75 14.7969 27.9844
Q14.7969 18.2656 18.8281 12.8906
Q22.8594 7.51562 30.0781 7.51562
Q37.3594 7.51562 41.375 12.8906
Q45.4062 18.2656 45.4062 27.9844
M54.3906 6.78125
Q54.3906 -7.17188 48.1875 -13.9844
Q42 -20.7969 29.2031 -20.7969
Q24.4688 -20.7969 20.2656 -20.0938
Q16.0625 -19.3906 12.1094 -17.9219
L12.1094 -9.1875
Q16.0625 -11.3281 19.9219 -12.3438
Q23.7812 -13.375 27.7812 -13.375
Q36.625 -13.375 41.0156 -8.76562
Q45.4062 -4.15625 45.4062 5.17188
L45.4062 9.625
Q42.625 4.78125 38.2812 2.39062
Q33.9375 0 27.875 0
Q17.8281 0 11.6719 7.65625
Q5.51562 15.3281 5.51562 27.9844
Q5.51562 40.6719 11.6719 48.3281
Q17.8281 56 27.875 56
Q33.9375 56 38.2812 53.6094
Q42.625 51.2188 45.4062 46.3906
L45.4062 54.6875
L54.3906 54.6875
z
" id="DejaVuSans-67"/>
      <path d="
M39.4062 66.2188
Q28.6562 66.2188 22.3281 58.2031
Q16.0156 50.2031 16.0156 36.375
Q16.0156 22.6094 22.3281 14.5938
Q28.6562 6.59375 39.4062 6.59375
Q50.1406 6.59375 56.4219 14.5938
Q62.7031 22.6094 62.7031 36.375
Q62.7031 50.2031 56.4219 58.2031
Q50.1406 66.2188 39.4062 66.2188
M53.2188 1.3125
L66.2188 -12.8906
L54.2969 -12.8906
L43.5 -1.21875
Q41.8906 -1.3125 41.0312 -1.35938
Q40.1875 -1.42188 39.4062 -1.42188
Q24.0312 -1.42188 14.8125 8.85938
Q5.60938 19.1406 5.60938 36.375
Q5.60938 53.6562 14.8125 63.9375
Q24.0312 74.2188 39.4062 74.2188
Q54.7344 74.2188 63.9062 63.9375
Q73.0938 53.6562 73.0938 36.375
Q73.0938 23.6875 67.9844 14.6406
Q62.8906 5.60938 53.2188 1.3125" id="DejaVuSans-51"/>
      <path d="
M9.8125 72.9062
L19.6719 72.9062
L19.6719 43.0156
L55.5156 43.0156
L55.5156 72.9062
L65.375 72.9062
L65.375 0
L55.5156 0
L55.5156 34.7188
L19.6719 34.7188
L19.6719 0
L9.8125 0
z
" id="DejaVuSans-48"/>
      <path d="
M34.2812 27.4844
Q23.3906 27.4844 19.1875 25
Q14.9844 22.5156 14.9844 16.5
Q14.9844 11.7188 18.1406 8.90625
Q21.2969 6.10938 26.7031 6.10938
Q34.1875 6.10938 38.7031 11.4062
Q43.2188 16.7031 43.2188 25.4844
L43.2188 27.4844
z

M52.2031 31.2031
L52.2031 0
L43.2188 0
L43.2188 8.29688
Q40.1406 3.32812 35.5469 0.953125
Q30.9531 -1.42188 24.3125 -1.42188
Q15.9219 -1.42188 10.9531 3.29688
Q6 8.01562 6 15.9219
Q6 25.1406 12.1719 29.8281
Q18.3594 34.5156 30.6094 34.5156
L43.2188 34.5156
L43.2188 35.4062
Q43.2188 41.6094 39.1406 45
Q35.0625 48.3906 27.6875 48.3906
Q23 48.3906 18.5469 47.2656
Q14.1094 46.1406 10.0156 43.8906
L10.0156 52.2031
Q14.9375 54.1094 19.5781 55.0469
Q24.2188 56 28.6094 56
Q40.4844 56 46.3438 49.8438
Q52.2031 43.7031 52.2031 31.2031" id="DejaVuSans-61"/>
     </defs>
     <g transform="translate(110.58125 345.36425)scale(0.12 -0.12)">
      <use xlink:href="#DejaVuSans-51"/>
      <use x="78.7109375" xlink:href="#DejaVuSans-33"/>
      <use x="142.333984375" xlink:href="#DejaVuSans-30"/>
      <use x="205.95703125" xlink:href="#DejaVuSans-2d"/>
      <use x="242.041015625" xlink:href="#DejaVuSans-4d"/>
      <use x="328.3203125" xlink:href="#DejaVuSans-65"/>
      <use x="389.84375" xlink:href="#DejaVuSans-67"/>
      <use x="453.3203125" xlink:href="#DejaVuSans-61"/>
      <use x="514.599609375" xlink:href="#DejaVuSans-48"/>
      <use x="589.794921875" xlink:href="#DejaVuSans-69"/>
      <use x="617.578125" xlink:href="#DejaVuSans-74"/>
     </g>
    </g>
    <g id="line2d_44">
     <path d="
M80.5812 358.778
L97.3812 358.778" style="fill:none;stroke:#1f78b4;stroke-linecap:square;stroke-width:2.0;"/>
    </g>
    <g id="line2d_45"/>
    <g id="text_17">
     <!-- Q30-Platanus -->
     <defs>
      <path d="
M8.5 21.5781
L8.5 54.6875
L17.4844 54.6875
L17.4844 21.9219
Q17.4844 14.1562 20.5 10.2656
Q23.5312 6.39062 29.5938 6.39062
Q36.8594 6.39062 41.0781 11.0312
Q45.3125 15.6719 45.3125 23.6875
L45.3125 54.6875
L54.2969 54.6875
L54.2969 0
L45.3125 0
L45.3125 8.40625
Q42.0469 3.42188 37.7188 1
Q33.4062 -1.42188 27.6875 -1.42188
Q18.2656 -1.42188 13.375 4.4375
Q8.5 10.2969 8.5 21.5781
M31.1094 56
z
" id="DejaVuSans-75"/>
      <path d="
M19.6719 64.7969
L19.6719 37.4062
L32.0781 37.4062
Q38.9688 37.4062 42.7188 40.9688
Q46.4844 44.5312 46.4844 51.125
Q46.4844 57.6719 42.7188 61.2344
Q38.9688 64.7969 32.0781 64.7969
z

M9.8125 72.9062
L32.0781 72.9062
Q44.3438 72.9062 50.6094 67.3594
Q56.8906 61.8125 56.8906 51.125
Q56.8906 40.3281 50.6094 34.8125
Q44.3438 29.2969 32.0781 29.2969
L19.6719 29.2969
L19.6719 0
L9.8125 0
z
" id="DejaVuSans-50"/>
      <path d="
M9.42188 75.9844
L18.4062 75.9844
L18.4062 0
L9.42188 0
z
" id="DejaVuSans-6c"/>
     </defs>
     <g transform="translate(110.58125 362.978)scale(0.12 -0.12)">
      <use xlink:href="#DejaVuSans-51"/>
      <use x="78.7109375" xlink:href="#DejaVuSans-33"/>
      <use x="142.333984375" xlink:href="#DejaVuSans-30"/>
      <use x="205.95703125" xlink:href="#DejaVuSans-2d"/>
      <use x="242.041015625" xlink:href="#DejaVuSans-50"/>
      <use x="302.34375" xlink:href="#DejaVuSans-6c"/>
      <use x="330.126953125" xlink:href="#DejaVuSans-61"/>
      <use x="391.40625" xlink:href="#DejaVuSans-74"/>
      <use x="430.615234375" xlink:href="#DejaVuSans-61"/>
      <use x="491.89453125" xlink:href="#DejaVuSans-6e"/>
      <use x="555.2734375" xlink:href="#DejaVuSans-75"/>
      <use x="618.65234375" xlink:href="#DejaVuSans-73"/>
     </g>
    </g>
    <g id="line2d_46">
     <path d="
M217.411 341.164
L234.211 341.164" style="fill:none;stroke:#33a02c;stroke-linecap:square;stroke-width:2.0;"/>
    </g>
    <g id="line2d_47"/>
    <g id="text_18">
     <!-- Q30-SPAdes-Careful -->
     <defs>
      <path d="
M53.5156 70.5156
L53.5156 60.8906
Q47.9062 63.5781 42.9219 64.8906
Q37.9375 66.2188 33.2969 66.2188
Q25.25 66.2188 20.875 63.0938
Q16.5 59.9688 16.5 54.2031
Q16.5 49.3594 19.4062 46.8906
Q22.3125 44.4375 30.4219 42.9219
L36.375 41.7031
Q47.4062 39.5938 52.6562 34.2969
Q57.9062 29 57.9062 20.125
Q57.9062 9.51562 50.7969 4.04688
Q43.7031 -1.42188 29.9844 -1.42188
Q24.8125 -1.42188 18.9688 -0.25
Q13.1406 0.921875 6.89062 3.21875
L6.89062 13.375
Q12.8906 10.0156 18.6562 8.29688
Q24.4219 6.59375 29.9844 6.59375
Q38.4219 6.59375 43.0156 9.90625
Q47.6094 13.2344 47.6094 19.3906
Q47.6094 24.75 44.3125 27.7812
Q41.0156 30.8125 33.5 32.3281
L27.4844 33.5
Q16.4531 35.6875 11.5156 40.375
Q6.59375 45.0625 6.59375 53.4219
Q6.59375 63.0938 13.4062 68.6562
Q20.2188 74.2188 32.1719 74.2188
Q37.3125 74.2188 42.625 73.2812
Q47.9531 72.3594 53.5156 70.5156" id="DejaVuSans-53"/>
      <path d="
M37.1094 75.9844
L37.1094 68.5
L28.5156 68.5
Q23.6875 68.5 21.7969 66.5469
Q19.9219 64.5938 19.9219 59.5156
L19.9219 54.6875
L34.7188 54.6875
L34.7188 47.7031
L19.9219 47.7031
L19.9219 0
L10.8906 0
L10.8906 47.7031
L2.29688 47.7031
L2.29688 54.6875
L10.8906 54.6875
L10.8906 58.5
Q10.8906 67.625 15.1406 71.7969
Q19.3906 75.9844 28.6094 75.9844
z
" id="DejaVuSans-66"/>
      <path d="
M34.1875 63.1875
L20.7969 26.9062
L47.6094 26.9062
z

M28.6094 72.9062
L39.7969 72.9062
L67.5781 0
L57.3281 0
L50.6875 18.7031
L17.8281 18.7031
L11.1875 0
L0.78125 0
z
" id="DejaVuSans-41"/>
      <path d="
M41.1094 46.2969
Q39.5938 47.1719 37.8125 47.5781
Q36.0312 48 33.8906 48
Q26.2656 48 22.1875 43.0469
Q18.1094 38.0938 18.1094 28.8125
L18.1094 0
L9.07812 0
L9.07812 54.6875
L18.1094 54.6875
L18.1094 46.1875
Q20.9531 51.1719 25.4844 53.5781
Q30.0312 56 36.5312 56
Q37.4531 56 38.5781 55.875
Q39.7031 55.7656 41.0625 55.5156
z
" id="DejaVuSans-72"/>
     </defs>
     <g transform="translate(247.41125 345.36425)scale(0.12 -0.12)">
      <use xlink:href="#DejaVuSans-51"/>
      <use x="78.7109375" xlink:href="#DejaVuSans-33"/>
      <use x="142.333984375" xlink:href="#DejaVuSans-30"/>
      <use x="205.95703125" xlink:href="#DejaVuSans-2d"/>
      <use x="242.041015625" xlink:href="#DejaVuSans-53"/>
      <use x="305.517578125" xlink:href="#DejaVuSans-50"/>
      <use x="359.4453125" xlink:href="#DejaVuSans-41"/>
      <use x="426.103515625" xlink:href="#DejaVuSans-64"/>
      <use x="489.580078125" xlink:href="#DejaVuSans-65"/>
      <use x="551.103515625" xlink:href="#DejaVuSans-73"/>
      <use x="603.203125" xlink:href="#DejaVuSans-2d"/>
      <use x="639.287109375" xlink:href="#DejaVuSans-43"/>
      <use x="709.111328125" xlink:href="#DejaVuSans-61"/>
      <use x="770.390625" xlink:href="#DejaVuSans-72"/>
      <use x="809.25390625" xlink:href="#DejaVuSans-65"/>
      <use x="870.77734375" xlink:href="#DejaVuSans-66"/>
      <use x="905.982421875" xlink:href="#DejaVuSans-75"/>
      <use x="969.361328125" xlink:href="#DejaVuSans-6c"/>
     </g>
    </g>
    <g id="line2d_48">
     <path d="
M217.411 358.778
L234.211 358.778" style="fill:none;stroke:#6a3d9a;stroke-linecap:square;stroke-width:2.0;"/>
    </g>
    <g id="line2d_49"/>
    <g id="text_19">
     <!-- Q30-SPAdes -->
     <g transform="translate(247.41125 362.978)scale(0.12 -0.12)">
      <use xlink:href="#DejaVuSans-51"/>
      <use x="78.7109375" xlink:href="#DejaVuSans-33"/>
      <use x="142.333984375" xlink:href="#DejaVuSans-30"/>
      <use x="205.95703125" xlink:href="#DejaVuSans-2d"/>
      <use x="242.041015625" xlink:href="#DejaVuSans-53"/>
      <use x="305.517578125" xlink:href="#DejaVuSans-50"/>
      <use x="359.4453125" xlink:href="#DejaVuSans-41"/>
      <use x="426.103515625" xlink:href="#DejaVuSans-64"/>
      <use x="489.580078125" xlink:href="#DejaVuSans-65"/>
      <use x="551.103515625" xlink:href="#DejaVuSans-73"/>
     </g>
    </g>
    <g id="line2d_50">
     <path d="
M392.872 341.164
L409.672 341.164" style="fill:none;stroke:#ff7f00;stroke-linecap:square;stroke-width:2.0;"/>
    </g>
    <g id="line2d_51"/>
    <g id="text_20">
     <!-- Q5-SPAdes -->
     <g transform="translate(422.871875 345.36425)scale(0.12 -0.12)">
      <use xlink:href="#DejaVuSans-51"/>
      <use x="78.7109375" xlink:href="#DejaVuSans-35"/>
      <use x="142.333984375" xlink:href="#DejaVuSans-2d"/>
      <use x="178.41796875" xlink:href="#DejaVuSans-53"/>
      <use x="241.89453125" xlink:href="#DejaVuSans-50"/>
      <use x="295.822265625" xlink:href="#DejaVuSans-41"/>
      <use x="362.48046875" xlink:href="#DejaVuSans-64"/>
      <use x="425.95703125" xlink:href="#DejaVuSans-65"/>
      <use x="487.48046875" xlink:href="#DejaVuSans-73"/>
     </g>
    </g>
   </g>
  </g>
 </g>
 <defs>
  <clipPath id="pd9aa6c6175">
   <rect height="276.48" width="446.4" x="58.473125" y="21.318125"/>
  </clipPath>
 </defs>
</svg>
