<?xml version="1.0" encoding="UTF-8" standalone="no"?>
<!-- Created with Inkscape (http://www.inkscape.org/) -->

<svg
   xmlns:dc="http://purl.org/dc/elements/1.1/"
   xmlns:cc="http://creativecommons.org/ns#"
   xmlns:rdf="http://www.w3.org/1999/02/22-rdf-syntax-ns#"
   xmlns:svg="http://www.w3.org/2000/svg"
   xmlns="http://www.w3.org/2000/svg"
   xmlns:sodipodi="http://sodipodi.sourceforge.net/DTD/sodipodi-0.dtd"
   xmlns:inkscape="http://www.inkscape.org/namespaces/inkscape"
   inkscape:version="0.91 r13725"
   version="1.1"
   id="svg18525"
   viewBox="0 0 604.67566 587.45897"
   height="165.79398mm"
   width="170.65291mm"
   sodipodi:docname="fitting.svg">
  <sodipodi:namedview
     inkscape:window-maximized="0"
     inkscape:window-y="0"
     inkscape:window-x="0"
     inkscape:window-height="1050"
     inkscape:window-width="1680"
     showgrid="false"
     inkscape:current-layer="layer1"
     inkscape:document-units="px"
     inkscape:cy="214.81081"
     inkscape:cx="397.24017"
     inkscape:zoom="0.7"
     inkscape:pageshadow="2"
     inkscape:pageopacity="0.0"
     borderopacity="1.0"
     bordercolor="#666666"
     pagecolor="#ffffff"
     id="base"
     fit-margin-top="0"
     fit-margin-left="0"
     fit-margin-right="0"
     fit-margin-bottom="0" />
  <defs
     id="defs18527">
    <inkscape:path-effect
       is_visible="true"
       id="path-effect19648"
       effect="spiro" />
    <inkscape:path-effect
       is_visible="true"
       id="path-effect19644"
       effect="spiro" />
    <inkscape:path-effect
       is_visible="true"
       id="path-effect19640"
       effect="spiro" />
    <inkscape:path-effect
       is_visible="true"
       id="path-effect19636"
       effect="spiro" />
  </defs>
  <metadata
     id="metadata18530">
    <rdf:RDF>
      <cc:Work
         rdf:about="">
        <dc:format>image/svg+xml</dc:format>
        <dc:type
           rdf:resource="http://purl.org/dc/dcmitype/StillImage" />
        <dc:title></dc:title>
      </cc:Work>
    </rdf:RDF>
  </metadata>
  <g
     id="layer1"
     inkscape:groupmode="layer"
     inkscape:label="Layer 1"
     transform="translate(-71.28288,-41.073621)">
    <g
       id="g20398"
       transform="matrix(0.96595507,0,0,0.96595507,12.719888,76.924989)">
      <path
         style="fill:none;fill-rule:evenodd;stroke:#e9c927;stroke-width:1.52412164px;stroke-linecap:butt;stroke-linejoin:miter;stroke-opacity:1"
         d="m 104.66787,298.79811 0,244.94812 251.20788,0"
         id="path4136-0-6-0"
         inkscape:connector-curvature="0"
         sodipodi:nodetypes="ccc" />
      <text
         xml:space="preserve"
         style="font-style:normal;font-weight:normal;font-size:11px;line-height:125%;font-family:Sans;letter-spacing:0px;word-spacing:0px;fill:#000000;fill-opacity:1;stroke:none;stroke-width:1px;stroke-linecap:butt;stroke-linejoin:miter;stroke-opacity:1"
         x="70.28923"
         y="425.61703"
         id="text19765"
         sodipodi:linespacing="125%"><tspan
           sodipodi:role="line"
           id="tspan19767"
           x="70.28923"
           y="425.61703">Error</tspan></text>
      <text
         xml:space="preserve"
         style="font-style:normal;font-weight:normal;font-size:11px;line-height:125%;font-family:Sans;letter-spacing:0px;word-spacing:0px;fill:#000000;fill-opacity:1;stroke:none;stroke-width:1px;stroke-linecap:butt;stroke-linejoin:miter;stroke-opacity:1"
         x="186.9301"
         y="558.39764"
         id="text19769"
         sodipodi:linespacing="125%"><tspan
           sodipodi:role="line"
           id="tspan19771"
           x="186.9301"
           y="558.39764">Training set size</tspan></text>
      <path
         style="fill:none;fill-rule:evenodd;stroke:#000000;stroke-width:1.5;stroke-linecap:butt;stroke-linejoin:miter;stroke-miterlimit:4;stroke-dasharray:1.5, 12;stroke-dashoffset:0;stroke-opacity:1"
         d="m 106.49012,448.47789 248.49752,0"
         id="path19773"
         inkscape:connector-curvature="0" />
      <path
         sodipodi:nodetypes="cccccccccccccccccccccc"
         inkscape:connector-curvature="0"
         id="path20103"
         d="m 104.99824,314.00229 4.64286,60.35715 6.07143,-45.71429 3.92857,6.07143 5.71428,0.35714 7.14286,32.85715 6.78571,23.92857 0.71429,-6.07143 3.92857,4.28571 4.64286,1.78572 -0.35714,11.78571 12.14285,10.71429 3.92857,10 8.21429,0 5.71429,-0.71429 4.64285,1.78572 7.14286,-2.5 4.28571,1.78571 9.28572,0.35714 2.14286,-2.5 c 0,0 3.24834,0.93358 6.42857,1.78572 21.42857,-1.07143 0,0 21.42857,-1.07143"
         style="fill:none;fill-rule:evenodd;stroke:#00ff00;stroke-width:1px;stroke-linecap:butt;stroke-linejoin:miter;stroke-opacity:1" />
      <path
         inkscape:connector-curvature="0"
         id="path20105"
         d="m 233.30181,423.19872 4.01786,0.71429 2.5,-0.44643 7.21163,1.33833 1.76777,-1.51523 11.36421,1.01016 3.283,2.0203 11.11168,-3.28299 2.77792,1.76776 6.31345,-1.01015 3.78807,1.01015 7.32361,-2.27284 6.81853,1.51523 8.08122,-2.77792 8.83883,2.52538 4.79823,2.52538 9.59645,-4.29315 2.52538,2.27285 4.79822,-0.25254 0.25254,-0.25254"
         style="fill:none;fill-rule:evenodd;stroke:#00ff00;stroke-width:1px;stroke-linecap:butt;stroke-linejoin:miter;stroke-opacity:1" />
      <path
         sodipodi:nodetypes="ccccccccccccccccccccccccccccccccccccccccccccccccccccccccc"
         inkscape:connector-curvature="0"
         id="path20107"
         d="m 105.60995,543.75038 4.0406,-54.54824 5.05076,6.06092 1.51523,-38.3858 8.08122,8.5863 6.06091,3.53553 8.5863,-25.75889 6.56599,6.06091 9.59645,-18.68782 7.07107,5.05077 9.09137,-19.1929 6.06092,3.53553 3.03045,3.53553 1.51523,5.55584 5.05077,1.51523 5.55584,0 6.56599,-0.50507 1.51523,1.51523 3.03045,0 4.04061,-0.50508 9.09138,-2.02031 0.50507,1.51523 7.07107,1.01016 0.50508,-4.04062 3.53553,-3.03045 3.03046,-5.05077 c 13.63706,7.57615 0,0 13.63706,7.57615 l 0,3.03046 2.52538,1.51523 8.5863,1.51522 7.57614,-3.53553 3.03046,3.53553 5.55584,-2.0203 4.04061,-1.01015 1.01015,-2.52539 4.04061,3.53554 7.07107,-2.02031 2.0203,1.01016 3.03046,-0.50508 2.0203,-1.51523 2.02031,-0.50508 2.52538,1.01016 2.52538,1.01015 1.51523,0 1.51523,-2.52538 1.51523,-2.52538 2.52538,4.04061 2.52538,-0.50508 2.02031,1.01015 0.50507,1.01016 6.56599,3.03045 1.51523,-2.0203 4.54569,-1.51523 2.02031,-1.51523 1.51522,1.51523 4.04061,0 0.50508,0"
         style="fill:none;fill-rule:evenodd;stroke:#0000ff;stroke-width:1px;stroke-linecap:butt;stroke-linejoin:miter;stroke-opacity:1" />
      <text
         xml:space="preserve"
         style="font-style:normal;font-weight:normal;font-size:11px;line-height:125%;font-family:Sans;letter-spacing:0px;word-spacing:0px;fill:#000000;fill-opacity:1;stroke:none;stroke-width:1px;stroke-linecap:butt;stroke-linejoin:miter;stroke-opacity:1"
         x="507.01285"
         y="558.39764"
         id="text19769-6"
         sodipodi:linespacing="125%"><tspan
           sodipodi:role="line"
           id="tspan19771-2"
           x="507.01285"
           y="558.39764">Training set size</tspan></text>
      <path
         style="fill:none;fill-rule:evenodd;stroke:#ff0000;stroke-width:1.52412164px;stroke-linecap:butt;stroke-linejoin:miter;stroke-opacity:1"
         d="m 424.75063,298.79809 0,244.94812 251.20789,0"
         id="path4136-0-6-0-7"
         inkscape:connector-curvature="0"
         sodipodi:nodetypes="ccc" />
      <text
         xml:space="preserve"
         style="font-style:normal;font-weight:normal;font-size:11px;line-height:125%;font-family:Sans;letter-spacing:0px;word-spacing:0px;fill:#000000;fill-opacity:1;stroke:none;stroke-width:1px;stroke-linecap:butt;stroke-linejoin:miter;stroke-opacity:1"
         x="391.92346"
         y="425.61703"
         id="text19765-2"
         sodipodi:linespacing="125%"><tspan
           sodipodi:role="line"
           id="tspan19767-7"
           x="391.92346"
           y="425.61703">Error</tspan></text>
      <path
         style="fill:none;fill-rule:evenodd;stroke:#000000;stroke-width:1.5;stroke-linecap:butt;stroke-linejoin:miter;stroke-miterlimit:4;stroke-dasharray:1.5, 12;stroke-dashoffset:0;stroke-opacity:1"
         d="m 425.85859,448.47789 248.49753,0"
         id="path19773-4"
         inkscape:connector-curvature="0" />
      <path
         style="fill:none;fill-rule:evenodd;stroke:#00ff00;stroke-width:1px;stroke-linecap:butt;stroke-linejoin:miter;stroke-opacity:1"
         d="m 426.58591,304.66239 12.12183,8.08122 8.08122,-4.54568 8.08122,-6.06092 3.03046,4.54569 3.53553,4.04061 4.04061,-3.53554 3.53554,1.01016 1.51523,2.52538 3.03046,3.53553 5.05076,5.05076 1.01015,7.57615 5.05076,1.51523 7.57615,-3.53554 2.0203,4.54569 7.07107,2.52538 0,4.54569 4.04061,9.09137 0,4.04061 3.03046,11.61675 5.55584,-4.54568 2.52538,9.09137 1.01015,4.04061 5.05076,5.55584 0.50508,-1.51523 2.52538,-2.0203 0.50508,4.54568 4.54568,8.5863 0.50508,9.59645 2.02031,3.03046 5.55583,-4.04061 8.08122,6.06091 1.51523,2.02031 3.53554,3.53553 c 29.7995,6.56599 0,0 29.7995,6.56599 l 3.03046,2.52538 1.51522,2.52538 6.06092,8.5863 4.04061,-9.59645 3.53553,6.06092 11.11168,9.59645 7.57615,-1.51523 0.50507,-3.53554 5.55584,3.53554 4.04061,0.50507 4.04061,2.02031 2.52538,-3.53553 3.27214,2.45282 2.67857,-0.89286 4.28571,1.25 3.75,-1.07143 0.35715,-1.60714 9.28571,2.14286 2.32143,1.60714 2.32143,-1.42857"
         id="path20173"
         inkscape:connector-curvature="0"
         sodipodi:nodetypes="ccccccccccccccccccccccccccccccccccccccccccccccccccccccc" />
      <path
         style="fill:none;fill-rule:evenodd;stroke:#0000ff;stroke-width:1px;stroke-linecap:butt;stroke-linejoin:miter;stroke-opacity:1"
         d="m 426.08084,536.4924 4.04061,-12.12183 3.53553,3.53553 5.05076,-8.58629 2.52538,-2.52538 8.08122,2.52538 3.03046,-5.05076 2.52538,-3.53554 4.04061,2.52538 3.53554,0.50508 2.52538,-4.04061 2.0203,-3.53554 1.01016,-2.0203 1.51523,-4.54569 4.54568,-12.12183 4.04061,7.07107 1.51523,-7.57614 1.01015,-5.55584 2.52538,-3.53554 8.5863,6.06092 0,3.03046 5.05076,2.52538 2.52539,-0.50508 3.03045,-8.08122 7.57615,-3.53553 3.53553,-4.54569 1.01015,-3.53553 3.03046,1.01015 3.03046,3.03046 2.0203,4.04061"
         id="path20175"
         inkscape:connector-curvature="0"
         sodipodi:nodetypes="cccccccccccccccccccccccccccccc" />
      <path
         style="fill:none;fill-rule:evenodd;stroke:#0000ff;stroke-width:1px;stroke-linecap:butt;stroke-linejoin:miter;stroke-opacity:1"
         d="m 522.47149,477.11436 0.34724,-3.23564 8.08122,-4.54569 0.50508,4.04061 8.5863,3.53554 2.0203,-4.54569 4.04061,-4.04061 2.52538,2.52538 2.02031,2.52538 10.6066,-1.01015 0,-3.03046 9.59645,-7.07107 1.01015,5.55584 5.05076,-2.0203 1.01016,-2.52538 2.0203,2.0203 4.54569,1.51523 4.04061,-1.51523 0,-3.53553 2.52538,4.04061 4.54569,-0.50508 3.53553,-4.04061 3.53553,2.02031 9.09138,1.01015 2.52538,3.53553 5.55584,-2.52538 0.50507,2.02031 10.6066,0.50507 2.02031,-2.52538 3.03046,2.02031 9.09137,1.51523 3.53553,-3.03046 13.13199,3.03046 1.51523,0.50507"
         id="path20177"
         inkscape:connector-curvature="0"
         sodipodi:nodetypes="cccccccccccccccccccccccccccccccccc" />
      <text
         sodipodi:linespacing="125%"
         id="text20227"
         y="313.47385"
         x="202.37735"
         style="font-style:normal;font-weight:normal;font-size:11px;line-height:125%;font-family:Sans;letter-spacing:0px;word-spacing:0px;fill:#000000;fill-opacity:1;stroke:none;stroke-width:1px;stroke-linecap:butt;stroke-linejoin:miter;stroke-opacity:1"
         xml:space="preserve"><tspan
           style="font-weight:bold"
           y="313.47385"
           x="202.37735"
           id="tspan20229"
           sodipodi:role="line">High bias</tspan></text>
      <text
         sodipodi:linespacing="125%"
         id="text20231"
         y="313.47385"
         x="509.73065"
         style="font-style:normal;font-weight:normal;font-size:11px;line-height:125%;font-family:Sans;letter-spacing:0px;word-spacing:0px;fill:#000000;fill-opacity:1;stroke:none;stroke-width:1px;stroke-linecap:butt;stroke-linejoin:miter;stroke-opacity:1"
         xml:space="preserve"><tspan
           style="font-weight:bold"
           y="313.47385"
           x="509.73065"
           id="tspan20233"
           sodipodi:role="line">High variance</tspan></text>
    </g>
    <g
       id="g20491"
       transform="matrix(0.96595507,0,0,0.96595507,-93.798602,11.398349)">
      <path
         style="fill:none;fill-rule:evenodd;stroke:#ff0000;stroke-width:1;stroke-linecap:butt;stroke-linejoin:miter;stroke-miterlimit:4;stroke-dasharray:1, 3;stroke-dashoffset:0;stroke-opacity:1"
         d="m 269.20565,262.92799 c 3.73921,-2.66409 5.99906,-7.28206 5.80837,-11.86929 -0.0491,-1.18149 -0.24801,-2.37933 0,-3.53554 0.17535,-0.81747 0.57031,-1.57779 1.07743,-2.24248 0.50713,-0.6647 1.12483,-1.2382 1.77775,-1.7604 1.30585,-1.04439 2.76713,-1.89983 3.96335,-3.06818 2.14879,-2.09872 3.28196,-5.08829 3.53554,-8.08122 0.27654,-3.26384 -0.41611,-6.52368 -1.1125,-9.72433 -0.6964,-3.20066 -1.40491,-6.45471 -1.16035,-9.72111 0.2505,-3.34573 1.48951,-6.5334 2.85178,-9.59948 1.36227,-3.06609 2.87038,-6.09363 3.71422,-9.34088 0.85306,-3.28271 1.00374,-6.6993 1.30759,-10.0774 0.30384,-3.3781 0.78268,-6.8047 2.22794,-9.87311 1.5213,-3.22984 4.03439,-5.88914 6.72249,-8.23868 2.68811,-2.34954 5.5927,-4.45063 8.17726,-6.91361 8.55723,-8.1547 13.14617,-20.29626 12.12183,-32.07234"
         id="path19634"
         inkscape:path-effect="#path-effect19636"
         inkscape:original-d="m 269.20565,262.92799 c 3.79233,-3.47342 4.78467,-6.75075 5.80837,-11.86929 0.19407,-0.97033 -0.44061,-2.65431 0,-3.53554 2.00643,-4.01286 5.65929,-4.75258 6.81853,-7.07106 1.30222,-2.60444 2.19685,-5.40385 3.53554,-8.08122 3.03973,-6.07947 -4.3066,-15.37793 -2.27285,-19.44544 3.57574,-7.15148 4.30928,-9.91351 6.566,-18.94036 1.9297,-7.71881 0.0734,-11.29516 3.53553,-19.95051 2.89808,-7.24521 9.99312,-10.24566 14.89975,-15.15229 6.67577,-6.67577 9.93716,-23.33366 12.12183,-32.07234"
         inkscape:connector-curvature="0" />
      <path
         style="fill:none;fill-rule:evenodd;stroke:#ff0000;stroke-width:1;stroke-linecap:butt;stroke-linejoin:miter;stroke-miterlimit:4;stroke-dasharray:1, 3;stroke-dashoffset:0;stroke-opacity:1"
         d="m 328.31534,96.702699 c 0.18613,-0.08532 0.38132,-0.15086 0.58122,-0.19516 0.66861,-0.148169 1.38171,-0.05204 2.0069,0.22747 0.6252,0.279512 1.16373,0.736416 1.57885,1.281098 0.83023,1.089364 1.15545,2.486003 1.25251,3.852223 0.0971,1.36623 -0.0122,2.73959 0.0535,4.10769 0.0657,1.36809 0.32377,2.77006 1.07723,3.91386 0.51758,0.78572 1.25615,1.42004 2.09947,1.83726 0.84331,0.41722 1.7887,0.61904 2.72953,0.60963 1.88167,-0.0188 3.70249,-0.88711 5.05266,-2.19784 1.35018,-1.31074 2.25245,-3.0365 2.76777,-4.84633 0.51532,-1.80982 0.66011,-3.70709 0.64565,-5.588792 -0.0289,-3.763409 -0.68192,-7.543431 -0.17395,-11.272512 0.25399,-1.864541 0.80793,-3.709729 1.81313,-5.300513 1.0052,-1.590784 2.48546,-2.915527 4.25864,-3.545484 2.06788,-0.734654 4.39839,-0.478746 6.42618,0.360238 2.0278,0.838984 3.78637,2.221978 5.37267,3.73839 1.5863,1.516411 3.02616,3.179702 4.60103,4.707974 1.57488,1.528273 3.31,2.93589 5.3184,3.820308 3.62584,1.596675 7.75884,1.349408 11.66869,1.989058 1.95493,0.319825 3.90283,0.881179 5.56669,1.956152 1.66387,1.074974 3.02648,2.711099 3.47275,4.641091 0.28556,1.23497 0.19029,2.52289 0.0701,3.78473 -0.12021,1.26184 -0.26348,2.5387 -0.0701,3.79141 0.28445,1.84258 1.27594,3.49739 2.37081,5.00646 1.09487,1.50906 2.32038,2.9382 3.18503,4.58999 1.35587,2.59021 1.74365,5.56895 1.95752,8.48474 0.21386,2.9158 0.28103,5.87352 1.07293,8.68785 1.05672,3.75547 3.37215,7.07474 6.20821,9.75374 2.83606,2.67899 6.18431,4.75866 9.62852,6.59105 6.88843,3.66478 14.40971,6.52061 20.02369,11.93949 3.66966,3.54213 6.34034,8.04097 8.09984,12.82817 1.7595,4.7872 2.63374,9.86475 3.01184,14.95102 0.18932,2.54672 0.26192,5.13447 1.01015,7.57614 0.87982,2.8711 2.6452,5.38029 4.47933,7.75794 1.83414,2.37766 3.78142,4.70489 5.11712,7.39435 1.89877,3.8232 2.4531,8.14692 3.19296,12.35106 0.73987,4.20414 1.76065,8.52444 4.38318,11.8926 0.84231,1.0818 1.83114,2.03882 2.77793,3.03047 6.02348,6.30888 10.41253,14.16528 12.6269,22.60215"
         id="path19638"
         inkscape:path-effect="#path-effect19640"
         inkscape:original-d="m 328.31534,96.702699 c 0.71366,-3.83242 2.14107,-3.31685 0.58122,-0.19516 -1.60633,3.21469 4.36537,13.916881 5.969,13.382341 9.72986,-3.24329 4.99031,-25.570381 19.1929,-30.304581 9.22516,-3.07505 17.16601,8.07465 21.71828,12.62691 4.8615,4.8615 15.81401,3.69218 20.70813,8.586301 1.20416,1.20417 -0.78967,5.9968 0,7.57614 1.2693,2.53862 4.01847,6.52172 5.55584,9.59645 2.63279,5.26558 0.34302,11.79773 3.03045,17.17259 6.76357,13.52715 35.43684,27.43711 35.86042,28.28428 4.12746,8.25491 6.7518,19.05944 11.11168,27.77919 1.17365,2.34732 -0.13287,5.2901 1.01015,7.57614 2.25166,4.50332 6.7232,12.27905 9.59645,15.15229 4.93894,4.93894 2.72756,19.39509 7.57614,24.24366 0.9062,0.9062 1.90164,1.27789 2.77793,3.03047 2.59247,5.18493 8.54902,18.52427 12.6269,22.60215"
         inkscape:connector-curvature="0"
         sodipodi:nodetypes="cssssssssssssssc" />
      <path
         style="fill:none;fill-rule:evenodd;stroke:#ff0000;stroke-width:1;stroke-linecap:butt;stroke-linejoin:miter;stroke-miterlimit:4;stroke-dasharray:1, 3;stroke-dashoffset:0;stroke-opacity:1"
         d="m 320.47089,127.37814 c -0.26715,-3.27693 -0.43562,-6.56191 -0.50508,-9.84898 -0.0317,-1.49935 -0.0416,-3.012 0.25254,-4.48255 0.32761,-1.63767 1.02321,-3.177 1.76777,-4.67196 0.98254,-1.97278 2.05957,-3.89696 3.15672,-5.80838 1.21643,-2.11923 2.45819,-4.223911 3.72494,-6.313451"
         id="path19642"
         inkscape:path-effect="#path-effect19644"
         inkscape:original-d="m 320.47089,127.37814 c -0.66156,-3.16455 -1.04693,-6.59785 -0.50508,-9.84898 0.24812,-1.48872 -0.15085,-3.00344 0.25254,-4.48255 0.46264,-1.69637 1.14429,-3.11328 1.76777,-4.67196 0.851,-2.12752 2.42618,-3.61675 3.15672,-5.80838 0.6162,-1.84857 1.79242,-5.830321 3.72494,-6.313451"
         inkscape:connector-curvature="0" />
      <path
         style="fill:none;fill-rule:evenodd;stroke:#000000;stroke-width:1.52412164px;stroke-linecap:butt;stroke-linejoin:miter;stroke-opacity:1"
         d="m 248.39779,68.453569 0,195.450651 251.20789,0"
         id="path4136-0-6"
         inkscape:connector-curvature="0"
         sodipodi:nodetypes="ccc" />
      <circle
         style="color:#000000;display:inline;overflow:visible;visibility:visible;opacity:1;fill:#0000ff;fill-opacity:1;fill-rule:nonzero;stroke:#000000;stroke-width:0.91294879;stroke-linecap:round;stroke-linejoin:round;stroke-miterlimit:4;stroke-dasharray:none;stroke-dashoffset:0;stroke-opacity:1;marker:none;enable-background:accumulate"
         id="path4138-32-3-1-83"
         cx="291.37933"
         cy="178.74362"
         r="2.6942916" />
      <circle
         style="color:#000000;display:inline;overflow:visible;visibility:visible;opacity:1;fill:#0000ff;fill-opacity:1;fill-rule:nonzero;stroke:#000000;stroke-width:0.91294879;stroke-linecap:round;stroke-linejoin:round;stroke-miterlimit:4;stroke-dasharray:none;stroke-dashoffset:0;stroke-opacity:1;marker:none;enable-background:accumulate"
         id="path4138-32-3-1-83-5"
         cx="310.66504"
         cy="155.79718"
         r="2.6942916" />
      <circle
         style="color:#000000;display:inline;overflow:visible;visibility:visible;opacity:1;fill:#0000ff;fill-opacity:1;fill-rule:nonzero;stroke:#000000;stroke-width:0.91294879;stroke-linecap:round;stroke-linejoin:round;stroke-miterlimit:4;stroke-dasharray:none;stroke-dashoffset:0;stroke-opacity:1;marker:none;enable-background:accumulate"
         id="path4138-32-3-1-83-8"
         cx="320.04004"
         cy="127.22577"
         r="2.6942916" />
      <circle
         style="color:#000000;display:inline;overflow:visible;visibility:visible;opacity:1;fill:#0000ff;fill-opacity:1;fill-rule:nonzero;stroke:#000000;stroke-width:0.91294879;stroke-linecap:round;stroke-linejoin:round;stroke-miterlimit:4;stroke-dasharray:none;stroke-dashoffset:0;stroke-opacity:1;marker:none;enable-background:accumulate"
         id="path4138-32-3-1-83-54"
         cx="340.04004"
         cy="112.0472"
         r="2.6942916" />
      <circle
         style="color:#000000;display:inline;overflow:visible;visibility:visible;opacity:1;fill:#0000ff;fill-opacity:1;fill-rule:nonzero;stroke:#000000;stroke-width:0.91294879;stroke-linecap:round;stroke-linejoin:round;stroke-miterlimit:4;stroke-dasharray:none;stroke-dashoffset:0;stroke-opacity:1;marker:none;enable-background:accumulate"
         id="path4138-32-3-1-83-52"
         cx="330.04004"
         cy="96.422195"
         r="2.6942916" />
      <circle
         style="color:#000000;display:inline;overflow:visible;visibility:visible;opacity:1;fill:#0000ff;fill-opacity:1;fill-rule:nonzero;stroke:#000000;stroke-width:0.91294879;stroke-linecap:round;stroke-linejoin:round;stroke-miterlimit:4;stroke-dasharray:none;stroke-dashoffset:0;stroke-opacity:1;marker:none;enable-background:accumulate"
         id="path4138-32-3-1-83-6"
         cx="354.23648"
         cy="80.886475"
         r="2.6942916" />
      <circle
         style="color:#000000;display:inline;overflow:visible;visibility:visible;opacity:1;fill:#0000ff;fill-opacity:1;fill-rule:nonzero;stroke:#000000;stroke-width:0.91294879;stroke-linecap:round;stroke-linejoin:round;stroke-miterlimit:4;stroke-dasharray:none;stroke-dashoffset:0;stroke-opacity:1;marker:none;enable-background:accumulate"
         id="path4138-32-3-1-83-51"
         cx="376.3793"
         cy="93.029327"
         r="2.6942916" />
      <circle
         style="color:#000000;display:inline;overflow:visible;visibility:visible;opacity:1;fill:#0000ff;fill-opacity:1;fill-rule:nonzero;stroke:#000000;stroke-width:0.91294879;stroke-linecap:round;stroke-linejoin:round;stroke-miterlimit:4;stroke-dasharray:none;stroke-dashoffset:0;stroke-opacity:1;marker:none;enable-background:accumulate"
         id="path4138-32-3-1-83-4"
         cx="395.66504"
         cy="101.60075"
         r="2.6942916" />
      <circle
         style="color:#000000;display:inline;overflow:visible;visibility:visible;opacity:1;fill:#0000ff;fill-opacity:1;fill-rule:nonzero;stroke:#000000;stroke-width:0.91294879;stroke-linecap:round;stroke-linejoin:round;stroke-miterlimit:4;stroke-dasharray:none;stroke-dashoffset:0;stroke-opacity:1;marker:none;enable-background:accumulate"
         id="path4138-32-3-1-83-3"
         cx="404.95074"
         cy="132.13649"
         r="2.6942916" />
      <circle
         style="color:#000000;display:inline;overflow:visible;visibility:visible;opacity:1;fill:#0000ff;fill-opacity:1;fill-rule:nonzero;stroke:#000000;stroke-width:0.91294879;stroke-linecap:round;stroke-linejoin:round;stroke-miterlimit:4;stroke-dasharray:none;stroke-dashoffset:0;stroke-opacity:1;marker:none;enable-background:accumulate"
         id="path4138-32-3-1-83-2"
         cx="438.77469"
         cy="161.39156"
         r="2.6942916" />
      <circle
         style="color:#000000;display:inline;overflow:visible;visibility:visible;opacity:1;fill:#0000ff;fill-opacity:1;fill-rule:nonzero;stroke:#000000;stroke-width:0.91294879;stroke-linecap:round;stroke-linejoin:round;stroke-miterlimit:4;stroke-dasharray:none;stroke-dashoffset:0;stroke-opacity:1;marker:none;enable-background:accumulate"
         id="path4138-32-3-1-83-35"
         cx="427.98645"
         cy="155.52933"
         r="2.6942916" />
      <circle
         style="color:#000000;display:inline;overflow:visible;visibility:visible;opacity:1;fill:#0000ff;fill-opacity:1;fill-rule:nonzero;stroke:#000000;stroke-width:0.91294879;stroke-linecap:round;stroke-linejoin:round;stroke-miterlimit:4;stroke-dasharray:none;stroke-dashoffset:0;stroke-opacity:1;marker:none;enable-background:accumulate"
         id="path4138-32-3-1-83-0"
         cx="451.73648"
         cy="191.06506"
         r="2.6942916" />
      <circle
         style="color:#000000;display:inline;overflow:visible;visibility:visible;opacity:1;fill:#0000ff;fill-opacity:1;fill-rule:nonzero;stroke:#000000;stroke-width:0.91294879;stroke-linecap:round;stroke-linejoin:round;stroke-miterlimit:4;stroke-dasharray:none;stroke-dashoffset:0;stroke-opacity:1;marker:none;enable-background:accumulate"
         id="path4138-32-3-1-83-37"
         cx="462.05026"
         cy="213.07266"
         r="2.6942916" />
      <circle
         style="color:#000000;display:inline;overflow:visible;visibility:visible;opacity:1;fill:#0000ff;fill-opacity:1;fill-rule:nonzero;stroke:#000000;stroke-width:0.91294879;stroke-linecap:round;stroke-linejoin:round;stroke-miterlimit:4;stroke-dasharray:none;stroke-dashoffset:0;stroke-opacity:1;marker:none;enable-background:accumulate"
         id="path4138-32-3-1-83-21"
         cx="284.95074"
         cy="227.31503"
         r="2.6942916" />
      <circle
         style="color:#000000;display:inline;overflow:visible;visibility:visible;opacity:1;fill:#0000ff;fill-opacity:1;fill-rule:nonzero;stroke:#000000;stroke-width:0.91294879;stroke-linecap:round;stroke-linejoin:round;stroke-miterlimit:4;stroke-dasharray:none;stroke-dashoffset:0;stroke-opacity:1;marker:none;enable-background:accumulate"
         id="path4138-32-3-1-83-80"
         cx="284.65488"
         cy="207.65051"
         r="2.6942916" />
      <circle
         style="color:#000000;display:inline;overflow:visible;visibility:visible;opacity:1;fill:#0000ff;fill-opacity:1;fill-rule:nonzero;stroke:#000000;stroke-width:0.91299999;stroke-linecap:round;stroke-linejoin:round;stroke-miterlimit:4;stroke-dasharray:none;stroke-dashoffset:0;stroke-opacity:1;marker:none;enable-background:accumulate"
         id="path4138-32-3-1-83-46"
         cx="278.52219"
         cy="243.74362"
         r="2.6942916" />
      <circle
         style="color:#000000;display:inline;overflow:visible;visibility:visible;opacity:1;fill:#0000ff;fill-opacity:1;fill-rule:nonzero;stroke:#000000;stroke-width:0.91294879;stroke-linecap:round;stroke-linejoin:round;stroke-miterlimit:4;stroke-dasharray:none;stroke-dashoffset:0;stroke-opacity:1;marker:none;enable-background:accumulate"
         id="path4138-32-3-1-83-9"
         cx="472.80786"
         cy="241.60077"
         r="2.6942916" />
      <path
         style="fill:none;fill-rule:evenodd;stroke:#e9c927;stroke-width:1;stroke-linecap:butt;stroke-linejoin:miter;stroke-miterlimit:4;stroke-dasharray:8, 2, 1, 2;stroke-dashoffset:0;stroke-opacity:1"
         d="M 248.08887,227.34658 483.3791,196.57254"
         id="path19658"
         inkscape:connector-curvature="0"
         sodipodi:nodetypes="cc" />
      <circle
         style="color:#000000;display:inline;overflow:visible;visibility:visible;opacity:1;fill:#00ff00;fill-opacity:1;fill-rule:nonzero;stroke:#000000;stroke-width:0.91294879;stroke-linecap:round;stroke-linejoin:round;stroke-miterlimit:4;stroke-dasharray:none;stroke-dashoffset:0;stroke-opacity:1;marker:none;enable-background:accumulate"
         id="path4138-32-3-1-83-3-6"
         cx="439.16382"
         cy="175.80232"
         r="2.6942916" />
      <circle
         style="color:#000000;display:inline;overflow:visible;visibility:visible;opacity:1;fill:#00ff00;fill-opacity:1;fill-rule:nonzero;stroke:#000000;stroke-width:0.91294879;stroke-linecap:round;stroke-linejoin:round;stroke-miterlimit:4;stroke-dasharray:none;stroke-dashoffset:0;stroke-opacity:1;marker:none;enable-background:accumulate"
         id="path4138-32-3-1-83-3-6-4"
         cx="415.80774"
         cy="130.66978"
         r="2.6942916" />
      <circle
         style="color:#000000;display:inline;overflow:visible;visibility:visible;opacity:1;fill:#00ff00;fill-opacity:1;fill-rule:nonzero;stroke:#000000;stroke-width:0.91294879;stroke-linecap:round;stroke-linejoin:round;stroke-miterlimit:4;stroke-dasharray:none;stroke-dashoffset:0;stroke-opacity:1;marker:none;enable-background:accumulate"
         id="path4138-32-3-1-83-3-6-5"
         cx="339.91635"
         cy="91.959671"
         r="2.6942916" />
      <circle
         style="color:#000000;display:inline;overflow:visible;visibility:visible;opacity:1;fill:#00ff00;fill-opacity:1;fill-rule:nonzero;stroke:#000000;stroke-width:0.91294879;stroke-linecap:round;stroke-linejoin:round;stroke-miterlimit:4;stroke-dasharray:none;stroke-dashoffset:0;stroke-opacity:1;marker:none;enable-background:accumulate"
         id="path4138-32-3-1-83-3-6-9"
         cx="330.82498"
         cy="123.77948"
         r="2.6942916" />
      <circle
         style="color:#000000;display:inline;overflow:visible;visibility:visible;opacity:1;fill:#00ff00;fill-opacity:1;fill-rule:nonzero;stroke:#000000;stroke-width:0.91294879;stroke-linecap:round;stroke-linejoin:round;stroke-miterlimit:4;stroke-dasharray:none;stroke-dashoffset:0;stroke-opacity:1;marker:none;enable-background:accumulate"
         id="path4138-32-3-1-83-3-6-0"
         cx="309.35922"
         cy="142.97237"
         r="2.6942916" />
      <circle
         style="color:#000000;display:inline;overflow:visible;visibility:visible;opacity:1;fill:#00ff00;fill-opacity:1;fill-rule:nonzero;stroke:#000000;stroke-width:0.91294879;stroke-linecap:round;stroke-linejoin:round;stroke-miterlimit:4;stroke-dasharray:none;stroke-dashoffset:0;stroke-opacity:1;marker:none;enable-background:accumulate"
         id="path4138-32-3-1-83-3-6-3"
         cx="481.84277"
         cy="225.04727"
         r="2.6942916" />
      <circle
         style="color:#000000;display:inline;overflow:visible;visibility:visible;opacity:1;fill:#00ff00;fill-opacity:1;fill-rule:nonzero;stroke:#000000;stroke-width:0.91294879;stroke-linecap:round;stroke-linejoin:round;stroke-miterlimit:4;stroke-dasharray:none;stroke-dashoffset:0;stroke-opacity:1;marker:none;enable-background:accumulate"
         id="path4138-32-3-1-83-3-6-8"
         cx="476.28693"
         cy="253.83661"
         r="2.6942916" />
      <circle
         style="color:#000000;display:inline;overflow:visible;visibility:visible;opacity:1;fill:#00ff00;fill-opacity:1;fill-rule:nonzero;stroke:#000000;stroke-width:0.91294879;stroke-linecap:round;stroke-linejoin:round;stroke-miterlimit:4;stroke-dasharray:none;stroke-dashoffset:0;stroke-opacity:1;marker:none;enable-background:accumulate"
         id="path4138-32-3-1-83-3-6-2"
         cx="303.04578"
         cy="175.54979"
         r="2.6942916" />
      <circle
         style="color:#000000;display:inline;overflow:visible;visibility:visible;opacity:1;fill:#00ff00;fill-opacity:1;fill-rule:nonzero;stroke:#000000;stroke-width:0.91294879;stroke-linecap:round;stroke-linejoin:round;stroke-miterlimit:4;stroke-dasharray:none;stroke-dashoffset:0;stroke-opacity:1;marker:none;enable-background:accumulate"
         id="path4138-32-3-1-83-3-6-57"
         cx="278.80212"
         cy="196.763"
         r="2.6942916" />
      <circle
         style="color:#000000;display:inline;overflow:visible;visibility:visible;opacity:1;fill:#00ff00;fill-opacity:1;fill-rule:nonzero;stroke:#000000;stroke-width:0.91294879;stroke-linecap:round;stroke-linejoin:round;stroke-miterlimit:4;stroke-dasharray:none;stroke-dashoffset:0;stroke-opacity:1;marker:none;enable-background:accumulate"
         id="path4138-32-3-1-83-3-6-59"
         cx="272.74121"
         cy="232.11835"
         r="2.6942916" />
      <circle
         style="color:#000000;display:inline;overflow:visible;visibility:visible;opacity:1;fill:#00ff00;fill-opacity:1;fill-rule:nonzero;stroke:#000000;stroke-width:0.91294879;stroke-linecap:round;stroke-linejoin:round;stroke-miterlimit:4;stroke-dasharray:none;stroke-dashoffset:0;stroke-opacity:1;marker:none;enable-background:accumulate"
         id="path4138-32-3-1-83-3-6-52"
         cx="280.82242"
         cy="257.87723"
         r="2.6942916" />
      <text
         sodipodi:linespacing="125%"
         id="text20227-8"
         y="53.368515"
         x="338.95923"
         style="font-style:normal;font-weight:normal;font-size:11px;line-height:125%;font-family:Sans;letter-spacing:0px;word-spacing:0px;fill:#000000;fill-opacity:1;stroke:none;stroke-width:1px;stroke-linecap:butt;stroke-linejoin:miter;stroke-opacity:1"
         xml:space="preserve"><tspan
           style="font-weight:bold;font-size:16.7086544px"
           y="53.368515"
           x="338.95923"
           id="tspan20229-3"
           sodipodi:role="line">Dataset</tspan></text>
      <g
         transform="translate(0,84.81794)"
         id="g20450">
        <g
           id="g20430"
           transform="translate(38.385796,1.2039528e-4)">
          <text
             sodipodi:linespacing="125%"
             id="text20323"
             y="62.870949"
             x="514.83765"
             style="font-style:normal;font-weight:normal;font-size:11px;line-height:125%;font-family:Sans;letter-spacing:0px;word-spacing:0px;fill:#000000;fill-opacity:1;stroke:none;stroke-width:1px;stroke-linecap:butt;stroke-linejoin:miter;stroke-opacity:1"
             xml:space="preserve"><tspan
               y="62.870949"
               x="514.83765"
               id="tspan20325"
               sodipodi:role="line">Training Data</tspan></text>
          <rect
             y="54.07893"
             x="486.89352"
             height="11.616755"
             width="23.233509"
             id="rect20283"
             style="color:#000000;display:inline;overflow:visible;visibility:visible;opacity:1;fill:#0000ff;fill-opacity:1;fill-rule:nonzero;stroke:#000000;stroke-width:0.91299999;stroke-linecap:butt;stroke-linejoin:round;stroke-miterlimit:4;stroke-dasharray:none;stroke-dashoffset:0;stroke-opacity:1;marker:none;enable-background:accumulate" />
        </g>
        <g
           id="g20435"
           transform="translate(38.385796,0.75199341)">
          <text
             sodipodi:linespacing="125%"
             id="text20327"
             y="77.115784"
             x="514.83765"
             style="font-style:normal;font-weight:normal;font-size:11px;line-height:125%;font-family:Sans;letter-spacing:0px;word-spacing:0px;fill:#000000;fill-opacity:1;stroke:none;stroke-width:1px;stroke-linecap:butt;stroke-linejoin:miter;stroke-opacity:1"
             xml:space="preserve"><tspan
               y="77.115784"
               x="514.83765"
               id="tspan20329"
               sodipodi:role="line">Test/Cross-Validation Data</tspan></text>
          <rect
             y="67.896759"
             x="486.89352"
             height="11.616755"
             width="23.233509"
             id="rect20283-1"
             style="color:#000000;display:inline;overflow:visible;visibility:visible;opacity:1;fill:#00ff00;fill-opacity:1;fill-rule:nonzero;stroke:#000000;stroke-width:0.91299999;stroke-linecap:butt;stroke-linejoin:round;stroke-miterlimit:4;stroke-dasharray:none;stroke-dashoffset:0;stroke-opacity:1;marker:none;enable-background:accumulate" />
        </g>
        <g
           id="g20440"
           transform="translate(38.385796,0.98829865)">
          <text
             sodipodi:linespacing="125%"
             id="text20331"
             y="91.145714"
             x="513.96753"
             style="font-style:normal;font-weight:normal;font-size:11px;line-height:125%;font-family:Sans;letter-spacing:0px;word-spacing:0px;fill:#000000;fill-opacity:1;stroke:none;stroke-width:1px;stroke-linecap:butt;stroke-linejoin:miter;stroke-opacity:1"
             xml:space="preserve"><tspan
               y="91.145714"
               x="513.96753"
               id="tspan20333"
               sodipodi:role="line">High bias (underfitting) model</tspan></text>
          <rect
             y="82.230156"
             x="486.89352"
             height="11.616755"
             width="23.233509"
             id="rect20283-0"
             style="color:#000000;display:inline;overflow:visible;visibility:visible;opacity:1;fill:#e6cb3d;fill-opacity:1;fill-rule:nonzero;stroke:#000000;stroke-width:0.91299999;stroke-linecap:butt;stroke-linejoin:round;stroke-miterlimit:4;stroke-dasharray:none;stroke-dashoffset:0;stroke-opacity:1;marker:none;enable-background:accumulate" />
        </g>
        <g
           id="g20445"
           transform="translate(38.385796,-2.0748517e-5)">
          <text
             sodipodi:linespacing="125%"
             id="text20335"
             y="106.70374"
             x="513.96753"
             style="font-style:normal;font-weight:normal;font-size:11px;line-height:125%;font-family:Sans;letter-spacing:0px;word-spacing:0px;fill:#000000;fill-opacity:1;stroke:none;stroke-width:1px;stroke-linecap:butt;stroke-linejoin:miter;stroke-opacity:1"
             xml:space="preserve"><tspan
               y="106.70374"
               x="513.96753"
               id="tspan20337"
               sodipodi:role="line">High variance (overfitting) model</tspan></text>
          <rect
             y="97.788177"
             x="486.89352"
             height="11.616755"
             width="23.233509"
             id="rect20283-5"
             style="color:#000000;display:inline;overflow:visible;visibility:visible;opacity:1;fill:#ff0000;fill-opacity:1;fill-rule:nonzero;stroke:#000000;stroke-width:0.91299999;stroke-linecap:butt;stroke-linejoin:round;stroke-miterlimit:4;stroke-dasharray:none;stroke-dashoffset:0;stroke-opacity:1;marker:none;enable-background:accumulate" />
        </g>
      </g>
      <text
         sodipodi:linespacing="125%"
         id="text20422"
         y="168.47472"
         x="238.21428"
         style="font-style:normal;font-weight:normal;font-size:11px;line-height:125%;font-family:Sans;letter-spacing:0px;word-spacing:0px;fill:#000000;fill-opacity:1;stroke:none;stroke-width:1px;stroke-linecap:butt;stroke-linejoin:miter;stroke-opacity:1"
         xml:space="preserve"><tspan
           y="168.47472"
           x="238.21428"
           id="tspan20424"
           sodipodi:role="line">y</tspan></text>
      <text
         sodipodi:linespacing="125%"
         id="text20426"
         y="274.29581"
         x="370.56454"
         style="font-style:normal;font-weight:normal;font-size:11px;line-height:125%;font-family:Sans;letter-spacing:0px;word-spacing:0px;fill:#000000;fill-opacity:1;stroke:none;stroke-width:1px;stroke-linecap:butt;stroke-linejoin:miter;stroke-opacity:1"
         xml:space="preserve"><tspan
           y="274.29581"
           x="370.56454"
           id="tspan20428"
           sodipodi:role="line">x</tspan></text>
    </g>
    <text
       xml:space="preserve"
       style="font-style:normal;font-weight:normal;font-size:16.13980865px;line-height:125%;font-family:Sans;letter-spacing:0px;word-spacing:0px;fill:#000000;fill-opacity:1;stroke:none;stroke-width:1px;stroke-linecap:butt;stroke-linejoin:miter;stroke-opacity:1"
       x="303.66708"
       y="346.40753"
       id="text20468"
       sodipodi:linespacing="125%"><tspan
         sodipodi:role="line"
         id="tspan20470"
         x="303.66708"
         y="346.40753"
         style="font-weight:bold">Learning Curves</tspan></text>
  </g>
</svg>
