<?xml version="1.0" encoding="utf-8" standalone="no"?>
<!DOCTYPE svg PUBLIC "-//W3C//DTD SVG 1.1//EN"
  "http://www.w3.org/Graphics/SVG/1.1/DTD/svg11.dtd">
<!-- Created with matplotlib (http://matplotlib.org/) -->
<svg height="720pt" version="1.1" viewBox="0 0 576 720" width="576pt" xmlns="http://www.w3.org/2000/svg" xmlns:xlink="http://www.w3.org/1999/xlink">
 <defs>
  <style type="text/css">
*{stroke-linecap:butt;stroke-linejoin:round;}
  </style>
 </defs>
 <g id="figure_1">
  <g id="patch_1">
   <path d="
M0 720
L576 720
L576 0
L0 0
z
" style="fill:#ffffff;"/>
  </g>
  <g id="axes_1">
   <g id="patch_2">
    <path d="
M72 193.304
L274.909 193.304
L274.909 72
L72 72
z
" style="fill:#eaeaf2;"/>
   </g>
   <g id="matplotlib.axis_1">
    <g id="xtick_1">
     <g id="line2d_1">
      <path clip-path="url(#p400f019394)" d="
M72 193.304
L72 72" style="fill:none;stroke:#ffffff;stroke-linecap:round;stroke-width:0.8;"/>
     </g>
     <g id="line2d_2">
      <defs>
       <path d="
M0 0
L0 0" id="m5f0075cab7" style="stroke:#262626;stroke-width:0.8;"/>
      </defs>
      <g>
       <use style="fill:#262626;stroke:#262626;stroke-width:0.8;" x="72.0" xlink:href="#m5f0075cab7" y="193.304347826"/>
      </g>
     </g>
     <g id="line2d_3">
      <g>
       <use style="fill:#262626;stroke:#262626;stroke-width:0.8;" x="72.0" xlink:href="#m5f0075cab7" y="72.0"/>
      </g>
     </g>
     <g id="text_1">
      <!-- 0.0 -->
      <defs>
       <path d="
M10.6875 12.4062
L21 12.4062
L21 0
L10.6875 0
z
" id="BitstreamVeraSans-Roman-2e"/>
       <path d="
M31.7812 66.4062
Q24.1719 66.4062 20.3281 58.9062
Q16.5 51.4219 16.5 36.375
Q16.5 21.3906 20.3281 13.8906
Q24.1719 6.39062 31.7812 6.39062
Q39.4531 6.39062 43.2812 13.8906
Q47.125 21.3906 47.125 36.375
Q47.125 51.4219 43.2812 58.9062
Q39.4531 66.4062 31.7812 66.4062
M31.7812 74.2188
Q44.0469 74.2188 50.5156 64.5156
Q56.9844 54.8281 56.9844 36.375
Q56.9844 17.9688 50.5156 8.26562
Q44.0469 -1.42188 31.7812 -1.42188
Q19.5312 -1.42188 13.0625 8.26562
Q6.59375 17.9688 6.59375 36.375
Q6.59375 54.8281 13.0625 64.5156
Q19.5312 74.2188 31.7812 74.2188" id="BitstreamVeraSans-Roman-30"/>
      </defs>
      <g style="fill:#262626;" transform="translate(66.168125 204.983097826)scale(0.08 -0.08)">
       <use xlink:href="#BitstreamVeraSans-Roman-30"/>
       <use x="63.623046875" xlink:href="#BitstreamVeraSans-Roman-2e"/>
       <use x="95.41015625" xlink:href="#BitstreamVeraSans-Roman-30"/>
      </g>
     </g>
    </g>
    <g id="xtick_2">
     <g id="line2d_4">
      <path clip-path="url(#p400f019394)" d="
M112.582 193.304
L112.582 72" style="fill:none;stroke:#ffffff;stroke-linecap:round;stroke-width:0.8;"/>
     </g>
     <g id="line2d_5">
      <g>
       <use style="fill:#262626;stroke:#262626;stroke-width:0.8;" x="112.581818182" xlink:href="#m5f0075cab7" y="193.304347826"/>
      </g>
     </g>
     <g id="line2d_6">
      <g>
       <use style="fill:#262626;stroke:#262626;stroke-width:0.8;" x="112.581818182" xlink:href="#m5f0075cab7" y="72.0"/>
      </g>
     </g>
     <g id="text_2">
      <!-- 0.2 -->
      <defs>
       <path d="
M19.1875 8.29688
L53.6094 8.29688
L53.6094 0
L7.32812 0
L7.32812 8.29688
Q12.9375 14.1094 22.625 23.8906
Q32.3281 33.6875 34.8125 36.5312
Q39.5469 41.8438 41.4219 45.5312
Q43.3125 49.2188 43.3125 52.7812
Q43.3125 58.5938 39.2344 62.25
Q35.1562 65.9219 28.6094 65.9219
Q23.9688 65.9219 18.8125 64.3125
Q13.6719 62.7031 7.8125 59.4219
L7.8125 69.3906
Q13.7656 71.7812 18.9375 73
Q24.125 74.2188 28.4219 74.2188
Q39.75 74.2188 46.4844 68.5469
Q53.2188 62.8906 53.2188 53.4219
Q53.2188 48.9219 51.5312 44.8906
Q49.8594 40.875 45.4062 35.4062
Q44.1875 33.9844 37.6406 27.2188
Q31.1094 20.4531 19.1875 8.29688" id="BitstreamVeraSans-Roman-32"/>
      </defs>
      <g style="fill:#262626;" transform="translate(106.884943182 204.983097826)scale(0.08 -0.08)">
       <use xlink:href="#BitstreamVeraSans-Roman-30"/>
       <use x="63.623046875" xlink:href="#BitstreamVeraSans-Roman-2e"/>
       <use x="95.41015625" xlink:href="#BitstreamVeraSans-Roman-32"/>
      </g>
     </g>
    </g>
    <g id="xtick_3">
     <g id="line2d_7">
      <path clip-path="url(#p400f019394)" d="
M153.164 193.304
L153.164 72" style="fill:none;stroke:#ffffff;stroke-linecap:round;stroke-width:0.8;"/>
     </g>
     <g id="line2d_8">
      <g>
       <use style="fill:#262626;stroke:#262626;stroke-width:0.8;" x="153.163636364" xlink:href="#m5f0075cab7" y="193.304347826"/>
      </g>
     </g>
     <g id="line2d_9">
      <g>
       <use style="fill:#262626;stroke:#262626;stroke-width:0.8;" x="153.163636364" xlink:href="#m5f0075cab7" y="72.0"/>
      </g>
     </g>
     <g id="text_3">
      <!-- 0.4 -->
      <defs>
       <path d="
M37.7969 64.3125
L12.8906 25.3906
L37.7969 25.3906
z

M35.2031 72.9062
L47.6094 72.9062
L47.6094 25.3906
L58.0156 25.3906
L58.0156 17.1875
L47.6094 17.1875
L47.6094 0
L37.7969 0
L37.7969 17.1875
L4.89062 17.1875
L4.89062 26.7031
z
" id="BitstreamVeraSans-Roman-34"/>
      </defs>
      <g style="fill:#262626;" transform="translate(147.290511364 204.983097826)scale(0.08 -0.08)">
       <use xlink:href="#BitstreamVeraSans-Roman-30"/>
       <use x="63.623046875" xlink:href="#BitstreamVeraSans-Roman-2e"/>
       <use x="95.41015625" xlink:href="#BitstreamVeraSans-Roman-34"/>
      </g>
     </g>
    </g>
    <g id="xtick_4">
     <g id="line2d_10">
      <path clip-path="url(#p400f019394)" d="
M193.745 193.304
L193.745 72" style="fill:none;stroke:#ffffff;stroke-linecap:round;stroke-width:0.8;"/>
     </g>
     <g id="line2d_11">
      <g>
       <use style="fill:#262626;stroke:#262626;stroke-width:0.8;" x="193.745454545" xlink:href="#m5f0075cab7" y="193.304347826"/>
      </g>
     </g>
     <g id="line2d_12">
      <g>
       <use style="fill:#262626;stroke:#262626;stroke-width:0.8;" x="193.745454545" xlink:href="#m5f0075cab7" y="72.0"/>
      </g>
     </g>
     <g id="text_4">
      <!-- 0.6 -->
      <defs>
       <path d="
M33.0156 40.375
Q26.375 40.375 22.4844 35.8281
Q18.6094 31.2969 18.6094 23.3906
Q18.6094 15.5312 22.4844 10.9531
Q26.375 6.39062 33.0156 6.39062
Q39.6562 6.39062 43.5312 10.9531
Q47.4062 15.5312 47.4062 23.3906
Q47.4062 31.2969 43.5312 35.8281
Q39.6562 40.375 33.0156 40.375
M52.5938 71.2969
L52.5938 62.3125
Q48.875 64.0625 45.0938 64.9844
Q41.3125 65.9219 37.5938 65.9219
Q27.8281 65.9219 22.6719 59.3281
Q17.5312 52.7344 16.7969 39.4062
Q19.6719 43.6562 24.0156 45.9219
Q28.375 48.1875 33.5938 48.1875
Q44.5781 48.1875 50.9531 41.5156
Q57.3281 34.8594 57.3281 23.3906
Q57.3281 12.1562 50.6875 5.35938
Q44.0469 -1.42188 33.0156 -1.42188
Q20.3594 -1.42188 13.6719 8.26562
Q6.98438 17.9688 6.98438 36.375
Q6.98438 53.6562 15.1875 63.9375
Q23.3906 74.2188 37.2031 74.2188
Q40.9219 74.2188 44.7031 73.4844
Q48.4844 72.75 52.5938 71.2969" id="BitstreamVeraSans-Roman-36"/>
      </defs>
      <g style="fill:#262626;" transform="translate(187.899829545 204.983097826)scale(0.08 -0.08)">
       <use xlink:href="#BitstreamVeraSans-Roman-30"/>
       <use x="63.623046875" xlink:href="#BitstreamVeraSans-Roman-2e"/>
       <use x="95.41015625" xlink:href="#BitstreamVeraSans-Roman-36"/>
      </g>
     </g>
    </g>
    <g id="xtick_5">
     <g id="line2d_13">
      <path clip-path="url(#p400f019394)" d="
M234.327 193.304
L234.327 72" style="fill:none;stroke:#ffffff;stroke-linecap:round;stroke-width:0.8;"/>
     </g>
     <g id="line2d_14">
      <g>
       <use style="fill:#262626;stroke:#262626;stroke-width:0.8;" x="234.327272727" xlink:href="#m5f0075cab7" y="193.304347826"/>
      </g>
     </g>
     <g id="line2d_15">
      <g>
       <use style="fill:#262626;stroke:#262626;stroke-width:0.8;" x="234.327272727" xlink:href="#m5f0075cab7" y="72.0"/>
      </g>
     </g>
     <g id="text_5">
      <!-- 0.8 -->
      <defs>
       <path d="
M31.7812 34.625
Q24.75 34.625 20.7188 30.8594
Q16.7031 27.0938 16.7031 20.5156
Q16.7031 13.9219 20.7188 10.1562
Q24.75 6.39062 31.7812 6.39062
Q38.8125 6.39062 42.8594 10.1719
Q46.9219 13.9688 46.9219 20.5156
Q46.9219 27.0938 42.8906 30.8594
Q38.875 34.625 31.7812 34.625
M21.9219 38.8125
Q15.5781 40.375 12.0312 44.7188
Q8.5 49.0781 8.5 55.3281
Q8.5 64.0625 14.7188 69.1406
Q20.9531 74.2188 31.7812 74.2188
Q42.6719 74.2188 48.875 69.1406
Q55.0781 64.0625 55.0781 55.3281
Q55.0781 49.0781 51.5312 44.7188
Q48 40.375 41.7031 38.8125
Q48.8281 37.1562 52.7969 32.3125
Q56.7812 27.4844 56.7812 20.5156
Q56.7812 9.90625 50.3125 4.23438
Q43.8438 -1.42188 31.7812 -1.42188
Q19.7344 -1.42188 13.25 4.23438
Q6.78125 9.90625 6.78125 20.5156
Q6.78125 27.4844 10.7812 32.3125
Q14.7969 37.1562 21.9219 38.8125
M18.3125 54.3906
Q18.3125 48.7344 21.8438 45.5625
Q25.3906 42.3906 31.7812 42.3906
Q38.1406 42.3906 41.7188 45.5625
Q45.3125 48.7344 45.3125 54.3906
Q45.3125 60.0625 41.7188 63.2344
Q38.1406 66.4062 31.7812 66.4062
Q25.3906 66.4062 21.8438 63.2344
Q18.3125 60.0625 18.3125 54.3906" id="BitstreamVeraSans-Roman-38"/>
      </defs>
      <g style="fill:#262626;" transform="translate(228.503522727 204.983097826)scale(0.08 -0.08)">
       <use xlink:href="#BitstreamVeraSans-Roman-30"/>
       <use x="63.623046875" xlink:href="#BitstreamVeraSans-Roman-2e"/>
       <use x="95.41015625" xlink:href="#BitstreamVeraSans-Roman-38"/>
      </g>
     </g>
    </g>
    <g id="xtick_6">
     <g id="line2d_16">
      <path clip-path="url(#p400f019394)" d="
M274.909 193.304
L274.909 72" style="fill:none;stroke:#ffffff;stroke-linecap:round;stroke-width:0.8;"/>
     </g>
     <g id="line2d_17">
      <g>
       <use style="fill:#262626;stroke:#262626;stroke-width:0.8;" x="274.909090909" xlink:href="#m5f0075cab7" y="193.304347826"/>
      </g>
     </g>
     <g id="line2d_18">
      <g>
       <use style="fill:#262626;stroke:#262626;stroke-width:0.8;" x="274.909090909" xlink:href="#m5f0075cab7" y="72.0"/>
      </g>
     </g>
     <g id="text_6">
      <!-- 1.0 -->
      <defs>
       <path d="
M12.4062 8.29688
L28.5156 8.29688
L28.5156 63.9219
L10.9844 60.4062
L10.9844 69.3906
L28.4219 72.9062
L38.2812 72.9062
L38.2812 8.29688
L54.3906 8.29688
L54.3906 0
L12.4062 0
z
" id="BitstreamVeraSans-Roman-31"/>
      </defs>
      <g style="fill:#262626;" transform="translate(269.252840909 204.983097826)scale(0.08 -0.08)">
       <use xlink:href="#BitstreamVeraSans-Roman-31"/>
       <use x="63.623046875" xlink:href="#BitstreamVeraSans-Roman-2e"/>
       <use x="95.41015625" xlink:href="#BitstreamVeraSans-Roman-30"/>
      </g>
     </g>
    </g>
    <g id="text_7">
     <!-- Read Mean GC Proportion -->
     <defs>
      <path d="
M30.6094 48.3906
Q23.3906 48.3906 19.1875 42.75
Q14.9844 37.1094 14.9844 27.2969
Q14.9844 17.4844 19.1562 11.8438
Q23.3438 6.20312 30.6094 6.20312
Q37.7969 6.20312 41.9844 11.8594
Q46.1875 17.5312 46.1875 27.2969
Q46.1875 37.0156 41.9844 42.7031
Q37.7969 48.3906 30.6094 48.3906
M30.6094 56
Q42.3281 56 49.0156 48.375
Q55.7188 40.7656 55.7188 27.2969
Q55.7188 13.875 49.0156 6.21875
Q42.3281 -1.42188 30.6094 -1.42188
Q18.8438 -1.42188 12.1719 6.21875
Q5.51562 13.875 5.51562 27.2969
Q5.51562 40.7656 12.1719 48.375
Q18.8438 56 30.6094 56" id="BitstreamVeraSans-Roman-6f"/>
      <path d="
M18.1094 8.20312
L18.1094 -20.7969
L9.07812 -20.7969
L9.07812 54.6875
L18.1094 54.6875
L18.1094 46.3906
Q20.9531 51.2656 25.2656 53.625
Q29.5938 56 35.5938 56
Q45.5625 56 51.7812 48.0938
Q58.0156 40.1875 58.0156 27.2969
Q58.0156 14.4062 51.7812 6.48438
Q45.5625 -1.42188 35.5938 -1.42188
Q29.5938 -1.42188 25.2656 0.953125
Q20.9531 3.32812 18.1094 8.20312
M48.6875 27.2969
Q48.6875 37.2031 44.6094 42.8438
Q40.5312 48.4844 33.4062 48.4844
Q26.2656 48.4844 22.1875 42.8438
Q18.1094 37.2031 18.1094 27.2969
Q18.1094 17.3906 22.1875 11.75
Q26.2656 6.10938 33.4062 6.10938
Q40.5312 6.10938 44.6094 11.75
Q48.6875 17.3906 48.6875 27.2969" id="BitstreamVeraSans-Roman-70"/>
      <path d="
M9.8125 72.9062
L24.5156 72.9062
L43.1094 23.2969
L61.8125 72.9062
L76.5156 72.9062
L76.5156 0
L66.8906 0
L66.8906 64.0156
L48.0938 14.0156
L38.1875 14.0156
L19.3906 64.0156
L19.3906 0
L9.8125 0
z
" id="BitstreamVeraSans-Roman-4d"/>
      <path d="
M41.1094 46.2969
Q39.5938 47.1719 37.8125 47.5781
Q36.0312 48 33.8906 48
Q26.2656 48 22.1875 43.0469
Q18.1094 38.0938 18.1094 28.8125
L18.1094 0
L9.07812 0
L9.07812 54.6875
L18.1094 54.6875
L18.1094 46.1875
Q20.9531 51.1719 25.4844 53.5781
Q30.0312 56 36.5312 56
Q37.4531 56 38.5781 55.875
Q39.7031 55.7656 41.0625 55.5156
z
" id="BitstreamVeraSans-Roman-72"/>
      <path d="
M54.8906 33.0156
L54.8906 0
L45.9062 0
L45.9062 32.7188
Q45.9062 40.4844 42.875 44.3281
Q39.8438 48.1875 33.7969 48.1875
Q26.5156 48.1875 22.3125 43.5469
Q18.1094 38.9219 18.1094 30.9062
L18.1094 0
L9.07812 0
L9.07812 54.6875
L18.1094 54.6875
L18.1094 46.1875
Q21.3438 51.125 25.7031 53.5625
Q30.0781 56 35.7969 56
Q45.2188 56 50.0469 50.1719
Q54.8906 44.3438 54.8906 33.0156" id="BitstreamVeraSans-Roman-6e"/>
      <path id="BitstreamVeraSans-Roman-20"/>
      <path d="
M64.4062 67.2812
L64.4062 56.8906
Q59.4219 61.5312 53.7812 63.8125
Q48.1406 66.1094 41.7969 66.1094
Q29.2969 66.1094 22.6562 58.4688
Q16.0156 50.8281 16.0156 36.375
Q16.0156 21.9688 22.6562 14.3281
Q29.2969 6.6875 41.7969 6.6875
Q48.1406 6.6875 53.7812 8.98438
Q59.4219 11.2812 64.4062 15.9219
L64.4062 5.60938
Q59.2344 2.09375 53.4375 0.328125
Q47.6562 -1.42188 41.2188 -1.42188
Q24.6562 -1.42188 15.125 8.70312
Q5.60938 18.8438 5.60938 36.375
Q5.60938 53.9531 15.125 64.0781
Q24.6562 74.2188 41.2188 74.2188
Q47.75 74.2188 53.5312 72.4844
Q59.3281 70.75 64.4062 67.2812" id="BitstreamVeraSans-Roman-43"/>
      <path d="
M59.5156 10.4062
L59.5156 29.9844
L43.4062 29.9844
L43.4062 38.0938
L69.2812 38.0938
L69.2812 6.78125
Q63.5781 2.73438 56.6875 0.65625
Q49.8125 -1.42188 42 -1.42188
Q24.9062 -1.42188 15.25 8.5625
Q5.60938 18.5625 5.60938 36.375
Q5.60938 54.25 15.25 64.2344
Q24.9062 74.2188 42 74.2188
Q49.125 74.2188 55.5469 72.4531
Q61.9688 70.7031 67.3906 67.2812
L67.3906 56.7812
Q61.9219 61.4219 55.7656 63.7656
Q49.6094 66.1094 42.8281 66.1094
Q29.4375 66.1094 22.7188 58.6406
Q16.0156 51.1719 16.0156 36.375
Q16.0156 21.625 22.7188 14.1562
Q29.4375 6.6875 42.8281 6.6875
Q48.0469 6.6875 52.1406 7.59375
Q56.25 8.5 59.5156 10.4062" id="BitstreamVeraSans-Roman-47"/>
      <path d="
M44.3906 34.1875
Q47.5625 33.1094 50.5625 29.5938
Q53.5625 26.0781 56.5938 19.9219
L66.6094 0
L56 0
L46.6875 18.7031
Q43.0625 26.0312 39.6719 28.4219
Q36.2812 30.8125 30.4219 30.8125
L19.6719 30.8125
L19.6719 0
L9.8125 0
L9.8125 72.9062
L32.0781 72.9062
Q44.5781 72.9062 50.7344 67.6719
Q56.8906 62.4531 56.8906 51.9062
Q56.8906 45.0156 53.6875 40.4688
Q50.4844 35.9375 44.3906 34.1875
M19.6719 64.7969
L19.6719 38.9219
L32.0781 38.9219
Q39.2031 38.9219 42.8438 42.2188
Q46.4844 45.5156 46.4844 51.9062
Q46.4844 58.2969 42.8438 61.5469
Q39.2031 64.7969 32.0781 64.7969
z
" id="BitstreamVeraSans-Roman-52"/>
      <path d="
M18.3125 70.2188
L18.3125 54.6875
L36.8125 54.6875
L36.8125 47.7031
L18.3125 47.7031
L18.3125 18.0156
Q18.3125 11.3281 20.1406 9.42188
Q21.9688 7.51562 27.5938 7.51562
L36.8125 7.51562
L36.8125 0
L27.5938 0
Q17.1875 0 13.2344 3.875
Q9.28125 7.76562 9.28125 18.0156
L9.28125 47.7031
L2.6875 47.7031
L2.6875 54.6875
L9.28125 54.6875
L9.28125 70.2188
z
" id="BitstreamVeraSans-Roman-74"/>
      <path d="
M45.4062 46.3906
L45.4062 75.9844
L54.3906 75.9844
L54.3906 0
L45.4062 0
L45.4062 8.20312
Q42.5781 3.32812 38.25 0.953125
Q33.9375 -1.42188 27.875 -1.42188
Q17.9688 -1.42188 11.7344 6.48438
Q5.51562 14.4062 5.51562 27.2969
Q5.51562 40.1875 11.7344 48.0938
Q17.9688 56 27.875 56
Q33.9375 56 38.25 53.625
Q42.5781 51.2656 45.4062 46.3906
M14.7969 27.2969
Q14.7969 17.3906 18.875 11.75
Q22.9531 6.10938 30.0781 6.10938
Q37.2031 6.10938 41.2969 11.75
Q45.4062 17.3906 45.4062 27.2969
Q45.4062 37.2031 41.2969 42.8438
Q37.2031 48.4844 30.0781 48.4844
Q22.9531 48.4844 18.875 42.8438
Q14.7969 37.2031 14.7969 27.2969" id="BitstreamVeraSans-Roman-64"/>
      <path d="
M9.42188 54.6875
L18.4062 54.6875
L18.4062 0
L9.42188 0
z

M9.42188 75.9844
L18.4062 75.9844
L18.4062 64.5938
L9.42188 64.5938
z
" id="BitstreamVeraSans-Roman-69"/>
      <path d="
M56.2031 29.5938
L56.2031 25.2031
L14.8906 25.2031
Q15.4844 15.9219 20.4844 11.0625
Q25.4844 6.20312 34.4219 6.20312
Q39.5938 6.20312 44.4531 7.46875
Q49.3125 8.73438 54.1094 11.2812
L54.1094 2.78125
Q49.2656 0.734375 44.1875 -0.34375
Q39.1094 -1.42188 33.8906 -1.42188
Q20.7969 -1.42188 13.1562 6.1875
Q5.51562 13.8125 5.51562 26.8125
Q5.51562 40.2344 12.7656 48.1094
Q20.0156 56 32.3281 56
Q43.3594 56 49.7812 48.8906
Q56.2031 41.7969 56.2031 29.5938
M47.2188 32.2344
Q47.125 39.5938 43.0938 43.9844
Q39.0625 48.3906 32.4219 48.3906
Q24.9062 48.3906 20.3906 44.1406
Q15.875 39.8906 15.1875 32.1719
z
" id="BitstreamVeraSans-Roman-65"/>
      <path d="
M34.2812 27.4844
Q23.3906 27.4844 19.1875 25
Q14.9844 22.5156 14.9844 16.5
Q14.9844 11.7188 18.1406 8.90625
Q21.2969 6.10938 26.7031 6.10938
Q34.1875 6.10938 38.7031 11.4062
Q43.2188 16.7031 43.2188 25.4844
L43.2188 27.4844
z

M52.2031 31.2031
L52.2031 0
L43.2188 0
L43.2188 8.29688
Q40.1406 3.32812 35.5469 0.953125
Q30.9531 -1.42188 24.3125 -1.42188
Q15.9219 -1.42188 10.9531 3.29688
Q6 8.01562 6 15.9219
Q6 25.1406 12.1719 29.8281
Q18.3594 34.5156 30.6094 34.5156
L43.2188 34.5156
L43.2188 35.4062
Q43.2188 41.6094 39.1406 45
Q35.0625 48.3906 27.6875 48.3906
Q23 48.3906 18.5469 47.2656
Q14.1094 46.1406 10.0156 43.8906
L10.0156 52.2031
Q14.9375 54.1094 19.5781 55.0469
Q24.2188 56 28.6094 56
Q40.4844 56 46.3438 49.8438
Q52.2031 43.7031 52.2031 31.2031" id="BitstreamVeraSans-Roman-61"/>
      <path d="
M19.6719 64.7969
L19.6719 37.4062
L32.0781 37.4062
Q38.9688 37.4062 42.7188 40.9688
Q46.4844 44.5312 46.4844 51.125
Q46.4844 57.6719 42.7188 61.2344
Q38.9688 64.7969 32.0781 64.7969
z

M9.8125 72.9062
L32.0781 72.9062
Q44.3438 72.9062 50.6094 67.3594
Q56.8906 61.8125 56.8906 51.125
Q56.8906 40.3281 50.6094 34.8125
Q44.3438 29.2969 32.0781 29.2969
L19.6719 29.2969
L19.6719 0
L9.8125 0
z
" id="BitstreamVeraSans-Roman-50"/>
     </defs>
     <g style="fill:#262626;" transform="translate(117.405420455 218.333472826)scale(0.08800000000000001 -0.08800000000000001)">
      <use xlink:href="#BitstreamVeraSans-Roman-52"/>
      <use x="64.982421875" xlink:href="#BitstreamVeraSans-Roman-65"/>
      <use x="126.505859375" xlink:href="#BitstreamVeraSans-Roman-61"/>
      <use x="187.78515625" xlink:href="#BitstreamVeraSans-Roman-64"/>
      <use x="251.26171875" xlink:href="#BitstreamVeraSans-Roman-20"/>
      <use x="283.048828125" xlink:href="#BitstreamVeraSans-Roman-4d"/>
      <use x="369.328125" xlink:href="#BitstreamVeraSans-Roman-65"/>
      <use x="430.8515625" xlink:href="#BitstreamVeraSans-Roman-61"/>
      <use x="492.130859375" xlink:href="#BitstreamVeraSans-Roman-6e"/>
      <use x="555.509765625" xlink:href="#BitstreamVeraSans-Roman-20"/>
      <use x="587.296875" xlink:href="#BitstreamVeraSans-Roman-47"/>
      <use x="664.787109375" xlink:href="#BitstreamVeraSans-Roman-43"/>
      <use x="734.611328125" xlink:href="#BitstreamVeraSans-Roman-20"/>
      <use x="766.3984375" xlink:href="#BitstreamVeraSans-Roman-50"/>
      <use x="824.951171875" xlink:href="#BitstreamVeraSans-Roman-72"/>
      <use x="863.814453125" xlink:href="#BitstreamVeraSans-Roman-6f"/>
      <use x="924.99609375" xlink:href="#BitstreamVeraSans-Roman-70"/>
      <use x="988.47265625" xlink:href="#BitstreamVeraSans-Roman-6f"/>
      <use x="1049.654296875" xlink:href="#BitstreamVeraSans-Roman-72"/>
      <use x="1090.767578125" xlink:href="#BitstreamVeraSans-Roman-74"/>
      <use x="1129.9765625" xlink:href="#BitstreamVeraSans-Roman-69"/>
      <use x="1157.759765625" xlink:href="#BitstreamVeraSans-Roman-6f"/>
      <use x="1218.94140625" xlink:href="#BitstreamVeraSans-Roman-6e"/>
     </g>
    </g>
   </g>
   <g id="matplotlib.axis_2">
    <g id="ytick_1">
     <g id="line2d_19">
      <path clip-path="url(#p400f019394)" d="
M72 193.304
L274.909 193.304" style="fill:none;stroke:#ffffff;stroke-linecap:round;stroke-width:0.8;"/>
     </g>
     <g id="line2d_20">
      <g>
       <use style="fill:#262626;stroke:#262626;stroke-width:0.8;" x="72.0" xlink:href="#m5f0075cab7" y="193.304347826"/>
      </g>
     </g>
     <g id="line2d_21">
      <g>
       <use style="fill:#262626;stroke:#262626;stroke-width:0.8;" x="274.909090909" xlink:href="#m5f0075cab7" y="193.304347826"/>
      </g>
     </g>
     <g id="text_8">
      <!-- 0 -->
      <g style="fill:#262626;" transform="translate(62.36875 195.511847826)scale(0.08 -0.08)">
       <use xlink:href="#BitstreamVeraSans-Roman-30"/>
      </g>
     </g>
    </g>
    <g id="ytick_2">
     <g id="line2d_22">
      <path clip-path="url(#p400f019394)" d="
M72 179.826
L274.909 179.826" style="fill:none;stroke:#ffffff;stroke-linecap:round;stroke-width:0.8;"/>
     </g>
     <g id="line2d_23">
      <g>
       <use style="fill:#262626;stroke:#262626;stroke-width:0.8;" x="72.0" xlink:href="#m5f0075cab7" y="179.826086957"/>
      </g>
     </g>
     <g id="line2d_24">
      <g>
       <use style="fill:#262626;stroke:#262626;stroke-width:0.8;" x="274.909090909" xlink:href="#m5f0075cab7" y="179.826086957"/>
      </g>
     </g>
     <g id="text_9">
      <!-- 1 -->
      <g style="fill:#262626;" transform="translate(62.9275 182.033586957)scale(0.08 -0.08)">
       <use xlink:href="#BitstreamVeraSans-Roman-31"/>
      </g>
     </g>
    </g>
    <g id="ytick_3">
     <g id="line2d_25">
      <path clip-path="url(#p400f019394)" d="
M72 166.348
L274.909 166.348" style="fill:none;stroke:#ffffff;stroke-linecap:round;stroke-width:0.8;"/>
     </g>
     <g id="line2d_26">
      <g>
       <use style="fill:#262626;stroke:#262626;stroke-width:0.8;" x="72.0" xlink:href="#m5f0075cab7" y="166.347826087"/>
      </g>
     </g>
     <g id="line2d_27">
      <g>
       <use style="fill:#262626;stroke:#262626;stroke-width:0.8;" x="274.909090909" xlink:href="#m5f0075cab7" y="166.347826087"/>
      </g>
     </g>
     <g id="text_10">
      <!-- 2 -->
      <g style="fill:#262626;" transform="translate(62.6975 168.555326087)scale(0.08 -0.08)">
       <use xlink:href="#BitstreamVeraSans-Roman-32"/>
      </g>
     </g>
    </g>
    <g id="ytick_4">
     <g id="line2d_28">
      <path clip-path="url(#p400f019394)" d="
M72 152.87
L274.909 152.87" style="fill:none;stroke:#ffffff;stroke-linecap:round;stroke-width:0.8;"/>
     </g>
     <g id="line2d_29">
      <g>
       <use style="fill:#262626;stroke:#262626;stroke-width:0.8;" x="72.0" xlink:href="#m5f0075cab7" y="152.869565217"/>
      </g>
     </g>
     <g id="line2d_30">
      <g>
       <use style="fill:#262626;stroke:#262626;stroke-width:0.8;" x="274.909090909" xlink:href="#m5f0075cab7" y="152.869565217"/>
      </g>
     </g>
     <g id="text_11">
      <!-- 3 -->
      <defs>
       <path d="
M40.5781 39.3125
Q47.6562 37.7969 51.625 33
Q55.6094 28.2188 55.6094 21.1875
Q55.6094 10.4062 48.1875 4.48438
Q40.7656 -1.42188 27.0938 -1.42188
Q22.5156 -1.42188 17.6562 -0.515625
Q12.7969 0.390625 7.625 2.20312
L7.625 11.7188
Q11.7188 9.32812 16.5938 8.10938
Q21.4844 6.89062 26.8125 6.89062
Q36.0781 6.89062 40.9375 10.5469
Q45.7969 14.2031 45.7969 21.1875
Q45.7969 27.6406 41.2812 31.2656
Q36.7656 34.9062 28.7188 34.9062
L20.2188 34.9062
L20.2188 43.0156
L29.1094 43.0156
Q36.375 43.0156 40.2344 45.9219
Q44.0938 48.8281 44.0938 54.2969
Q44.0938 59.9062 40.1094 62.9062
Q36.1406 65.9219 28.7188 65.9219
Q24.6562 65.9219 20.0156 65.0312
Q15.375 64.1562 9.8125 62.3125
L9.8125 71.0938
Q15.4375 72.6562 20.3438 73.4375
Q25.25 74.2188 29.5938 74.2188
Q40.8281 74.2188 47.3594 69.1094
Q53.9062 64.0156 53.9062 55.3281
Q53.9062 49.2656 50.4375 45.0938
Q46.9688 40.9219 40.5781 39.3125" id="BitstreamVeraSans-Roman-33"/>
      </defs>
      <g style="fill:#262626;" transform="translate(62.56125 155.077065217)scale(0.08 -0.08)">
       <use xlink:href="#BitstreamVeraSans-Roman-33"/>
      </g>
     </g>
    </g>
    <g id="ytick_5">
     <g id="line2d_31">
      <path clip-path="url(#p400f019394)" d="
M72 139.391
L274.909 139.391" style="fill:none;stroke:#ffffff;stroke-linecap:round;stroke-width:0.8;"/>
     </g>
     <g id="line2d_32">
      <g>
       <use style="fill:#262626;stroke:#262626;stroke-width:0.8;" x="72.0" xlink:href="#m5f0075cab7" y="139.391304348"/>
      </g>
     </g>
     <g id="line2d_33">
      <g>
       <use style="fill:#262626;stroke:#262626;stroke-width:0.8;" x="274.909090909" xlink:href="#m5f0075cab7" y="139.391304348"/>
      </g>
     </g>
     <g id="text_12">
      <!-- 4 -->
      <g style="fill:#262626;" transform="translate(62.15 141.598804348)scale(0.08 -0.08)">
       <use xlink:href="#BitstreamVeraSans-Roman-34"/>
      </g>
     </g>
    </g>
    <g id="ytick_6">
     <g id="line2d_34">
      <path clip-path="url(#p400f019394)" d="
M72 125.913
L274.909 125.913" style="fill:none;stroke:#ffffff;stroke-linecap:round;stroke-width:0.8;"/>
     </g>
     <g id="line2d_35">
      <g>
       <use style="fill:#262626;stroke:#262626;stroke-width:0.8;" x="72.0" xlink:href="#m5f0075cab7" y="125.913043478"/>
      </g>
     </g>
     <g id="line2d_36">
      <g>
       <use style="fill:#262626;stroke:#262626;stroke-width:0.8;" x="274.909090909" xlink:href="#m5f0075cab7" y="125.913043478"/>
      </g>
     </g>
     <g id="text_13">
      <!-- 5 -->
      <defs>
       <path d="
M10.7969 72.9062
L49.5156 72.9062
L49.5156 64.5938
L19.8281 64.5938
L19.8281 46.7344
Q21.9688 47.4688 24.1094 47.8281
Q26.2656 48.1875 28.4219 48.1875
Q40.625 48.1875 47.75 41.5
Q54.8906 34.8125 54.8906 23.3906
Q54.8906 11.625 47.5625 5.09375
Q40.2344 -1.42188 26.9062 -1.42188
Q22.3125 -1.42188 17.5469 -0.640625
Q12.7969 0.140625 7.71875 1.70312
L7.71875 11.625
Q12.1094 9.23438 16.7969 8.0625
Q21.4844 6.89062 26.7031 6.89062
Q35.1562 6.89062 40.0781 11.3281
Q45.0156 15.7656 45.0156 23.3906
Q45.0156 31 40.0781 35.4375
Q35.1562 39.8906 26.7031 39.8906
Q22.75 39.8906 18.8125 39.0156
Q14.8906 38.1406 10.7969 36.2812
z
" id="BitstreamVeraSans-Roman-35"/>
      </defs>
      <g style="fill:#262626;" transform="translate(62.62625 128.120543478)scale(0.08 -0.08)">
       <use xlink:href="#BitstreamVeraSans-Roman-35"/>
      </g>
     </g>
    </g>
    <g id="ytick_7">
     <g id="line2d_37">
      <path clip-path="url(#p400f019394)" d="
M72 112.435
L274.909 112.435" style="fill:none;stroke:#ffffff;stroke-linecap:round;stroke-width:0.8;"/>
     </g>
     <g id="line2d_38">
      <g>
       <use style="fill:#262626;stroke:#262626;stroke-width:0.8;" x="72.0" xlink:href="#m5f0075cab7" y="112.434782609"/>
      </g>
     </g>
     <g id="line2d_39">
      <g>
       <use style="fill:#262626;stroke:#262626;stroke-width:0.8;" x="274.909090909" xlink:href="#m5f0075cab7" y="112.434782609"/>
      </g>
     </g>
     <g id="text_14">
      <!-- 6 -->
      <g style="fill:#262626;" transform="translate(62.3725 114.642282609)scale(0.08 -0.08)">
       <use xlink:href="#BitstreamVeraSans-Roman-36"/>
      </g>
     </g>
    </g>
    <g id="ytick_8">
     <g id="line2d_40">
      <path clip-path="url(#p400f019394)" d="
M72 98.9565
L274.909 98.9565" style="fill:none;stroke:#ffffff;stroke-linecap:round;stroke-width:0.8;"/>
     </g>
     <g id="line2d_41">
      <g>
       <use style="fill:#262626;stroke:#262626;stroke-width:0.8;" x="72.0" xlink:href="#m5f0075cab7" y="98.9565217391"/>
      </g>
     </g>
     <g id="line2d_42">
      <g>
       <use style="fill:#262626;stroke:#262626;stroke-width:0.8;" x="274.909090909" xlink:href="#m5f0075cab7" y="98.9565217391"/>
      </g>
     </g>
     <g id="text_15">
      <!-- 7 -->
      <defs>
       <path d="
M8.20312 72.9062
L55.0781 72.9062
L55.0781 68.7031
L28.6094 0
L18.3125 0
L43.2188 64.5938
L8.20312 64.5938
z
" id="BitstreamVeraSans-Roman-37"/>
      </defs>
      <g style="fill:#262626;" transform="translate(62.65 101.164021739)scale(0.08 -0.08)">
       <use xlink:href="#BitstreamVeraSans-Roman-37"/>
      </g>
     </g>
    </g>
    <g id="ytick_9">
     <g id="line2d_43">
      <path clip-path="url(#p400f019394)" d="
M72 85.4783
L274.909 85.4783" style="fill:none;stroke:#ffffff;stroke-linecap:round;stroke-width:0.8;"/>
     </g>
     <g id="line2d_44">
      <g>
       <use style="fill:#262626;stroke:#262626;stroke-width:0.8;" x="72.0" xlink:href="#m5f0075cab7" y="85.4782608696"/>
      </g>
     </g>
     <g id="line2d_45">
      <g>
       <use style="fill:#262626;stroke:#262626;stroke-width:0.8;" x="274.909090909" xlink:href="#m5f0075cab7" y="85.4782608696"/>
      </g>
     </g>
     <g id="text_16">
      <!-- 8 -->
      <g style="fill:#262626;" transform="translate(62.4 87.6857608696)scale(0.08 -0.08)">
       <use xlink:href="#BitstreamVeraSans-Roman-38"/>
      </g>
     </g>
    </g>
    <g id="ytick_10">
     <g id="line2d_46">
      <path clip-path="url(#p400f019394)" d="
M72 72
L274.909 72" style="fill:none;stroke:#ffffff;stroke-linecap:round;stroke-width:0.8;"/>
     </g>
     <g id="line2d_47">
      <g>
       <use style="fill:#262626;stroke:#262626;stroke-width:0.8;" x="72.0" xlink:href="#m5f0075cab7" y="72.0"/>
      </g>
     </g>
     <g id="line2d_48">
      <g>
       <use style="fill:#262626;stroke:#262626;stroke-width:0.8;" x="274.909090909" xlink:href="#m5f0075cab7" y="72.0"/>
      </g>
     </g>
     <g id="text_17">
      <!-- 9 -->
      <defs>
       <path d="
M10.9844 1.51562
L10.9844 10.5
Q14.7031 8.73438 18.5 7.8125
Q22.3125 6.89062 25.9844 6.89062
Q35.75 6.89062 40.8906 13.4531
Q46.0469 20.0156 46.7812 33.4062
Q43.9531 29.2031 39.5938 26.9531
Q35.25 24.7031 29.9844 24.7031
Q19.0469 24.7031 12.6719 31.3125
Q6.29688 37.9375 6.29688 49.4219
Q6.29688 60.6406 12.9375 67.4219
Q19.5781 74.2188 30.6094 74.2188
Q43.2656 74.2188 49.9219 64.5156
Q56.5938 54.8281 56.5938 36.375
Q56.5938 19.1406 48.4062 8.85938
Q40.2344 -1.42188 26.4219 -1.42188
Q22.7031 -1.42188 18.8906 -0.6875
Q15.0938 0.046875 10.9844 1.51562
M30.6094 32.4219
Q37.25 32.4219 41.125 36.9531
Q45.0156 41.5 45.0156 49.4219
Q45.0156 57.2812 41.125 61.8438
Q37.25 66.4062 30.6094 66.4062
Q23.9688 66.4062 20.0938 61.8438
Q16.2188 57.2812 16.2188 49.4219
Q16.2188 41.5 20.0938 36.9531
Q23.9688 32.4219 30.6094 32.4219" id="BitstreamVeraSans-Roman-39"/>
      </defs>
      <g style="fill:#262626;" transform="translate(62.37625 74.2075)scale(0.08 -0.08)">
       <use xlink:href="#BitstreamVeraSans-Roman-39"/>
      </g>
     </g>
    </g>
    <g id="text_18">
     <!-- Density -->
     <defs>
      <path d="
M32.1719 -5.07812
Q28.375 -14.8438 24.75 -17.8125
Q21.1406 -20.7969 15.0938 -20.7969
L7.90625 -20.7969
L7.90625 -13.2812
L13.1875 -13.2812
Q16.8906 -13.2812 18.9375 -11.5156
Q21 -9.76562 23.4844 -3.21875
L25.0938 0.875
L2.98438 54.6875
L12.5 54.6875
L29.5938 11.9219
L46.6875 54.6875
L56.2031 54.6875
z
" id="BitstreamVeraSans-Roman-79"/>
      <path d="
M44.2812 53.0781
L44.2812 44.5781
Q40.4844 46.5312 36.375 47.5
Q32.2812 48.4844 27.875 48.4844
Q21.1875 48.4844 17.8438 46.4375
Q14.5 44.3906 14.5 40.2812
Q14.5 37.1562 16.8906 35.375
Q19.2812 33.5938 26.5156 31.9844
L29.5938 31.2969
Q39.1562 29.25 43.1875 25.5156
Q47.2188 21.7812 47.2188 15.0938
Q47.2188 7.46875 41.1875 3.01562
Q35.1562 -1.42188 24.6094 -1.42188
Q20.2188 -1.42188 15.4531 -0.5625
Q10.6875 0.296875 5.42188 2
L5.42188 11.2812
Q10.4062 8.6875 15.2344 7.39062
Q20.0625 6.10938 24.8125 6.10938
Q31.1562 6.10938 34.5625 8.28125
Q37.9844 10.4531 37.9844 14.4062
Q37.9844 18.0625 35.5156 20.0156
Q33.0625 21.9688 24.7031 23.7812
L21.5781 24.5156
Q13.2344 26.2656 9.51562 29.9062
Q5.8125 33.5469 5.8125 39.8906
Q5.8125 47.6094 11.2812 51.7969
Q16.75 56 26.8125 56
Q31.7812 56 36.1719 55.2656
Q40.5781 54.5469 44.2812 53.0781" id="BitstreamVeraSans-Roman-73"/>
      <path d="
M19.6719 64.7969
L19.6719 8.10938
L31.5938 8.10938
Q46.6875 8.10938 53.6875 14.9375
Q60.6875 21.7812 60.6875 36.5312
Q60.6875 51.1719 53.6875 57.9844
Q46.6875 64.7969 31.5938 64.7969
z

M9.8125 72.9062
L30.0781 72.9062
Q51.2656 72.9062 61.1719 64.0938
Q71.0938 55.2812 71.0938 36.5312
Q71.0938 17.6719 61.125 8.82812
Q51.1719 0 30.0781 0
L9.8125 0
z
" id="BitstreamVeraSans-Roman-44"/>
     </defs>
     <g style="fill:#262626;" transform="translate(55.319875 148.816673913)rotate(-90.0)scale(0.08800000000000001 -0.08800000000000001)">
      <use xlink:href="#BitstreamVeraSans-Roman-44"/>
      <use x="77.001953125" xlink:href="#BitstreamVeraSans-Roman-65"/>
      <use x="138.525390625" xlink:href="#BitstreamVeraSans-Roman-6e"/>
      <use x="201.904296875" xlink:href="#BitstreamVeraSans-Roman-73"/>
      <use x="254.00390625" xlink:href="#BitstreamVeraSans-Roman-69"/>
      <use x="281.787109375" xlink:href="#BitstreamVeraSans-Roman-74"/>
      <use x="320.99609375" xlink:href="#BitstreamVeraSans-Roman-79"/>
     </g>
    </g>
   </g>
   <g id="line2d_49">
    <path clip-path="url(#p400f019394)" d="
M-23.1578 193.304
M-1 193.304
L0.917501 193.304
L4.93005 193.304
L8.94261 193.304
L12.9552 193.304
L16.9677 193.304
L20.9803 193.304
L24.9928 193.304
L29.0054 193.304
L33.0179 193.304
L37.0305 193.304
L41.043 193.304
L45.0556 193.304
L49.0681 193.304
L53.0807 193.304
L57.0932 193.304
L61.1058 193.304
L65.1183 193.304
L69.1309 193.304
L73.1435 193.304
L77.156 193.304
L81.1686 193.304
L85.1811 193.304
L89.1937 193.304
L93.2062 193.304
L97.2188 193.285
L101.231 193.04
L105.244 192.479
L109.256 191.153
L113.269 187.184
L117.282 181.378
L121.294 171.395
L125.307 154.224
L129.319 133.325
L133.332 115.047
L137.344 100.931
L141.357 101.194
L145.369 114.73
L149.382 130.467
L153.395 143.954
L157.407 157.89
L161.42 172.545
L165.432 182.532
L169.445 187.412
L173.457 190.558
L177.47 192.381
L181.482 192.724
L185.495 192.562
L189.507 192.198
L193.52 192.098
L197.533 192.49
L201.545 193.006
L205.558 193.014
L209.57 192.74
L213.583 192.474
L217.595 192.525
L221.608 192.526
L225.62 192.732
L229.633 192.964
L233.646 193.198
L237.658 193.295
L241.671 193.273
L245.683 193.163
L249.696 193.213
L253.708 193.296
L257.721 193.304
L261.733 193.304
L265.746 193.304
L269.759 193.304
L273.771 193.304
L277.784 193.304
L281.796 193.304
L285.809 193.304
L289.821 193.304
L293.834 193.304
L297.846 193.304
L301.859 193.304
L305.872 193.304
L309.884 193.304
L313.897 193.304
L317.909 193.304
L321.922 193.304
L325.934 193.304
L329.947 193.304
L333.959 193.304
L337.972 193.304
L341.984 193.304
L345.997 193.304
L350.01 193.304
L354.022 193.304
L358.035 193.304
L362.047 193.304
L366.06 193.304
L370.072 193.304
L374.085 193.304" style="fill:none;stroke:#4c72b0;stroke-linecap:round;stroke-width:1.4000000000000001;"/>
   </g>
   <g id="line2d_50">
    <path clip-path="url(#p400f019394)" d="
M-19.1398 193.304
M-1 193.304
L0.618559 193.304
L4.57023 193.304
L8.52191 193.304
L12.4736 193.304
L16.4253 193.304
L20.3769 193.304
L24.3286 193.304
L28.2803 193.304
L32.232 193.304
L36.1836 193.304
L40.1353 193.304
L44.087 193.304
L48.0386 193.304
L51.9903 193.304
L55.942 193.304
L59.8937 193.304
L63.8453 193.304
L67.797 193.304
L71.7487 193.304
L75.7004 193.304
L79.652 193.304
L83.6037 193.304
L87.5554 193.304
L91.5071 193.304
L95.4587 193.304
L99.4104 193.286
L103.362 193.103
L107.314 192.457
L111.265 191.078
L115.217 187.954
L119.169 182.105
L123.12 172.878
L127.072 160.05
L131.024 145.028
L134.975 130.579
L138.927 119.554
L142.879 113.84
L146.83 114.395
L150.782 122.308
L154.734 134.128
L158.686 146.917
L162.637 160.424
L166.589 172.566
L170.541 181.646
L174.492 187.515
L178.444 190.105
L182.396 191.149
L186.347 191.409
L190.299 191.639
L194.251 191.567
L198.202 191.173
L202.154 191.019
L206.106 190.766
L210.057 190.887
L214.009 191.292
L217.961 191.436
L221.912 191.828
L225.864 192.417
L229.816 192.921
L233.767 193.054
L237.719 192.998
L241.671 193.009
L245.622 193.084
L249.574 193.237
L253.526 193.298
L257.477 193.304
L261.429 193.304
L265.381 193.304
L269.332 193.304
L273.284 193.304
L277.236 193.304
L281.187 193.304
L285.139 193.304
L289.091 193.304
L293.042 193.304
L296.994 193.304
L300.946 193.304
L304.897 193.304
L308.849 193.304
L312.801 193.304
L316.752 193.304
L320.704 193.304
L324.656 193.304
L328.607 193.304
L332.559 193.304
L336.511 193.304
L340.463 193.304
L344.414 193.304
L348.366 193.304
L352.318 193.304
L356.269 193.304
L360.221 193.304
L364.173 193.304
L368.124 193.304
L372.076 193.304" style="fill:none;stroke:#55a868;stroke-linecap:round;stroke-width:1.4000000000000001;"/>
   </g>
   <g id="line2d_51">
    <path clip-path="url(#p400f019394)" d="
M-23.1578 193.304
M-1 193.304
L0.308712 193.304
L4.2198 193.304
L8.13089 193.304
L12.042 193.304
L15.9531 193.304
L19.8642 193.304
L23.7752 193.304
L27.6863 193.304
L31.5974 193.304
L35.5085 193.304
L39.4196 193.304
L43.3307 193.304
L47.2418 193.304
L51.1529 193.304
L55.0639 193.304
L58.975 193.304
L62.8861 193.304
L66.7972 193.304
L70.7083 193.304
L74.6194 193.304
L78.5305 193.304
L82.4416 193.304
L86.3526 193.304
L90.2637 193.304
L94.1748 193.304
L98.0859 193.285
L101.997 193.069
L105.908 192.68
L109.819 192.429
L113.73 190.442
L117.641 185.408
L121.552 176.893
L125.464 163.897
L129.375 148.302
L133.286 133.44
L137.197 123.831
L141.108 116.845
L145.019 115.496
L148.93 114.623
L152.841 124.959
L156.752 139.174
L160.663 152.45
L164.574 164.395
L168.485 174.215
L172.397 182.14
L176.308 187.862
L180.219 190.952
L184.13 192.586
L188.041 193.142
L191.952 193.042
L195.863 193.012
L199.774 192.962
L203.685 193.011
L207.596 192.967
L211.507 193.035
L215.419 193.2
L219.33 193.271
L223.241 193.167
L227.152 193.198
L231.063 193.273
L234.974 193.176
L238.885 193.188
L242.796 193.29
L246.707 193.304
L250.618 193.304
L254.529 193.304
L258.441 193.304
L262.352 193.304
L266.263 193.304
L270.174 193.304
L274.085 193.304
L277.996 193.304
L281.907 193.304
L285.818 193.304
L289.729 193.304
L293.64 193.304
L297.551 193.304
L301.462 193.304
L305.374 193.304
L309.285 193.304
L313.196 193.304
L317.107 193.304
L321.018 193.304
L324.929 193.304
L328.84 193.304
L332.751 193.304
L336.662 193.304
L340.573 193.304
L344.484 193.304
L348.396 193.304
L352.307 193.304
L356.218 193.304
L360.129 193.304
L364.04 193.304" style="fill:none;stroke:#c44e52;stroke-linecap:round;stroke-width:1.4000000000000001;"/>
   </g>
   <g id="line2d_52">
    <path clip-path="url(#p400f019394)" d="
M-21.1488 193.304
M-1 193.304
L2.31771 193.304
L6.2288 193.304
L10.1399 193.304
L14.051 193.304
L17.9621 193.304
L21.8732 193.304
L25.7842 193.304
L29.6953 193.304
L33.6064 193.304
L37.5175 193.304
L41.4286 193.304
L45.3397 193.304
L49.2508 193.304
L53.1619 193.304
L57.0729 193.304
L60.984 193.304
L64.8951 193.304
L68.8062 193.304
L72.7173 193.304
L76.6284 193.304
L80.5395 193.304
L84.4506 193.304
L88.3617 193.304
L92.2727 193.304
L96.1838 193.304
L100.095 193.287
L104.006 193.117
L107.917 192.405
L111.828 190.602
L115.739 186.607
L119.65 179.612
L123.561 167.849
L127.473 149.246
L131.384 132.622
L135.295 121.842
L139.206 114.116
L143.117 111.743
L147.028 117.66
L150.939 126.398
L154.85 137.568
L158.761 151.08
L162.672 164.889
L166.583 173.895
L170.494 182.159
L174.406 188.138
L178.317 191.043
L182.228 192.316
L186.139 192.811
L190.05 193.008
L193.961 193.21
L197.872 193.104
L201.783 192.928
L205.694 192.729
L209.605 192.714
L213.516 192.927
L217.428 193.14
L221.339 193.074
L225.25 193.058
L229.161 192.923
L233.072 192.912
L236.983 193.1
L240.894 193.186
L244.805 193.288
L248.716 193.304
L252.627 193.304
L256.538 193.304
L260.45 193.304
L264.361 193.304
L268.272 193.304
L272.183 193.304
L276.094 193.304
L280.005 193.304
L283.916 193.304
L287.827 193.304
L291.738 193.304
L295.649 193.304
L299.56 193.304
L303.471 193.304
L307.383 193.304
L311.294 193.304
L315.205 193.304
L319.116 193.304
L323.027 193.304
L326.938 193.304
L330.849 193.304
L334.76 193.304
L338.671 193.304
L342.582 193.304
L346.493 193.304
L350.405 193.304
L354.316 193.304
L358.227 193.304
L362.138 193.304
L366.049 193.304" style="fill:none;stroke:#8172b2;stroke-linecap:round;stroke-width:1.4000000000000001;"/>
   </g>
   <g id="line2d_53">
    <path clip-path="url(#p400f019394)" d="
M-37.2209 193.304
M-1 193.304
L-0.748059 193.304
L2.89922 193.304
L6.5465 193.304
L10.1938 193.304
L13.8411 193.304
L17.4883 193.304
L21.1356 193.304
L24.7829 193.304
L28.4302 193.304
L32.0775 193.304
L35.7247 193.304
L39.372 193.304
L43.0193 193.304
L46.6666 193.304
L50.3139 193.304
L53.9611 193.304
L57.6084 193.304
L61.2557 193.304
L64.903 193.304
L68.5503 193.304
L72.1975 193.304
L75.8448 193.304
L79.4921 193.304
L83.1394 193.299
L86.7867 193.228
L90.4339 193.143
L94.0812 193.249
L97.7285 193.257
L101.376 193.06
L105.023 192.576
L108.67 191.83
L112.318 190.759
L115.965 188.362
L119.612 184.112
L123.259 175.093
L126.907 162.06
L130.554 147.817
L134.201 134.298
L137.849 122.997
L141.496 115.248
L145.143 112.231
L148.79 115.579
L152.438 122.696
L156.085 130.802
L159.732 142.232
L163.38 157.778
L167.027 171.199
L170.674 180.436
L174.321 186.011
L177.969 189.497
L181.616 191.526
L185.263 192.475
L188.91 193.057
L192.558 193.18
L196.205 192.98
L199.852 193.152
L203.5 193.293
L207.147 193.304
L210.794 193.304
L214.441 193.304
L218.089 193.304
L221.736 193.304
L225.383 193.304
L229.031 193.304
L232.678 193.304
L236.325 193.304
L239.972 193.304
L243.62 193.304
L247.267 193.304
L250.914 193.304
L254.562 193.304
L258.209 193.304
L261.856 193.304
L265.503 193.304
L269.151 193.304
L272.798 193.304
L276.445 193.304
L280.092 193.304
L283.74 193.304
L287.387 193.304
L291.034 193.304
L294.682 193.304
L298.329 193.304
L301.976 193.304
L305.623 193.304
L309.271 193.304
L312.918 193.304
L316.565 193.304
L320.213 193.304
L323.86 193.304" style="fill:none;stroke:#ccb974;stroke-linecap:round;stroke-width:1.4000000000000001;"/>
   </g>
   <g id="line2d_54">
    <path clip-path="url(#p400f019394)" d="
M-27.1758 193.304
M-1 193.304
L1.35304 193.304
L4.91915 193.304
L8.48526 193.304
L12.0514 193.304
L15.6175 193.304
L19.1836 193.304
L22.7497 193.304
L26.3158 193.304
L29.8819 193.304
L33.448 193.304
L37.0141 193.304
L40.5802 193.304
L44.1463 193.304
L47.7124 193.304
L51.2785 193.304
L54.8447 193.304
L58.4108 193.304
L61.9769 193.304
L65.543 193.304
L69.1091 193.304
L72.6752 193.304
L76.2413 193.304
L79.8074 193.304
L83.3735 193.304
L86.9396 193.304
L90.5057 193.304
L94.0718 193.292
L97.6379 193.197
L101.204 193.106
L104.77 192.84
L108.336 191.992
L111.902 190.866
L115.468 189.146
L119.035 184.668
L122.601 177.022
L126.167 165.185
L129.733 148.021
L133.299 132.466
L136.865 121.236
L140.431 116.823
L143.997 115.861
L147.563 116.768
L151.13 123.623
L154.696 130.159
L158.262 138.438
L161.828 151.739
L165.394 166.109
L168.96 174.802
L172.526 181.963
L176.092 187.146
L179.658 190.837
L183.225 192.666
L186.791 192.878
L190.357 193.101
L193.923 193.243
L197.489 193.154
L201.055 193.199
L204.621 193.292
L208.187 193.304
L211.753 193.304
L215.32 193.304
L218.886 193.304
L222.452 193.304
L226.018 193.304
L229.584 193.304
L233.15 193.304
L236.716 193.304
L240.282 193.304
L243.848 193.304
L247.414 193.304
L250.981 193.304
L254.547 193.304
L258.113 193.304
L261.679 193.304
L265.245 193.304
L268.811 193.304
L272.377 193.304
L275.943 193.304
L279.509 193.304
L283.076 193.304
L286.642 193.304
L290.208 193.304
L293.774 193.304
L297.34 193.304
L300.906 193.304
L304.472 193.304
L308.038 193.304
L311.604 193.304
L315.171 193.304
L318.737 193.304
L322.303 193.304
L325.869 193.304" style="fill:none;stroke:#64b5cd;stroke-linecap:round;stroke-width:1.4000000000000001;"/>
   </g>
   <g id="patch_3">
    <path d="
M72 72
L274.909 72" style="fill:none;"/>
   </g>
   <g id="patch_4">
    <path d="
M72 193.304
L72 72" style="fill:none;"/>
   </g>
   <g id="patch_5">
    <path d="
M72 193.304
L274.909 193.304" style="fill:none;"/>
   </g>
   <g id="patch_6">
    <path d="
M274.909 193.304
L274.909 72" style="fill:none;"/>
   </g>
   <g id="text_19">
    <!-- Raw Kodama Bulk Transcriptomes -->
    <defs>
     <path d="
M9.42188 75.9844
L18.4062 75.9844
L18.4062 0
L9.42188 0
z
" id="BitstreamVeraSans-Roman-6c"/>
     <path d="
M4.20312 54.6875
L13.1875 54.6875
L24.4219 12.0156
L35.5938 54.6875
L46.1875 54.6875
L57.4219 12.0156
L68.6094 54.6875
L77.5938 54.6875
L63.2812 0
L52.6875 0
L40.9219 44.8281
L29.1094 0
L18.5 0
z
" id="BitstreamVeraSans-Roman-77"/>
     <path d="
M9.8125 72.9062
L19.6719 72.9062
L19.6719 42.0938
L52.3906 72.9062
L65.0938 72.9062
L28.9062 38.9219
L67.6719 0
L54.6875 0
L19.6719 35.1094
L19.6719 0
L9.8125 0
z
" id="BitstreamVeraSans-Roman-4b"/>
     <path d="
M-0.296875 72.9062
L61.375 72.9062
L61.375 64.5938
L35.5 64.5938
L35.5 0
L25.5938 0
L25.5938 64.5938
L-0.296875 64.5938
z
" id="BitstreamVeraSans-Roman-54"/>
     <path d="
M19.6719 34.8125
L19.6719 8.10938
L35.5 8.10938
Q43.4531 8.10938 47.2812 11.4062
Q51.125 14.7031 51.125 21.4844
Q51.125 28.3281 47.2812 31.5625
Q43.4531 34.8125 35.5 34.8125
z

M19.6719 64.7969
L19.6719 42.8281
L34.2812 42.8281
Q41.5 42.8281 45.0312 45.5312
Q48.5781 48.25 48.5781 53.8125
Q48.5781 59.3281 45.0312 62.0625
Q41.5 64.7969 34.2812 64.7969
z

M9.8125 72.9062
L35.0156 72.9062
Q46.2969 72.9062 52.3906 68.2188
Q58.5 63.5312 58.5 54.8906
Q58.5 48.1875 55.375 44.2344
Q52.25 40.2812 46.1875 39.3125
Q53.4688 37.75 57.5 32.7812
Q61.5312 27.8281 61.5312 20.4062
Q61.5312 10.6406 54.8906 5.3125
Q48.25 0 35.9844 0
L9.8125 0
z
" id="BitstreamVeraSans-Roman-42"/>
     <path d="
M8.5 21.5781
L8.5 54.6875
L17.4844 54.6875
L17.4844 21.9219
Q17.4844 14.1562 20.5 10.2656
Q23.5312 6.39062 29.5938 6.39062
Q36.8594 6.39062 41.0781 11.0312
Q45.3125 15.6719 45.3125 23.6875
L45.3125 54.6875
L54.2969 54.6875
L54.2969 0
L45.3125 0
L45.3125 8.40625
Q42.0469 3.42188 37.7188 1
Q33.4062 -1.42188 27.6875 -1.42188
Q18.2656 -1.42188 13.375 4.4375
Q8.5 10.2969 8.5 21.5781" id="BitstreamVeraSans-Roman-75"/>
     <path d="
M48.7812 52.5938
L48.7812 44.1875
Q44.9688 46.2969 41.1406 47.3438
Q37.3125 48.3906 33.4062 48.3906
Q24.6562 48.3906 19.8125 42.8438
Q14.9844 37.3125 14.9844 27.2969
Q14.9844 17.2812 19.8125 11.7344
Q24.6562 6.20312 33.4062 6.20312
Q37.3125 6.20312 41.1406 7.25
Q44.9688 8.29688 48.7812 10.4062
L48.7812 2.09375
Q45.0156 0.34375 40.9844 -0.53125
Q36.9688 -1.42188 32.4219 -1.42188
Q20.0625 -1.42188 12.7812 6.34375
Q5.51562 14.1094 5.51562 27.2969
Q5.51562 40.6719 12.8594 48.3281
Q20.2188 56 33.0156 56
Q37.1562 56 41.1094 55.1406
Q45.0625 54.2969 48.7812 52.5938" id="BitstreamVeraSans-Roman-63"/>
     <path d="
M9.07812 75.9844
L18.1094 75.9844
L18.1094 31.1094
L44.9219 54.6875
L56.3906 54.6875
L27.3906 29.1094
L57.625 0
L45.9062 0
L18.1094 26.7031
L18.1094 0
L9.07812 0
z
" id="BitstreamVeraSans-Roman-6b"/>
     <path d="
M52 44.1875
Q55.375 50.25 60.0625 53.125
Q64.75 56 71.0938 56
Q79.6406 56 84.2812 50.0156
Q88.9219 44.0469 88.9219 33.0156
L88.9219 0
L79.8906 0
L79.8906 32.7188
Q79.8906 40.5781 77.0938 44.375
Q74.3125 48.1875 68.6094 48.1875
Q61.625 48.1875 57.5625 43.5469
Q53.5156 38.9219 53.5156 30.9062
L53.5156 0
L44.4844 0
L44.4844 32.7188
Q44.4844 40.625 41.7031 44.4062
Q38.9219 48.1875 33.1094 48.1875
Q26.2188 48.1875 22.1562 43.5312
Q18.1094 38.875 18.1094 30.9062
L18.1094 0
L9.07812 0
L9.07812 54.6875
L18.1094 54.6875
L18.1094 46.1875
Q21.1875 51.2188 25.4844 53.6094
Q29.7812 56 35.6875 56
Q41.6562 56 45.8281 52.9688
Q50 49.9531 52 44.1875" id="BitstreamVeraSans-Roman-6d"/>
    </defs>
    <g style="fill:#262626;" transform="translate(92.4965454545 67.0)scale(0.09600000000000002 -0.09600000000000002)">
     <use xlink:href="#BitstreamVeraSans-Roman-52"/>
     <use x="67.232421875" xlink:href="#BitstreamVeraSans-Roman-61"/>
     <use x="128.51171875" xlink:href="#BitstreamVeraSans-Roman-77"/>
     <use x="210.298828125" xlink:href="#BitstreamVeraSans-Roman-20"/>
     <use x="242.0859375" xlink:href="#BitstreamVeraSans-Roman-4b"/>
     <use x="302.662109375" xlink:href="#BitstreamVeraSans-Roman-6f"/>
     <use x="363.84375" xlink:href="#BitstreamVeraSans-Roman-64"/>
     <use x="427.3203125" xlink:href="#BitstreamVeraSans-Roman-61"/>
     <use x="488.599609375" xlink:href="#BitstreamVeraSans-Roman-6d"/>
     <use x="586.01171875" xlink:href="#BitstreamVeraSans-Roman-61"/>
     <use x="647.291015625" xlink:href="#BitstreamVeraSans-Roman-20"/>
     <use x="679.078125" xlink:href="#BitstreamVeraSans-Roman-42"/>
     <use x="747.681640625" xlink:href="#BitstreamVeraSans-Roman-75"/>
     <use x="811.060546875" xlink:href="#BitstreamVeraSans-Roman-6c"/>
     <use x="838.84375" xlink:href="#BitstreamVeraSans-Roman-6b"/>
     <use x="896.75390625" xlink:href="#BitstreamVeraSans-Roman-20"/>
     <use x="928.541015625" xlink:href="#BitstreamVeraSans-Roman-54"/>
     <use x="974.875" xlink:href="#BitstreamVeraSans-Roman-72"/>
     <use x="1015.98828125" xlink:href="#BitstreamVeraSans-Roman-61"/>
     <use x="1077.267578125" xlink:href="#BitstreamVeraSans-Roman-6e"/>
     <use x="1140.646484375" xlink:href="#BitstreamVeraSans-Roman-73"/>
     <use x="1192.74609375" xlink:href="#BitstreamVeraSans-Roman-63"/>
     <use x="1247.7265625" xlink:href="#BitstreamVeraSans-Roman-72"/>
     <use x="1288.83984375" xlink:href="#BitstreamVeraSans-Roman-69"/>
     <use x="1316.623046875" xlink:href="#BitstreamVeraSans-Roman-70"/>
     <use x="1380.099609375" xlink:href="#BitstreamVeraSans-Roman-74"/>
     <use x="1419.30859375" xlink:href="#BitstreamVeraSans-Roman-6f"/>
     <use x="1480.490234375" xlink:href="#BitstreamVeraSans-Roman-6d"/>
     <use x="1577.90234375" xlink:href="#BitstreamVeraSans-Roman-65"/>
     <use x="1639.42578125" xlink:href="#BitstreamVeraSans-Roman-73"/>
    </g>
   </g>
  </g>
  <g id="text_20">
   <!-- GC Proportion KDE of Kodama Read -->
   <defs>
    <path d="
M9.8125 72.9062
L55.9062 72.9062
L55.9062 64.5938
L19.6719 64.5938
L19.6719 43.0156
L54.3906 43.0156
L54.3906 34.7188
L19.6719 34.7188
L19.6719 8.29688
L56.7812 8.29688
L56.7812 0
L9.8125 0
z
" id="BitstreamVeraSans-Roman-45"/>
    <path d="
M37.1094 75.9844
L37.1094 68.5
L28.5156 68.5
Q23.6875 68.5 21.7969 66.5469
Q19.9219 64.5938 19.9219 59.5156
L19.9219 54.6875
L34.7188 54.6875
L34.7188 47.7031
L19.9219 47.7031
L19.9219 0
L10.8906 0
L10.8906 47.7031
L2.29688 47.7031
L2.29688 54.6875
L10.8906 54.6875
L10.8906 58.5
Q10.8906 67.625 15.1406 71.7969
Q19.3906 75.9844 28.6094 75.9844
z
" id="BitstreamVeraSans-Roman-66"/>
   </defs>
   <g style="fill:#262626;" transform="translate(163.98078125 25.0378125)scale(0.14 -0.14)">
    <use xlink:href="#BitstreamVeraSans-Roman-47"/>
    <use x="77.490234375" xlink:href="#BitstreamVeraSans-Roman-43"/>
    <use x="147.314453125" xlink:href="#BitstreamVeraSans-Roman-20"/>
    <use x="179.1015625" xlink:href="#BitstreamVeraSans-Roman-50"/>
    <use x="237.654296875" xlink:href="#BitstreamVeraSans-Roman-72"/>
    <use x="276.517578125" xlink:href="#BitstreamVeraSans-Roman-6f"/>
    <use x="337.69921875" xlink:href="#BitstreamVeraSans-Roman-70"/>
    <use x="401.17578125" xlink:href="#BitstreamVeraSans-Roman-6f"/>
    <use x="462.357421875" xlink:href="#BitstreamVeraSans-Roman-72"/>
    <use x="503.470703125" xlink:href="#BitstreamVeraSans-Roman-74"/>
    <use x="542.6796875" xlink:href="#BitstreamVeraSans-Roman-69"/>
    <use x="570.462890625" xlink:href="#BitstreamVeraSans-Roman-6f"/>
    <use x="631.64453125" xlink:href="#BitstreamVeraSans-Roman-6e"/>
    <use x="695.0234375" xlink:href="#BitstreamVeraSans-Roman-20"/>
    <use x="726.810546875" xlink:href="#BitstreamVeraSans-Roman-4b"/>
    <use x="792.38671875" xlink:href="#BitstreamVeraSans-Roman-44"/>
    <use x="869.388671875" xlink:href="#BitstreamVeraSans-Roman-45"/>
    <use x="932.572265625" xlink:href="#BitstreamVeraSans-Roman-20"/>
    <use x="964.359375" xlink:href="#BitstreamVeraSans-Roman-6f"/>
    <use x="1025.541015625" xlink:href="#BitstreamVeraSans-Roman-66"/>
    <use x="1060.74609375" xlink:href="#BitstreamVeraSans-Roman-20"/>
    <use x="1092.533203125" xlink:href="#BitstreamVeraSans-Roman-4b"/>
    <use x="1153.109375" xlink:href="#BitstreamVeraSans-Roman-6f"/>
    <use x="1214.291015625" xlink:href="#BitstreamVeraSans-Roman-64"/>
    <use x="1277.767578125" xlink:href="#BitstreamVeraSans-Roman-61"/>
    <use x="1339.046875" xlink:href="#BitstreamVeraSans-Roman-6d"/>
    <use x="1436.458984375" xlink:href="#BitstreamVeraSans-Roman-61"/>
    <use x="1497.73828125" xlink:href="#BitstreamVeraSans-Roman-20"/>
    <use x="1529.525390625" xlink:href="#BitstreamVeraSans-Roman-52"/>
    <use x="1594.5078125" xlink:href="#BitstreamVeraSans-Roman-65"/>
    <use x="1656.03125" xlink:href="#BitstreamVeraSans-Roman-61"/>
    <use x="1717.310546875" xlink:href="#BitstreamVeraSans-Roman-64"/>
   </g>
  </g>
 </g>
 <defs>
  <clipPath id="p400f019394">
   <rect height="121.304347826" width="202.909090909" x="72.0" y="72.0"/>
  </clipPath>
 </defs>
</svg>
