<?xml version="1.0" encoding="utf-8" standalone="no"?>
<!DOCTYPE svg PUBLIC "-//W3C//DTD SVG 1.1//EN"
  "http://www.w3.org/Graphics/SVG/1.1/DTD/svg11.dtd">
<!-- Created with matplotlib (http://matplotlib.org/) -->
<svg height="720pt" version="1.1" viewBox="0 0 576 720" width="576pt" xmlns="http://www.w3.org/2000/svg" xmlns:xlink="http://www.w3.org/1999/xlink">
 <defs>
  <style type="text/css">
*{stroke-linecap:butt;stroke-linejoin:round;stroke-miterlimit:100000;}
  </style>
 </defs>
 <g id="figure_1">
  <g id="patch_1">
   <path d="M 0 720 
L 576 720 
L 576 0 
L 0 0 
z
" style="fill:#ffffff;"/>
  </g>
  <g id="axes_1">
   <g id="patch_2">
    <path d="M 72 193.304348 
L 274.909091 193.304348 
L 274.909091 72 
L 72 72 
z
" style="fill:#eaeaf2;"/>
   </g>
   <g id="matplotlib.axis_1">
    <g id="xtick_1">
     <g id="line2d_1">
      <path clip-path="url(#p87224027fa)" d="M 72 193.304348 
L 72 72 
" style="fill:none;stroke:#ffffff;stroke-linecap:round;stroke-width:0.8;"/>
     </g>
     <g id="line2d_2">
      <defs>
       <path d="M 0 0 
L 0 0 
" id="maaed2a4627" style="stroke:#262626;stroke-width:0.8;"/>
      </defs>
      <g>
       <use style="fill:#262626;stroke:#262626;stroke-width:0.8;" x="72.0" xlink:href="#maaed2a4627" y="193.304347826"/>
      </g>
     </g>
     <g id="line2d_3">
      <g>
       <use style="fill:#262626;stroke:#262626;stroke-width:0.8;" x="72.0" xlink:href="#maaed2a4627" y="72.0"/>
      </g>
     </g>
     <g id="text_1">
      <!-- 0.0 -->
      <defs>
       <path d="M 10.6875 12.40625 
L 21 12.40625 
L 21 0 
L 10.6875 0 
z
" id="BitstreamVeraSans-Roman-2e"/>
       <path d="M 31.78125 66.40625 
Q 24.171875 66.40625 20.328125 58.90625 
Q 16.5 51.421875 16.5 36.375 
Q 16.5 21.390625 20.328125 13.890625 
Q 24.171875 6.390625 31.78125 6.390625 
Q 39.453125 6.390625 43.28125 13.890625 
Q 47.125 21.390625 47.125 36.375 
Q 47.125 51.421875 43.28125 58.90625 
Q 39.453125 66.40625 31.78125 66.40625 
M 31.78125 74.21875 
Q 44.046875 74.21875 50.515625 64.515625 
Q 56.984375 54.828125 56.984375 36.375 
Q 56.984375 17.96875 50.515625 8.265625 
Q 44.046875 -1.421875 31.78125 -1.421875 
Q 19.53125 -1.421875 13.0625 8.265625 
Q 6.59375 17.96875 6.59375 36.375 
Q 6.59375 54.828125 13.0625 64.515625 
Q 19.53125 74.21875 31.78125 74.21875 
" id="BitstreamVeraSans-Roman-30"/>
      </defs>
      <g style="fill:#262626;" transform="translate(65.63875 204.983097826)scale(0.08 -0.08)">
       <use xlink:href="#BitstreamVeraSans-Roman-30"/>
       <use x="63.623046875" xlink:href="#BitstreamVeraSans-Roman-2e"/>
       <use x="95.41015625" xlink:href="#BitstreamVeraSans-Roman-30"/>
      </g>
     </g>
    </g>
    <g id="xtick_2">
     <g id="line2d_4">
      <path clip-path="url(#p87224027fa)" d="M 112.581818 193.304348 
L 112.581818 72 
" style="fill:none;stroke:#ffffff;stroke-linecap:round;stroke-width:0.8;"/>
     </g>
     <g id="line2d_5">
      <g>
       <use style="fill:#262626;stroke:#262626;stroke-width:0.8;" x="112.581818182" xlink:href="#maaed2a4627" y="193.304347826"/>
      </g>
     </g>
     <g id="line2d_6">
      <g>
       <use style="fill:#262626;stroke:#262626;stroke-width:0.8;" x="112.581818182" xlink:href="#maaed2a4627" y="72.0"/>
      </g>
     </g>
     <g id="text_2">
      <!-- 0.2 -->
      <defs>
       <path d="M 19.1875 8.296875 
L 53.609375 8.296875 
L 53.609375 0 
L 7.328125 0 
L 7.328125 8.296875 
Q 12.9375 14.109375 22.625 23.890625 
Q 32.328125 33.6875 34.8125 36.53125 
Q 39.546875 41.84375 41.421875 45.53125 
Q 43.3125 49.21875 43.3125 52.78125 
Q 43.3125 58.59375 39.234375 62.25 
Q 35.15625 65.921875 28.609375 65.921875 
Q 23.96875 65.921875 18.8125 64.3125 
Q 13.671875 62.703125 7.8125 59.421875 
L 7.8125 69.390625 
Q 13.765625 71.78125 18.9375 73 
Q 24.125 74.21875 28.421875 74.21875 
Q 39.75 74.21875 46.484375 68.546875 
Q 53.21875 62.890625 53.21875 53.421875 
Q 53.21875 48.921875 51.53125 44.890625 
Q 49.859375 40.875 45.40625 35.40625 
Q 44.1875 33.984375 37.640625 27.21875 
Q 31.109375 20.453125 19.1875 8.296875 
" id="BitstreamVeraSans-Roman-32"/>
      </defs>
      <g style="fill:#262626;" transform="translate(106.220568182 204.983097826)scale(0.08 -0.08)">
       <use xlink:href="#BitstreamVeraSans-Roman-30"/>
       <use x="63.623046875" xlink:href="#BitstreamVeraSans-Roman-2e"/>
       <use x="95.41015625" xlink:href="#BitstreamVeraSans-Roman-32"/>
      </g>
     </g>
    </g>
    <g id="xtick_3">
     <g id="line2d_7">
      <path clip-path="url(#p87224027fa)" d="M 153.163636 193.304348 
L 153.163636 72 
" style="fill:none;stroke:#ffffff;stroke-linecap:round;stroke-width:0.8;"/>
     </g>
     <g id="line2d_8">
      <g>
       <use style="fill:#262626;stroke:#262626;stroke-width:0.8;" x="153.163636364" xlink:href="#maaed2a4627" y="193.304347826"/>
      </g>
     </g>
     <g id="line2d_9">
      <g>
       <use style="fill:#262626;stroke:#262626;stroke-width:0.8;" x="153.163636364" xlink:href="#maaed2a4627" y="72.0"/>
      </g>
     </g>
     <g id="text_3">
      <!-- 0.4 -->
      <defs>
       <path d="M 37.796875 64.3125 
L 12.890625 25.390625 
L 37.796875 25.390625 
z
M 35.203125 72.90625 
L 47.609375 72.90625 
L 47.609375 25.390625 
L 58.015625 25.390625 
L 58.015625 17.1875 
L 47.609375 17.1875 
L 47.609375 0 
L 37.796875 0 
L 37.796875 17.1875 
L 4.890625 17.1875 
L 4.890625 26.703125 
z
" id="BitstreamVeraSans-Roman-34"/>
      </defs>
      <g style="fill:#262626;" transform="translate(146.802386364 204.983097826)scale(0.08 -0.08)">
       <use xlink:href="#BitstreamVeraSans-Roman-30"/>
       <use x="63.623046875" xlink:href="#BitstreamVeraSans-Roman-2e"/>
       <use x="95.41015625" xlink:href="#BitstreamVeraSans-Roman-34"/>
      </g>
     </g>
    </g>
    <g id="xtick_4">
     <g id="line2d_10">
      <path clip-path="url(#p87224027fa)" d="M 193.745455 193.304348 
L 193.745455 72 
" style="fill:none;stroke:#ffffff;stroke-linecap:round;stroke-width:0.8;"/>
     </g>
     <g id="line2d_11">
      <g>
       <use style="fill:#262626;stroke:#262626;stroke-width:0.8;" x="193.745454545" xlink:href="#maaed2a4627" y="193.304347826"/>
      </g>
     </g>
     <g id="line2d_12">
      <g>
       <use style="fill:#262626;stroke:#262626;stroke-width:0.8;" x="193.745454545" xlink:href="#maaed2a4627" y="72.0"/>
      </g>
     </g>
     <g id="text_4">
      <!-- 0.6 -->
      <defs>
       <path d="M 33.015625 40.375 
Q 26.375 40.375 22.484375 35.828125 
Q 18.609375 31.296875 18.609375 23.390625 
Q 18.609375 15.53125 22.484375 10.953125 
Q 26.375 6.390625 33.015625 6.390625 
Q 39.65625 6.390625 43.53125 10.953125 
Q 47.40625 15.53125 47.40625 23.390625 
Q 47.40625 31.296875 43.53125 35.828125 
Q 39.65625 40.375 33.015625 40.375 
M 52.59375 71.296875 
L 52.59375 62.3125 
Q 48.875 64.0625 45.09375 64.984375 
Q 41.3125 65.921875 37.59375 65.921875 
Q 27.828125 65.921875 22.671875 59.328125 
Q 17.53125 52.734375 16.796875 39.40625 
Q 19.671875 43.65625 24.015625 45.921875 
Q 28.375 48.1875 33.59375 48.1875 
Q 44.578125 48.1875 50.953125 41.515625 
Q 57.328125 34.859375 57.328125 23.390625 
Q 57.328125 12.15625 50.6875 5.359375 
Q 44.046875 -1.421875 33.015625 -1.421875 
Q 20.359375 -1.421875 13.671875 8.265625 
Q 6.984375 17.96875 6.984375 36.375 
Q 6.984375 53.65625 15.1875 63.9375 
Q 23.390625 74.21875 37.203125 74.21875 
Q 40.921875 74.21875 44.703125 73.484375 
Q 48.484375 72.75 52.59375 71.296875 
" id="BitstreamVeraSans-Roman-36"/>
      </defs>
      <g style="fill:#262626;" transform="translate(187.384204545 204.983097826)scale(0.08 -0.08)">
       <use xlink:href="#BitstreamVeraSans-Roman-30"/>
       <use x="63.623046875" xlink:href="#BitstreamVeraSans-Roman-2e"/>
       <use x="95.41015625" xlink:href="#BitstreamVeraSans-Roman-36"/>
      </g>
     </g>
    </g>
    <g id="xtick_5">
     <g id="line2d_13">
      <path clip-path="url(#p87224027fa)" d="M 234.327273 193.304348 
L 234.327273 72 
" style="fill:none;stroke:#ffffff;stroke-linecap:round;stroke-width:0.8;"/>
     </g>
     <g id="line2d_14">
      <g>
       <use style="fill:#262626;stroke:#262626;stroke-width:0.8;" x="234.327272727" xlink:href="#maaed2a4627" y="193.304347826"/>
      </g>
     </g>
     <g id="line2d_15">
      <g>
       <use style="fill:#262626;stroke:#262626;stroke-width:0.8;" x="234.327272727" xlink:href="#maaed2a4627" y="72.0"/>
      </g>
     </g>
     <g id="text_5">
      <!-- 0.8 -->
      <defs>
       <path d="M 31.78125 34.625 
Q 24.75 34.625 20.71875 30.859375 
Q 16.703125 27.09375 16.703125 20.515625 
Q 16.703125 13.921875 20.71875 10.15625 
Q 24.75 6.390625 31.78125 6.390625 
Q 38.8125 6.390625 42.859375 10.171875 
Q 46.921875 13.96875 46.921875 20.515625 
Q 46.921875 27.09375 42.890625 30.859375 
Q 38.875 34.625 31.78125 34.625 
M 21.921875 38.8125 
Q 15.578125 40.375 12.03125 44.71875 
Q 8.5 49.078125 8.5 55.328125 
Q 8.5 64.0625 14.71875 69.140625 
Q 20.953125 74.21875 31.78125 74.21875 
Q 42.671875 74.21875 48.875 69.140625 
Q 55.078125 64.0625 55.078125 55.328125 
Q 55.078125 49.078125 51.53125 44.71875 
Q 48 40.375 41.703125 38.8125 
Q 48.828125 37.15625 52.796875 32.3125 
Q 56.78125 27.484375 56.78125 20.515625 
Q 56.78125 9.90625 50.3125 4.234375 
Q 43.84375 -1.421875 31.78125 -1.421875 
Q 19.734375 -1.421875 13.25 4.234375 
Q 6.78125 9.90625 6.78125 20.515625 
Q 6.78125 27.484375 10.78125 32.3125 
Q 14.796875 37.15625 21.921875 38.8125 
M 18.3125 54.390625 
Q 18.3125 48.734375 21.84375 45.5625 
Q 25.390625 42.390625 31.78125 42.390625 
Q 38.140625 42.390625 41.71875 45.5625 
Q 45.3125 48.734375 45.3125 54.390625 
Q 45.3125 60.0625 41.71875 63.234375 
Q 38.140625 66.40625 31.78125 66.40625 
Q 25.390625 66.40625 21.84375 63.234375 
Q 18.3125 60.0625 18.3125 54.390625 
" id="BitstreamVeraSans-Roman-38"/>
      </defs>
      <g style="fill:#262626;" transform="translate(227.966022727 204.983097826)scale(0.08 -0.08)">
       <use xlink:href="#BitstreamVeraSans-Roman-30"/>
       <use x="63.623046875" xlink:href="#BitstreamVeraSans-Roman-2e"/>
       <use x="95.41015625" xlink:href="#BitstreamVeraSans-Roman-38"/>
      </g>
     </g>
    </g>
    <g id="xtick_6">
     <g id="line2d_16">
      <path clip-path="url(#p87224027fa)" d="M 274.909091 193.304348 
L 274.909091 72 
" style="fill:none;stroke:#ffffff;stroke-linecap:round;stroke-width:0.8;"/>
     </g>
     <g id="line2d_17">
      <g>
       <use style="fill:#262626;stroke:#262626;stroke-width:0.8;" x="274.909090909" xlink:href="#maaed2a4627" y="193.304347826"/>
      </g>
     </g>
     <g id="line2d_18">
      <g>
       <use style="fill:#262626;stroke:#262626;stroke-width:0.8;" x="274.909090909" xlink:href="#maaed2a4627" y="72.0"/>
      </g>
     </g>
     <g id="text_6">
      <!-- 1.0 -->
      <defs>
       <path d="M 12.40625 8.296875 
L 28.515625 8.296875 
L 28.515625 63.921875 
L 10.984375 60.40625 
L 10.984375 69.390625 
L 28.421875 72.90625 
L 38.28125 72.90625 
L 38.28125 8.296875 
L 54.390625 8.296875 
L 54.390625 0 
L 12.40625 0 
z
" id="BitstreamVeraSans-Roman-31"/>
      </defs>
      <g style="fill:#262626;" transform="translate(268.547840909 204.983097826)scale(0.08 -0.08)">
       <use xlink:href="#BitstreamVeraSans-Roman-31"/>
       <use x="63.623046875" xlink:href="#BitstreamVeraSans-Roman-2e"/>
       <use x="95.41015625" xlink:href="#BitstreamVeraSans-Roman-30"/>
      </g>
     </g>
    </g>
    <g id="text_7">
     <!-- Read Mean GC Proportion -->
     <defs>
      <path d="M 9.8125 72.90625 
L 24.515625 72.90625 
L 43.109375 23.296875 
L 61.8125 72.90625 
L 76.515625 72.90625 
L 76.515625 0 
L 66.890625 0 
L 66.890625 64.015625 
L 48.09375 14.015625 
L 38.1875 14.015625 
L 19.390625 64.015625 
L 19.390625 0 
L 9.8125 0 
z
" id="BitstreamVeraSans-Roman-4d"/>
      <path d="M 41.109375 46.296875 
Q 39.59375 47.171875 37.8125 47.578125 
Q 36.03125 48 33.890625 48 
Q 26.265625 48 22.1875 43.046875 
Q 18.109375 38.09375 18.109375 28.8125 
L 18.109375 0 
L 9.078125 0 
L 9.078125 54.6875 
L 18.109375 54.6875 
L 18.109375 46.1875 
Q 20.953125 51.171875 25.484375 53.578125 
Q 30.03125 56 36.53125 56 
Q 37.453125 56 38.578125 55.875 
Q 39.703125 55.765625 41.0625 55.515625 
z
" id="BitstreamVeraSans-Roman-72"/>
      <path d="M 30.609375 48.390625 
Q 23.390625 48.390625 19.1875 42.75 
Q 14.984375 37.109375 14.984375 27.296875 
Q 14.984375 17.484375 19.15625 11.84375 
Q 23.34375 6.203125 30.609375 6.203125 
Q 37.796875 6.203125 41.984375 11.859375 
Q 46.1875 17.53125 46.1875 27.296875 
Q 46.1875 37.015625 41.984375 42.703125 
Q 37.796875 48.390625 30.609375 48.390625 
M 30.609375 56 
Q 42.328125 56 49.015625 48.375 
Q 55.71875 40.765625 55.71875 27.296875 
Q 55.71875 13.875 49.015625 6.21875 
Q 42.328125 -1.421875 30.609375 -1.421875 
Q 18.84375 -1.421875 12.171875 6.21875 
Q 5.515625 13.875 5.515625 27.296875 
Q 5.515625 40.765625 12.171875 48.375 
Q 18.84375 56 30.609375 56 
" id="BitstreamVeraSans-Roman-6f"/>
      <path d="M 54.890625 33.015625 
L 54.890625 0 
L 45.90625 0 
L 45.90625 32.71875 
Q 45.90625 40.484375 42.875 44.328125 
Q 39.84375 48.1875 33.796875 48.1875 
Q 26.515625 48.1875 22.3125 43.546875 
Q 18.109375 38.921875 18.109375 30.90625 
L 18.109375 0 
L 9.078125 0 
L 9.078125 54.6875 
L 18.109375 54.6875 
L 18.109375 46.1875 
Q 21.34375 51.125 25.703125 53.5625 
Q 30.078125 56 35.796875 56 
Q 45.21875 56 50.046875 50.171875 
Q 54.890625 44.34375 54.890625 33.015625 
" id="BitstreamVeraSans-Roman-6e"/>
      <path id="BitstreamVeraSans-Roman-20"/>
      <path d="M 9.421875 54.6875 
L 18.40625 54.6875 
L 18.40625 0 
L 9.421875 0 
z
M 9.421875 75.984375 
L 18.40625 75.984375 
L 18.40625 64.59375 
L 9.421875 64.59375 
z
" id="BitstreamVeraSans-Roman-69"/>
      <path d="M 56.203125 29.59375 
L 56.203125 25.203125 
L 14.890625 25.203125 
Q 15.484375 15.921875 20.484375 11.0625 
Q 25.484375 6.203125 34.421875 6.203125 
Q 39.59375 6.203125 44.453125 7.46875 
Q 49.3125 8.734375 54.109375 11.28125 
L 54.109375 2.78125 
Q 49.265625 0.734375 44.1875 -0.34375 
Q 39.109375 -1.421875 33.890625 -1.421875 
Q 20.796875 -1.421875 13.15625 6.1875 
Q 5.515625 13.8125 5.515625 26.8125 
Q 5.515625 40.234375 12.765625 48.109375 
Q 20.015625 56 32.328125 56 
Q 43.359375 56 49.78125 48.890625 
Q 56.203125 41.796875 56.203125 29.59375 
M 47.21875 32.234375 
Q 47.125 39.59375 43.09375 43.984375 
Q 39.0625 48.390625 32.421875 48.390625 
Q 24.90625 48.390625 20.390625 44.140625 
Q 15.875 39.890625 15.1875 32.171875 
z
" id="BitstreamVeraSans-Roman-65"/>
      <path d="M 45.40625 46.390625 
L 45.40625 75.984375 
L 54.390625 75.984375 
L 54.390625 0 
L 45.40625 0 
L 45.40625 8.203125 
Q 42.578125 3.328125 38.25 0.953125 
Q 33.9375 -1.421875 27.875 -1.421875 
Q 17.96875 -1.421875 11.734375 6.484375 
Q 5.515625 14.40625 5.515625 27.296875 
Q 5.515625 40.1875 11.734375 48.09375 
Q 17.96875 56 27.875 56 
Q 33.9375 56 38.25 53.625 
Q 42.578125 51.265625 45.40625 46.390625 
M 14.796875 27.296875 
Q 14.796875 17.390625 18.875 11.75 
Q 22.953125 6.109375 30.078125 6.109375 
Q 37.203125 6.109375 41.296875 11.75 
Q 45.40625 17.390625 45.40625 27.296875 
Q 45.40625 37.203125 41.296875 42.84375 
Q 37.203125 48.484375 30.078125 48.484375 
Q 22.953125 48.484375 18.875 42.84375 
Q 14.796875 37.203125 14.796875 27.296875 
" id="BitstreamVeraSans-Roman-64"/>
      <path d="M 18.3125 70.21875 
L 18.3125 54.6875 
L 36.8125 54.6875 
L 36.8125 47.703125 
L 18.3125 47.703125 
L 18.3125 18.015625 
Q 18.3125 11.328125 20.140625 9.421875 
Q 21.96875 7.515625 27.59375 7.515625 
L 36.8125 7.515625 
L 36.8125 0 
L 27.59375 0 
Q 17.1875 0 13.234375 3.875 
Q 9.28125 7.765625 9.28125 18.015625 
L 9.28125 47.703125 
L 2.6875 47.703125 
L 2.6875 54.6875 
L 9.28125 54.6875 
L 9.28125 70.21875 
z
" id="BitstreamVeraSans-Roman-74"/>
      <path d="M 44.390625 34.1875 
Q 47.5625 33.109375 50.5625 29.59375 
Q 53.5625 26.078125 56.59375 19.921875 
L 66.609375 0 
L 56 0 
L 46.6875 18.703125 
Q 43.0625 26.03125 39.671875 28.421875 
Q 36.28125 30.8125 30.421875 30.8125 
L 19.671875 30.8125 
L 19.671875 0 
L 9.8125 0 
L 9.8125 72.90625 
L 32.078125 72.90625 
Q 44.578125 72.90625 50.734375 67.671875 
Q 56.890625 62.453125 56.890625 51.90625 
Q 56.890625 45.015625 53.6875 40.46875 
Q 50.484375 35.9375 44.390625 34.1875 
M 19.671875 64.796875 
L 19.671875 38.921875 
L 32.078125 38.921875 
Q 39.203125 38.921875 42.84375 42.21875 
Q 46.484375 45.515625 46.484375 51.90625 
Q 46.484375 58.296875 42.84375 61.546875 
Q 39.203125 64.796875 32.078125 64.796875 
z
" id="BitstreamVeraSans-Roman-52"/>
      <path d="M 18.109375 8.203125 
L 18.109375 -20.796875 
L 9.078125 -20.796875 
L 9.078125 54.6875 
L 18.109375 54.6875 
L 18.109375 46.390625 
Q 20.953125 51.265625 25.265625 53.625 
Q 29.59375 56 35.59375 56 
Q 45.5625 56 51.78125 48.09375 
Q 58.015625 40.1875 58.015625 27.296875 
Q 58.015625 14.40625 51.78125 6.484375 
Q 45.5625 -1.421875 35.59375 -1.421875 
Q 29.59375 -1.421875 25.265625 0.953125 
Q 20.953125 3.328125 18.109375 8.203125 
M 48.6875 27.296875 
Q 48.6875 37.203125 44.609375 42.84375 
Q 40.53125 48.484375 33.40625 48.484375 
Q 26.265625 48.484375 22.1875 42.84375 
Q 18.109375 37.203125 18.109375 27.296875 
Q 18.109375 17.390625 22.1875 11.75 
Q 26.265625 6.109375 33.40625 6.109375 
Q 40.53125 6.109375 44.609375 11.75 
Q 48.6875 17.390625 48.6875 27.296875 
" id="BitstreamVeraSans-Roman-70"/>
      <path d="M 19.671875 64.796875 
L 19.671875 37.40625 
L 32.078125 37.40625 
Q 38.96875 37.40625 42.71875 40.96875 
Q 46.484375 44.53125 46.484375 51.125 
Q 46.484375 57.671875 42.71875 61.234375 
Q 38.96875 64.796875 32.078125 64.796875 
z
M 9.8125 72.90625 
L 32.078125 72.90625 
Q 44.34375 72.90625 50.609375 67.359375 
Q 56.890625 61.8125 56.890625 51.125 
Q 56.890625 40.328125 50.609375 34.8125 
Q 44.34375 29.296875 32.078125 29.296875 
L 19.671875 29.296875 
L 19.671875 0 
L 9.8125 0 
z
" id="BitstreamVeraSans-Roman-50"/>
      <path d="M 34.28125 27.484375 
Q 23.390625 27.484375 19.1875 25 
Q 14.984375 22.515625 14.984375 16.5 
Q 14.984375 11.71875 18.140625 8.90625 
Q 21.296875 6.109375 26.703125 6.109375 
Q 34.1875 6.109375 38.703125 11.40625 
Q 43.21875 16.703125 43.21875 25.484375 
L 43.21875 27.484375 
z
M 52.203125 31.203125 
L 52.203125 0 
L 43.21875 0 
L 43.21875 8.296875 
Q 40.140625 3.328125 35.546875 0.953125 
Q 30.953125 -1.421875 24.3125 -1.421875 
Q 15.921875 -1.421875 10.953125 3.296875 
Q 6 8.015625 6 15.921875 
Q 6 25.140625 12.171875 29.828125 
Q 18.359375 34.515625 30.609375 34.515625 
L 43.21875 34.515625 
L 43.21875 35.40625 
Q 43.21875 41.609375 39.140625 45 
Q 35.0625 48.390625 27.6875 48.390625 
Q 23 48.390625 18.546875 47.265625 
Q 14.109375 46.140625 10.015625 43.890625 
L 10.015625 52.203125 
Q 14.9375 54.109375 19.578125 55.046875 
Q 24.21875 56 28.609375 56 
Q 40.484375 56 46.34375 49.84375 
Q 52.203125 43.703125 52.203125 31.203125 
" id="BitstreamVeraSans-Roman-61"/>
      <path d="M 59.515625 10.40625 
L 59.515625 29.984375 
L 43.40625 29.984375 
L 43.40625 38.09375 
L 69.28125 38.09375 
L 69.28125 6.78125 
Q 63.578125 2.734375 56.6875 0.65625 
Q 49.8125 -1.421875 42 -1.421875 
Q 24.90625 -1.421875 15.25 8.5625 
Q 5.609375 18.5625 5.609375 36.375 
Q 5.609375 54.25 15.25 64.234375 
Q 24.90625 74.21875 42 74.21875 
Q 49.125 74.21875 55.546875 72.453125 
Q 61.96875 70.703125 67.390625 67.28125 
L 67.390625 56.78125 
Q 61.921875 61.421875 55.765625 63.765625 
Q 49.609375 66.109375 42.828125 66.109375 
Q 29.4375 66.109375 22.71875 58.640625 
Q 16.015625 51.171875 16.015625 36.375 
Q 16.015625 21.625 22.71875 14.15625 
Q 29.4375 6.6875 42.828125 6.6875 
Q 48.046875 6.6875 52.140625 7.59375 
Q 56.25 8.5 59.515625 10.40625 
" id="BitstreamVeraSans-Roman-47"/>
      <path d="M 64.40625 67.28125 
L 64.40625 56.890625 
Q 59.421875 61.53125 53.78125 63.8125 
Q 48.140625 66.109375 41.796875 66.109375 
Q 29.296875 66.109375 22.65625 58.46875 
Q 16.015625 50.828125 16.015625 36.375 
Q 16.015625 21.96875 22.65625 14.328125 
Q 29.296875 6.6875 41.796875 6.6875 
Q 48.140625 6.6875 53.78125 8.984375 
Q 59.421875 11.28125 64.40625 15.921875 
L 64.40625 5.609375 
Q 59.234375 2.09375 53.4375 0.328125 
Q 47.65625 -1.421875 41.21875 -1.421875 
Q 24.65625 -1.421875 15.125 8.703125 
Q 5.609375 18.84375 5.609375 36.375 
Q 5.609375 53.953125 15.125 64.078125 
Q 24.65625 74.21875 41.21875 74.21875 
Q 47.75 74.21875 53.53125 72.484375 
Q 59.328125 70.75 64.40625 67.28125 
" id="BitstreamVeraSans-Roman-43"/>
     </defs>
     <g style="fill:#262626;" transform="translate(116.662920455 218.333472826)scale(0.08800000000000001 -0.08800000000000001)">
      <use xlink:href="#BitstreamVeraSans-Roman-52"/>
      <use x="69.419921875" xlink:href="#BitstreamVeraSans-Roman-65"/>
      <use x="130.943359375" xlink:href="#BitstreamVeraSans-Roman-61"/>
      <use x="192.22265625" xlink:href="#BitstreamVeraSans-Roman-64"/>
      <use x="255.69921875" xlink:href="#BitstreamVeraSans-Roman-20"/>
      <use x="287.486328125" xlink:href="#BitstreamVeraSans-Roman-4d"/>
      <use x="373.765625" xlink:href="#BitstreamVeraSans-Roman-65"/>
      <use x="435.2890625" xlink:href="#BitstreamVeraSans-Roman-61"/>
      <use x="496.568359375" xlink:href="#BitstreamVeraSans-Roman-6e"/>
      <use x="559.947265625" xlink:href="#BitstreamVeraSans-Roman-20"/>
      <use x="591.734375" xlink:href="#BitstreamVeraSans-Roman-47"/>
      <use x="669.224609375" xlink:href="#BitstreamVeraSans-Roman-43"/>
      <use x="739.048828125" xlink:href="#BitstreamVeraSans-Roman-20"/>
      <use x="770.8359375" xlink:href="#BitstreamVeraSans-Roman-50"/>
      <use x="831.123046875" xlink:href="#BitstreamVeraSans-Roman-72"/>
      <use x="872.205078125" xlink:href="#BitstreamVeraSans-Roman-6f"/>
      <use x="933.38671875" xlink:href="#BitstreamVeraSans-Roman-70"/>
      <use x="996.86328125" xlink:href="#BitstreamVeraSans-Roman-6f"/>
      <use x="1058.044921875" xlink:href="#BitstreamVeraSans-Roman-72"/>
      <use x="1099.158203125" xlink:href="#BitstreamVeraSans-Roman-74"/>
      <use x="1138.3671875" xlink:href="#BitstreamVeraSans-Roman-69"/>
      <use x="1166.150390625" xlink:href="#BitstreamVeraSans-Roman-6f"/>
      <use x="1227.33203125" xlink:href="#BitstreamVeraSans-Roman-6e"/>
     </g>
    </g>
   </g>
   <g id="matplotlib.axis_2">
    <g id="ytick_1">
     <g id="line2d_19">
      <path clip-path="url(#p87224027fa)" d="M 72 193.304348 
L 274.909091 193.304348 
" style="fill:none;stroke:#ffffff;stroke-linecap:round;stroke-width:0.8;"/>
     </g>
     <g id="line2d_20">
      <g>
       <use style="fill:#262626;stroke:#262626;stroke-width:0.8;" x="72.0" xlink:href="#maaed2a4627" y="193.304347826"/>
      </g>
     </g>
     <g id="line2d_21">
      <g>
       <use style="fill:#262626;stroke:#262626;stroke-width:0.8;" x="274.909090909" xlink:href="#maaed2a4627" y="193.304347826"/>
      </g>
     </g>
     <g id="text_8">
      <!-- 0 -->
      <g style="fill:#262626;" transform="translate(61.31 195.511847826)scale(0.08 -0.08)">
       <use xlink:href="#BitstreamVeraSans-Roman-30"/>
      </g>
     </g>
    </g>
    <g id="ytick_2">
     <g id="line2d_22">
      <path clip-path="url(#p87224027fa)" d="M 72 179.826087 
L 274.909091 179.826087 
" style="fill:none;stroke:#ffffff;stroke-linecap:round;stroke-width:0.8;"/>
     </g>
     <g id="line2d_23">
      <g>
       <use style="fill:#262626;stroke:#262626;stroke-width:0.8;" x="72.0" xlink:href="#maaed2a4627" y="179.826086957"/>
      </g>
     </g>
     <g id="line2d_24">
      <g>
       <use style="fill:#262626;stroke:#262626;stroke-width:0.8;" x="274.909090909" xlink:href="#maaed2a4627" y="179.826086957"/>
      </g>
     </g>
     <g id="text_9">
      <!-- 1 -->
      <g style="fill:#262626;" transform="translate(61.31 182.033586957)scale(0.08 -0.08)">
       <use xlink:href="#BitstreamVeraSans-Roman-31"/>
      </g>
     </g>
    </g>
    <g id="ytick_3">
     <g id="line2d_25">
      <path clip-path="url(#p87224027fa)" d="M 72 166.347826 
L 274.909091 166.347826 
" style="fill:none;stroke:#ffffff;stroke-linecap:round;stroke-width:0.8;"/>
     </g>
     <g id="line2d_26">
      <g>
       <use style="fill:#262626;stroke:#262626;stroke-width:0.8;" x="72.0" xlink:href="#maaed2a4627" y="166.347826087"/>
      </g>
     </g>
     <g id="line2d_27">
      <g>
       <use style="fill:#262626;stroke:#262626;stroke-width:0.8;" x="274.909090909" xlink:href="#maaed2a4627" y="166.347826087"/>
      </g>
     </g>
     <g id="text_10">
      <!-- 2 -->
      <g style="fill:#262626;" transform="translate(61.31 168.555326087)scale(0.08 -0.08)">
       <use xlink:href="#BitstreamVeraSans-Roman-32"/>
      </g>
     </g>
    </g>
    <g id="ytick_4">
     <g id="line2d_28">
      <path clip-path="url(#p87224027fa)" d="M 72 152.869565 
L 274.909091 152.869565 
" style="fill:none;stroke:#ffffff;stroke-linecap:round;stroke-width:0.8;"/>
     </g>
     <g id="line2d_29">
      <g>
       <use style="fill:#262626;stroke:#262626;stroke-width:0.8;" x="72.0" xlink:href="#maaed2a4627" y="152.869565217"/>
      </g>
     </g>
     <g id="line2d_30">
      <g>
       <use style="fill:#262626;stroke:#262626;stroke-width:0.8;" x="274.909090909" xlink:href="#maaed2a4627" y="152.869565217"/>
      </g>
     </g>
     <g id="text_11">
      <!-- 3 -->
      <defs>
       <path d="M 40.578125 39.3125 
Q 47.65625 37.796875 51.625 33 
Q 55.609375 28.21875 55.609375 21.1875 
Q 55.609375 10.40625 48.1875 4.484375 
Q 40.765625 -1.421875 27.09375 -1.421875 
Q 22.515625 -1.421875 17.65625 -0.515625 
Q 12.796875 0.390625 7.625 2.203125 
L 7.625 11.71875 
Q 11.71875 9.328125 16.59375 8.109375 
Q 21.484375 6.890625 26.8125 6.890625 
Q 36.078125 6.890625 40.9375 10.546875 
Q 45.796875 14.203125 45.796875 21.1875 
Q 45.796875 27.640625 41.28125 31.265625 
Q 36.765625 34.90625 28.71875 34.90625 
L 20.21875 34.90625 
L 20.21875 43.015625 
L 29.109375 43.015625 
Q 36.375 43.015625 40.234375 45.921875 
Q 44.09375 48.828125 44.09375 54.296875 
Q 44.09375 59.90625 40.109375 62.90625 
Q 36.140625 65.921875 28.71875 65.921875 
Q 24.65625 65.921875 20.015625 65.03125 
Q 15.375 64.15625 9.8125 62.3125 
L 9.8125 71.09375 
Q 15.4375 72.65625 20.34375 73.4375 
Q 25.25 74.21875 29.59375 74.21875 
Q 40.828125 74.21875 47.359375 69.109375 
Q 53.90625 64.015625 53.90625 55.328125 
Q 53.90625 49.265625 50.4375 45.09375 
Q 46.96875 40.921875 40.578125 39.3125 
" id="BitstreamVeraSans-Roman-33"/>
      </defs>
      <g style="fill:#262626;" transform="translate(61.31 155.077065217)scale(0.08 -0.08)">
       <use xlink:href="#BitstreamVeraSans-Roman-33"/>
      </g>
     </g>
    </g>
    <g id="ytick_5">
     <g id="line2d_31">
      <path clip-path="url(#p87224027fa)" d="M 72 139.391304 
L 274.909091 139.391304 
" style="fill:none;stroke:#ffffff;stroke-linecap:round;stroke-width:0.8;"/>
     </g>
     <g id="line2d_32">
      <g>
       <use style="fill:#262626;stroke:#262626;stroke-width:0.8;" x="72.0" xlink:href="#maaed2a4627" y="139.391304348"/>
      </g>
     </g>
     <g id="line2d_33">
      <g>
       <use style="fill:#262626;stroke:#262626;stroke-width:0.8;" x="274.909090909" xlink:href="#maaed2a4627" y="139.391304348"/>
      </g>
     </g>
     <g id="text_12">
      <!-- 4 -->
      <g style="fill:#262626;" transform="translate(61.31 141.598804348)scale(0.08 -0.08)">
       <use xlink:href="#BitstreamVeraSans-Roman-34"/>
      </g>
     </g>
    </g>
    <g id="ytick_6">
     <g id="line2d_34">
      <path clip-path="url(#p87224027fa)" d="M 72 125.913043 
L 274.909091 125.913043 
" style="fill:none;stroke:#ffffff;stroke-linecap:round;stroke-width:0.8;"/>
     </g>
     <g id="line2d_35">
      <g>
       <use style="fill:#262626;stroke:#262626;stroke-width:0.8;" x="72.0" xlink:href="#maaed2a4627" y="125.913043478"/>
      </g>
     </g>
     <g id="line2d_36">
      <g>
       <use style="fill:#262626;stroke:#262626;stroke-width:0.8;" x="274.909090909" xlink:href="#maaed2a4627" y="125.913043478"/>
      </g>
     </g>
     <g id="text_13">
      <!-- 5 -->
      <defs>
       <path d="M 10.796875 72.90625 
L 49.515625 72.90625 
L 49.515625 64.59375 
L 19.828125 64.59375 
L 19.828125 46.734375 
Q 21.96875 47.46875 24.109375 47.828125 
Q 26.265625 48.1875 28.421875 48.1875 
Q 40.625 48.1875 47.75 41.5 
Q 54.890625 34.8125 54.890625 23.390625 
Q 54.890625 11.625 47.5625 5.09375 
Q 40.234375 -1.421875 26.90625 -1.421875 
Q 22.3125 -1.421875 17.546875 -0.640625 
Q 12.796875 0.140625 7.71875 1.703125 
L 7.71875 11.625 
Q 12.109375 9.234375 16.796875 8.0625 
Q 21.484375 6.890625 26.703125 6.890625 
Q 35.15625 6.890625 40.078125 11.328125 
Q 45.015625 15.765625 45.015625 23.390625 
Q 45.015625 31 40.078125 35.4375 
Q 35.15625 39.890625 26.703125 39.890625 
Q 22.75 39.890625 18.8125 39.015625 
Q 14.890625 38.140625 10.796875 36.28125 
z
" id="BitstreamVeraSans-Roman-35"/>
      </defs>
      <g style="fill:#262626;" transform="translate(61.31 128.120543478)scale(0.08 -0.08)">
       <use xlink:href="#BitstreamVeraSans-Roman-35"/>
      </g>
     </g>
    </g>
    <g id="ytick_7">
     <g id="line2d_37">
      <path clip-path="url(#p87224027fa)" d="M 72 112.434783 
L 274.909091 112.434783 
" style="fill:none;stroke:#ffffff;stroke-linecap:round;stroke-width:0.8;"/>
     </g>
     <g id="line2d_38">
      <g>
       <use style="fill:#262626;stroke:#262626;stroke-width:0.8;" x="72.0" xlink:href="#maaed2a4627" y="112.434782609"/>
      </g>
     </g>
     <g id="line2d_39">
      <g>
       <use style="fill:#262626;stroke:#262626;stroke-width:0.8;" x="274.909090909" xlink:href="#maaed2a4627" y="112.434782609"/>
      </g>
     </g>
     <g id="text_14">
      <!-- 6 -->
      <g style="fill:#262626;" transform="translate(61.31 114.642282609)scale(0.08 -0.08)">
       <use xlink:href="#BitstreamVeraSans-Roman-36"/>
      </g>
     </g>
    </g>
    <g id="ytick_8">
     <g id="line2d_40">
      <path clip-path="url(#p87224027fa)" d="M 72 98.956522 
L 274.909091 98.956522 
" style="fill:none;stroke:#ffffff;stroke-linecap:round;stroke-width:0.8;"/>
     </g>
     <g id="line2d_41">
      <g>
       <use style="fill:#262626;stroke:#262626;stroke-width:0.8;" x="72.0" xlink:href="#maaed2a4627" y="98.9565217391"/>
      </g>
     </g>
     <g id="line2d_42">
      <g>
       <use style="fill:#262626;stroke:#262626;stroke-width:0.8;" x="274.909090909" xlink:href="#maaed2a4627" y="98.9565217391"/>
      </g>
     </g>
     <g id="text_15">
      <!-- 7 -->
      <defs>
       <path d="M 8.203125 72.90625 
L 55.078125 72.90625 
L 55.078125 68.703125 
L 28.609375 0 
L 18.3125 0 
L 43.21875 64.59375 
L 8.203125 64.59375 
z
" id="BitstreamVeraSans-Roman-37"/>
      </defs>
      <g style="fill:#262626;" transform="translate(61.31 101.164021739)scale(0.08 -0.08)">
       <use xlink:href="#BitstreamVeraSans-Roman-37"/>
      </g>
     </g>
    </g>
    <g id="ytick_9">
     <g id="line2d_43">
      <path clip-path="url(#p87224027fa)" d="M 72 85.478261 
L 274.909091 85.478261 
" style="fill:none;stroke:#ffffff;stroke-linecap:round;stroke-width:0.8;"/>
     </g>
     <g id="line2d_44">
      <g>
       <use style="fill:#262626;stroke:#262626;stroke-width:0.8;" x="72.0" xlink:href="#maaed2a4627" y="85.4782608696"/>
      </g>
     </g>
     <g id="line2d_45">
      <g>
       <use style="fill:#262626;stroke:#262626;stroke-width:0.8;" x="274.909090909" xlink:href="#maaed2a4627" y="85.4782608696"/>
      </g>
     </g>
     <g id="text_16">
      <!-- 8 -->
      <g style="fill:#262626;" transform="translate(61.31 87.6857608696)scale(0.08 -0.08)">
       <use xlink:href="#BitstreamVeraSans-Roman-38"/>
      </g>
     </g>
    </g>
    <g id="ytick_10">
     <g id="line2d_46">
      <path clip-path="url(#p87224027fa)" d="M 72 72 
L 274.909091 72 
" style="fill:none;stroke:#ffffff;stroke-linecap:round;stroke-width:0.8;"/>
     </g>
     <g id="line2d_47">
      <g>
       <use style="fill:#262626;stroke:#262626;stroke-width:0.8;" x="72.0" xlink:href="#maaed2a4627" y="72.0"/>
      </g>
     </g>
     <g id="line2d_48">
      <g>
       <use style="fill:#262626;stroke:#262626;stroke-width:0.8;" x="274.909090909" xlink:href="#maaed2a4627" y="72.0"/>
      </g>
     </g>
     <g id="text_17">
      <!-- 9 -->
      <defs>
       <path d="M 10.984375 1.515625 
L 10.984375 10.5 
Q 14.703125 8.734375 18.5 7.8125 
Q 22.3125 6.890625 25.984375 6.890625 
Q 35.75 6.890625 40.890625 13.453125 
Q 46.046875 20.015625 46.78125 33.40625 
Q 43.953125 29.203125 39.59375 26.953125 
Q 35.25 24.703125 29.984375 24.703125 
Q 19.046875 24.703125 12.671875 31.3125 
Q 6.296875 37.9375 6.296875 49.421875 
Q 6.296875 60.640625 12.9375 67.421875 
Q 19.578125 74.21875 30.609375 74.21875 
Q 43.265625 74.21875 49.921875 64.515625 
Q 56.59375 54.828125 56.59375 36.375 
Q 56.59375 19.140625 48.40625 8.859375 
Q 40.234375 -1.421875 26.421875 -1.421875 
Q 22.703125 -1.421875 18.890625 -0.6875 
Q 15.09375 0.046875 10.984375 1.515625 
M 30.609375 32.421875 
Q 37.25 32.421875 41.125 36.953125 
Q 45.015625 41.5 45.015625 49.421875 
Q 45.015625 57.28125 41.125 61.84375 
Q 37.25 66.40625 30.609375 66.40625 
Q 23.96875 66.40625 20.09375 61.84375 
Q 16.21875 57.28125 16.21875 49.421875 
Q 16.21875 41.5 20.09375 36.953125 
Q 23.96875 32.421875 30.609375 32.421875 
" id="BitstreamVeraSans-Roman-39"/>
      </defs>
      <g style="fill:#262626;" transform="translate(61.31 74.2075)scale(0.08 -0.08)">
       <use xlink:href="#BitstreamVeraSans-Roman-39"/>
      </g>
     </g>
    </g>
    <g id="text_18">
     <!-- Density -->
     <defs>
      <path d="M 32.171875 -5.078125 
Q 28.375 -14.84375 24.75 -17.8125 
Q 21.140625 -20.796875 15.09375 -20.796875 
L 7.90625 -20.796875 
L 7.90625 -13.28125 
L 13.1875 -13.28125 
Q 16.890625 -13.28125 18.9375 -11.515625 
Q 21 -9.765625 23.484375 -3.21875 
L 25.09375 0.875 
L 2.984375 54.6875 
L 12.5 54.6875 
L 29.59375 11.921875 
L 46.6875 54.6875 
L 56.203125 54.6875 
z
" id="BitstreamVeraSans-Roman-79"/>
      <path d="M 19.671875 64.796875 
L 19.671875 8.109375 
L 31.59375 8.109375 
Q 46.6875 8.109375 53.6875 14.9375 
Q 60.6875 21.78125 60.6875 36.53125 
Q 60.6875 51.171875 53.6875 57.984375 
Q 46.6875 64.796875 31.59375 64.796875 
z
M 9.8125 72.90625 
L 30.078125 72.90625 
Q 51.265625 72.90625 61.171875 64.09375 
Q 71.09375 55.28125 71.09375 36.53125 
Q 71.09375 17.671875 61.125 8.828125 
Q 51.171875 0 30.078125 0 
L 9.8125 0 
z
" id="BitstreamVeraSans-Roman-44"/>
      <path d="M 44.28125 53.078125 
L 44.28125 44.578125 
Q 40.484375 46.53125 36.375 47.5 
Q 32.28125 48.484375 27.875 48.484375 
Q 21.1875 48.484375 17.84375 46.4375 
Q 14.5 44.390625 14.5 40.28125 
Q 14.5 37.15625 16.890625 35.375 
Q 19.28125 33.59375 26.515625 31.984375 
L 29.59375 31.296875 
Q 39.15625 29.25 43.1875 25.515625 
Q 47.21875 21.78125 47.21875 15.09375 
Q 47.21875 7.46875 41.1875 3.015625 
Q 35.15625 -1.421875 24.609375 -1.421875 
Q 20.21875 -1.421875 15.453125 -0.5625 
Q 10.6875 0.296875 5.421875 2 
L 5.421875 11.28125 
Q 10.40625 8.6875 15.234375 7.390625 
Q 20.0625 6.109375 24.8125 6.109375 
Q 31.15625 6.109375 34.5625 8.28125 
Q 37.984375 10.453125 37.984375 14.40625 
Q 37.984375 18.0625 35.515625 20.015625 
Q 33.0625 21.96875 24.703125 23.78125 
L 21.578125 24.515625 
Q 13.234375 26.265625 9.515625 29.90625 
Q 5.8125 33.546875 5.8125 39.890625 
Q 5.8125 47.609375 11.28125 51.796875 
Q 16.75 56 26.8125 56 
Q 31.78125 56 36.171875 55.265625 
Q 40.578125 54.546875 44.28125 53.078125 
" id="BitstreamVeraSans-Roman-73"/>
     </defs>
     <g style="fill:#262626;" transform="translate(54.479875 149.379736413)rotate(-90.0)scale(0.08800000000000001 -0.08800000000000001)">
      <use xlink:href="#BitstreamVeraSans-Roman-44"/>
      <use x="77.001953125" xlink:href="#BitstreamVeraSans-Roman-65"/>
      <use x="138.525390625" xlink:href="#BitstreamVeraSans-Roman-6e"/>
      <use x="201.904296875" xlink:href="#BitstreamVeraSans-Roman-73"/>
      <use x="254.00390625" xlink:href="#BitstreamVeraSans-Roman-69"/>
      <use x="281.787109375" xlink:href="#BitstreamVeraSans-Roman-74"/>
      <use x="320.99609375" xlink:href="#BitstreamVeraSans-Roman-79"/>
     </g>
    </g>
   </g>
   <g id="line2d_49">
    <path clip-path="url(#p87224027fa)" d="M -23.157816 193.304348 
M -1 193.304348 
L 0.917501 193.304348 
L 4.930054 193.304348 
L 8.942606 193.304348 
L 12.955159 193.304348 
L 16.967712 193.304348 
L 20.980265 193.304348 
L 24.992818 193.304348 
L 29.005371 193.304348 
L 33.017923 193.304348 
L 37.030476 193.304348 
L 41.043029 193.304348 
L 45.055582 193.304348 
L 49.068135 193.304348 
L 53.080687 193.304348 
L 57.09324 193.304348 
L 61.105793 193.304348 
L 65.118346 193.304348 
L 69.130899 193.304348 
L 73.143452 193.304348 
L 77.156004 193.304348 
L 81.168557 193.304348 
L 85.18111 193.304348 
L 89.193663 193.304347 
L 93.206216 193.304113 
L 97.218768 193.284983 
L 101.231321 193.040442 
L 105.243874 192.478511 
L 109.256427 191.153227 
L 113.26898 187.184242 
L 117.281533 181.377804 
L 121.294085 171.394977 
L 125.306638 154.223989 
L 129.319191 133.325329 
L 133.331744 115.046518 
L 137.344297 100.931267 
L 141.356849 101.194148 
L 145.369402 114.729801 
L 149.381955 130.467473 
L 153.394508 143.954179 
L 157.407061 157.889982 
L 161.419614 172.545388 
L 165.432166 182.53218 
L 169.444719 187.411914 
L 173.457272 190.558115 
L 177.469825 192.380692 
L 181.482378 192.724339 
L 185.49493 192.562229 
L 189.507483 192.19773 
L 193.520036 192.098296 
L 197.532589 192.490412 
L 201.545142 193.006378 
L 205.557694 193.013863 
L 209.570247 192.739631 
L 213.5828 192.474392 
L 217.595353 192.524797 
L 221.607906 192.526492 
L 225.620459 192.731608 
L 229.633011 192.964203 
L 233.645564 193.197543 
L 237.658117 193.294895 
L 241.67067 193.272921 
L 245.683223 193.16341 
L 249.695775 193.213483 
L 253.708328 193.295955 
L 257.720881 193.304237 
L 261.733434 193.304348 
L 265.745987 193.304348 
L 269.75854 193.304348 
L 273.771092 193.304348 
L 277.783645 193.304348 
L 281.796198 193.304348 
L 285.808751 193.304348 
L 289.821304 193.304348 
L 293.833856 193.304348 
L 297.846409 193.304348 
L 301.858962 193.304348 
L 305.871515 193.304348 
L 309.884068 193.304348 
L 313.896621 193.304348 
L 317.909173 193.304348 
L 321.921726 193.304348 
L 325.934279 193.304348 
L 329.946832 193.304348 
L 333.959385 193.304348 
L 337.971937 193.304348 
L 341.98449 193.304348 
L 345.997043 193.304348 
L 350.009596 193.304348 
L 354.022149 193.304348 
L 358.034702 193.304348 
L 362.047254 193.304348 
L 366.059807 193.304348 
L 370.07236 193.304348 
L 374.084913 193.304348 
" style="fill:none;stroke:#4c72b0;stroke-linecap:round;stroke-width:1.4000000000000001;"/>
   </g>
   <g id="line2d_50">
    <path clip-path="url(#p87224027fa)" d="M -19.13981 193.304348 
M -1 193.304348 
L 0.618559 193.304348 
L 4.570233 193.304348 
L 8.521907 193.304348 
L 12.473581 193.304348 
L 16.425255 193.304348 
L 20.376929 193.304348 
L 24.328603 193.304348 
L 28.280277 193.304348 
L 32.231951 193.304348 
L 36.183625 193.304348 
L 40.135299 193.304348 
L 44.086973 193.304348 
L 48.038647 193.304348 
L 51.990321 193.304348 
L 55.941995 193.304348 
L 59.893669 193.304348 
L 63.845343 193.304348 
L 67.797016 193.304348 
L 71.74869 193.304348 
L 75.700364 193.304348 
L 79.652038 193.304348 
L 83.603712 193.304348 
L 87.555386 193.304348 
L 91.50706 193.304344 
L 95.458734 193.303827 
L 99.410408 193.285928 
L 103.362082 193.102534 
L 107.313756 192.456562 
L 111.26543 191.07813 
L 115.217104 187.953681 
L 119.168778 182.104654 
L 123.120452 172.878435 
L 127.072126 160.049626 
L 131.023799 145.028242 
L 134.975473 130.578597 
L 138.927147 119.553768 
L 142.878821 113.84013 
L 146.830495 114.395346 
L 150.782169 122.308417 
L 154.733843 134.127795 
L 158.685517 146.916593 
L 162.637191 160.423791 
L 166.588865 172.566282 
L 170.540539 181.646246 
L 174.492213 187.514951 
L 178.443887 190.105206 
L 182.395561 191.14944 
L 186.347235 191.409005 
L 190.298909 191.638712 
L 194.250583 191.566839 
L 198.202256 191.173379 
L 202.15393 191.018665 
L 206.105604 190.76634 
L 210.057278 190.886793 
L 214.008952 191.29167 
L 217.960626 191.435737 
L 221.9123 191.828227 
L 225.863974 192.417425 
L 229.815648 192.921104 
L 233.767322 193.054263 
L 237.718996 192.998065 
L 241.67067 193.008781 
L 245.622344 193.083567 
L 249.574018 193.237002 
L 253.525692 193.297934 
L 257.477366 193.304168 
L 261.42904 193.304346 
L 265.380713 193.304348 
L 269.332387 193.304348 
L 273.284061 193.304348 
L 277.235735 193.304348 
L 281.187409 193.304348 
L 285.139083 193.304348 
L 289.090757 193.304348 
L 293.042431 193.304348 
L 296.994105 193.304348 
L 300.945779 193.304348 
L 304.897453 193.304348 
L 308.849127 193.304348 
L 312.800801 193.304348 
L 316.752475 193.304348 
L 320.704149 193.304348 
L 324.655823 193.304348 
L 328.607497 193.304348 
L 332.55917 193.304348 
L 336.510844 193.304348 
L 340.462518 193.304348 
L 344.414192 193.304348 
L 348.365866 193.304348 
L 352.31754 193.304348 
L 356.269214 193.304348 
L 360.220888 193.304348 
L 364.172562 193.304348 
L 368.124236 193.304348 
L 372.07591 193.304348 
" style="fill:none;stroke:#55a868;stroke-linecap:round;stroke-width:1.4000000000000001;"/>
   </g>
   <g id="line2d_51">
    <path clip-path="url(#p87224027fa)" d="M -23.157816 193.304348 
M -1 193.304348 
L 0.308712 193.304348 
L 4.2198 193.304348 
L 8.130888 193.304348 
L 12.041976 193.304348 
L 15.953064 193.304348 
L 19.864152 193.304348 
L 23.77524 193.304348 
L 27.686328 193.304348 
L 31.597416 193.304348 
L 35.508504 193.304348 
L 39.419592 193.304348 
L 43.33068 193.304348 
L 47.241768 193.304348 
L 51.152856 193.304348 
L 55.063944 193.304348 
L 58.975032 193.304348 
L 62.88612 193.304348 
L 66.797208 193.304348 
L 70.708296 193.304348 
L 74.619385 193.304348 
L 78.530473 193.304348 
L 82.441561 193.304348 
L 86.352649 193.304348 
L 90.263737 193.304347 
L 94.174825 193.304063 
L 98.085913 193.284796 
L 101.997001 193.06932 
L 105.908089 192.680305 
L 109.819177 192.428997 
L 113.730265 190.442386 
L 117.641353 185.407763 
L 121.552441 176.892665 
L 125.463529 163.897388 
L 129.374617 148.301596 
L 133.285705 133.440235 
L 137.196793 123.830843 
L 141.107881 116.845487 
L 145.018969 115.495597 
L 148.930057 114.623087 
L 152.841145 124.95862 
L 156.752233 139.17378 
L 160.663321 152.450397 
L 164.574409 164.395083 
L 168.485497 174.214655 
L 172.396585 182.13987 
L 176.307673 187.861563 
L 180.218761 190.952294 
L 184.129849 192.586023 
L 188.040937 193.141548 
L 191.952025 193.041902 
L 195.863113 193.012338 
L 199.774201 192.962393 
L 203.685289 193.011498 
L 207.596377 192.966858 
L 211.507465 193.035156 
L 215.418553 193.199922 
L 219.329641 193.271023 
L 223.240729 193.167098 
L 227.151817 193.198082 
L 231.062905 193.273463 
L 234.973993 193.175862 
L 238.885082 193.187869 
L 242.79617 193.289709 
L 246.707258 193.304093 
L 250.618346 193.304347 
L 254.529434 193.304348 
L 258.440522 193.304348 
L 262.35161 193.304348 
L 266.262698 193.304348 
L 270.173786 193.304348 
L 274.084874 193.304348 
L 277.995962 193.304348 
L 281.90705 193.304348 
L 285.818138 193.304348 
L 289.729226 193.304348 
L 293.640314 193.304348 
L 297.551402 193.304348 
L 301.46249 193.304348 
L 305.373578 193.304348 
L 309.284666 193.304348 
L 313.195754 193.304348 
L 317.106842 193.304348 
L 321.01793 193.304348 
L 324.929018 193.304348 
L 328.840106 193.304348 
L 332.751194 193.304348 
L 336.662282 193.304348 
L 340.57337 193.304348 
L 344.484458 193.304348 
L 348.395546 193.304348 
L 352.306634 193.304348 
L 356.217722 193.304348 
L 360.12881 193.304348 
L 364.039898 193.304348 
" style="fill:none;stroke:#c44e52;stroke-linecap:round;stroke-width:1.4000000000000001;"/>
   </g>
   <g id="line2d_52">
    <path clip-path="url(#p87224027fa)" d="M -21.148813 193.304348 
M -1 193.304348 
L 2.317715 193.304348 
L 6.228803 193.304348 
L 10.139891 193.304348 
L 14.050979 193.304348 
L 17.962067 193.304348 
L 21.873155 193.304348 
L 25.784243 193.304348 
L 29.695331 193.304348 
L 33.606419 193.304348 
L 37.517507 193.304348 
L 41.428595 193.304348 
L 45.339683 193.304348 
L 49.250771 193.304348 
L 53.161859 193.304348 
L 57.072947 193.304348 
L 60.984035 193.304348 
L 64.895123 193.304348 
L 68.806211 193.304348 
L 72.717299 193.304348 
L 76.628387 193.304348 
L 80.539475 193.304348 
L 84.450563 193.304348 
L 88.361651 193.304348 
L 92.27274 193.304347 
L 96.183828 193.303992 
L 100.094916 193.286823 
L 104.006004 193.117032 
L 107.917092 192.40547 
L 111.82818 190.601844 
L 115.739268 186.606581 
L 119.650356 179.612251 
L 123.561444 167.848546 
L 127.472532 149.245637 
L 131.38362 132.621753 
L 135.294708 121.841969 
L 139.205796 114.11569 
L 143.116884 111.742709 
L 147.027972 117.659707 
L 150.93906 126.398324 
L 154.850148 137.568281 
L 158.761236 151.08013 
L 162.672324 164.889253 
L 166.583412 173.895458 
L 170.4945 182.159339 
L 174.405588 188.137676 
L 178.316676 191.042964 
L 182.227764 192.315823 
L 186.138852 192.811292 
L 190.04994 193.00816 
L 193.961028 193.210065 
L 197.872116 193.104127 
L 201.783204 192.927631 
L 205.694292 192.72874 
L 209.60538 192.714091 
L 213.516468 192.92706 
L 217.427556 193.140306 
L 221.338644 193.074492 
L 225.249732 193.058097 
L 229.16082 192.923294 
L 233.071908 192.91248 
L 236.982996 193.100345 
L 240.894084 193.186123 
L 244.805172 193.288123 
L 248.71626 193.303996 
L 252.627348 193.304347 
L 256.538437 193.304348 
L 260.449525 193.304348 
L 264.360613 193.304348 
L 268.271701 193.304348 
L 272.182789 193.304348 
L 276.093877 193.304348 
L 280.004965 193.304348 
L 283.916053 193.304348 
L 287.827141 193.304348 
L 291.738229 193.304348 
L 295.649317 193.304348 
L 299.560405 193.304348 
L 303.471493 193.304348 
L 307.382581 193.304348 
L 311.293669 193.304348 
L 315.204757 193.304348 
L 319.115845 193.304348 
L 323.026933 193.304348 
L 326.938021 193.304348 
L 330.849109 193.304348 
L 334.760197 193.304348 
L 338.671285 193.304348 
L 342.582373 193.304348 
L 346.493461 193.304348 
L 350.404549 193.304348 
L 354.315637 193.304348 
L 358.226725 193.304348 
L 362.137813 193.304348 
L 366.048901 193.304348 
" style="fill:none;stroke:#8172b2;stroke-linecap:round;stroke-width:1.4000000000000001;"/>
   </g>
   <g id="line2d_53">
    <path clip-path="url(#p87224027fa)" d="M -37.220857 193.304348 
M -1 193.304348 
L -0.748059 193.304348 
L 2.899221 193.304348 
L 6.5465 193.304348 
L 10.19378 193.304348 
L 13.84106 193.304348 
L 17.48834 193.304348 
L 21.13562 193.304348 
L 24.782899 193.304348 
L 28.430179 193.304348 
L 32.077459 193.304348 
L 35.724739 193.304348 
L 39.372018 193.304348 
L 43.019298 193.304348 
L 46.666578 193.304348 
L 50.313858 193.304348 
L 53.961137 193.304348 
L 57.608417 193.304348 
L 61.255697 193.304348 
L 64.902977 193.304348 
L 68.550256 193.304348 
L 72.197536 193.304348 
L 75.844816 193.304348 
L 79.492096 193.304284 
L 83.139376 193.298735 
L 86.786655 193.22794 
L 90.433935 193.14253 
L 94.081215 193.249285 
L 97.728495 193.257109 
L 101.375774 193.059507 
L 105.023054 192.575528 
L 108.670334 191.82971 
L 112.317614 190.759169 
L 115.964893 188.362356 
L 119.612173 184.111701 
L 123.259453 175.093236 
L 126.906733 162.059848 
L 130.554012 147.816749 
L 134.201292 134.298095 
L 137.848572 122.997423 
L 141.495852 115.248365 
L 145.143132 112.231222 
L 148.790411 115.578931 
L 152.437691 122.695996 
L 156.084971 130.802278 
L 159.732251 142.231821 
L 163.37953 157.778492 
L 167.02681 171.198674 
L 170.67409 180.435778 
L 174.32137 186.0111 
L 177.968649 189.497132 
L 181.615929 191.525904 
L 185.263209 192.474761 
L 188.910489 193.057357 
L 192.557769 193.179791 
L 196.205048 192.980472 
L 199.852328 193.151531 
L 203.499608 193.293122 
L 207.146888 193.30422 
L 210.794167 193.304348 
L 214.441447 193.304348 
L 218.088727 193.304348 
L 221.736007 193.304348 
L 225.383286 193.304348 
L 229.030566 193.304348 
L 232.677846 193.304348 
L 236.325126 193.304348 
L 239.972405 193.304348 
L 243.619685 193.304348 
L 247.266965 193.304348 
L 250.914245 193.304348 
L 254.561525 193.304348 
L 258.208804 193.304348 
L 261.856084 193.304348 
L 265.503364 193.304348 
L 269.150644 193.304348 
L 272.797923 193.304348 
L 276.445203 193.304348 
L 280.092483 193.304348 
L 283.739763 193.304348 
L 287.387042 193.304348 
L 291.034322 193.304348 
L 294.681602 193.304348 
L 298.328882 193.304348 
L 301.976161 193.304348 
L 305.623441 193.304348 
L 309.270721 193.304348 
L 312.918001 193.304348 
L 316.565281 193.304348 
L 320.21256 193.304348 
L 323.85984 193.304348 
" style="fill:none;stroke:#ccb974;stroke-linecap:round;stroke-width:1.4000000000000001;"/>
   </g>
   <g id="line2d_54">
    <path clip-path="url(#p87224027fa)" d="M -27.175822 193.304348 
M -1 193.304348 
L 1.35304 193.304348 
L 4.919148 193.304348 
L 8.485255 193.304348 
L 12.051363 193.304348 
L 15.617471 193.304348 
L 19.183579 193.304348 
L 22.749686 193.304348 
L 26.315794 193.304348 
L 29.881902 193.304348 
L 33.448009 193.304348 
L 37.014117 193.304348 
L 40.580225 193.304348 
L 44.146333 193.304348 
L 47.71244 193.304348 
L 51.278548 193.304348 
L 54.844656 193.304348 
L 58.410764 193.304348 
L 61.976871 193.304348 
L 65.542979 193.304348 
L 69.109087 193.304348 
L 72.675194 193.304348 
L 76.241302 193.304348 
L 79.80741 193.304348 
L 83.373518 193.304348 
L 86.939625 193.304347 
L 90.505733 193.304089 
L 94.071841 193.291648 
L 97.637949 193.197246 
L 101.204056 193.106329 
L 104.770164 192.840004 
L 108.336272 191.991809 
L 111.902379 190.86559 
L 115.468487 189.145803 
L 119.034595 184.668289 
L 122.600703 177.022017 
L 126.16681 165.185487 
L 129.732918 148.021481 
L 133.299026 132.465552 
L 136.865134 121.235592 
L 140.431241 116.822795 
L 143.997349 115.861211 
L 147.563457 116.767825 
L 151.129564 123.623067 
L 154.695672 130.158873 
L 158.26178 138.43814 
L 161.827888 151.739344 
L 165.393995 166.108886 
L 168.960103 174.80172 
L 172.526211 181.963274 
L 176.092318 187.14608 
L 179.658426 190.837127 
L 183.224534 192.666181 
L 186.790642 192.877615 
L 190.356749 193.100572 
L 193.922857 193.242795 
L 197.488965 193.153513 
L 201.055073 193.198514 
L 204.62118 193.291655 
L 208.187288 193.304089 
L 211.753396 193.304347 
L 215.319503 193.304348 
L 218.885611 193.304348 
L 222.451719 193.304348 
L 226.017827 193.304348 
L 229.583934 193.304348 
L 233.150042 193.304348 
L 236.71615 193.304348 
L 240.282258 193.304348 
L 243.848365 193.304348 
L 247.414473 193.304348 
L 250.980581 193.304348 
L 254.546688 193.304348 
L 258.112796 193.304348 
L 261.678904 193.304348 
L 265.245012 193.304348 
L 268.811119 193.304348 
L 272.377227 193.304348 
L 275.943335 193.304348 
L 279.509443 193.304348 
L 283.07555 193.304348 
L 286.641658 193.304348 
L 290.207766 193.304348 
L 293.773873 193.304348 
L 297.339981 193.304348 
L 300.906089 193.304348 
L 304.472197 193.304348 
L 308.038304 193.304348 
L 311.604412 193.304348 
L 315.17052 193.304348 
L 318.736628 193.304348 
L 322.302735 193.304348 
L 325.868843 193.304348 
" style="fill:none;stroke:#64b5cd;stroke-linecap:round;stroke-width:1.4000000000000001;"/>
   </g>
   <g id="patch_3">
    <path d="M 72 193.304348 
L 72 72 
" style="fill:none;"/>
   </g>
   <g id="patch_4">
    <path d="M 274.909091 193.304348 
L 274.909091 72 
" style="fill:none;"/>
   </g>
   <g id="patch_5">
    <path d="M 72 193.304348 
L 274.909091 193.304348 
" style="fill:none;"/>
   </g>
   <g id="patch_6">
    <path d="M 72 72 
L 274.909091 72 
" style="fill:none;"/>
   </g>
   <g id="text_19">
    <!-- Raw Kodama Bulk Transcriptomes -->
    <defs>
     <path d="M 19.671875 34.8125 
L 19.671875 8.109375 
L 35.5 8.109375 
Q 43.453125 8.109375 47.28125 11.40625 
Q 51.125 14.703125 51.125 21.484375 
Q 51.125 28.328125 47.28125 31.5625 
Q 43.453125 34.8125 35.5 34.8125 
z
M 19.671875 64.796875 
L 19.671875 42.828125 
L 34.28125 42.828125 
Q 41.5 42.828125 45.03125 45.53125 
Q 48.578125 48.25 48.578125 53.8125 
Q 48.578125 59.328125 45.03125 62.0625 
Q 41.5 64.796875 34.28125 64.796875 
z
M 9.8125 72.90625 
L 35.015625 72.90625 
Q 46.296875 72.90625 52.390625 68.21875 
Q 58.5 63.53125 58.5 54.890625 
Q 58.5 48.1875 55.375 44.234375 
Q 52.25 40.28125 46.1875 39.3125 
Q 53.46875 37.75 57.5 32.78125 
Q 61.53125 27.828125 61.53125 20.40625 
Q 61.53125 10.640625 54.890625 5.3125 
Q 48.25 0 35.984375 0 
L 9.8125 0 
z
" id="BitstreamVeraSans-Roman-42"/>
     <path d="M 9.8125 72.90625 
L 19.671875 72.90625 
L 19.671875 42.09375 
L 52.390625 72.90625 
L 65.09375 72.90625 
L 28.90625 38.921875 
L 67.671875 0 
L 54.6875 0 
L 19.671875 35.109375 
L 19.671875 0 
L 9.8125 0 
z
" id="BitstreamVeraSans-Roman-4b"/>
     <path d="M 52 44.1875 
Q 55.375 50.25 60.0625 53.125 
Q 64.75 56 71.09375 56 
Q 79.640625 56 84.28125 50.015625 
Q 88.921875 44.046875 88.921875 33.015625 
L 88.921875 0 
L 79.890625 0 
L 79.890625 32.71875 
Q 79.890625 40.578125 77.09375 44.375 
Q 74.3125 48.1875 68.609375 48.1875 
Q 61.625 48.1875 57.5625 43.546875 
Q 53.515625 38.921875 53.515625 30.90625 
L 53.515625 0 
L 44.484375 0 
L 44.484375 32.71875 
Q 44.484375 40.625 41.703125 44.40625 
Q 38.921875 48.1875 33.109375 48.1875 
Q 26.21875 48.1875 22.15625 43.53125 
Q 18.109375 38.875 18.109375 30.90625 
L 18.109375 0 
L 9.078125 0 
L 9.078125 54.6875 
L 18.109375 54.6875 
L 18.109375 46.1875 
Q 21.1875 51.21875 25.484375 53.609375 
Q 29.78125 56 35.6875 56 
Q 41.65625 56 45.828125 52.96875 
Q 50 49.953125 52 44.1875 
" id="BitstreamVeraSans-Roman-6d"/>
     <path d="M -0.296875 72.90625 
L 61.375 72.90625 
L 61.375 64.59375 
L 35.5 64.59375 
L 35.5 0 
L 25.59375 0 
L 25.59375 64.59375 
L -0.296875 64.59375 
z
" id="BitstreamVeraSans-Roman-54"/>
     <path d="M 48.78125 52.59375 
L 48.78125 44.1875 
Q 44.96875 46.296875 41.140625 47.34375 
Q 37.3125 48.390625 33.40625 48.390625 
Q 24.65625 48.390625 19.8125 42.84375 
Q 14.984375 37.3125 14.984375 27.296875 
Q 14.984375 17.28125 19.8125 11.734375 
Q 24.65625 6.203125 33.40625 6.203125 
Q 37.3125 6.203125 41.140625 7.25 
Q 44.96875 8.296875 48.78125 10.40625 
L 48.78125 2.09375 
Q 45.015625 0.34375 40.984375 -0.53125 
Q 36.96875 -1.421875 32.421875 -1.421875 
Q 20.0625 -1.421875 12.78125 6.34375 
Q 5.515625 14.109375 5.515625 27.296875 
Q 5.515625 40.671875 12.859375 48.328125 
Q 20.21875 56 33.015625 56 
Q 37.15625 56 41.109375 55.140625 
Q 45.0625 54.296875 48.78125 52.59375 
" id="BitstreamVeraSans-Roman-63"/>
     <path d="M 4.203125 54.6875 
L 13.1875 54.6875 
L 24.421875 12.015625 
L 35.59375 54.6875 
L 46.1875 54.6875 
L 57.421875 12.015625 
L 68.609375 54.6875 
L 77.59375 54.6875 
L 63.28125 0 
L 52.6875 0 
L 40.921875 44.828125 
L 29.109375 0 
L 18.5 0 
z
" id="BitstreamVeraSans-Roman-77"/>
     <path d="M 9.078125 75.984375 
L 18.109375 75.984375 
L 18.109375 31.109375 
L 44.921875 54.6875 
L 56.390625 54.6875 
L 27.390625 29.109375 
L 57.625 0 
L 45.90625 0 
L 18.109375 26.703125 
L 18.109375 0 
L 9.078125 0 
z
" id="BitstreamVeraSans-Roman-6b"/>
     <path d="M 8.5 21.578125 
L 8.5 54.6875 
L 17.484375 54.6875 
L 17.484375 21.921875 
Q 17.484375 14.15625 20.5 10.265625 
Q 23.53125 6.390625 29.59375 6.390625 
Q 36.859375 6.390625 41.078125 11.03125 
Q 45.3125 15.671875 45.3125 23.6875 
L 45.3125 54.6875 
L 54.296875 54.6875 
L 54.296875 0 
L 45.3125 0 
L 45.3125 8.40625 
Q 42.046875 3.421875 37.71875 1 
Q 33.40625 -1.421875 27.6875 -1.421875 
Q 18.265625 -1.421875 13.375 4.4375 
Q 8.5 10.296875 8.5 21.578125 
" id="BitstreamVeraSans-Roman-75"/>
     <path d="M 9.421875 75.984375 
L 18.40625 75.984375 
L 18.40625 0 
L 9.421875 0 
z
" id="BitstreamVeraSans-Roman-6c"/>
    </defs>
    <g style="fill:#262626;" transform="translate(91.2222954545 67.0)scale(0.09600000000000002 -0.09600000000000002)">
     <use xlink:href="#BitstreamVeraSans-Roman-52"/>
     <use x="69.451171875" xlink:href="#BitstreamVeraSans-Roman-61"/>
     <use x="130.73046875" xlink:href="#BitstreamVeraSans-Roman-77"/>
     <use x="212.517578125" xlink:href="#BitstreamVeraSans-Roman-20"/>
     <use x="244.3046875" xlink:href="#BitstreamVeraSans-Roman-4b"/>
     <use x="309.802734375" xlink:href="#BitstreamVeraSans-Roman-6f"/>
     <use x="370.984375" xlink:href="#BitstreamVeraSans-Roman-64"/>
     <use x="434.4609375" xlink:href="#BitstreamVeraSans-Roman-61"/>
     <use x="495.740234375" xlink:href="#BitstreamVeraSans-Roman-6d"/>
     <use x="593.15234375" xlink:href="#BitstreamVeraSans-Roman-61"/>
     <use x="654.431640625" xlink:href="#BitstreamVeraSans-Roman-20"/>
     <use x="686.21875" xlink:href="#BitstreamVeraSans-Roman-42"/>
     <use x="754.822265625" xlink:href="#BitstreamVeraSans-Roman-75"/>
     <use x="818.201171875" xlink:href="#BitstreamVeraSans-Roman-6c"/>
     <use x="845.984375" xlink:href="#BitstreamVeraSans-Roman-6b"/>
     <use x="903.89453125" xlink:href="#BitstreamVeraSans-Roman-20"/>
     <use x="935.681640625" xlink:href="#BitstreamVeraSans-Roman-54"/>
     <use x="996.546875" xlink:href="#BitstreamVeraSans-Roman-72"/>
     <use x="1037.66015625" xlink:href="#BitstreamVeraSans-Roman-61"/>
     <use x="1098.939453125" xlink:href="#BitstreamVeraSans-Roman-6e"/>
     <use x="1162.318359375" xlink:href="#BitstreamVeraSans-Roman-73"/>
     <use x="1214.41796875" xlink:href="#BitstreamVeraSans-Roman-63"/>
     <use x="1269.3984375" xlink:href="#BitstreamVeraSans-Roman-72"/>
     <use x="1310.51171875" xlink:href="#BitstreamVeraSans-Roman-69"/>
     <use x="1338.294921875" xlink:href="#BitstreamVeraSans-Roman-70"/>
     <use x="1401.771484375" xlink:href="#BitstreamVeraSans-Roman-74"/>
     <use x="1440.98046875" xlink:href="#BitstreamVeraSans-Roman-6f"/>
     <use x="1502.162109375" xlink:href="#BitstreamVeraSans-Roman-6d"/>
     <use x="1599.57421875" xlink:href="#BitstreamVeraSans-Roman-65"/>
     <use x="1661.09765625" xlink:href="#BitstreamVeraSans-Roman-73"/>
    </g>
   </g>
   <g id="legend_1">
    <g id="line2d_55">
     <path d="M 197.491591 82.47875 
L 213.491591 82.47875 
" style="fill:none;stroke:#4c72b0;stroke-linecap:round;stroke-width:1.4000000000000001;"/>
    </g>
    <g id="line2d_56"/>
    <g id="text_20">
     <!-- DRR003754 -->
     <g style="fill:#262626;" transform="translate(219.891590909 85.27875)scale(0.08 -0.08)">
      <use xlink:href="#BitstreamVeraSans-Roman-44"/>
      <use x="77.001953125" xlink:href="#BitstreamVeraSans-Roman-52"/>
      <use x="146.484375" xlink:href="#BitstreamVeraSans-Roman-52"/>
      <use x="215.966796875" xlink:href="#BitstreamVeraSans-Roman-30"/>
      <use x="279.58984375" xlink:href="#BitstreamVeraSans-Roman-30"/>
      <use x="343.212890625" xlink:href="#BitstreamVeraSans-Roman-33"/>
      <use x="406.8359375" xlink:href="#BitstreamVeraSans-Roman-37"/>
      <use x="470.458984375" xlink:href="#BitstreamVeraSans-Roman-35"/>
      <use x="534.08203125" xlink:href="#BitstreamVeraSans-Roman-34"/>
     </g>
    </g>
    <g id="line2d_57">
     <path d="M 197.491591 94.22125 
L 213.491591 94.22125 
" style="fill:none;stroke:#55a868;stroke-linecap:round;stroke-width:1.4000000000000001;"/>
    </g>
    <g id="line2d_58"/>
    <g id="text_21">
     <!-- DRR003755 -->
     <g style="fill:#262626;" transform="translate(219.891590909 97.02125)scale(0.08 -0.08)">
      <use xlink:href="#BitstreamVeraSans-Roman-44"/>
      <use x="77.001953125" xlink:href="#BitstreamVeraSans-Roman-52"/>
      <use x="146.484375" xlink:href="#BitstreamVeraSans-Roman-52"/>
      <use x="215.966796875" xlink:href="#BitstreamVeraSans-Roman-30"/>
      <use x="279.58984375" xlink:href="#BitstreamVeraSans-Roman-30"/>
      <use x="343.212890625" xlink:href="#BitstreamVeraSans-Roman-33"/>
      <use x="406.8359375" xlink:href="#BitstreamVeraSans-Roman-37"/>
      <use x="470.458984375" xlink:href="#BitstreamVeraSans-Roman-35"/>
      <use x="534.08203125" xlink:href="#BitstreamVeraSans-Roman-35"/>
     </g>
    </g>
    <g id="line2d_59">
     <path d="M 197.491591 105.96375 
L 213.491591 105.96375 
" style="fill:none;stroke:#c44e52;stroke-linecap:round;stroke-width:1.4000000000000001;"/>
    </g>
    <g id="line2d_60"/>
    <g id="text_22">
     <!-- DRR003756 -->
     <g style="fill:#262626;" transform="translate(219.891590909 108.76375)scale(0.08 -0.08)">
      <use xlink:href="#BitstreamVeraSans-Roman-44"/>
      <use x="77.001953125" xlink:href="#BitstreamVeraSans-Roman-52"/>
      <use x="146.484375" xlink:href="#BitstreamVeraSans-Roman-52"/>
      <use x="215.966796875" xlink:href="#BitstreamVeraSans-Roman-30"/>
      <use x="279.58984375" xlink:href="#BitstreamVeraSans-Roman-30"/>
      <use x="343.212890625" xlink:href="#BitstreamVeraSans-Roman-33"/>
      <use x="406.8359375" xlink:href="#BitstreamVeraSans-Roman-37"/>
      <use x="470.458984375" xlink:href="#BitstreamVeraSans-Roman-35"/>
      <use x="534.08203125" xlink:href="#BitstreamVeraSans-Roman-36"/>
     </g>
    </g>
    <g id="line2d_61">
     <path d="M 197.491591 117.70625 
L 213.491591 117.70625 
" style="fill:none;stroke:#8172b2;stroke-linecap:round;stroke-width:1.4000000000000001;"/>
    </g>
    <g id="line2d_62"/>
    <g id="text_23">
     <!-- DRR003757 -->
     <g style="fill:#262626;" transform="translate(219.891590909 120.50625)scale(0.08 -0.08)">
      <use xlink:href="#BitstreamVeraSans-Roman-44"/>
      <use x="77.001953125" xlink:href="#BitstreamVeraSans-Roman-52"/>
      <use x="146.484375" xlink:href="#BitstreamVeraSans-Roman-52"/>
      <use x="215.966796875" xlink:href="#BitstreamVeraSans-Roman-30"/>
      <use x="279.58984375" xlink:href="#BitstreamVeraSans-Roman-30"/>
      <use x="343.212890625" xlink:href="#BitstreamVeraSans-Roman-33"/>
      <use x="406.8359375" xlink:href="#BitstreamVeraSans-Roman-37"/>
      <use x="470.458984375" xlink:href="#BitstreamVeraSans-Roman-35"/>
      <use x="534.08203125" xlink:href="#BitstreamVeraSans-Roman-37"/>
     </g>
    </g>
    <g id="line2d_63">
     <path d="M 197.491591 129.44875 
L 213.491591 129.44875 
" style="fill:none;stroke:#ccb974;stroke-linecap:round;stroke-width:1.4000000000000001;"/>
    </g>
    <g id="line2d_64"/>
    <g id="text_24">
     <!-- DRR003758 -->
     <g style="fill:#262626;" transform="translate(219.891590909 132.24875)scale(0.08 -0.08)">
      <use xlink:href="#BitstreamVeraSans-Roman-44"/>
      <use x="77.001953125" xlink:href="#BitstreamVeraSans-Roman-52"/>
      <use x="146.484375" xlink:href="#BitstreamVeraSans-Roman-52"/>
      <use x="215.966796875" xlink:href="#BitstreamVeraSans-Roman-30"/>
      <use x="279.58984375" xlink:href="#BitstreamVeraSans-Roman-30"/>
      <use x="343.212890625" xlink:href="#BitstreamVeraSans-Roman-33"/>
      <use x="406.8359375" xlink:href="#BitstreamVeraSans-Roman-37"/>
      <use x="470.458984375" xlink:href="#BitstreamVeraSans-Roman-35"/>
      <use x="534.08203125" xlink:href="#BitstreamVeraSans-Roman-38"/>
     </g>
    </g>
    <g id="line2d_65">
     <path d="M 197.491591 141.19125 
L 213.491591 141.19125 
" style="fill:none;stroke:#64b5cd;stroke-linecap:round;stroke-width:1.4000000000000001;"/>
    </g>
    <g id="line2d_66"/>
    <g id="text_25">
     <!-- DRR003759 -->
     <g style="fill:#262626;" transform="translate(219.891590909 143.99125)scale(0.08 -0.08)">
      <use xlink:href="#BitstreamVeraSans-Roman-44"/>
      <use x="77.001953125" xlink:href="#BitstreamVeraSans-Roman-52"/>
      <use x="146.484375" xlink:href="#BitstreamVeraSans-Roman-52"/>
      <use x="215.966796875" xlink:href="#BitstreamVeraSans-Roman-30"/>
      <use x="279.58984375" xlink:href="#BitstreamVeraSans-Roman-30"/>
      <use x="343.212890625" xlink:href="#BitstreamVeraSans-Roman-33"/>
      <use x="406.8359375" xlink:href="#BitstreamVeraSans-Roman-37"/>
      <use x="470.458984375" xlink:href="#BitstreamVeraSans-Roman-35"/>
      <use x="534.08203125" xlink:href="#BitstreamVeraSans-Roman-39"/>
     </g>
    </g>
   </g>
  </g>
  <g id="text_26">
   <!-- GC Proportion KDE of Kodama Read -->
   <defs>
    <path d="M 9.8125 72.90625 
L 55.90625 72.90625 
L 55.90625 64.59375 
L 19.671875 64.59375 
L 19.671875 43.015625 
L 54.390625 43.015625 
L 54.390625 34.71875 
L 19.671875 34.71875 
L 19.671875 8.296875 
L 56.78125 8.296875 
L 56.78125 0 
L 9.8125 0 
z
" id="BitstreamVeraSans-Roman-45"/>
    <path d="M 37.109375 75.984375 
L 37.109375 68.5 
L 28.515625 68.5 
Q 23.6875 68.5 21.796875 66.546875 
Q 19.921875 64.59375 19.921875 59.515625 
L 19.921875 54.6875 
L 34.71875 54.6875 
L 34.71875 47.703125 
L 19.921875 47.703125 
L 19.921875 0 
L 10.890625 0 
L 10.890625 47.703125 
L 2.296875 47.703125 
L 2.296875 54.6875 
L 10.890625 54.6875 
L 10.890625 58.5 
Q 10.890625 67.625 15.140625 71.796875 
Q 19.390625 75.984375 28.609375 75.984375 
z
" id="BitstreamVeraSans-Roman-66"/>
   </defs>
   <g style="fill:#262626;" transform="translate(198.29453125 21.9984375)scale(0.1 -0.1)">
    <use xlink:href="#BitstreamVeraSans-Roman-47"/>
    <use x="77.490234375" xlink:href="#BitstreamVeraSans-Roman-43"/>
    <use x="147.314453125" xlink:href="#BitstreamVeraSans-Roman-20"/>
    <use x="179.1015625" xlink:href="#BitstreamVeraSans-Roman-50"/>
    <use x="239.388671875" xlink:href="#BitstreamVeraSans-Roman-72"/>
    <use x="280.470703125" xlink:href="#BitstreamVeraSans-Roman-6f"/>
    <use x="341.65234375" xlink:href="#BitstreamVeraSans-Roman-70"/>
    <use x="405.12890625" xlink:href="#BitstreamVeraSans-Roman-6f"/>
    <use x="466.310546875" xlink:href="#BitstreamVeraSans-Roman-72"/>
    <use x="507.423828125" xlink:href="#BitstreamVeraSans-Roman-74"/>
    <use x="546.6328125" xlink:href="#BitstreamVeraSans-Roman-69"/>
    <use x="574.416015625" xlink:href="#BitstreamVeraSans-Roman-6f"/>
    <use x="635.59765625" xlink:href="#BitstreamVeraSans-Roman-6e"/>
    <use x="698.9765625" xlink:href="#BitstreamVeraSans-Roman-20"/>
    <use x="730.763671875" xlink:href="#BitstreamVeraSans-Roman-4b"/>
    <use x="796.33984375" xlink:href="#BitstreamVeraSans-Roman-44"/>
    <use x="873.341796875" xlink:href="#BitstreamVeraSans-Roman-45"/>
    <use x="936.525390625" xlink:href="#BitstreamVeraSans-Roman-20"/>
    <use x="968.3125" xlink:href="#BitstreamVeraSans-Roman-6f"/>
    <use x="1029.494140625" xlink:href="#BitstreamVeraSans-Roman-66"/>
    <use x="1064.69921875" xlink:href="#BitstreamVeraSans-Roman-20"/>
    <use x="1096.486328125" xlink:href="#BitstreamVeraSans-Roman-4b"/>
    <use x="1161.984375" xlink:href="#BitstreamVeraSans-Roman-6f"/>
    <use x="1223.166015625" xlink:href="#BitstreamVeraSans-Roman-64"/>
    <use x="1286.642578125" xlink:href="#BitstreamVeraSans-Roman-61"/>
    <use x="1347.921875" xlink:href="#BitstreamVeraSans-Roman-6d"/>
    <use x="1445.333984375" xlink:href="#BitstreamVeraSans-Roman-61"/>
    <use x="1506.61328125" xlink:href="#BitstreamVeraSans-Roman-20"/>
    <use x="1538.400390625" xlink:href="#BitstreamVeraSans-Roman-52"/>
    <use x="1607.8203125" xlink:href="#BitstreamVeraSans-Roman-65"/>
    <use x="1669.34375" xlink:href="#BitstreamVeraSans-Roman-61"/>
    <use x="1730.623046875" xlink:href="#BitstreamVeraSans-Roman-64"/>
   </g>
  </g>
 </g>
 <defs>
  <clipPath id="p87224027fa">
   <rect height="121.304347826" width="202.909090909" x="72.0" y="72.0"/>
  </clipPath>
 </defs>
</svg>
