<?xml version="1.0" encoding="utf-8" standalone="no"?>
<!DOCTYPE svg PUBLIC "-//W3C//DTD SVG 1.1//EN"
  "http://www.w3.org/Graphics/SVG/1.1/DTD/svg11.dtd">
<!-- Created with matplotlib (http://matplotlib.org/) -->
<svg height="316pt" version="1.1" viewBox="0 0 460 316" width="460pt" xmlns="http://www.w3.org/2000/svg" xmlns:xlink="http://www.w3.org/1999/xlink">
 <defs>
  <style type="text/css">
*{stroke-linecap:butt;stroke-linejoin:round;stroke-miterlimit:100000;}
  </style>
 </defs>
 <g id="figure_1">
  <g id="patch_1">
   <path d="M 0 316.8 
L 460.8 316.8 
L 460.8 0 
L 0 0 
z
" style="fill:#ffffff;"/>
  </g>
  <g id="axes_1">
   <g id="patch_2">
    <path d="M 57.6 277.2 
L 414.72 277.2 
L 414.72 31.68 
L 57.6 31.68 
z
" style="fill:#eaeaf2;"/>
   </g>
   <g id="matplotlib.axis_1">
    <g id="xtick_1">
     <g id="line2d_1">
      <defs>
       <path d="M 0 0 
L 0 0 
" id="m33038fca66" style="stroke:#262626;stroke-width:0.8;"/>
      </defs>
      <g>
       <use style="fill:#262626;stroke:#262626;stroke-width:0.8;" x="73.8327272727" xlink:href="#m33038fca66" y="277.2"/>
      </g>
     </g>
     <g id="line2d_2">
      <g>
       <use style="fill:#262626;stroke:#262626;stroke-width:0.8;" x="73.8327272727" xlink:href="#m33038fca66" y="31.68"/>
      </g>
     </g>
     <g id="text_1">
      <!-- K-Neighbours -->
      <defs>
       <path d="M 9.421875 54.6875 
L 18.40625 54.6875 
L 18.40625 0 
L 9.421875 0 
z
M 9.421875 75.984375 
L 18.40625 75.984375 
L 18.40625 64.59375 
L 9.421875 64.59375 
z
" id="BitstreamVeraSans-Roman-69"/>
       <path d="M 8.5 21.578125 
L 8.5 54.6875 
L 17.484375 54.6875 
L 17.484375 21.921875 
Q 17.484375 14.15625 20.5 10.265625 
Q 23.53125 6.390625 29.59375 6.390625 
Q 36.859375 6.390625 41.078125 11.03125 
Q 45.3125 15.671875 45.3125 23.6875 
L 45.3125 54.6875 
L 54.296875 54.6875 
L 54.296875 0 
L 45.3125 0 
L 45.3125 8.40625 
Q 42.046875 3.421875 37.71875 1 
Q 33.40625 -1.421875 27.6875 -1.421875 
Q 18.265625 -1.421875 13.375 4.4375 
Q 8.5 10.296875 8.5 21.578125 
" id="BitstreamVeraSans-Roman-75"/>
       <path d="M 30.609375 48.390625 
Q 23.390625 48.390625 19.1875 42.75 
Q 14.984375 37.109375 14.984375 27.296875 
Q 14.984375 17.484375 19.15625 11.84375 
Q 23.34375 6.203125 30.609375 6.203125 
Q 37.796875 6.203125 41.984375 11.859375 
Q 46.1875 17.53125 46.1875 27.296875 
Q 46.1875 37.015625 41.984375 42.703125 
Q 37.796875 48.390625 30.609375 48.390625 
M 30.609375 56 
Q 42.328125 56 49.015625 48.375 
Q 55.71875 40.765625 55.71875 27.296875 
Q 55.71875 13.875 49.015625 6.21875 
Q 42.328125 -1.421875 30.609375 -1.421875 
Q 18.84375 -1.421875 12.171875 6.21875 
Q 5.515625 13.875 5.515625 27.296875 
Q 5.515625 40.765625 12.171875 48.375 
Q 18.84375 56 30.609375 56 
" id="BitstreamVeraSans-Roman-6f"/>
       <path d="M 54.890625 33.015625 
L 54.890625 0 
L 45.90625 0 
L 45.90625 32.71875 
Q 45.90625 40.484375 42.875 44.328125 
Q 39.84375 48.1875 33.796875 48.1875 
Q 26.515625 48.1875 22.3125 43.546875 
Q 18.109375 38.921875 18.109375 30.90625 
L 18.109375 0 
L 9.078125 0 
L 9.078125 75.984375 
L 18.109375 75.984375 
L 18.109375 46.1875 
Q 21.34375 51.125 25.703125 53.5625 
Q 30.078125 56 35.796875 56 
Q 45.21875 56 50.046875 50.171875 
Q 54.890625 44.34375 54.890625 33.015625 
" id="BitstreamVeraSans-Roman-68"/>
       <path d="M 4.890625 31.390625 
L 31.203125 31.390625 
L 31.203125 23.390625 
L 4.890625 23.390625 
z
" id="BitstreamVeraSans-Roman-2d"/>
       <path d="M 56.203125 29.59375 
L 56.203125 25.203125 
L 14.890625 25.203125 
Q 15.484375 15.921875 20.484375 11.0625 
Q 25.484375 6.203125 34.421875 6.203125 
Q 39.59375 6.203125 44.453125 7.46875 
Q 49.3125 8.734375 54.109375 11.28125 
L 54.109375 2.78125 
Q 49.265625 0.734375 44.1875 -0.34375 
Q 39.109375 -1.421875 33.890625 -1.421875 
Q 20.796875 -1.421875 13.15625 6.1875 
Q 5.515625 13.8125 5.515625 26.8125 
Q 5.515625 40.234375 12.765625 48.109375 
Q 20.015625 56 32.328125 56 
Q 43.359375 56 49.78125 48.890625 
Q 56.203125 41.796875 56.203125 29.59375 
M 47.21875 32.234375 
Q 47.125 39.59375 43.09375 43.984375 
Q 39.0625 48.390625 32.421875 48.390625 
Q 24.90625 48.390625 20.390625 44.140625 
Q 15.875 39.890625 15.1875 32.171875 
z
" id="BitstreamVeraSans-Roman-65"/>
       <path d="M 41.109375 46.296875 
Q 39.59375 47.171875 37.8125 47.578125 
Q 36.03125 48 33.890625 48 
Q 26.265625 48 22.1875 43.046875 
Q 18.109375 38.09375 18.109375 28.8125 
L 18.109375 0 
L 9.078125 0 
L 9.078125 54.6875 
L 18.109375 54.6875 
L 18.109375 46.1875 
Q 20.953125 51.171875 25.484375 53.578125 
Q 30.03125 56 36.53125 56 
Q 37.453125 56 38.578125 55.875 
Q 39.703125 55.765625 41.0625 55.515625 
z
" id="BitstreamVeraSans-Roman-72"/>
       <path d="M 45.40625 27.984375 
Q 45.40625 37.75 41.375 43.109375 
Q 37.359375 48.484375 30.078125 48.484375 
Q 22.859375 48.484375 18.828125 43.109375 
Q 14.796875 37.75 14.796875 27.984375 
Q 14.796875 18.265625 18.828125 12.890625 
Q 22.859375 7.515625 30.078125 7.515625 
Q 37.359375 7.515625 41.375 12.890625 
Q 45.40625 18.265625 45.40625 27.984375 
M 54.390625 6.78125 
Q 54.390625 -7.171875 48.1875 -13.984375 
Q 42 -20.796875 29.203125 -20.796875 
Q 24.46875 -20.796875 20.265625 -20.09375 
Q 16.0625 -19.390625 12.109375 -17.921875 
L 12.109375 -9.1875 
Q 16.0625 -11.328125 19.921875 -12.34375 
Q 23.78125 -13.375 27.78125 -13.375 
Q 36.625 -13.375 41.015625 -8.765625 
Q 45.40625 -4.15625 45.40625 5.171875 
L 45.40625 9.625 
Q 42.625 4.78125 38.28125 2.390625 
Q 33.9375 0 27.875 0 
Q 17.828125 0 11.671875 7.65625 
Q 5.515625 15.328125 5.515625 27.984375 
Q 5.515625 40.671875 11.671875 48.328125 
Q 17.828125 56 27.875 56 
Q 33.9375 56 38.28125 53.609375 
Q 42.625 51.21875 45.40625 46.390625 
L 45.40625 54.6875 
L 54.390625 54.6875 
z
" id="BitstreamVeraSans-Roman-67"/>
       <path d="M 9.8125 72.90625 
L 19.671875 72.90625 
L 19.671875 42.09375 
L 52.390625 72.90625 
L 65.09375 72.90625 
L 28.90625 38.921875 
L 67.671875 0 
L 54.6875 0 
L 19.671875 35.109375 
L 19.671875 0 
L 9.8125 0 
z
" id="BitstreamVeraSans-Roman-4b"/>
       <path d="M 44.28125 53.078125 
L 44.28125 44.578125 
Q 40.484375 46.53125 36.375 47.5 
Q 32.28125 48.484375 27.875 48.484375 
Q 21.1875 48.484375 17.84375 46.4375 
Q 14.5 44.390625 14.5 40.28125 
Q 14.5 37.15625 16.890625 35.375 
Q 19.28125 33.59375 26.515625 31.984375 
L 29.59375 31.296875 
Q 39.15625 29.25 43.1875 25.515625 
Q 47.21875 21.78125 47.21875 15.09375 
Q 47.21875 7.46875 41.1875 3.015625 
Q 35.15625 -1.421875 24.609375 -1.421875 
Q 20.21875 -1.421875 15.453125 -0.5625 
Q 10.6875 0.296875 5.421875 2 
L 5.421875 11.28125 
Q 10.40625 8.6875 15.234375 7.390625 
Q 20.0625 6.109375 24.8125 6.109375 
Q 31.15625 6.109375 34.5625 8.28125 
Q 37.984375 10.453125 37.984375 14.40625 
Q 37.984375 18.0625 35.515625 20.015625 
Q 33.0625 21.96875 24.703125 23.78125 
L 21.578125 24.515625 
Q 13.234375 26.265625 9.515625 29.90625 
Q 5.8125 33.546875 5.8125 39.890625 
Q 5.8125 47.609375 11.28125 51.796875 
Q 16.75 56 26.8125 56 
Q 31.78125 56 36.171875 55.265625 
Q 40.578125 54.546875 44.28125 53.078125 
" id="BitstreamVeraSans-Roman-73"/>
       <path d="M 9.8125 72.90625 
L 23.09375 72.90625 
L 55.421875 11.921875 
L 55.421875 72.90625 
L 64.984375 72.90625 
L 64.984375 0 
L 51.703125 0 
L 19.390625 60.984375 
L 19.390625 0 
L 9.8125 0 
z
" id="BitstreamVeraSans-Roman-4e"/>
       <path d="M 48.6875 27.296875 
Q 48.6875 37.203125 44.609375 42.84375 
Q 40.53125 48.484375 33.40625 48.484375 
Q 26.265625 48.484375 22.1875 42.84375 
Q 18.109375 37.203125 18.109375 27.296875 
Q 18.109375 17.390625 22.1875 11.75 
Q 26.265625 6.109375 33.40625 6.109375 
Q 40.53125 6.109375 44.609375 11.75 
Q 48.6875 17.390625 48.6875 27.296875 
M 18.109375 46.390625 
Q 20.953125 51.265625 25.265625 53.625 
Q 29.59375 56 35.59375 56 
Q 45.5625 56 51.78125 48.09375 
Q 58.015625 40.1875 58.015625 27.296875 
Q 58.015625 14.40625 51.78125 6.484375 
Q 45.5625 -1.421875 35.59375 -1.421875 
Q 29.59375 -1.421875 25.265625 0.953125 
Q 20.953125 3.328125 18.109375 8.203125 
L 18.109375 0 
L 9.078125 0 
L 9.078125 75.984375 
L 18.109375 75.984375 
z
" id="BitstreamVeraSans-Roman-62"/>
      </defs>
      <g style="fill:#262626;" transform="translate(76.0402272727 336.69875)rotate(-90.0)scale(0.08 -0.08)">
       <use xlink:href="#BitstreamVeraSans-Roman-4b"/>
       <use x="65.419921875" xlink:href="#BitstreamVeraSans-Roman-2d"/>
       <use x="101.50390625" xlink:href="#BitstreamVeraSans-Roman-4e"/>
       <use x="176.30859375" xlink:href="#BitstreamVeraSans-Roman-65"/>
       <use x="237.83203125" xlink:href="#BitstreamVeraSans-Roman-69"/>
       <use x="265.615234375" xlink:href="#BitstreamVeraSans-Roman-67"/>
       <use x="329.091796875" xlink:href="#BitstreamVeraSans-Roman-68"/>
       <use x="392.470703125" xlink:href="#BitstreamVeraSans-Roman-62"/>
       <use x="455.947265625" xlink:href="#BitstreamVeraSans-Roman-6f"/>
       <use x="517.12890625" xlink:href="#BitstreamVeraSans-Roman-75"/>
       <use x="580.5078125" xlink:href="#BitstreamVeraSans-Roman-72"/>
       <use x="621.62109375" xlink:href="#BitstreamVeraSans-Roman-73"/>
      </g>
     </g>
    </g>
    <g id="xtick_2">
     <g id="line2d_3">
      <g>
       <use style="fill:#262626;stroke:#262626;stroke-width:0.8;" x="106.298181818" xlink:href="#m33038fca66" y="277.2"/>
      </g>
     </g>
     <g id="line2d_4">
      <g>
       <use style="fill:#262626;stroke:#262626;stroke-width:0.8;" x="106.298181818" xlink:href="#m33038fca66" y="31.68"/>
      </g>
     </g>
     <g id="text_2">
      <!-- Logistic Regression -->
      <defs>
       <path d="M 48.78125 52.59375 
L 48.78125 44.1875 
Q 44.96875 46.296875 41.140625 47.34375 
Q 37.3125 48.390625 33.40625 48.390625 
Q 24.65625 48.390625 19.8125 42.84375 
Q 14.984375 37.3125 14.984375 27.296875 
Q 14.984375 17.28125 19.8125 11.734375 
Q 24.65625 6.203125 33.40625 6.203125 
Q 37.3125 6.203125 41.140625 7.25 
Q 44.96875 8.296875 48.78125 10.40625 
L 48.78125 2.09375 
Q 45.015625 0.34375 40.984375 -0.53125 
Q 36.96875 -1.421875 32.421875 -1.421875 
Q 20.0625 -1.421875 12.78125 6.34375 
Q 5.515625 14.109375 5.515625 27.296875 
Q 5.515625 40.671875 12.859375 48.328125 
Q 20.21875 56 33.015625 56 
Q 37.15625 56 41.109375 55.140625 
Q 45.0625 54.296875 48.78125 52.59375 
" id="BitstreamVeraSans-Roman-63"/>
       <path d="M 18.3125 70.21875 
L 18.3125 54.6875 
L 36.8125 54.6875 
L 36.8125 47.703125 
L 18.3125 47.703125 
L 18.3125 18.015625 
Q 18.3125 11.328125 20.140625 9.421875 
Q 21.96875 7.515625 27.59375 7.515625 
L 36.8125 7.515625 
L 36.8125 0 
L 27.59375 0 
Q 17.1875 0 13.234375 3.875 
Q 9.28125 7.765625 9.28125 18.015625 
L 9.28125 47.703125 
L 2.6875 47.703125 
L 2.6875 54.6875 
L 9.28125 54.6875 
L 9.28125 70.21875 
z
" id="BitstreamVeraSans-Roman-74"/>
       <path d="M 54.890625 33.015625 
L 54.890625 0 
L 45.90625 0 
L 45.90625 32.71875 
Q 45.90625 40.484375 42.875 44.328125 
Q 39.84375 48.1875 33.796875 48.1875 
Q 26.515625 48.1875 22.3125 43.546875 
Q 18.109375 38.921875 18.109375 30.90625 
L 18.109375 0 
L 9.078125 0 
L 9.078125 54.6875 
L 18.109375 54.6875 
L 18.109375 46.1875 
Q 21.34375 51.125 25.703125 53.5625 
Q 30.078125 56 35.796875 56 
Q 45.21875 56 50.046875 50.171875 
Q 54.890625 44.34375 54.890625 33.015625 
" id="BitstreamVeraSans-Roman-6e"/>
       <path d="M 9.8125 72.90625 
L 19.671875 72.90625 
L 19.671875 8.296875 
L 55.171875 8.296875 
L 55.171875 0 
L 9.8125 0 
z
" id="BitstreamVeraSans-Roman-4c"/>
       <path d="M 44.390625 34.1875 
Q 47.5625 33.109375 50.5625 29.59375 
Q 53.5625 26.078125 56.59375 19.921875 
L 66.609375 0 
L 56 0 
L 46.6875 18.703125 
Q 43.0625 26.03125 39.671875 28.421875 
Q 36.28125 30.8125 30.421875 30.8125 
L 19.671875 30.8125 
L 19.671875 0 
L 9.8125 0 
L 9.8125 72.90625 
L 32.078125 72.90625 
Q 44.578125 72.90625 50.734375 67.671875 
Q 56.890625 62.453125 56.890625 51.90625 
Q 56.890625 45.015625 53.6875 40.46875 
Q 50.484375 35.9375 44.390625 34.1875 
M 19.671875 64.796875 
L 19.671875 38.921875 
L 32.078125 38.921875 
Q 39.203125 38.921875 42.84375 42.21875 
Q 46.484375 45.515625 46.484375 51.90625 
Q 46.484375 58.296875 42.84375 61.546875 
Q 39.203125 64.796875 32.078125 64.796875 
z
" id="BitstreamVeraSans-Roman-52"/>
       <path id="BitstreamVeraSans-Roman-20"/>
      </defs>
      <g style="fill:#262626;" transform="translate(108.505681818 360.20625)rotate(-90.0)scale(0.08 -0.08)">
       <use xlink:href="#BitstreamVeraSans-Roman-4c"/>
       <use x="55.697265625" xlink:href="#BitstreamVeraSans-Roman-6f"/>
       <use x="116.87890625" xlink:href="#BitstreamVeraSans-Roman-67"/>
       <use x="180.35546875" xlink:href="#BitstreamVeraSans-Roman-69"/>
       <use x="208.138671875" xlink:href="#BitstreamVeraSans-Roman-73"/>
       <use x="260.23828125" xlink:href="#BitstreamVeraSans-Roman-74"/>
       <use x="299.447265625" xlink:href="#BitstreamVeraSans-Roman-69"/>
       <use x="327.23046875" xlink:href="#BitstreamVeraSans-Roman-63"/>
       <use x="382.2109375" xlink:href="#BitstreamVeraSans-Roman-20"/>
       <use x="413.998046875" xlink:href="#BitstreamVeraSans-Roman-52"/>
       <use x="483.41796875" xlink:href="#BitstreamVeraSans-Roman-65"/>
       <use x="544.94140625" xlink:href="#BitstreamVeraSans-Roman-67"/>
       <use x="608.41796875" xlink:href="#BitstreamVeraSans-Roman-72"/>
       <use x="649.5" xlink:href="#BitstreamVeraSans-Roman-65"/>
       <use x="711.0234375" xlink:href="#BitstreamVeraSans-Roman-73"/>
       <use x="763.123046875" xlink:href="#BitstreamVeraSans-Roman-73"/>
       <use x="815.22265625" xlink:href="#BitstreamVeraSans-Roman-69"/>
       <use x="843.005859375" xlink:href="#BitstreamVeraSans-Roman-6f"/>
       <use x="904.1875" xlink:href="#BitstreamVeraSans-Roman-6e"/>
      </g>
     </g>
    </g>
    <g id="xtick_3">
     <g id="line2d_5">
      <g>
       <use style="fill:#262626;stroke:#262626;stroke-width:0.8;" x="138.763636364" xlink:href="#m33038fca66" y="277.2"/>
      </g>
     </g>
     <g id="line2d_6">
      <g>
       <use style="fill:#262626;stroke:#262626;stroke-width:0.8;" x="138.763636364" xlink:href="#m33038fca66" y="31.68"/>
      </g>
     </g>
     <g id="text_3">
      <!-- Linear SVM -->
      <defs>
       <path d="M 9.8125 72.90625 
L 24.515625 72.90625 
L 43.109375 23.296875 
L 61.8125 72.90625 
L 76.515625 72.90625 
L 76.515625 0 
L 66.890625 0 
L 66.890625 64.015625 
L 48.09375 14.015625 
L 38.1875 14.015625 
L 19.390625 64.015625 
L 19.390625 0 
L 9.8125 0 
z
" id="BitstreamVeraSans-Roman-4d"/>
       <path d="M 53.515625 70.515625 
L 53.515625 60.890625 
Q 47.90625 63.578125 42.921875 64.890625 
Q 37.9375 66.21875 33.296875 66.21875 
Q 25.25 66.21875 20.875 63.09375 
Q 16.5 59.96875 16.5 54.203125 
Q 16.5 49.359375 19.40625 46.890625 
Q 22.3125 44.4375 30.421875 42.921875 
L 36.375 41.703125 
Q 47.40625 39.59375 52.65625 34.296875 
Q 57.90625 29 57.90625 20.125 
Q 57.90625 9.515625 50.796875 4.046875 
Q 43.703125 -1.421875 29.984375 -1.421875 
Q 24.8125 -1.421875 18.96875 -0.25 
Q 13.140625 0.921875 6.890625 3.21875 
L 6.890625 13.375 
Q 12.890625 10.015625 18.65625 8.296875 
Q 24.421875 6.59375 29.984375 6.59375 
Q 38.421875 6.59375 43.015625 9.90625 
Q 47.609375 13.234375 47.609375 19.390625 
Q 47.609375 24.75 44.3125 27.78125 
Q 41.015625 30.8125 33.5 32.328125 
L 27.484375 33.5 
Q 16.453125 35.6875 11.515625 40.375 
Q 6.59375 45.0625 6.59375 53.421875 
Q 6.59375 63.09375 13.40625 68.65625 
Q 20.21875 74.21875 32.171875 74.21875 
Q 37.3125 74.21875 42.625 73.28125 
Q 47.953125 72.359375 53.515625 70.515625 
" id="BitstreamVeraSans-Roman-53"/>
       <path d="M 34.28125 27.484375 
Q 23.390625 27.484375 19.1875 25 
Q 14.984375 22.515625 14.984375 16.5 
Q 14.984375 11.71875 18.140625 8.90625 
Q 21.296875 6.109375 26.703125 6.109375 
Q 34.1875 6.109375 38.703125 11.40625 
Q 43.21875 16.703125 43.21875 25.484375 
L 43.21875 27.484375 
z
M 52.203125 31.203125 
L 52.203125 0 
L 43.21875 0 
L 43.21875 8.296875 
Q 40.140625 3.328125 35.546875 0.953125 
Q 30.953125 -1.421875 24.3125 -1.421875 
Q 15.921875 -1.421875 10.953125 3.296875 
Q 6 8.015625 6 15.921875 
Q 6 25.140625 12.171875 29.828125 
Q 18.359375 34.515625 30.609375 34.515625 
L 43.21875 34.515625 
L 43.21875 35.40625 
Q 43.21875 41.609375 39.140625 45 
Q 35.0625 48.390625 27.6875 48.390625 
Q 23 48.390625 18.546875 47.265625 
Q 14.109375 46.140625 10.015625 43.890625 
L 10.015625 52.203125 
Q 14.9375 54.109375 19.578125 55.046875 
Q 24.21875 56 28.609375 56 
Q 40.484375 56 46.34375 49.84375 
Q 52.203125 43.703125 52.203125 31.203125 
" id="BitstreamVeraSans-Roman-61"/>
       <path d="M 28.609375 0 
L 0.78125 72.90625 
L 11.078125 72.90625 
L 34.1875 11.53125 
L 57.328125 72.90625 
L 67.578125 72.90625 
L 39.796875 0 
z
" id="BitstreamVeraSans-Roman-56"/>
      </defs>
      <g style="fill:#262626;" transform="translate(140.971136364 327.66)rotate(-90.0)scale(0.08 -0.08)">
       <use xlink:href="#BitstreamVeraSans-Roman-4c"/>
       <use x="55.712890625" xlink:href="#BitstreamVeraSans-Roman-69"/>
       <use x="83.49609375" xlink:href="#BitstreamVeraSans-Roman-6e"/>
       <use x="146.875" xlink:href="#BitstreamVeraSans-Roman-65"/>
       <use x="208.3984375" xlink:href="#BitstreamVeraSans-Roman-61"/>
       <use x="269.677734375" xlink:href="#BitstreamVeraSans-Roman-72"/>
       <use x="310.791015625" xlink:href="#BitstreamVeraSans-Roman-20"/>
       <use x="342.578125" xlink:href="#BitstreamVeraSans-Roman-53"/>
       <use x="406.0546875" xlink:href="#BitstreamVeraSans-Roman-56"/>
       <use x="474.462890625" xlink:href="#BitstreamVeraSans-Roman-4d"/>
      </g>
     </g>
    </g>
    <g id="xtick_4">
     <g id="line2d_7">
      <g>
       <use style="fill:#262626;stroke:#262626;stroke-width:0.8;" x="171.229090909" xlink:href="#m33038fca66" y="277.2"/>
      </g>
     </g>
     <g id="line2d_8">
      <g>
       <use style="fill:#262626;stroke:#262626;stroke-width:0.8;" x="171.229090909" xlink:href="#m33038fca66" y="31.68"/>
      </g>
     </g>
     <g id="text_4">
      <!-- Random Forest -->
      <defs>
       <path d="M 9.8125 72.90625 
L 51.703125 72.90625 
L 51.703125 64.59375 
L 19.671875 64.59375 
L 19.671875 43.109375 
L 48.578125 43.109375 
L 48.578125 34.8125 
L 19.671875 34.8125 
L 19.671875 0 
L 9.8125 0 
z
" id="BitstreamVeraSans-Roman-46"/>
       <path d="M 45.40625 46.390625 
L 45.40625 75.984375 
L 54.390625 75.984375 
L 54.390625 0 
L 45.40625 0 
L 45.40625 8.203125 
Q 42.578125 3.328125 38.25 0.953125 
Q 33.9375 -1.421875 27.875 -1.421875 
Q 17.96875 -1.421875 11.734375 6.484375 
Q 5.515625 14.40625 5.515625 27.296875 
Q 5.515625 40.1875 11.734375 48.09375 
Q 17.96875 56 27.875 56 
Q 33.9375 56 38.25 53.625 
Q 42.578125 51.265625 45.40625 46.390625 
M 14.796875 27.296875 
Q 14.796875 17.390625 18.875 11.75 
Q 22.953125 6.109375 30.078125 6.109375 
Q 37.203125 6.109375 41.296875 11.75 
Q 45.40625 17.390625 45.40625 27.296875 
Q 45.40625 37.203125 41.296875 42.84375 
Q 37.203125 48.484375 30.078125 48.484375 
Q 22.953125 48.484375 18.875 42.84375 
Q 14.796875 37.203125 14.796875 27.296875 
" id="BitstreamVeraSans-Roman-64"/>
       <path d="M 52 44.1875 
Q 55.375 50.25 60.0625 53.125 
Q 64.75 56 71.09375 56 
Q 79.640625 56 84.28125 50.015625 
Q 88.921875 44.046875 88.921875 33.015625 
L 88.921875 0 
L 79.890625 0 
L 79.890625 32.71875 
Q 79.890625 40.578125 77.09375 44.375 
Q 74.3125 48.1875 68.609375 48.1875 
Q 61.625 48.1875 57.5625 43.546875 
Q 53.515625 38.921875 53.515625 30.90625 
L 53.515625 0 
L 44.484375 0 
L 44.484375 32.71875 
Q 44.484375 40.625 41.703125 44.40625 
Q 38.921875 48.1875 33.109375 48.1875 
Q 26.21875 48.1875 22.15625 43.53125 
Q 18.109375 38.875 18.109375 30.90625 
L 18.109375 0 
L 9.078125 0 
L 9.078125 54.6875 
L 18.109375 54.6875 
L 18.109375 46.1875 
Q 21.1875 51.21875 25.484375 53.609375 
Q 29.78125 56 35.6875 56 
Q 41.65625 56 45.828125 52.96875 
Q 50 49.953125 52 44.1875 
" id="BitstreamVeraSans-Roman-6d"/>
      </defs>
      <g style="fill:#262626;" transform="translate(173.436590909 343.6425)rotate(-90.0)scale(0.08 -0.08)">
       <use xlink:href="#BitstreamVeraSans-Roman-52"/>
       <use x="69.451171875" xlink:href="#BitstreamVeraSans-Roman-61"/>
       <use x="130.73046875" xlink:href="#BitstreamVeraSans-Roman-6e"/>
       <use x="194.109375" xlink:href="#BitstreamVeraSans-Roman-64"/>
       <use x="257.5859375" xlink:href="#BitstreamVeraSans-Roman-6f"/>
       <use x="318.767578125" xlink:href="#BitstreamVeraSans-Roman-6d"/>
       <use x="416.1796875" xlink:href="#BitstreamVeraSans-Roman-20"/>
       <use x="447.966796875" xlink:href="#BitstreamVeraSans-Roman-46"/>
       <use x="505.439453125" xlink:href="#BitstreamVeraSans-Roman-6f"/>
       <use x="566.62109375" xlink:href="#BitstreamVeraSans-Roman-72"/>
       <use x="607.703125" xlink:href="#BitstreamVeraSans-Roman-65"/>
       <use x="669.2265625" xlink:href="#BitstreamVeraSans-Roman-73"/>
       <use x="721.326171875" xlink:href="#BitstreamVeraSans-Roman-74"/>
      </g>
     </g>
    </g>
    <g id="xtick_5">
     <g id="line2d_9">
      <g>
       <use style="fill:#262626;stroke:#262626;stroke-width:0.8;" x="203.694545455" xlink:href="#m33038fca66" y="277.2"/>
      </g>
     </g>
     <g id="line2d_10">
      <g>
       <use style="fill:#262626;stroke:#262626;stroke-width:0.8;" x="203.694545455" xlink:href="#m33038fca66" y="31.68"/>
      </g>
     </g>
     <g id="text_5">
      <!-- Decision Tree -->
      <defs>
       <path d="M 19.671875 64.796875 
L 19.671875 8.109375 
L 31.59375 8.109375 
Q 46.6875 8.109375 53.6875 14.9375 
Q 60.6875 21.78125 60.6875 36.53125 
Q 60.6875 51.171875 53.6875 57.984375 
Q 46.6875 64.796875 31.59375 64.796875 
z
M 9.8125 72.90625 
L 30.078125 72.90625 
Q 51.265625 72.90625 61.171875 64.09375 
Q 71.09375 55.28125 71.09375 36.53125 
Q 71.09375 17.671875 61.125 8.828125 
Q 51.171875 0 30.078125 0 
L 9.8125 0 
z
" id="BitstreamVeraSans-Roman-44"/>
       <path d="M -0.296875 72.90625 
L 61.375 72.90625 
L 61.375 64.59375 
L 35.5 64.59375 
L 35.5 0 
L 25.59375 0 
L 25.59375 64.59375 
L -0.296875 64.59375 
z
" id="BitstreamVeraSans-Roman-54"/>
      </defs>
      <g style="fill:#262626;" transform="translate(205.902045455 337.40125)rotate(-90.0)scale(0.08 -0.08)">
       <use xlink:href="#BitstreamVeraSans-Roman-44"/>
       <use x="77.001953125" xlink:href="#BitstreamVeraSans-Roman-65"/>
       <use x="138.525390625" xlink:href="#BitstreamVeraSans-Roman-63"/>
       <use x="193.505859375" xlink:href="#BitstreamVeraSans-Roman-69"/>
       <use x="221.2890625" xlink:href="#BitstreamVeraSans-Roman-73"/>
       <use x="273.388671875" xlink:href="#BitstreamVeraSans-Roman-69"/>
       <use x="301.171875" xlink:href="#BitstreamVeraSans-Roman-6f"/>
       <use x="362.353515625" xlink:href="#BitstreamVeraSans-Roman-6e"/>
       <use x="425.732421875" xlink:href="#BitstreamVeraSans-Roman-20"/>
       <use x="457.51953125" xlink:href="#BitstreamVeraSans-Roman-54"/>
       <use x="518.384765625" xlink:href="#BitstreamVeraSans-Roman-72"/>
       <use x="559.466796875" xlink:href="#BitstreamVeraSans-Roman-65"/>
       <use x="620.990234375" xlink:href="#BitstreamVeraSans-Roman-65"/>
      </g>
     </g>
    </g>
    <g id="xtick_6">
     <g id="line2d_11">
      <g>
       <use style="fill:#262626;stroke:#262626;stroke-width:0.8;" x="236.16" xlink:href="#m33038fca66" y="277.2"/>
      </g>
     </g>
     <g id="line2d_12">
      <g>
       <use style="fill:#262626;stroke:#262626;stroke-width:0.8;" x="236.16" xlink:href="#m33038fca66" y="31.68"/>
      </g>
     </g>
     <g id="text_6">
      <!-- Extra Tree -->
      <defs>
       <path d="M 9.8125 72.90625 
L 55.90625 72.90625 
L 55.90625 64.59375 
L 19.671875 64.59375 
L 19.671875 43.015625 
L 54.390625 43.015625 
L 54.390625 34.71875 
L 19.671875 34.71875 
L 19.671875 8.296875 
L 56.78125 8.296875 
L 56.78125 0 
L 9.8125 0 
z
" id="BitstreamVeraSans-Roman-45"/>
       <path d="M 54.890625 54.6875 
L 35.109375 28.078125 
L 55.90625 0 
L 45.3125 0 
L 29.390625 21.484375 
L 13.484375 0 
L 2.875 0 
L 24.125 28.609375 
L 4.6875 54.6875 
L 15.28125 54.6875 
L 29.78125 35.203125 
L 44.28125 54.6875 
z
" id="BitstreamVeraSans-Roman-78"/>
      </defs>
      <g style="fill:#262626;" transform="translate(238.3675 324.46)rotate(-90.0)scale(0.08 -0.08)">
       <use xlink:href="#BitstreamVeraSans-Roman-45"/>
       <use x="63.18359375" xlink:href="#BitstreamVeraSans-Roman-78"/>
       <use x="122.36328125" xlink:href="#BitstreamVeraSans-Roman-74"/>
       <use x="161.572265625" xlink:href="#BitstreamVeraSans-Roman-72"/>
       <use x="202.685546875" xlink:href="#BitstreamVeraSans-Roman-61"/>
       <use x="263.96484375" xlink:href="#BitstreamVeraSans-Roman-20"/>
       <use x="295.751953125" xlink:href="#BitstreamVeraSans-Roman-54"/>
       <use x="356.6171875" xlink:href="#BitstreamVeraSans-Roman-72"/>
       <use x="397.69921875" xlink:href="#BitstreamVeraSans-Roman-65"/>
       <use x="459.22265625" xlink:href="#BitstreamVeraSans-Roman-65"/>
      </g>
     </g>
    </g>
    <g id="xtick_7">
     <g id="line2d_13">
      <g>
       <use style="fill:#262626;stroke:#262626;stroke-width:0.8;" x="268.625454545" xlink:href="#m33038fca66" y="277.2"/>
      </g>
     </g>
     <g id="line2d_14">
      <g>
       <use style="fill:#262626;stroke:#262626;stroke-width:0.8;" x="268.625454545" xlink:href="#m33038fca66" y="31.68"/>
      </g>
     </g>
     <g id="text_7">
      <!-- AdaBoost -->
      <defs>
       <path d="M 19.671875 34.8125 
L 19.671875 8.109375 
L 35.5 8.109375 
Q 43.453125 8.109375 47.28125 11.40625 
Q 51.125 14.703125 51.125 21.484375 
Q 51.125 28.328125 47.28125 31.5625 
Q 43.453125 34.8125 35.5 34.8125 
z
M 19.671875 64.796875 
L 19.671875 42.828125 
L 34.28125 42.828125 
Q 41.5 42.828125 45.03125 45.53125 
Q 48.578125 48.25 48.578125 53.8125 
Q 48.578125 59.328125 45.03125 62.0625 
Q 41.5 64.796875 34.28125 64.796875 
z
M 9.8125 72.90625 
L 35.015625 72.90625 
Q 46.296875 72.90625 52.390625 68.21875 
Q 58.5 63.53125 58.5 54.890625 
Q 58.5 48.1875 55.375 44.234375 
Q 52.25 40.28125 46.1875 39.3125 
Q 53.46875 37.75 57.5 32.78125 
Q 61.53125 27.828125 61.53125 20.40625 
Q 61.53125 10.640625 54.890625 5.3125 
Q 48.25 0 35.984375 0 
L 9.8125 0 
z
" id="BitstreamVeraSans-Roman-42"/>
       <path d="M 34.1875 63.1875 
L 20.796875 26.90625 
L 47.609375 26.90625 
z
M 28.609375 72.90625 
L 39.796875 72.90625 
L 67.578125 0 
L 57.328125 0 
L 50.6875 18.703125 
L 17.828125 18.703125 
L 11.1875 0 
L 0.78125 0 
z
" id="BitstreamVeraSans-Roman-41"/>
      </defs>
      <g style="fill:#262626;" transform="translate(270.832954545 320.835)rotate(-90.0)scale(0.08 -0.08)">
       <use xlink:href="#BitstreamVeraSans-Roman-41"/>
       <use x="68.392578125" xlink:href="#BitstreamVeraSans-Roman-64"/>
       <use x="131.869140625" xlink:href="#BitstreamVeraSans-Roman-61"/>
       <use x="193.1484375" xlink:href="#BitstreamVeraSans-Roman-42"/>
       <use x="261.751953125" xlink:href="#BitstreamVeraSans-Roman-6f"/>
       <use x="322.93359375" xlink:href="#BitstreamVeraSans-Roman-6f"/>
       <use x="384.115234375" xlink:href="#BitstreamVeraSans-Roman-73"/>
       <use x="436.21484375" xlink:href="#BitstreamVeraSans-Roman-74"/>
      </g>
     </g>
    </g>
    <g id="xtick_8">
     <g id="line2d_15">
      <g>
       <use style="fill:#262626;stroke:#262626;stroke-width:0.8;" x="301.090909091" xlink:href="#m33038fca66" y="277.2"/>
      </g>
     </g>
     <g id="line2d_16">
      <g>
       <use style="fill:#262626;stroke:#262626;stroke-width:0.8;" x="301.090909091" xlink:href="#m33038fca66" y="31.68"/>
      </g>
     </g>
     <g id="text_8">
      <!-- RBF SVM -->
      <g style="fill:#262626;" transform="translate(303.298409091 318.445)rotate(-90.0)scale(0.08 -0.08)">
       <use xlink:href="#BitstreamVeraSans-Roman-52"/>
       <use x="69.482421875" xlink:href="#BitstreamVeraSans-Roman-42"/>
       <use x="138.0859375" xlink:href="#BitstreamVeraSans-Roman-46"/>
       <use x="195.60546875" xlink:href="#BitstreamVeraSans-Roman-20"/>
       <use x="227.392578125" xlink:href="#BitstreamVeraSans-Roman-53"/>
       <use x="290.869140625" xlink:href="#BitstreamVeraSans-Roman-56"/>
       <use x="359.27734375" xlink:href="#BitstreamVeraSans-Roman-4d"/>
      </g>
     </g>
    </g>
    <g id="xtick_9">
     <g id="line2d_17">
      <g>
       <use style="fill:#262626;stroke:#262626;stroke-width:0.8;" x="333.556363636" xlink:href="#m33038fca66" y="277.2"/>
      </g>
     </g>
     <g id="line2d_18">
      <g>
       <use style="fill:#262626;stroke:#262626;stroke-width:0.8;" x="333.556363636" xlink:href="#m33038fca66" y="31.68"/>
      </g>
     </g>
     <g id="text_9">
      <!-- Linear Discriminant Analysis -->
      <defs>
       <path d="M 9.421875 75.984375 
L 18.40625 75.984375 
L 18.40625 0 
L 9.421875 0 
z
" id="BitstreamVeraSans-Roman-6c"/>
       <path d="M 32.171875 -5.078125 
Q 28.375 -14.84375 24.75 -17.8125 
Q 21.140625 -20.796875 15.09375 -20.796875 
L 7.90625 -20.796875 
L 7.90625 -13.28125 
L 13.1875 -13.28125 
Q 16.890625 -13.28125 18.9375 -11.515625 
Q 21 -9.765625 23.484375 -3.21875 
L 25.09375 0.875 
L 2.984375 54.6875 
L 12.5 54.6875 
L 29.59375 11.921875 
L 46.6875 54.6875 
L 56.203125 54.6875 
z
" id="BitstreamVeraSans-Roman-79"/>
      </defs>
      <g style="fill:#262626;" transform="translate(335.763863636 396.3625)rotate(-90.0)scale(0.08 -0.08)">
       <use xlink:href="#BitstreamVeraSans-Roman-4c"/>
       <use x="55.712890625" xlink:href="#BitstreamVeraSans-Roman-69"/>
       <use x="83.49609375" xlink:href="#BitstreamVeraSans-Roman-6e"/>
       <use x="146.875" xlink:href="#BitstreamVeraSans-Roman-65"/>
       <use x="208.3984375" xlink:href="#BitstreamVeraSans-Roman-61"/>
       <use x="269.677734375" xlink:href="#BitstreamVeraSans-Roman-72"/>
       <use x="310.791015625" xlink:href="#BitstreamVeraSans-Roman-20"/>
       <use x="342.578125" xlink:href="#BitstreamVeraSans-Roman-44"/>
       <use x="419.580078125" xlink:href="#BitstreamVeraSans-Roman-69"/>
       <use x="447.36328125" xlink:href="#BitstreamVeraSans-Roman-73"/>
       <use x="499.462890625" xlink:href="#BitstreamVeraSans-Roman-63"/>
       <use x="554.443359375" xlink:href="#BitstreamVeraSans-Roman-72"/>
       <use x="595.556640625" xlink:href="#BitstreamVeraSans-Roman-69"/>
       <use x="623.33984375" xlink:href="#BitstreamVeraSans-Roman-6d"/>
       <use x="720.751953125" xlink:href="#BitstreamVeraSans-Roman-69"/>
       <use x="748.53515625" xlink:href="#BitstreamVeraSans-Roman-6e"/>
       <use x="811.9140625" xlink:href="#BitstreamVeraSans-Roman-61"/>
       <use x="873.193359375" xlink:href="#BitstreamVeraSans-Roman-6e"/>
       <use x="936.572265625" xlink:href="#BitstreamVeraSans-Roman-74"/>
       <use x="975.78125" xlink:href="#BitstreamVeraSans-Roman-20"/>
       <use x="1007.568359375" xlink:href="#BitstreamVeraSans-Roman-41"/>
       <use x="1075.9765625" xlink:href="#BitstreamVeraSans-Roman-6e"/>
       <use x="1139.35546875" xlink:href="#BitstreamVeraSans-Roman-61"/>
       <use x="1200.634765625" xlink:href="#BitstreamVeraSans-Roman-6c"/>
       <use x="1228.41796875" xlink:href="#BitstreamVeraSans-Roman-79"/>
       <use x="1287.59765625" xlink:href="#BitstreamVeraSans-Roman-73"/>
       <use x="1339.697265625" xlink:href="#BitstreamVeraSans-Roman-69"/>
       <use x="1367.48046875" xlink:href="#BitstreamVeraSans-Roman-73"/>
      </g>
     </g>
    </g>
    <g id="xtick_10">
     <g id="line2d_19">
      <g>
       <use style="fill:#262626;stroke:#262626;stroke-width:0.8;" x="366.021818182" xlink:href="#m33038fca66" y="277.2"/>
      </g>
     </g>
     <g id="line2d_20">
      <g>
       <use style="fill:#262626;stroke:#262626;stroke-width:0.8;" x="366.021818182" xlink:href="#m33038fca66" y="31.68"/>
      </g>
     </g>
     <g id="text_10">
      <!-- Quadratic Discriminant Analysis -->
      <defs>
       <path d="M 39.40625 66.21875 
Q 28.65625 66.21875 22.328125 58.203125 
Q 16.015625 50.203125 16.015625 36.375 
Q 16.015625 22.609375 22.328125 14.59375 
Q 28.65625 6.59375 39.40625 6.59375 
Q 50.140625 6.59375 56.421875 14.59375 
Q 62.703125 22.609375 62.703125 36.375 
Q 62.703125 50.203125 56.421875 58.203125 
Q 50.140625 66.21875 39.40625 66.21875 
M 53.21875 1.3125 
L 66.21875 -12.890625 
L 54.296875 -12.890625 
L 43.5 -1.21875 
Q 41.890625 -1.3125 41.03125 -1.359375 
Q 40.1875 -1.421875 39.40625 -1.421875 
Q 24.03125 -1.421875 14.8125 8.859375 
Q 5.609375 19.140625 5.609375 36.375 
Q 5.609375 53.65625 14.8125 63.9375 
Q 24.03125 74.21875 39.40625 74.21875 
Q 54.734375 74.21875 63.90625 63.9375 
Q 73.09375 53.65625 73.09375 36.375 
Q 73.09375 23.6875 67.984375 14.640625 
Q 62.890625 5.609375 53.21875 1.3125 
" id="BitstreamVeraSans-Roman-51"/>
      </defs>
      <g style="fill:#262626;" transform="translate(368.229318182 410.79625)rotate(-90.0)scale(0.08 -0.08)">
       <use xlink:href="#BitstreamVeraSans-Roman-51"/>
       <use x="78.7109375" xlink:href="#BitstreamVeraSans-Roman-75"/>
       <use x="142.08984375" xlink:href="#BitstreamVeraSans-Roman-61"/>
       <use x="203.369140625" xlink:href="#BitstreamVeraSans-Roman-64"/>
       <use x="266.845703125" xlink:href="#BitstreamVeraSans-Roman-72"/>
       <use x="307.958984375" xlink:href="#BitstreamVeraSans-Roman-61"/>
       <use x="369.23828125" xlink:href="#BitstreamVeraSans-Roman-74"/>
       <use x="408.447265625" xlink:href="#BitstreamVeraSans-Roman-69"/>
       <use x="436.23046875" xlink:href="#BitstreamVeraSans-Roman-63"/>
       <use x="491.2109375" xlink:href="#BitstreamVeraSans-Roman-20"/>
       <use x="522.998046875" xlink:href="#BitstreamVeraSans-Roman-44"/>
       <use x="600.0" xlink:href="#BitstreamVeraSans-Roman-69"/>
       <use x="627.783203125" xlink:href="#BitstreamVeraSans-Roman-73"/>
       <use x="679.8828125" xlink:href="#BitstreamVeraSans-Roman-63"/>
       <use x="734.86328125" xlink:href="#BitstreamVeraSans-Roman-72"/>
       <use x="775.9765625" xlink:href="#BitstreamVeraSans-Roman-69"/>
       <use x="803.759765625" xlink:href="#BitstreamVeraSans-Roman-6d"/>
       <use x="901.171875" xlink:href="#BitstreamVeraSans-Roman-69"/>
       <use x="928.955078125" xlink:href="#BitstreamVeraSans-Roman-6e"/>
       <use x="992.333984375" xlink:href="#BitstreamVeraSans-Roman-61"/>
       <use x="1053.61328125" xlink:href="#BitstreamVeraSans-Roman-6e"/>
       <use x="1116.9921875" xlink:href="#BitstreamVeraSans-Roman-74"/>
       <use x="1156.201171875" xlink:href="#BitstreamVeraSans-Roman-20"/>
       <use x="1187.98828125" xlink:href="#BitstreamVeraSans-Roman-41"/>
       <use x="1256.396484375" xlink:href="#BitstreamVeraSans-Roman-6e"/>
       <use x="1319.775390625" xlink:href="#BitstreamVeraSans-Roman-61"/>
       <use x="1381.0546875" xlink:href="#BitstreamVeraSans-Roman-6c"/>
       <use x="1408.837890625" xlink:href="#BitstreamVeraSans-Roman-79"/>
       <use x="1468.017578125" xlink:href="#BitstreamVeraSans-Roman-73"/>
       <use x="1520.1171875" xlink:href="#BitstreamVeraSans-Roman-69"/>
       <use x="1547.900390625" xlink:href="#BitstreamVeraSans-Roman-73"/>
      </g>
     </g>
    </g>
    <g id="xtick_11">
     <g id="line2d_21">
      <g>
       <use style="fill:#262626;stroke:#262626;stroke-width:0.8;" x="398.487272727" xlink:href="#m33038fca66" y="277.2"/>
      </g>
     </g>
     <g id="line2d_22">
      <g>
       <use style="fill:#262626;stroke:#262626;stroke-width:0.8;" x="398.487272727" xlink:href="#m33038fca66" y="31.68"/>
      </g>
     </g>
     <g id="text_11">
      <!-- Gaussian Naive Bayes -->
      <defs>
       <path d="M 59.515625 10.40625 
L 59.515625 29.984375 
L 43.40625 29.984375 
L 43.40625 38.09375 
L 69.28125 38.09375 
L 69.28125 6.78125 
Q 63.578125 2.734375 56.6875 0.65625 
Q 49.8125 -1.421875 42 -1.421875 
Q 24.90625 -1.421875 15.25 8.5625 
Q 5.609375 18.5625 5.609375 36.375 
Q 5.609375 54.25 15.25 64.234375 
Q 24.90625 74.21875 42 74.21875 
Q 49.125 74.21875 55.546875 72.453125 
Q 61.96875 70.703125 67.390625 67.28125 
L 67.390625 56.78125 
Q 61.921875 61.421875 55.765625 63.765625 
Q 49.609375 66.109375 42.828125 66.109375 
Q 29.4375 66.109375 22.71875 58.640625 
Q 16.015625 51.171875 16.015625 36.375 
Q 16.015625 21.625 22.71875 14.15625 
Q 29.4375 6.6875 42.828125 6.6875 
Q 48.046875 6.6875 52.140625 7.59375 
Q 56.25 8.5 59.515625 10.40625 
" id="BitstreamVeraSans-Roman-47"/>
       <path d="M 2.984375 54.6875 
L 12.5 54.6875 
L 29.59375 8.796875 
L 46.6875 54.6875 
L 56.203125 54.6875 
L 35.6875 0 
L 23.484375 0 
z
" id="BitstreamVeraSans-Roman-76"/>
      </defs>
      <g style="fill:#262626;" transform="translate(400.694772727 371.57)rotate(-90.0)scale(0.08 -0.08)">
       <use xlink:href="#BitstreamVeraSans-Roman-47"/>
       <use x="77.490234375" xlink:href="#BitstreamVeraSans-Roman-61"/>
       <use x="138.76953125" xlink:href="#BitstreamVeraSans-Roman-75"/>
       <use x="202.1484375" xlink:href="#BitstreamVeraSans-Roman-73"/>
       <use x="254.248046875" xlink:href="#BitstreamVeraSans-Roman-73"/>
       <use x="306.34765625" xlink:href="#BitstreamVeraSans-Roman-69"/>
       <use x="334.130859375" xlink:href="#BitstreamVeraSans-Roman-61"/>
       <use x="395.41015625" xlink:href="#BitstreamVeraSans-Roman-6e"/>
       <use x="458.7890625" xlink:href="#BitstreamVeraSans-Roman-20"/>
       <use x="490.576171875" xlink:href="#BitstreamVeraSans-Roman-4e"/>
       <use x="565.380859375" xlink:href="#BitstreamVeraSans-Roman-61"/>
       <use x="626.66015625" xlink:href="#BitstreamVeraSans-Roman-69"/>
       <use x="654.443359375" xlink:href="#BitstreamVeraSans-Roman-76"/>
       <use x="713.623046875" xlink:href="#BitstreamVeraSans-Roman-65"/>
       <use x="775.146484375" xlink:href="#BitstreamVeraSans-Roman-20"/>
       <use x="806.93359375" xlink:href="#BitstreamVeraSans-Roman-42"/>
       <use x="875.537109375" xlink:href="#BitstreamVeraSans-Roman-61"/>
       <use x="936.81640625" xlink:href="#BitstreamVeraSans-Roman-79"/>
       <use x="995.99609375" xlink:href="#BitstreamVeraSans-Roman-65"/>
       <use x="1057.51953125" xlink:href="#BitstreamVeraSans-Roman-73"/>
      </g>
     </g>
    </g>
    <g id="text_12">
     <!-- Classifier -->
     <defs>
      <path d="M 37.109375 75.984375 
L 37.109375 68.5 
L 28.515625 68.5 
Q 23.6875 68.5 21.796875 66.546875 
Q 19.921875 64.59375 19.921875 59.515625 
L 19.921875 54.6875 
L 34.71875 54.6875 
L 34.71875 47.703125 
L 19.921875 47.703125 
L 19.921875 0 
L 10.890625 0 
L 10.890625 47.703125 
L 2.296875 47.703125 
L 2.296875 54.6875 
L 10.890625 54.6875 
L 10.890625 58.5 
Q 10.890625 67.625 15.140625 71.796875 
Q 19.390625 75.984375 28.609375 75.984375 
z
" id="BitstreamVeraSans-Roman-66"/>
      <path d="M 64.40625 67.28125 
L 64.40625 56.890625 
Q 59.421875 61.53125 53.78125 63.8125 
Q 48.140625 66.109375 41.796875 66.109375 
Q 29.296875 66.109375 22.65625 58.46875 
Q 16.015625 50.828125 16.015625 36.375 
Q 16.015625 21.96875 22.65625 14.328125 
Q 29.296875 6.6875 41.796875 6.6875 
Q 48.140625 6.6875 53.78125 8.984375 
Q 59.421875 11.28125 64.40625 15.921875 
L 64.40625 5.609375 
Q 59.234375 2.09375 53.4375 0.328125 
Q 47.65625 -1.421875 41.21875 -1.421875 
Q 24.65625 -1.421875 15.125 8.703125 
Q 5.609375 18.84375 5.609375 36.375 
Q 5.609375 53.953125 15.125 64.078125 
Q 24.65625 74.21875 41.21875 74.21875 
Q 47.75 74.21875 53.53125 72.484375 
Q 59.328125 70.75 64.40625 67.28125 
" id="BitstreamVeraSans-Roman-43"/>
     </defs>
     <g style="fill:#262626;" transform="translate(216.0746875 422.482875)scale(0.08800000000000001 -0.08800000000000001)">
      <use xlink:href="#BitstreamVeraSans-Roman-43"/>
      <use x="69.82421875" xlink:href="#BitstreamVeraSans-Roman-6c"/>
      <use x="97.607421875" xlink:href="#BitstreamVeraSans-Roman-61"/>
      <use x="158.88671875" xlink:href="#BitstreamVeraSans-Roman-73"/>
      <use x="210.986328125" xlink:href="#BitstreamVeraSans-Roman-73"/>
      <use x="263.0859375" xlink:href="#BitstreamVeraSans-Roman-69"/>
      <use x="290.869140625" xlink:href="#BitstreamVeraSans-Roman-66"/>
      <use x="326.07421875" xlink:href="#BitstreamVeraSans-Roman-69"/>
      <use x="353.857421875" xlink:href="#BitstreamVeraSans-Roman-65"/>
      <use x="415.380859375" xlink:href="#BitstreamVeraSans-Roman-72"/>
     </g>
    </g>
   </g>
   <g id="matplotlib.axis_2">
    <g id="ytick_1">
     <g id="line2d_23">
      <path clip-path="url(#pf414d274b4)" d="M 57.6 277.2 
L 414.72 277.2 
" style="fill:none;stroke:#ffffff;stroke-linecap:round;stroke-width:0.8;"/>
     </g>
     <g id="line2d_24">
      <g>
       <use style="fill:#262626;stroke:#262626;stroke-width:0.8;" x="57.6" xlink:href="#m33038fca66" y="277.2"/>
      </g>
     </g>
     <g id="line2d_25">
      <g>
       <use style="fill:#262626;stroke:#262626;stroke-width:0.8;" x="414.72" xlink:href="#m33038fca66" y="277.2"/>
      </g>
     </g>
     <g id="text_13">
      <!-- 0.0 -->
      <defs>
       <path d="M 31.78125 66.40625 
Q 24.171875 66.40625 20.328125 58.90625 
Q 16.5 51.421875 16.5 36.375 
Q 16.5 21.390625 20.328125 13.890625 
Q 24.171875 6.390625 31.78125 6.390625 
Q 39.453125 6.390625 43.28125 13.890625 
Q 47.125 21.390625 47.125 36.375 
Q 47.125 51.421875 43.28125 58.90625 
Q 39.453125 66.40625 31.78125 66.40625 
M 31.78125 74.21875 
Q 44.046875 74.21875 50.515625 64.515625 
Q 56.984375 54.828125 56.984375 36.375 
Q 56.984375 17.96875 50.515625 8.265625 
Q 44.046875 -1.421875 31.78125 -1.421875 
Q 19.53125 -1.421875 13.0625 8.265625 
Q 6.59375 17.96875 6.59375 36.375 
Q 6.59375 54.828125 13.0625 64.515625 
Q 19.53125 74.21875 31.78125 74.21875 
" id="BitstreamVeraSans-Roman-30"/>
       <path d="M 10.6875 12.40625 
L 21 12.40625 
L 21 0 
L 10.6875 0 
z
" id="BitstreamVeraSans-Roman-2e"/>
      </defs>
      <g style="fill:#262626;" transform="translate(39.2775 279.4075)scale(0.08 -0.08)">
       <use xlink:href="#BitstreamVeraSans-Roman-30"/>
       <use x="63.623046875" xlink:href="#BitstreamVeraSans-Roman-2e"/>
       <use x="95.41015625" xlink:href="#BitstreamVeraSans-Roman-30"/>
      </g>
     </g>
    </g>
    <g id="ytick_2">
     <g id="line2d_26">
      <path clip-path="url(#pf414d274b4)" d="M 57.6 228.096 
L 414.72 228.096 
" style="fill:none;stroke:#ffffff;stroke-linecap:round;stroke-width:0.8;"/>
     </g>
     <g id="line2d_27">
      <g>
       <use style="fill:#262626;stroke:#262626;stroke-width:0.8;" x="57.6" xlink:href="#m33038fca66" y="228.096"/>
      </g>
     </g>
     <g id="line2d_28">
      <g>
       <use style="fill:#262626;stroke:#262626;stroke-width:0.8;" x="414.72" xlink:href="#m33038fca66" y="228.096"/>
      </g>
     </g>
     <g id="text_14">
      <!-- 0.2 -->
      <defs>
       <path d="M 19.1875 8.296875 
L 53.609375 8.296875 
L 53.609375 0 
L 7.328125 0 
L 7.328125 8.296875 
Q 12.9375 14.109375 22.625 23.890625 
Q 32.328125 33.6875 34.8125 36.53125 
Q 39.546875 41.84375 41.421875 45.53125 
Q 43.3125 49.21875 43.3125 52.78125 
Q 43.3125 58.59375 39.234375 62.25 
Q 35.15625 65.921875 28.609375 65.921875 
Q 23.96875 65.921875 18.8125 64.3125 
Q 13.671875 62.703125 7.8125 59.421875 
L 7.8125 69.390625 
Q 13.765625 71.78125 18.9375 73 
Q 24.125 74.21875 28.421875 74.21875 
Q 39.75 74.21875 46.484375 68.546875 
Q 53.21875 62.890625 53.21875 53.421875 
Q 53.21875 48.921875 51.53125 44.890625 
Q 49.859375 40.875 45.40625 35.40625 
Q 44.1875 33.984375 37.640625 27.21875 
Q 31.109375 20.453125 19.1875 8.296875 
" id="BitstreamVeraSans-Roman-32"/>
      </defs>
      <g style="fill:#262626;" transform="translate(39.2775 230.3035)scale(0.08 -0.08)">
       <use xlink:href="#BitstreamVeraSans-Roman-30"/>
       <use x="63.623046875" xlink:href="#BitstreamVeraSans-Roman-2e"/>
       <use x="95.41015625" xlink:href="#BitstreamVeraSans-Roman-32"/>
      </g>
     </g>
    </g>
    <g id="ytick_3">
     <g id="line2d_29">
      <path clip-path="url(#pf414d274b4)" d="M 57.6 178.992 
L 414.72 178.992 
" style="fill:none;stroke:#ffffff;stroke-linecap:round;stroke-width:0.8;"/>
     </g>
     <g id="line2d_30">
      <g>
       <use style="fill:#262626;stroke:#262626;stroke-width:0.8;" x="57.6" xlink:href="#m33038fca66" y="178.992"/>
      </g>
     </g>
     <g id="line2d_31">
      <g>
       <use style="fill:#262626;stroke:#262626;stroke-width:0.8;" x="414.72" xlink:href="#m33038fca66" y="178.992"/>
      </g>
     </g>
     <g id="text_15">
      <!-- 0.4 -->
      <defs>
       <path d="M 37.796875 64.3125 
L 12.890625 25.390625 
L 37.796875 25.390625 
z
M 35.203125 72.90625 
L 47.609375 72.90625 
L 47.609375 25.390625 
L 58.015625 25.390625 
L 58.015625 17.1875 
L 47.609375 17.1875 
L 47.609375 0 
L 37.796875 0 
L 37.796875 17.1875 
L 4.890625 17.1875 
L 4.890625 26.703125 
z
" id="BitstreamVeraSans-Roman-34"/>
      </defs>
      <g style="fill:#262626;" transform="translate(39.2775 181.1995)scale(0.08 -0.08)">
       <use xlink:href="#BitstreamVeraSans-Roman-30"/>
       <use x="63.623046875" xlink:href="#BitstreamVeraSans-Roman-2e"/>
       <use x="95.41015625" xlink:href="#BitstreamVeraSans-Roman-34"/>
      </g>
     </g>
    </g>
    <g id="ytick_4">
     <g id="line2d_32">
      <path clip-path="url(#pf414d274b4)" d="M 57.6 129.888 
L 414.72 129.888 
" style="fill:none;stroke:#ffffff;stroke-linecap:round;stroke-width:0.8;"/>
     </g>
     <g id="line2d_33">
      <g>
       <use style="fill:#262626;stroke:#262626;stroke-width:0.8;" x="57.6" xlink:href="#m33038fca66" y="129.888"/>
      </g>
     </g>
     <g id="line2d_34">
      <g>
       <use style="fill:#262626;stroke:#262626;stroke-width:0.8;" x="414.72" xlink:href="#m33038fca66" y="129.888"/>
      </g>
     </g>
     <g id="text_16">
      <!-- 0.6 -->
      <defs>
       <path d="M 33.015625 40.375 
Q 26.375 40.375 22.484375 35.828125 
Q 18.609375 31.296875 18.609375 23.390625 
Q 18.609375 15.53125 22.484375 10.953125 
Q 26.375 6.390625 33.015625 6.390625 
Q 39.65625 6.390625 43.53125 10.953125 
Q 47.40625 15.53125 47.40625 23.390625 
Q 47.40625 31.296875 43.53125 35.828125 
Q 39.65625 40.375 33.015625 40.375 
M 52.59375 71.296875 
L 52.59375 62.3125 
Q 48.875 64.0625 45.09375 64.984375 
Q 41.3125 65.921875 37.59375 65.921875 
Q 27.828125 65.921875 22.671875 59.328125 
Q 17.53125 52.734375 16.796875 39.40625 
Q 19.671875 43.65625 24.015625 45.921875 
Q 28.375 48.1875 33.59375 48.1875 
Q 44.578125 48.1875 50.953125 41.515625 
Q 57.328125 34.859375 57.328125 23.390625 
Q 57.328125 12.15625 50.6875 5.359375 
Q 44.046875 -1.421875 33.015625 -1.421875 
Q 20.359375 -1.421875 13.671875 8.265625 
Q 6.984375 17.96875 6.984375 36.375 
Q 6.984375 53.65625 15.1875 63.9375 
Q 23.390625 74.21875 37.203125 74.21875 
Q 40.921875 74.21875 44.703125 73.484375 
Q 48.484375 72.75 52.59375 71.296875 
" id="BitstreamVeraSans-Roman-36"/>
      </defs>
      <g style="fill:#262626;" transform="translate(39.2775 132.0955)scale(0.08 -0.08)">
       <use xlink:href="#BitstreamVeraSans-Roman-30"/>
       <use x="63.623046875" xlink:href="#BitstreamVeraSans-Roman-2e"/>
       <use x="95.41015625" xlink:href="#BitstreamVeraSans-Roman-36"/>
      </g>
     </g>
    </g>
    <g id="ytick_5">
     <g id="line2d_35">
      <path clip-path="url(#pf414d274b4)" d="M 57.6 80.784 
L 414.72 80.784 
" style="fill:none;stroke:#ffffff;stroke-linecap:round;stroke-width:0.8;"/>
     </g>
     <g id="line2d_36">
      <g>
       <use style="fill:#262626;stroke:#262626;stroke-width:0.8;" x="57.6" xlink:href="#m33038fca66" y="80.784"/>
      </g>
     </g>
     <g id="line2d_37">
      <g>
       <use style="fill:#262626;stroke:#262626;stroke-width:0.8;" x="414.72" xlink:href="#m33038fca66" y="80.784"/>
      </g>
     </g>
     <g id="text_17">
      <!-- 0.8 -->
      <defs>
       <path d="M 31.78125 34.625 
Q 24.75 34.625 20.71875 30.859375 
Q 16.703125 27.09375 16.703125 20.515625 
Q 16.703125 13.921875 20.71875 10.15625 
Q 24.75 6.390625 31.78125 6.390625 
Q 38.8125 6.390625 42.859375 10.171875 
Q 46.921875 13.96875 46.921875 20.515625 
Q 46.921875 27.09375 42.890625 30.859375 
Q 38.875 34.625 31.78125 34.625 
M 21.921875 38.8125 
Q 15.578125 40.375 12.03125 44.71875 
Q 8.5 49.078125 8.5 55.328125 
Q 8.5 64.0625 14.71875 69.140625 
Q 20.953125 74.21875 31.78125 74.21875 
Q 42.671875 74.21875 48.875 69.140625 
Q 55.078125 64.0625 55.078125 55.328125 
Q 55.078125 49.078125 51.53125 44.71875 
Q 48 40.375 41.703125 38.8125 
Q 48.828125 37.15625 52.796875 32.3125 
Q 56.78125 27.484375 56.78125 20.515625 
Q 56.78125 9.90625 50.3125 4.234375 
Q 43.84375 -1.421875 31.78125 -1.421875 
Q 19.734375 -1.421875 13.25 4.234375 
Q 6.78125 9.90625 6.78125 20.515625 
Q 6.78125 27.484375 10.78125 32.3125 
Q 14.796875 37.15625 21.921875 38.8125 
M 18.3125 54.390625 
Q 18.3125 48.734375 21.84375 45.5625 
Q 25.390625 42.390625 31.78125 42.390625 
Q 38.140625 42.390625 41.71875 45.5625 
Q 45.3125 48.734375 45.3125 54.390625 
Q 45.3125 60.0625 41.71875 63.234375 
Q 38.140625 66.40625 31.78125 66.40625 
Q 25.390625 66.40625 21.84375 63.234375 
Q 18.3125 60.0625 18.3125 54.390625 
" id="BitstreamVeraSans-Roman-38"/>
      </defs>
      <g style="fill:#262626;" transform="translate(39.2775 82.9915)scale(0.08 -0.08)">
       <use xlink:href="#BitstreamVeraSans-Roman-30"/>
       <use x="63.623046875" xlink:href="#BitstreamVeraSans-Roman-2e"/>
       <use x="95.41015625" xlink:href="#BitstreamVeraSans-Roman-38"/>
      </g>
     </g>
    </g>
    <g id="ytick_6">
     <g id="line2d_38">
      <path clip-path="url(#pf414d274b4)" d="M 57.6 31.68 
L 414.72 31.68 
" style="fill:none;stroke:#ffffff;stroke-linecap:round;stroke-width:0.8;"/>
     </g>
     <g id="line2d_39">
      <g>
       <use style="fill:#262626;stroke:#262626;stroke-width:0.8;" x="57.6" xlink:href="#m33038fca66" y="31.68"/>
      </g>
     </g>
     <g id="line2d_40">
      <g>
       <use style="fill:#262626;stroke:#262626;stroke-width:0.8;" x="414.72" xlink:href="#m33038fca66" y="31.68"/>
      </g>
     </g>
     <g id="text_18">
      <!-- 1.0 -->
      <defs>
       <path d="M 12.40625 8.296875 
L 28.515625 8.296875 
L 28.515625 63.921875 
L 10.984375 60.40625 
L 10.984375 69.390625 
L 28.421875 72.90625 
L 38.28125 72.90625 
L 38.28125 8.296875 
L 54.390625 8.296875 
L 54.390625 0 
L 12.40625 0 
z
" id="BitstreamVeraSans-Roman-31"/>
      </defs>
      <g style="fill:#262626;" transform="translate(39.2775 33.8875)scale(0.08 -0.08)">
       <use xlink:href="#BitstreamVeraSans-Roman-31"/>
       <use x="63.623046875" xlink:href="#BitstreamVeraSans-Roman-2e"/>
       <use x="95.41015625" xlink:href="#BitstreamVeraSans-Roman-30"/>
      </g>
     </g>
    </g>
    <g id="text_19">
     <!-- Mean F-1 Score Over Classes -->
     <defs>
      <path d="M 39.40625 66.21875 
Q 28.65625 66.21875 22.328125 58.203125 
Q 16.015625 50.203125 16.015625 36.375 
Q 16.015625 22.609375 22.328125 14.59375 
Q 28.65625 6.59375 39.40625 6.59375 
Q 50.140625 6.59375 56.421875 14.59375 
Q 62.703125 22.609375 62.703125 36.375 
Q 62.703125 50.203125 56.421875 58.203125 
Q 50.140625 66.21875 39.40625 66.21875 
M 39.40625 74.21875 
Q 54.734375 74.21875 63.90625 63.9375 
Q 73.09375 53.65625 73.09375 36.375 
Q 73.09375 19.140625 63.90625 8.859375 
Q 54.734375 -1.421875 39.40625 -1.421875 
Q 24.03125 -1.421875 14.8125 8.828125 
Q 5.609375 19.09375 5.609375 36.375 
Q 5.609375 53.65625 14.8125 63.9375 
Q 24.03125 74.21875 39.40625 74.21875 
" id="BitstreamVeraSans-Roman-4f"/>
     </defs>
     <g style="fill:#262626;" transform="translate(32.447375 218.5184375)rotate(-90.0)scale(0.08800000000000001 -0.08800000000000001)">
      <use xlink:href="#BitstreamVeraSans-Roman-4d"/>
      <use x="86.279296875" xlink:href="#BitstreamVeraSans-Roman-65"/>
      <use x="147.802734375" xlink:href="#BitstreamVeraSans-Roman-61"/>
      <use x="209.08203125" xlink:href="#BitstreamVeraSans-Roman-6e"/>
      <use x="272.4609375" xlink:href="#BitstreamVeraSans-Roman-20"/>
      <use x="304.248046875" xlink:href="#BitstreamVeraSans-Roman-46"/>
      <use x="361.767578125" xlink:href="#BitstreamVeraSans-Roman-2d"/>
      <use x="397.8515625" xlink:href="#BitstreamVeraSans-Roman-31"/>
      <use x="461.474609375" xlink:href="#BitstreamVeraSans-Roman-20"/>
      <use x="493.26171875" xlink:href="#BitstreamVeraSans-Roman-53"/>
      <use x="556.73828125" xlink:href="#BitstreamVeraSans-Roman-63"/>
      <use x="611.71875" xlink:href="#BitstreamVeraSans-Roman-6f"/>
      <use x="672.900390625" xlink:href="#BitstreamVeraSans-Roman-72"/>
      <use x="713.982421875" xlink:href="#BitstreamVeraSans-Roman-65"/>
      <use x="775.505859375" xlink:href="#BitstreamVeraSans-Roman-20"/>
      <use x="807.29296875" xlink:href="#BitstreamVeraSans-Roman-4f"/>
      <use x="886.00390625" xlink:href="#BitstreamVeraSans-Roman-76"/>
      <use x="945.18359375" xlink:href="#BitstreamVeraSans-Roman-65"/>
      <use x="1006.70703125" xlink:href="#BitstreamVeraSans-Roman-72"/>
      <use x="1047.8203125" xlink:href="#BitstreamVeraSans-Roman-20"/>
      <use x="1079.607421875" xlink:href="#BitstreamVeraSans-Roman-43"/>
      <use x="1149.431640625" xlink:href="#BitstreamVeraSans-Roman-6c"/>
      <use x="1177.21484375" xlink:href="#BitstreamVeraSans-Roman-61"/>
      <use x="1238.494140625" xlink:href="#BitstreamVeraSans-Roman-73"/>
      <use x="1290.59375" xlink:href="#BitstreamVeraSans-Roman-73"/>
      <use x="1342.693359375" xlink:href="#BitstreamVeraSans-Roman-65"/>
      <use x="1404.216796875" xlink:href="#BitstreamVeraSans-Roman-73"/>
     </g>
    </g>
   </g>
   <g id="patch_3">
    <path clip-path="url(#pf414d274b4)" d="M 60.846545 277.2 
L 86.818909 277.2 
L 86.818909 39.0456 
L 60.846545 39.0456 
z
" style="fill:#36433c;stroke:#000000;stroke-linejoin:miter;stroke-width:0.24;"/>
   </g>
   <g id="patch_4">
    <path clip-path="url(#pf414d274b4)" d="M 93.312 277.2 
L 119.284364 277.2 
L 119.284364 39.0456 
L 93.312 39.0456 
z
" style="fill:#395344;stroke:#000000;stroke-linejoin:miter;stroke-width:0.24;"/>
   </g>
   <g id="patch_5">
    <path clip-path="url(#pf414d274b4)" d="M 125.777455 277.2 
L 151.749818 277.2 
L 151.749818 41.5008 
L 125.777455 41.5008 
z
" style="fill:#3c644d;stroke:#000000;stroke-linejoin:miter;stroke-width:0.24;"/>
   </g>
   <g id="patch_6">
    <path clip-path="url(#pf414d274b4)" d="M 158.242909 277.2 
L 184.215273 277.2 
L 184.215273 41.5008 
L 158.242909 41.5008 
z
" style="fill:#3f7456;stroke:#000000;stroke-linejoin:miter;stroke-width:0.24;"/>
   </g>
   <g id="patch_7">
    <path clip-path="url(#pf414d274b4)" d="M 190.708364 277.2 
L 216.680727 277.2 
L 216.680727 43.956 
L 190.708364 43.956 
z
" style="fill:#41845f;stroke:#000000;stroke-linejoin:miter;stroke-width:0.24;"/>
   </g>
   <g id="patch_8">
    <path clip-path="url(#pf414d274b4)" d="M 223.173818 277.2 
L 249.146182 277.2 
L 249.146182 46.4112 
L 223.173818 46.4112 
z
" style="fill:#459568;stroke:#000000;stroke-linejoin:miter;stroke-width:0.24;"/>
   </g>
   <g id="patch_9">
    <path clip-path="url(#pf414d274b4)" d="M 255.639273 277.2 
L 281.611636 277.2 
L 281.611636 58.6872 
L 255.639273 58.6872 
z
" style="fill:#57a079;stroke:#000000;stroke-linejoin:miter;stroke-width:0.24;"/>
   </g>
   <g id="patch_10">
    <path clip-path="url(#pf414d274b4)" d="M 288.104727 277.2 
L 314.077091 277.2 
L 314.077091 90.6048 
L 288.104727 90.6048 
z
" style="fill:#68ab8a;stroke:#000000;stroke-linejoin:miter;stroke-width:0.24;"/>
   </g>
   <g id="patch_11">
    <path clip-path="url(#pf414d274b4)" d="M 320.570182 277.2 
L 346.542545 277.2 
L 346.542545 139.7088 
L 320.570182 139.7088 
z
" style="fill:#7bb79c;stroke:#000000;stroke-linejoin:miter;stroke-width:0.24;"/>
   </g>
   <g id="patch_12">
    <path clip-path="url(#pf414d274b4)" d="M 353.035636 277.2 
L 379.008 277.2 
L 379.008 171.6264 
L 353.035636 171.6264 
z
" style="fill:#8dc2ad;stroke:#000000;stroke-linejoin:miter;stroke-width:0.24;"/>
   </g>
   <g id="patch_13">
    <path clip-path="url(#pf414d274b4)" d="M 385.501091 277.2 
L 411.473455 277.2 
L 411.473455 171.6264 
L 385.501091 171.6264 
z
" style="fill:#9fcdbe;stroke:#000000;stroke-linejoin:miter;stroke-width:0.24;"/>
   </g>
   <g id="line2d_41">
    <path clip-path="url(#pf414d274b4)" style="fill:none;stroke:#424242;stroke-linecap:round;stroke-width:2.5200000000000005;"/>
   </g>
   <g id="line2d_42">
    <path clip-path="url(#pf414d274b4)" style="fill:none;stroke:#424242;stroke-linecap:round;stroke-width:2.5200000000000005;"/>
   </g>
   <g id="line2d_43">
    <path clip-path="url(#pf414d274b4)" style="fill:none;stroke:#424242;stroke-linecap:round;stroke-width:2.5200000000000005;"/>
   </g>
   <g id="line2d_44">
    <path clip-path="url(#pf414d274b4)" style="fill:none;stroke:#424242;stroke-linecap:round;stroke-width:2.5200000000000005;"/>
   </g>
   <g id="line2d_45">
    <path clip-path="url(#pf414d274b4)" style="fill:none;stroke:#424242;stroke-linecap:round;stroke-width:2.5200000000000005;"/>
   </g>
   <g id="line2d_46">
    <path clip-path="url(#pf414d274b4)" style="fill:none;stroke:#424242;stroke-linecap:round;stroke-width:2.5200000000000005;"/>
   </g>
   <g id="line2d_47">
    <path clip-path="url(#pf414d274b4)" style="fill:none;stroke:#424242;stroke-linecap:round;stroke-width:2.5200000000000005;"/>
   </g>
   <g id="line2d_48">
    <path clip-path="url(#pf414d274b4)" style="fill:none;stroke:#424242;stroke-linecap:round;stroke-width:2.5200000000000005;"/>
   </g>
   <g id="line2d_49">
    <path clip-path="url(#pf414d274b4)" style="fill:none;stroke:#424242;stroke-linecap:round;stroke-width:2.5200000000000005;"/>
   </g>
   <g id="line2d_50">
    <path clip-path="url(#pf414d274b4)" style="fill:none;stroke:#424242;stroke-linecap:round;stroke-width:2.5200000000000005;"/>
   </g>
   <g id="line2d_51">
    <path clip-path="url(#pf414d274b4)" style="fill:none;stroke:#424242;stroke-linecap:round;stroke-width:2.5200000000000005;"/>
   </g>
   <g id="patch_14">
    <path d="M 57.6 277.2 
L 57.6 31.68 
" style="fill:none;"/>
   </g>
   <g id="patch_15">
    <path d="M 57.6 277.2 
L 414.72 277.2 
" style="fill:none;"/>
   </g>
   <g id="patch_16">
    <path d="M 414.72 277.2 
L 414.72 31.68 
" style="fill:none;"/>
   </g>
   <g id="patch_17">
    <path d="M 57.6 31.68 
L 414.72 31.68 
" style="fill:none;"/>
   </g>
   <g id="text_20">
    <!-- Trained Classifier Performance on Cross Validation Data -->
    <defs>
     <path d="M 19.671875 64.796875 
L 19.671875 37.40625 
L 32.078125 37.40625 
Q 38.96875 37.40625 42.71875 40.96875 
Q 46.484375 44.53125 46.484375 51.125 
Q 46.484375 57.671875 42.71875 61.234375 
Q 38.96875 64.796875 32.078125 64.796875 
z
M 9.8125 72.90625 
L 32.078125 72.90625 
Q 44.34375 72.90625 50.609375 67.359375 
Q 56.890625 61.8125 56.890625 51.125 
Q 56.890625 40.328125 50.609375 34.8125 
Q 44.34375 29.296875 32.078125 29.296875 
L 19.671875 29.296875 
L 19.671875 0 
L 9.8125 0 
z
" id="BitstreamVeraSans-Roman-50"/>
    </defs>
    <g style="fill:#262626;" transform="translate(101.44275 26.68)scale(0.09600000000000002 -0.09600000000000002)">
     <use xlink:href="#BitstreamVeraSans-Roman-54"/>
     <use x="60.865234375" xlink:href="#BitstreamVeraSans-Roman-72"/>
     <use x="101.978515625" xlink:href="#BitstreamVeraSans-Roman-61"/>
     <use x="163.2578125" xlink:href="#BitstreamVeraSans-Roman-69"/>
     <use x="191.041015625" xlink:href="#BitstreamVeraSans-Roman-6e"/>
     <use x="254.419921875" xlink:href="#BitstreamVeraSans-Roman-65"/>
     <use x="315.943359375" xlink:href="#BitstreamVeraSans-Roman-64"/>
     <use x="379.419921875" xlink:href="#BitstreamVeraSans-Roman-20"/>
     <use x="411.20703125" xlink:href="#BitstreamVeraSans-Roman-43"/>
     <use x="481.03125" xlink:href="#BitstreamVeraSans-Roman-6c"/>
     <use x="508.814453125" xlink:href="#BitstreamVeraSans-Roman-61"/>
     <use x="570.09375" xlink:href="#BitstreamVeraSans-Roman-73"/>
     <use x="622.193359375" xlink:href="#BitstreamVeraSans-Roman-73"/>
     <use x="674.29296875" xlink:href="#BitstreamVeraSans-Roman-69"/>
     <use x="702.076171875" xlink:href="#BitstreamVeraSans-Roman-66"/>
     <use x="737.28125" xlink:href="#BitstreamVeraSans-Roman-69"/>
     <use x="765.064453125" xlink:href="#BitstreamVeraSans-Roman-65"/>
     <use x="826.587890625" xlink:href="#BitstreamVeraSans-Roman-72"/>
     <use x="867.701171875" xlink:href="#BitstreamVeraSans-Roman-20"/>
     <use x="899.48828125" xlink:href="#BitstreamVeraSans-Roman-50"/>
     <use x="959.744140625" xlink:href="#BitstreamVeraSans-Roman-65"/>
     <use x="1021.267578125" xlink:href="#BitstreamVeraSans-Roman-72"/>
     <use x="1062.380859375" xlink:href="#BitstreamVeraSans-Roman-66"/>
     <use x="1097.5859375" xlink:href="#BitstreamVeraSans-Roman-6f"/>
     <use x="1158.767578125" xlink:href="#BitstreamVeraSans-Roman-72"/>
     <use x="1199.865234375" xlink:href="#BitstreamVeraSans-Roman-6d"/>
     <use x="1297.27734375" xlink:href="#BitstreamVeraSans-Roman-61"/>
     <use x="1358.556640625" xlink:href="#BitstreamVeraSans-Roman-6e"/>
     <use x="1421.935546875" xlink:href="#BitstreamVeraSans-Roman-63"/>
     <use x="1476.916015625" xlink:href="#BitstreamVeraSans-Roman-65"/>
     <use x="1538.439453125" xlink:href="#BitstreamVeraSans-Roman-20"/>
     <use x="1570.2265625" xlink:href="#BitstreamVeraSans-Roman-6f"/>
     <use x="1631.408203125" xlink:href="#BitstreamVeraSans-Roman-6e"/>
     <use x="1694.787109375" xlink:href="#BitstreamVeraSans-Roman-20"/>
     <use x="1726.57421875" xlink:href="#BitstreamVeraSans-Roman-43"/>
     <use x="1796.3984375" xlink:href="#BitstreamVeraSans-Roman-72"/>
     <use x="1837.48046875" xlink:href="#BitstreamVeraSans-Roman-6f"/>
     <use x="1898.662109375" xlink:href="#BitstreamVeraSans-Roman-73"/>
     <use x="1950.76171875" xlink:href="#BitstreamVeraSans-Roman-73"/>
     <use x="2002.861328125" xlink:href="#BitstreamVeraSans-Roman-20"/>
     <use x="2034.6484375" xlink:href="#BitstreamVeraSans-Roman-56"/>
     <use x="2102.947265625" xlink:href="#BitstreamVeraSans-Roman-61"/>
     <use x="2164.2265625" xlink:href="#BitstreamVeraSans-Roman-6c"/>
     <use x="2192.009765625" xlink:href="#BitstreamVeraSans-Roman-69"/>
     <use x="2219.79296875" xlink:href="#BitstreamVeraSans-Roman-64"/>
     <use x="2283.26953125" xlink:href="#BitstreamVeraSans-Roman-61"/>
     <use x="2344.548828125" xlink:href="#BitstreamVeraSans-Roman-74"/>
     <use x="2383.7578125" xlink:href="#BitstreamVeraSans-Roman-69"/>
     <use x="2411.541015625" xlink:href="#BitstreamVeraSans-Roman-6f"/>
     <use x="2472.72265625" xlink:href="#BitstreamVeraSans-Roman-6e"/>
     <use x="2536.1015625" xlink:href="#BitstreamVeraSans-Roman-20"/>
     <use x="2567.888671875" xlink:href="#BitstreamVeraSans-Roman-44"/>
     <use x="2644.890625" xlink:href="#BitstreamVeraSans-Roman-61"/>
     <use x="2706.169921875" xlink:href="#BitstreamVeraSans-Roman-74"/>
     <use x="2745.37890625" xlink:href="#BitstreamVeraSans-Roman-61"/>
    </g>
   </g>
  </g>
 </g>
 <defs>
  <clipPath id="pf414d274b4">
   <rect height="245.52" width="357.12" x="57.6" y="31.68"/>
  </clipPath>
 </defs>
</svg>
